<svg width="43" height="13" viewBox="0 0 43 13" fill="none" xmlns="http://www.w3.org/2000/svg">
<path d="M38.5788 0H30.3003C30.7825 2.73271 33.4349 5.30468 36.3283 5.30468H42.919C42.9994 5.06356 42.9993 4.66168 42.9993 4.42056C42.9993 2.00935 40.99 0 38.5788 0Z" fill="#9F9F9F"/>
<path d="M31.0256 5.78711V12.4581H35.0443V8.92168H38.5808C40.5097 8.92168 42.1976 7.55533 42.7602 5.78711H31.0256Z" fill="#818181"/>
<path d="M16.8784 0V12.3776H20.4149C20.4149 12.3776 21.299 12.3776 21.7812 11.4935C24.1924 6.7514 24.9158 5.30468 24.9158 5.30468H25.398V12.3776H29.4167V0H25.8803C25.8803 0 24.9962 0.0803787 24.5139 0.884117C22.5046 4.98318 21.3794 7.0729 21.3794 7.0729H20.8971V0H16.8784Z" fill="#818181"/>
<path d="M0 12.4576V0.0800781H4.01869C4.01869 0.0800781 5.14394 0.0800756 5.78693 1.8483C7.3944 6.50998 7.55516 7.15298 7.55516 7.15298C7.55516 7.15298 7.87664 6.02774 9.32337 1.8483C9.96636 0.0800756 11.0916 0.0800781 11.0916 0.0800781H15.1103V12.4576H11.0916V5.78663H10.6094L8.3589 12.4576H6.59066L4.34021 5.78663H3.85796V12.4576H0Z" fill="#818181"/>
</svg>
