<svg width="62" height="15" viewBox="0 0 62 15" fill="none" xmlns="http://www.w3.org/2000/svg">
<path d="M23.3341 6.42851C23.1754 7.61899 22.223 7.61899 21.35 7.61899H20.8738L21.2706 5.3174C21.2706 5.15867 21.4294 5.0793 21.5881 5.0793H21.8262C22.4611 5.0793 23.0167 5.0793 23.3341 5.39676C23.3341 5.71422 23.3341 6.03168 23.3341 6.42851ZM22.9373 3.25391H19.5246C19.2865 3.25391 19.1278 3.41264 19.0484 3.65073L17.6992 12.3809C17.6992 12.5396 17.7786 12.6984 18.0167 12.6984H19.604C19.8421 12.6984 20.0008 12.5396 20.0802 12.3015L20.477 9.92057C20.477 9.68248 20.7151 9.52375 20.9532 9.52375H22.0643C24.2865 9.52375 25.5564 8.41264 25.9532 6.26978C26.1119 5.3174 25.9532 4.60311 25.5564 4.04756C24.9214 3.57137 24.0484 3.25391 22.9373 3.25391Z" fill="#9F9F9F"/>
<path d="M30.7925 9.60286C30.6338 10.5552 29.9195 11.1902 28.9671 11.1902C28.4909 11.1902 28.0941 11.0314 27.856 10.714C27.6179 10.3965 27.5385 9.99969 27.6179 9.60286C27.7766 8.65048 28.4909 8.01556 29.4433 8.01556C29.9195 8.01556 30.3163 8.17429 30.5544 8.49175C30.7131 8.72985 30.8719 9.12667 30.7925 9.60286ZM33.0147 6.42826H31.4274C31.2687 6.42826 31.1893 6.50763 31.11 6.66636L31.0306 7.14255L30.9512 6.98382C30.6338 6.50763 29.8401 6.26953 29.0465 6.26953C27.2211 6.26953 25.7131 7.61874 25.3957 9.5235C25.237 10.4759 25.475 11.3489 26.0306 11.9838C26.5068 12.5394 27.2211 12.7775 28.0941 12.7775C29.5227 12.7775 30.3163 11.8251 30.3163 11.8251L30.237 12.3013C30.237 12.46 30.3163 12.6187 30.5544 12.6187H31.983C32.2211 12.6187 32.3798 12.46 32.4592 12.2219L33.3322 6.66636C33.3322 6.58699 33.2528 6.42826 33.0147 6.42826Z" fill="#9F9F9F"/>
<path d="M41.6663 6.42773H39.9996C39.8409 6.42773 39.6821 6.5071 39.6028 6.66583L37.3806 9.99916L36.4282 6.82456C36.3488 6.58646 36.1901 6.5071 35.952 6.5071H34.3647C34.2059 6.5071 34.0472 6.66583 34.1266 6.90392L35.952 12.142L34.2853 14.523C34.1266 14.6817 34.2853 14.9992 34.5234 14.9992H36.1901C36.3488 14.9992 36.5075 14.9198 36.5869 14.7611L41.9837 6.90392C42.0631 6.66583 41.9044 6.42773 41.6663 6.42773Z" fill="#9F9F9F"/>
<path d="M47.4599 6.42851C47.3011 7.61899 46.3488 7.61899 45.4757 7.61899H44.9996L45.3964 5.3174C45.3964 5.15867 45.5551 5.0793 45.7139 5.0793H45.9519C46.5869 5.0793 47.1424 5.0793 47.4599 5.39676C47.5392 5.71422 47.5392 6.03168 47.4599 6.42851ZM47.0631 3.25391H43.6504C43.4123 3.25391 43.2535 3.41264 43.1742 3.65073L41.825 12.3809C41.825 12.5396 41.9043 12.6984 42.1424 12.6984H43.8884C44.0472 12.6984 44.2059 12.619 44.2059 12.3809L44.6027 9.92057C44.6027 9.68248 44.8408 9.52375 45.0789 9.52375H46.19C48.4123 9.52375 49.6821 8.41264 50.0789 6.26978C50.2377 5.3174 50.0789 4.60311 49.6821 4.04756C49.1266 3.57137 48.2535 3.25391 47.0631 3.25391Z" fill="#8E8E8E"/>
<path d="M54.9988 9.60286C54.8401 10.5552 54.1258 11.1902 53.1734 11.1902C52.6972 11.1902 52.3004 11.0314 52.0623 10.714C51.8242 10.3965 51.7448 9.99969 51.8242 9.60286C51.9829 8.65048 52.6972 8.01556 53.6496 8.01556C54.1258 8.01556 54.5226 8.17429 54.7607 8.49175C54.9194 8.72985 55.0782 9.12667 54.9988 9.60286ZM57.221 6.42826H55.6337C55.475 6.42826 55.3956 6.50763 55.3163 6.66636L55.2369 7.14255L55.1575 6.98382C54.8401 6.50763 54.0464 6.26953 53.2528 6.26953C51.4274 6.26953 49.9194 7.61874 49.602 9.5235C49.4433 10.4759 49.6813 11.3489 50.2369 11.9838C50.7131 12.5394 51.4274 12.7775 52.3004 12.7775C53.729 12.7775 54.5226 11.8251 54.5226 11.8251L54.4433 12.3013C54.4433 12.46 54.5226 12.6187 54.7607 12.6187H56.1893C56.4274 12.6187 56.5861 12.46 56.6655 12.2219L57.5385 6.66636C57.5385 6.58699 57.3798 6.42826 57.221 6.42826Z" fill="#8E8E8E"/>
<path d="M59.1266 3.492L57.698 12.3809C57.698 12.5396 57.7774 12.6984 58.0155 12.6984H59.444C59.6821 12.6984 59.8409 12.5396 59.9202 12.3015L61.2694 3.57137C61.2694 3.41264 61.1901 3.25391 60.952 3.25391H59.3647C59.2853 3.25391 59.2059 3.41264 59.1266 3.492Z" fill="#8E8E8E"/>
<path d="M3.57303 14.3654L3.81111 12.6988H3.25556H0.477783L2.38255 0.555926C2.38255 0.555926 2.38254 0.476562 2.46191 0.476562H2.54128H7.22381C8.73175 0.476562 9.84286 0.794023 10.3984 1.42894C10.6365 1.7464 10.7952 2.06387 10.8746 2.38133C10.954 2.77815 10.954 3.17497 10.8746 3.73053V4.04799L11.1127 4.20672C11.3508 4.28609 11.5095 4.44482 11.6683 4.60355C11.9064 4.84164 12.0651 5.1591 12.0651 5.55593C12.1445 5.95275 12.1444 6.42894 11.9857 6.9845C11.827 7.61942 11.6683 8.09561 11.4302 8.5718C11.1921 8.96862 10.8746 9.28609 10.5571 9.60355C10.2397 9.84164 9.76349 10.0004 9.36667 10.1591C8.89048 10.2385 8.41429 10.3178 7.85874 10.3178H7.46191C7.22382 10.3178 6.98573 10.3972 6.74763 10.5559C6.5889 10.7147 6.43017 10.9528 6.35081 11.1908V11.3496L5.87461 14.2861V14.3654V14.4448C5.87461 14.4448 5.87461 14.4448 5.79524 14.4448H3.57303V14.3654Z" fill="#9F9F9F"/>
<path d="M11.4276 3.73047C11.4276 3.80983 11.4276 3.8892 11.3482 3.96857C10.7133 7.14317 8.6498 8.17491 5.95139 8.17491H4.60217C4.28471 8.17491 3.96726 8.41301 3.96726 8.73047L3.25297 13.1749L3.09424 14.4448C3.09424 14.6828 3.25296 14.8416 3.41169 14.8416H5.87202C6.18948 14.8416 6.42757 14.6035 6.42757 14.3654V14.2067L6.90376 11.3495V11.1908C6.98313 10.8733 7.22122 10.7146 7.45932 10.7146H7.85614C10.2371 10.7146 12.0625 9.76222 12.5387 6.98444C12.7768 5.79396 12.618 4.84158 12.0625 4.20666C11.9038 4.04793 11.6657 3.8892 11.4276 3.73047Z" fill="#8E8E8E"/>
<path d="M10.7939 3.492C10.7145 3.492 10.6352 3.41264 10.4764 3.41264C10.3971 3.41264 10.2383 3.33327 10.159 3.33327C9.76215 3.25391 9.36532 3.25391 8.9685 3.25391H5.31771C5.23834 3.25391 5.15898 3.25391 5.07961 3.33327C4.92088 3.41264 4.76216 3.57137 4.76216 3.7301L3.96851 8.65073V8.80946C4.04787 8.492 4.28596 8.25391 4.60342 8.25391H5.95263C8.65104 8.25391 10.7145 7.1428 11.3494 4.04756C11.3494 3.96819 11.3495 3.88883 11.4288 3.80946C11.2701 3.7301 11.1114 3.65073 10.9526 3.57137C10.8733 3.492 10.7939 3.492 10.7939 3.492Z" fill="#818181"/>
<path d="M4.7619 3.73016C4.7619 3.57143 4.92063 3.4127 5.07936 3.33333C5.15872 3.33333 5.23809 3.25397 5.31746 3.25397H8.96824C9.36507 3.25397 9.84126 3.25397 10.1587 3.33333C10.2381 3.33333 10.3968 3.33333 10.4762 3.4127C10.5556 3.4127 10.6349 3.49206 10.7936 3.49206C10.873 3.49206 10.873 3.49206 10.9524 3.57143C11.1111 3.65079 11.2698 3.73016 11.4286 3.80952C11.5873 2.61905 11.4286 1.82539 10.7936 1.11111C10.0794 0.317458 8.80951 0 7.22221 0H2.53968C2.22222 0 1.90476 0.238093 1.90476 0.555553L0 12.7778C0 13.0159 0.15873 13.254 0.396825 13.254H3.25396L3.96825 8.65079L4.7619 3.73016Z" fill="#9F9F9F"/>
</svg>
