<svg width="50" height="12" viewBox="0 0 50 12" fill="none" xmlns="http://www.w3.org/2000/svg">
<path fill-rule="evenodd" clip-rule="evenodd" d="M14.2329 4.75996C14.6941 4.90364 15.1458 5.073 15.5856 5.26713L16 4.19433C15.1557 3.79633 14.4001 3.52459 13.7148 3.35188C12.6747 1.3683 10.5043 0 8.00057 0C4.89517 0 2.30389 2.1037 1.74358 4.87688C1.29075 4.73468 0.847117 4.56774 0.414922 4.37691L0 5.44945C0.585255 5.72546 1.12686 5.93927 1.63248 6.10264C1.63985 6.50063 1.68746 6.88902 1.77334 7.26433C1.31041 7.1197 0.856917 6.94955 0.415205 6.75475L0.000283261 7.82809C0.850816 8.22876 1.61066 8.5005 2.29936 8.67321C3.34488 10.6434 5.50678 12 8.00085 12C11.098 12 13.6851 9.90751 14.2536 7.14368C14.7075 7.28635 15.1523 7.45373 15.5856 7.64498L16 6.57244C15.4156 6.2967 14.874 6.08288 14.3687 5.91979C14.3639 5.52992 14.3184 5.14144 14.2329 4.75996ZM8.00085 1.29436C9.59762 1.29436 11.0204 2.0052 11.9361 3.10737C8.4597 3.06013 6.94059 5.77858 3.08045 5.18999C3.48999 2.98005 5.53909 1.29436 8.00085 1.29436ZM3.02774 6.44431C7.20417 7.11351 8.64817 3.92125 12.7067 4.42442C12.8456 4.79066 12.9368 5.17691 12.9751 5.57784C8.80008 4.90784 7.35466 8.0961 3.30265 7.59773C3.15933 7.22583 3.06694 6.83823 3.02774 6.44431ZM8.00085 10.7051C6.414 10.7051 4.9989 10.0044 4.08318 8.91425C7.54597 8.95242 9.06593 6.24651 12.9164 6.83136C12.4981 9.02983 10.4538 10.7051 8.00085 10.7051Z" fill="#9F9F9F"/>
<path fill-rule="evenodd" clip-rule="evenodd" d="M19.6551 4.08266L18 8.91569H19.8105L20.1278 7.87299H21.5455L21.8695 8.91569H23.7734L22.0923 4.08266H19.6551ZM20.85 5.22892L21.343 6.74103H20.3371L20.8229 5.22892H20.85ZM27.844 4.16552C27.3293 4.05286 26.8043 3.9974 26.2779 4.0001C24.2729 4.0001 23.8407 4.89079 23.8407 5.56734C23.8407 6.75474 24.8807 6.95517 25.5619 7.09987C25.9134 7.17602 26.3319 7.21044 26.3319 7.50044C26.3319 7.79743 25.8455 7.83886 25.5217 7.83886C25.1366 7.83886 24.5764 7.79043 23.8946 7.51444V8.77098C24.644 8.96558 25.3728 9 25.8452 9C27.9111 9 28.1541 7.92171 28.1541 7.37645C28.1541 6.16133 27.0878 5.98862 26.2503 5.82291C25.9468 5.76748 25.6629 5.71234 25.6629 5.48449C25.6629 5.16707 26.0814 5.16007 26.4397 5.16007C27.0944 5.16007 27.5399 5.29135 27.8437 5.40864V4.16552H27.844ZM32.4952 4.16552C31.9805 4.05283 31.4554 3.99737 30.9291 4.0001C28.9246 4.0001 28.4921 4.89079 28.4921 5.56734C28.4921 6.75474 29.5319 6.95517 30.2137 7.09987C30.5645 7.17602 30.983 7.21044 30.983 7.50044C30.983 7.79743 30.4972 7.83886 30.1729 7.83886C29.7883 7.83886 29.2281 7.79043 28.546 7.51444V8.77098C29.2954 8.96558 30.0248 9 30.4972 9C32.5625 9 32.8055 7.92171 32.8055 7.37645C32.8055 6.16133 31.7392 5.98862 30.9023 5.82291C30.5982 5.76748 30.3149 5.71234 30.3149 5.48449C30.3149 5.16707 30.7334 5.16007 31.0911 5.16007C31.7458 5.16007 32.1914 5.29135 32.4952 5.40864V4.16552ZM33.3458 4.08266V8.91569H35.1549V4.08266H33.3458ZM39.6985 4.16552C39.1837 4.05283 38.6584 3.99736 38.1319 4.0001C36.1274 4.0001 35.6949 4.89079 35.6949 5.56734C35.6949 6.75474 36.7347 6.95517 37.4165 7.09987C37.7673 7.17602 38.1864 7.21044 38.1864 7.50044C38.1864 7.79743 37.7 7.83886 37.3757 7.83886C36.9911 7.83886 36.4309 7.79043 35.7488 7.51444V8.77098C36.4982 8.96558 37.2276 9 37.7 9C39.7659 9 40.0089 7.92171 40.0089 7.37645C40.0089 6.16133 38.9426 5.98862 38.1051 5.82291C37.8016 5.76748 37.5177 5.71234 37.5177 5.48449C37.5177 5.16707 37.9362 5.16007 38.2939 5.16007C38.9492 5.16007 39.3942 5.29135 39.6985 5.40864V4.16552ZM40.2451 4.08266V5.51191H41.8383V8.91569H43.6474V5.51191H45.2403V4.08266H40.2451ZM46.8494 4.11037V4.20402H47.1875V5.26247H47.2936V4.20402H47.6299V4.11037H46.8494ZM48.4044 5.15861L48.3576 5.00574L47.9828 4.11037H47.815V5.26247H47.9214V4.37032L47.918 4.21394H47.9246L47.9793 4.36536L48.3525 5.26247H48.4623L48.8357 4.36536L48.8902 4.21394H48.897L48.8936 4.37032V5.26247H49V4.11037H48.8323L48.4574 5.00574L48.4107 5.15861H48.4044Z" fill="#9F9F9F"/>
</svg>
