<svg width="37" height="21" viewBox="0 0 37 21" fill="none" xmlns="http://www.w3.org/2000/svg">
<g clip-path="url(#clip0_122_8082)">
<path d="M36.7143 10.5C36.7143 16.2615 31.9155 21 25.9585 21C20.0565 21 15.2026 16.2615 15.2026 10.5C15.2026 4.73846 20.0014 0 25.9033 0C31.9155 0 36.7143 4.73846 36.7143 10.5Z" fill="#C6C6C6"/>
<path d="M22.3168 10.5538C22.3168 9.8 22.2065 9.04615 22.0962 8.34615H15.4772C15.5324 7.96923 15.6427 7.64615 15.753 7.21538H21.6549C21.5446 6.83846 21.3791 6.46154 21.2137 6.08462H16.1943C16.3598 5.70769 16.5804 5.38462 16.801 4.95385H20.6069C20.3863 4.57692 20.1105 4.2 19.7796 3.82308H17.6835C18.0145 3.44615 18.3454 3.12308 18.7867 2.74615C16.9113 1.02308 14.3741 0 11.561 0C5.71426 0.161538 0.860352 4.73846 0.860352 10.5C0.860352 16.2615 5.6591 21 11.6162 21C14.4292 21 16.9113 19.9231 18.8419 18.2538C19.228 17.9308 19.5589 17.5538 19.945 17.1231H17.7387C17.4629 16.8 17.1871 16.4231 16.9665 16.0462H20.7172C20.9379 15.7231 21.1585 15.3462 21.324 14.9154H16.3046C16.1391 14.5923 15.9736 14.2154 15.8633 13.7846H21.7652C22.0962 12.8154 22.3168 11.7385 22.3168 10.5538Z" fill="#9F9F9F"/>
<path d="M15.4218 13.193L15.5873 12.2237C15.5321 12.2237 15.4218 12.2776 15.3115 12.2776C14.9254 12.2776 14.8703 12.0622 14.9254 11.9545L15.2564 10.016H15.8631L16.0286 8.93912H15.477L15.5873 8.29297H14.429C14.429 8.29297 13.7671 11.9545 13.7671 12.3853C13.7671 13.0314 14.1532 13.3545 14.7048 13.3545C15.0357 13.3545 15.3115 13.2468 15.4218 13.193Z" fill="#C6C6C6"/>
<path d="M15.8076 11.4144C15.8076 12.976 16.9108 13.3529 17.7933 13.3529C18.6207 13.3529 19.0068 13.1914 19.0068 13.1914L19.2274 12.1144C19.2274 12.1144 18.6207 12.3837 18.0139 12.3837C16.7453 12.3837 16.9659 11.4683 16.9659 11.4683H19.2826C19.2826 11.4683 19.448 10.7683 19.448 10.4452C19.448 9.7452 19.0619 8.82982 17.7933 8.82982C16.6901 8.77597 15.8076 10.0144 15.8076 11.4144ZM17.7933 9.79905C18.4 9.79905 18.2897 10.499 18.2897 10.5529H17.0211C17.0763 10.499 17.1866 9.79905 17.7933 9.79905Z" fill="#C6C6C6"/>
<path d="M25.0185 13.1924L25.2392 11.9539C25.2392 11.9539 24.6876 12.2231 24.2463 12.2231C23.4741 12.2231 23.088 11.6308 23.088 10.9308C23.088 9.58468 23.7499 8.88468 24.5773 8.88468C25.1288 8.88468 25.6253 9.20775 25.6253 9.20775L25.7907 8.02314C25.7907 8.02314 25.1288 7.75391 24.4669 7.75391C23.1431 7.75391 21.8745 8.88468 21.8745 10.9847C21.8745 12.3847 22.5364 13.3001 23.9154 13.3001C24.4118 13.3539 25.0185 13.1924 25.0185 13.1924Z" fill="#9F9F9F"/>
<path d="M9.18949 8.77734C8.41728 8.77734 7.81054 8.99273 7.81054 8.99273L7.64507 9.96196C7.64507 9.96196 8.14149 9.74658 8.9137 9.74658C9.29981 9.74658 9.63076 9.80042 9.63076 10.1235C9.63076 10.3389 9.5756 10.3927 9.5756 10.3927H9.07918C8.08633 10.3927 7.03833 10.7697 7.03833 12.062C7.03833 13.085 7.70023 13.3004 8.14149 13.3004C8.9137 13.3004 9.29981 12.8158 9.35497 12.8158L9.29981 13.2466H10.2375L10.6788 10.1773C10.6788 8.83119 9.5756 8.77734 9.18949 8.77734ZM9.41013 11.2543C9.41013 11.4158 9.29981 12.3312 8.63791 12.3312C8.30696 12.3312 8.19665 12.062 8.19665 11.9004C8.19665 11.6312 8.36212 11.2543 9.24465 11.2543C9.35497 11.2543 9.41013 11.2543 9.41013 11.2543Z" fill="#C6C6C6"/>
<path d="M11.7818 13.2996C12.0576 13.2996 13.4917 13.3534 13.4917 11.8457C13.4917 10.4457 12.1127 10.715 12.1127 10.1765C12.1127 9.90727 12.3334 9.79958 12.7195 9.79958C12.8849 9.79958 13.4917 9.85342 13.4917 9.85342L13.6572 8.83035C13.6572 8.83035 13.271 8.72266 12.554 8.72266C11.7266 8.72266 10.8441 9.04573 10.8441 10.1765C10.8441 11.4688 12.2782 11.3611 12.2782 11.8457C12.2782 12.1688 11.8921 12.2227 11.6163 12.2227C11.1199 12.2227 10.5683 12.0611 10.5683 12.0611L10.4028 13.0842C10.5131 13.1919 10.8441 13.2996 11.7818 13.2996Z" fill="#C6C6C6"/>
<path d="M34.5065 7.91602L34.2859 9.42371C34.2859 9.42371 33.8446 8.88525 33.1827 8.88525C32.1347 8.88525 31.2522 10.1237 31.2522 11.5776C31.2522 12.4929 31.6935 13.4083 32.6863 13.4083C33.3482 13.4083 33.7895 12.9776 33.7895 12.9776L33.7343 13.3545H34.8926L35.72 8.02371L34.5065 7.91602ZM33.9549 10.8237C33.9549 11.416 33.6792 12.2237 33.0173 12.2237C32.6311 12.2237 32.4105 11.9006 32.4105 11.3083C32.4105 10.3929 32.7966 9.85448 33.3482 9.85448C33.7343 9.90832 33.9549 10.1776 33.9549 10.8237Z" fill="#9F9F9F"/>
<path d="M2.95497 13.2468L3.61686 9.26217L3.72718 13.2468H4.49939L5.98866 9.26217L5.38192 13.2468H6.5954L7.53308 7.91602H5.65771L4.49939 11.2006L4.44423 7.91602H2.78949L1.85181 13.2468H2.95497Z" fill="#C6C6C6"/>
<path d="M20.6055 13.2463C20.9365 11.4155 20.9917 9.90784 21.819 10.1771C21.9293 9.47707 22.0948 9.154 22.2051 8.88477H21.9845C21.4881 8.88477 21.0468 9.53092 21.0468 9.53092L21.1571 8.93861H20.054L19.3369 13.2463H20.6055Z" fill="#C6C6C6"/>
<path d="M27.6658 8.77734C26.8936 8.77734 26.2869 8.99273 26.2869 8.99273L26.1214 9.96196C26.1214 9.96196 26.6178 9.74658 27.39 9.74658C27.7761 9.74658 28.1071 9.80042 28.1071 10.1235C28.1071 10.3389 28.0519 10.3927 28.0519 10.3927H27.5555C26.5627 10.3927 25.5146 10.7697 25.5146 12.062C25.5146 13.085 26.1765 13.3004 26.6178 13.3004C27.39 13.3004 27.7761 12.8158 27.8313 12.8158L27.7761 13.2466H28.8241L29.2654 10.1773C29.2654 8.83119 28.0519 8.77734 27.6658 8.77734ZM27.9416 11.2543C27.9416 11.4158 27.8313 12.3312 27.1694 12.3312C26.8384 12.3312 26.7281 12.062 26.7281 11.9004C26.7281 11.6312 26.8936 11.2543 27.7761 11.2543C27.8864 11.2543 27.8864 11.2543 27.9416 11.2543Z" fill="#9F9F9F"/>
<path d="M30.1478 13.2463C30.4787 11.4155 30.5339 9.90784 31.3613 10.1771C31.4716 9.47707 31.6371 9.154 31.7474 8.88477H31.5267C31.0303 8.88477 30.5891 9.53092 30.5891 9.53092L30.6994 8.93861H29.5962L28.8792 13.2463H30.1478Z" fill="#9F9F9F"/>
</g>
<defs>
<clipPath id="clip0_122_8082">
<rect width="37" height="21" fill="white"/>
</clipPath>
</defs>
</svg>
