<svg width="43" height="26" viewBox="0 0 43 26" fill="none" xmlns="http://www.w3.org/2000/svg">
<g clip-path="url(#clip0_122_8096)">
<path d="M40.1083 6.25781H37.4051C36.5878 6.25781 35.9592 6.51122 35.582 7.33481L30.427 19.1818H34.0732C34.0732 19.1818 34.7019 17.598 34.8276 17.2179C35.2048 17.2179 38.7881 17.2179 39.291 17.2179C39.4168 17.6613 39.7311 19.1185 39.7311 19.1185H43.0001L40.1083 6.25781ZM35.8334 14.557C36.1478 13.7968 37.2165 10.9459 37.2165 10.9459C37.2165 11.0093 37.5308 10.1857 37.6565 9.74222L37.908 10.8826C37.908 10.8826 38.5995 13.9869 38.7253 14.6204H35.8334V14.557Z" fill="#C6C6C6"/>
<path d="M30.6782 14.9358C30.6782 17.5966 28.2894 19.3705 24.5803 19.3705C23.0086 19.3705 21.4999 19.0538 20.6826 18.6736L21.1855 15.7594L21.6256 15.9495C22.7572 16.4563 23.5116 16.6463 24.8946 16.6463C25.9005 16.6463 26.9692 16.2662 26.9692 15.3793C26.9692 14.8091 26.5291 14.429 25.1461 13.7955C23.8259 13.1619 22.0657 12.1483 22.0657 10.3111C22.0657 7.77694 24.5174 6.06641 27.975 6.06641C29.2952 6.06641 30.4268 6.31982 31.1183 6.63658L30.6154 9.42411L30.3639 9.1707C29.7353 8.91729 28.918 8.66388 27.7236 8.66388C26.4034 8.72723 25.7747 9.29741 25.7747 9.80423C25.7747 10.3744 26.5291 10.8179 27.7236 11.3881C29.7353 12.3383 30.6782 13.4153 30.6782 14.9358Z" fill="#C6C6C6"/>
<path d="M0 6.38232L0.0628656 6.12891H5.46931C6.22369 6.12891 6.78948 6.38232 6.97808 7.20591L8.17253 12.9077C6.97808 9.86673 4.21199 7.39596 0 6.38232Z" fill="#9F9F9F"/>
<path d="M15.7792 6.25671L10.3099 19.1174H6.6008L3.45752 8.34736C5.72068 9.80448 7.60665 12.0852 8.29817 13.669L8.67536 14.9994L12.0701 6.19336H15.7792V6.25671Z" fill="#C6C6C6"/>
<path d="M17.2252 6.19336H20.6828L18.4825 19.1174H15.0249L17.2252 6.19336Z" fill="#C6C6C6"/>
</g>
<defs>
<clipPath id="clip0_122_8096">
<rect width="43" height="26" fill="white"/>
</clipPath>
</defs>
</svg>
