<svg width="20" height="18" viewBox="0 0 20 18" fill="none" xmlns="http://www.w3.org/2000/svg">
<path d="M19.9657 7.32918C19.8611 6.72801 19.2862 6.32723 18.5022 6.32723C18.2409 6.32723 18.0318 6.32723 17.7705 6.32723C17.3001 6.27713 17.1956 6.42743 17.1956 6.77811C17.1956 8.53153 17.1956 10.2349 17.1956 11.9883C17.1956 12.89 16.2548 13.8419 15.1572 14.0423C11.7076 14.7937 8.25805 15.4951 4.80848 16.2466C4.44262 16.3468 4.02449 16.3468 3.60636 16.3468C3.44956 16.3468 3.18824 16.2466 3.13597 16.0963C3.0837 15.9961 3.2405 15.7957 3.34503 15.6955C3.50183 15.5953 3.7109 15.4951 3.91996 15.3949C4.54716 15.1945 5.22661 14.9941 5.8538 14.7937C8.41485 13.9922 10.9759 13.1906 13.5369 12.339C14.6868 11.9883 15.314 11.2368 15.314 10.285C15.3663 7.27909 15.314 4.22312 15.314 1.21726C15.314 0.716284 15.0527 0.315504 14.4777 0.115113C13.7983 -0.135376 13.1711 0.0650122 12.5961 0.315501C8.9375 1.96873 5.33114 3.62196 1.67251 5.27518C0.627185 5.77616 0 6.47752 0 7.47948C0 10.335 0 13.1906 0 16.0462C0 16.1965 -1.27611e-05 16.3468 0.0522534 16.447C0.418117 17.3988 1.35892 18 2.61331 18C5.17435 18 7.73538 18 10.2964 18C12.8575 18 15.3663 18 17.9273 18C18.5022 18 18.9726 17.8998 19.3907 17.5491C19.9134 17.1483 19.9134 16.5973 19.9134 16.0963C19.9134 13.2908 19.9134 10.5354 19.9134 7.72997C20.0179 7.67987 20.0179 7.47948 19.9657 7.32918ZM9.30337 6.42743C9.5647 5.77616 10.1396 5.37538 10.9759 5.27518C11.5508 5.22508 12.0212 5.52567 12.1257 6.02665C12.2303 6.77811 11.2895 7.67987 10.2964 7.67987C9.51243 7.67987 9.04204 7.1288 9.30337 6.42743Z" fill="#9F9F9F"/>
</svg>
