<svg width="18" height="18" viewBox="0 0 18 18" fill="none" xmlns="http://www.w3.org/2000/svg">
<path d="M13.8385 11.3175C14.1375 11.4457 14.2656 11.8728 14.2656 12.0863C14.3084 12.428 14.2229 12.5988 14.0948 12.5988C13.9667 12.5988 13.7958 12.4707 13.625 12.1717C13.4542 11.8728 13.3687 11.5738 13.4542 11.403C13.5823 11.3175 13.7104 11.2748 13.8385 11.3175Z" fill="#9F9F9F"/>
<path d="M12.0868 12.6406C12.2576 12.6406 12.4711 12.726 12.6847 12.8969C13.0264 13.1958 13.1545 13.5375 12.9837 13.7938C12.8982 13.9219 12.6847 14.0073 12.5139 14.0073C12.3003 14.0073 12.0868 13.9219 11.9586 13.7938C11.617 13.4948 11.5315 13.0677 11.7451 12.8115C11.7878 12.726 11.9159 12.6406 12.0868 12.6406Z" fill="#9F9F9F"/>
<path d="M8.02935 16.016C3.58758 16.016 0 12.4284 0 8.02935C0 3.63029 3.58758 0 8.02935 0C12.4711 0 16.0587 3.58758 16.0587 8.02935C16.0587 9.52418 15.6316 10.9336 14.9483 12.1295C14.9056 12.1722 14.8628 12.1722 14.8628 12.0867C14.5639 10.1221 13.368 9.05438 11.6596 8.7127C11.4888 8.66999 11.4888 8.58458 11.7024 8.58458C12.2576 8.54187 12.9836 8.54187 13.4107 8.62729C13.4534 8.41374 13.4534 8.20019 13.4534 8.02935C13.4534 5.12512 11.0617 2.7334 8.15748 2.7334C5.25325 2.7334 2.86153 5.12512 2.86153 8.02935C2.86153 10.9336 5.25325 13.3253 8.15748 13.3253H8.41374C8.32832 12.8555 8.28561 12.3857 8.32832 11.8732C8.32832 11.5315 8.41374 11.4888 8.54187 11.7451C9.26792 13.0263 10.3357 14.1368 12.3857 14.6066C14.0514 14.991 15.717 15.4181 17.5535 17.6817C17.7244 17.8952 17.4681 18.1088 17.2973 17.9379C15.4608 16.315 13.7951 15.7597 12.2576 15.7597C10.3357 15.8025 9.18251 16.016 8.02935 16.016Z" fill="#9F9F9F"/>
</svg>
