<svg width="19" height="18" viewBox="0 0 19 18" fill="none" xmlns="http://www.w3.org/2000/svg">
<path d="M11.5652 8.65217L9.6087 6.52174L7.43478 8.43478L9.3913 10.6087L11.5652 8.65217Z" fill="#9F9F9F"/>
<path d="M5.86956 4.78261L7.82609 6.91304L10 5L8.04348 2.86957L5.86956 4.78261Z" fill="#9F9F9F"/>
<path d="M13.087 12.3478L11.1304 10.2174L8.95652 12.1739L10.913 14.3043L13.087 12.3478Z" fill="#9F9F9F"/>
<path d="M10.8261 15.913L7.26087 11.9565L8.26087 11.087L5.73913 8.30435L6.73913 7.43478L4.21739 4.65217L8.17391 1.13043L9.43478 2.47826L11.6087 0.608696L12.8696 1.91304L13.6957 1.17391C13.5217 1.08696 13.3043 0.956522 13.1304 0.869565C11.8696 0.347826 10.5217 0 9.08696 0C4.08696 0 0 4.04348 0 9C0 13.9565 4.08696 18 9.13043 18C10.7826 18 12.3043 17.5652 13.6087 16.8261C14.0435 16.5652 14.4348 16.3043 14.8261 16.0435L13 14L10.8261 15.913Z" fill="#9F9F9F"/>
<path d="M9.86957 3.73913L11.3043 5.34783L12.9565 3.91304L11.4783 2.30435L9.86957 3.73913Z" fill="#9F9F9F"/>
<path d="M14.4348 7.13043L12.9565 5.52174L11.3478 7L12.8261 8.56522L14.4348 7.13043Z" fill="#9F9F9F"/>
<path d="M15.8261 10.5217L14.3478 8.91304L12.7391 10.3478L14.2174 12L15.8261 10.5217Z" fill="#9F9F9F"/>
<path d="M15.913 5.21739L14.8261 6.17391L15.8261 7.26087L16.8696 6.30435L15.913 5.21739Z" fill="#9F9F9F"/>
<path d="M16.2174 9.34783L17.1739 10.4348L18.2609 9.47826L17.2609 8.3913L16.2174 9.34783Z" fill="#9F9F9F"/>
<path d="M13.4348 3L14.4348 4.08696L15.4783 3.13043L14.5217 2.04348L13.4348 3Z" fill="#9F9F9F"/>
<path d="M14.1739 13.6087L15.6522 15.2174L17.2609 13.7826L15.7826 12.1739L14.1739 13.6087Z" fill="#9F9F9F"/>
</svg>
