<svg width="22" height="18" viewBox="0 0 22 18" fill="none" xmlns="http://www.w3.org/2000/svg">
<path d="M8.09827 3.77052H20.6047L16.8866 11.3894H7.76026L3.36609 1H1" stroke="#333333" stroke-width="1.5" stroke-linecap="round" stroke-linejoin="round"/>
<path d="M9.04053 15.5466C9.04053 16.2973 8.45126 16.8745 7.76245 16.8745C7.07364 16.8745 6.48438 16.2973 6.48438 15.5466C6.48438 14.796 7.07364 14.2188 7.76245 14.2188C8.45126 14.2188 9.04053 14.796 9.04053 15.5466Z" stroke="#333333" stroke-width="1.5"/>
<path d="M17.8257 15.5466C17.8257 16.2973 17.2364 16.8745 16.5476 16.8745C15.8588 16.8745 15.2695 16.2973 15.2695 15.5466C15.2695 14.796 15.8588 14.2188 16.5476 14.2188C17.2364 14.2188 17.8257 14.796 17.8257 15.5466Z" stroke="#333333" stroke-width="1.5"/>
</svg>
