<svg width="21" height="21" viewBox="0 0 21 21" fill="none" xmlns="http://www.w3.org/2000/svg">
<path d="M3.20349 20.2795H16.9724C18.7387 20.2795 20.1759 18.8424 20.1759 17.076V4.96871C20.1759 3.20236 18.7387 1.76522 16.9724 1.76522H16.4641V0.639031C16.4641 0.286167 16.1779 0 15.825 0C15.4722 0 15.186 0.286167 15.186 0.639031V1.76522H12.6393V0.639031C12.6393 0.286167 12.3534 0 12.0003 0C11.6472 0 11.3613 0.286167 11.3613 0.639031V1.76522H8.81462V0.639031C8.81462 0.286167 8.52845 0 8.17559 0C7.82272 0 7.53655 0.286167 7.53655 0.639031V1.76522H4.98989V0.639031C4.98989 0.286167 4.70395 0 4.35086 0C3.998 0 3.71183 0.286167 3.71183 0.639031V1.76522H3.20349C1.43714 1.76522 2.64931e-08 3.20236 2.64931e-08 4.96871V17.0758C-0.000225302 18.8424 1.43692 20.2795 3.20349 20.2795ZM1.4216 4.96871C1.4216 3.98628 2.22084 3.18704 3.20327 3.18704H3.71161V4.30309C3.71161 4.65596 3.99777 4.94212 4.35064 4.94212C4.7035 4.94212 4.98967 4.65596 4.98967 4.30309V3.18704H7.53633V4.30309C7.53633 4.65596 7.8225 4.94212 8.17536 4.94212C8.52822 4.94212 8.81439 4.65596 8.81439 4.30309V3.18704H11.3611V4.30309C11.3611 4.65596 11.6472 4.94212 12.0001 4.94212C12.3529 4.94212 12.6391 4.65596 12.6391 4.30309V3.18704H15.1858V4.30309C15.1858 4.65596 15.4719 4.94212 15.8248 4.94212C16.1777 4.94212 16.4638 4.65596 16.4638 4.30309V3.18704H16.9722C17.9546 3.18704 18.7538 3.98628 18.7538 4.96871V17.0758C18.7538 18.0583 17.9546 18.8575 16.9722 18.8575H3.20349C2.22106 18.8575 1.42182 18.0583 1.42182 17.0758V4.96871H1.4216Z" fill="#A9A9A9"/>
<path d="M6.34381 6.81641H4.13019V8.78758H6.34381V6.81641Z" fill="#A9A9A9"/>
<path d="M11.1948 6.81641H8.9812V8.78758H11.1948V6.81641Z" fill="#A9A9A9"/>
<path d="M16.0455 6.81641H13.8319V8.78758H16.0455V6.81641Z" fill="#A9A9A9"/>
<path d="M6.34381 10.543H4.13019V12.5141H6.34381V10.543Z" fill="#A9A9A9"/>
<path d="M11.1948 10.543H8.9812V12.5141H11.1948V10.543Z" fill="#A9A9A9"/>
<path d="M16.0455 10.543H13.8319V12.5141H16.0455V10.543Z" fill="#A9A9A9"/>
<path d="M6.34381 14.2695H4.13019V16.2407H6.34381V14.2695Z" fill="#A9A9A9"/>
<path d="M11.1948 14.2695H8.9812V16.2407H11.1948V14.2695Z" fill="#A9A9A9"/>
</svg>
