<svg width="15" height="15" viewBox="0 0 15 15" fill="none" xmlns="http://www.w3.org/2000/svg">
<path d="M7.5 0C3.36772 0 0 3.36772 0 7.5C0 11.6323 3.36772 15 7.5 15C11.6323 15 15 11.6323 15 7.5C15 3.36772 11.6323 0 7.5 0ZM1.09224 7.5C1.09224 3.96845 3.96845 1.09224 7.5 1.09224C9.08374 1.09224 10.5219 1.65656 11.6323 2.60315L2.60315 11.6323C1.65656 10.5218 1.09224 9.08374 1.09224 7.5ZM7.5 13.9078C5.93445 13.9078 4.49636 13.3434 3.38594 12.415L12.415 3.38594C13.3434 4.49636 13.9078 5.93449 13.9078 7.5C13.9078 11.0316 11.0316 13.9078 7.5 13.9078Z" fill="white"/>
</svg>
