<svg width="42" height="39" viewBox="0 0 42 39" fill="none" xmlns="http://www.w3.org/2000/svg">
<path d="M15.399 0C14.071 0 12.9844 1.09687 12.9844 2.4375V36.5625C12.9844 37.9031 14.071 39 15.399 39H39.5456C40.8736 39 41.9602 37.9031 41.9602 36.5625V9.75L32.3016 0H15.399Z" fill="#E2E5E7"/>
<path d="M35.2169 9H41.9613L32.9688 0V6.75C32.9688 7.9875 33.9804 9 35.2169 9Z" fill="#B0B7BD"/>
<path d="M41.9621 17L33.9688 9H41.9621V17Z" fill="#CAD1D8"/>
<path d="M37.9683 30.8333C37.9683 31.475 37.2564 32 36.3863 32H1.58201C0.711906 32 0 31.475 0 30.8333V19.1667C0 18.525 0.711906 18 1.58201 18H36.3863C37.2564 18 37.9683 18.525 37.9683 19.1667V30.8333Z" fill="#4254F1"/>
<path d="M35.7654 32.5H12.9844V34H35.7654C36.4248 34 36.9644 33.325 36.9644 32.5V31C36.9644 31.825 36.4248 32.5 35.7654 32.5Z" fill="#CAD1D8"/>
<path d="M4.75125 20.6C4.91925 20.576 5.10725 20.556 5.31525 20.54C5.53125 20.524 5.75125 20.512 5.97525 20.504C6.19925 20.496 6.41525 20.492 6.62325 20.492C6.83925 20.484 7.03125 20.48 7.19925 20.48C7.94325 20.48 8.57925 20.584 9.10725 20.792C9.63525 21 10.0633 21.292 10.3913 21.668C10.7193 22.044 10.9593 22.492 11.1113 23.012C11.2633 23.532 11.3393 24.104 11.3393 24.728C11.3393 25.296 11.2673 25.844 11.1233 26.372C10.9793 26.9 10.7393 27.368 10.4033 27.776C10.0673 28.184 9.62325 28.512 9.07125 28.76C8.52725 29.008 7.85125 29.132 7.04325 29.132C6.91525 29.132 6.74325 29.128 6.52725 29.12C6.31925 29.112 6.09925 29.1 5.86725 29.084C5.64325 29.076 5.42725 29.064 5.21925 29.048C5.01125 29.04 4.85525 29.028 4.75125 29.012V20.6ZM7.33125 21.944C7.15525 21.944 6.97525 21.948 6.79125 21.956C6.61525 21.964 6.48325 21.976 6.39525 21.992V27.62C6.42725 27.628 6.47925 27.636 6.55125 27.644C6.63125 27.644 6.71525 27.648 6.80325 27.656C6.89125 27.656 6.97525 27.66 7.05525 27.668C7.13525 27.668 7.19525 27.668 7.23525 27.668C7.69925 27.668 8.08325 27.588 8.38725 27.428C8.69925 27.26 8.94325 27.04 9.11925 26.768C9.30325 26.496 9.43125 26.184 9.50325 25.832C9.57525 25.472 9.61125 25.104 9.61125 24.728C9.61125 24.4 9.57925 24.072 9.51525 23.744C9.45125 23.408 9.33125 23.108 9.15525 22.844C8.98725 22.58 8.75525 22.364 8.45925 22.196C8.16325 22.028 7.78725 21.944 7.33125 21.944ZM12.2568 24.8C12.2568 23.4 12.5648 22.324 13.1808 21.572C13.7968 20.812 14.6768 20.432 15.8208 20.432C16.4208 20.432 16.9448 20.536 17.3928 20.744C17.8408 20.952 18.2128 21.248 18.5088 21.632C18.8048 22.016 19.0248 22.476 19.1688 23.012C19.3128 23.548 19.3848 24.144 19.3848 24.8C19.3848 26.2 19.0728 27.28 18.4488 28.04C17.8328 28.792 16.9568 29.168 15.8208 29.168C15.2128 29.168 14.6848 29.064 14.2368 28.856C13.7888 28.648 13.4168 28.352 13.1208 27.968C12.8328 27.584 12.6168 27.124 12.4728 26.588C12.3288 26.052 12.2568 25.456 12.2568 24.8ZM13.9848 24.8C13.9848 25.224 14.0208 25.616 14.0928 25.976C14.1648 26.328 14.2728 26.632 14.4168 26.888C14.5688 27.144 14.7608 27.344 14.9928 27.488C15.2248 27.632 15.5008 27.704 15.8208 27.704C16.4048 27.704 16.8568 27.476 17.1768 27.02C17.4968 26.564 17.6568 25.824 17.6568 24.8C17.6568 24.392 17.6208 24.012 17.5488 23.66C17.4848 23.308 17.3808 23 17.2368 22.736C17.0928 22.472 16.9048 22.268 16.6728 22.124C16.4408 21.972 16.1568 21.896 15.8208 21.896C15.2368 21.896 14.7848 22.132 14.4648 22.604C14.1448 23.068 13.9848 23.8 13.9848 24.8ZM26.2478 28.652C25.9918 28.836 25.6638 28.968 25.2638 29.048C24.8718 29.128 24.4678 29.168 24.0518 29.168C23.5478 29.168 23.0678 29.092 22.6118 28.94C22.1638 28.78 21.7678 28.528 21.4238 28.184C21.0798 27.832 20.8038 27.38 20.5958 26.828C20.3958 26.268 20.2958 25.592 20.2958 24.8C20.2958 23.976 20.4078 23.288 20.6318 22.736C20.8638 22.176 21.1598 21.728 21.5198 21.392C21.8878 21.048 22.2958 20.804 22.7438 20.66C23.1918 20.508 23.6398 20.432 24.0878 20.432C24.5678 20.432 24.9718 20.464 25.2998 20.528C25.6358 20.592 25.9118 20.668 26.1278 20.756L25.8038 22.148C25.6198 22.06 25.3998 21.996 25.1438 21.956C24.8958 21.916 24.5918 21.896 24.2318 21.896C23.5678 21.896 23.0318 22.132 22.6238 22.604C22.2238 23.076 22.0238 23.808 22.0238 24.8C22.0238 25.232 22.0718 25.628 22.1678 25.988C22.2638 26.34 22.4078 26.644 22.5998 26.9C22.7998 27.148 23.0438 27.344 23.3318 27.488C23.6278 27.624 23.9678 27.692 24.3518 27.692C24.7118 27.692 25.0158 27.656 25.2638 27.584C25.5118 27.512 25.7278 27.42 25.9118 27.308L26.2478 28.652ZM28.6336 24.728L26.2936 20.6H28.2736L29.5696 23.024L29.8576 23.876L30.1336 23.024L31.4896 20.6H33.2776L30.8536 24.644L33.3976 29H31.4416L29.9656 26.408L29.6416 25.52L29.3296 26.408L27.8416 29H26.0536L28.6336 24.728Z" fill="white"/>
</svg>
