<svg width="42" height="39" viewBox="0 0 42 39" fill="none" xmlns="http://www.w3.org/2000/svg">
<path d="M15.399 0C14.071 0 12.9844 1.09687 12.9844 2.4375V36.5625C12.9844 37.9031 14.071 39 15.399 39H39.5456C40.8736 39 41.9602 37.9031 41.9602 36.5625V9.75L32.3016 0H15.399Z" fill="#E2E5E7"/>
<path d="M35.2169 9H41.9613L32.9688 0V6.75C32.9688 7.9875 33.9804 9 35.2169 9Z" fill="#B0B7BD"/>
<path d="M41.9621 17L33.9688 9H41.9621V17Z" fill="#CAD1D8"/>
<path d="M37.9683 30.8333C37.9683 31.475 37.2564 32 36.3863 32H1.58201C0.711906 32 0 31.475 0 30.8333V19.1667C0 18.525 0.711906 18 1.58201 18H36.3863C37.2564 18 37.9683 18.525 37.9683 19.1667V30.8333Z" fill="#F19642"/>
<path d="M35.7654 32.5H12.9844V34H35.7654C36.4248 34 36.9644 33.325 36.9644 32.5V31C36.9644 31.825 36.4248 32.5 35.7654 32.5Z" fill="#CAD1D8"/>
<path d="M11.6033 20.6H13.2473V26.744C13.2473 27.064 13.2113 27.368 13.1393 27.656C13.0673 27.944 12.9473 28.2 12.7793 28.424C12.6193 28.64 12.4113 28.816 12.1553 28.952C11.8993 29.08 11.5873 29.144 11.2193 29.144C10.9873 29.144 10.7353 29.12 10.4633 29.072C10.1913 29.024 9.95525 28.956 9.75525 28.868L10.1153 27.524C10.3232 27.628 10.5592 27.68 10.8232 27.68C11.1593 27.68 11.3713 27.556 11.4593 27.308C11.5553 27.06 11.6033 26.732 11.6033 26.324V20.6ZM14.7591 20.684C15.0951 20.62 15.4631 20.572 15.8631 20.54C16.2711 20.5 16.6751 20.48 17.0751 20.48C17.4911 20.48 17.9071 20.516 18.3231 20.588C18.7471 20.652 19.1271 20.788 19.4631 20.996C19.7991 21.196 20.0711 21.48 20.2791 21.848C20.4951 22.208 20.6031 22.68 20.6031 23.264C20.6031 23.792 20.5111 24.24 20.3271 24.608C20.1431 24.968 19.8991 25.264 19.5951 25.496C19.2911 25.728 18.9431 25.896 18.5511 26C18.1671 26.104 17.7671 26.156 17.3511 26.156C17.3111 26.156 17.2471 26.156 17.1591 26.156C17.0711 26.156 16.9791 26.156 16.8831 26.156C16.7871 26.148 16.6911 26.14 16.5951 26.132C16.5071 26.124 16.4431 26.116 16.4031 26.108V29H14.7591V20.684ZM17.2071 21.896C17.0471 21.896 16.8951 21.904 16.7511 21.92C16.6071 21.928 16.4911 21.94 16.4031 21.956V24.68C16.4351 24.688 16.4831 24.696 16.5471 24.704C16.6111 24.712 16.6791 24.72 16.7511 24.728C16.8231 24.728 16.8911 24.728 16.9551 24.728C17.0271 24.728 17.0791 24.728 17.1111 24.728C17.3271 24.728 17.5391 24.708 17.7471 24.668C17.9631 24.628 18.1551 24.556 18.3231 24.452C18.4911 24.34 18.6231 24.188 18.7191 23.996C18.8231 23.804 18.8751 23.552 18.8751 23.24C18.8751 22.976 18.8271 22.76 18.7311 22.592C18.6351 22.416 18.5071 22.276 18.3471 22.172C18.1951 22.068 18.0191 21.996 17.8191 21.956C17.6191 21.916 17.4151 21.896 17.2071 21.896ZM24.4613 24.62H27.5933V28.364C27.2573 28.644 26.8533 28.848 26.3813 28.976C25.9173 29.104 25.4573 29.168 25.0013 29.168C24.4653 29.168 23.9653 29.084 23.5013 28.916C23.0453 28.748 22.6493 28.488 22.3133 28.136C21.9773 27.776 21.7133 27.32 21.5213 26.768C21.3293 26.216 21.2333 25.56 21.2333 24.8C21.2333 24.008 21.3453 23.336 21.5693 22.784C21.8013 22.224 22.1013 21.772 22.4693 21.428C22.8453 21.076 23.2653 20.824 23.7293 20.672C24.1933 20.512 24.6653 20.432 25.1453 20.432C25.6253 20.432 26.0453 20.468 26.4053 20.54C26.7733 20.612 27.0653 20.688 27.2813 20.768L26.9453 22.148C26.7453 22.068 26.5213 22.008 26.2733 21.968C26.0253 21.92 25.7093 21.896 25.3253 21.896C24.9813 21.896 24.6653 21.948 24.3773 22.052C24.0893 22.156 23.8373 22.328 23.6213 22.568C23.4133 22.8 23.2493 23.1 23.1293 23.468C23.0173 23.836 22.9613 24.284 22.9613 24.812C22.9613 25.316 23.0173 25.752 23.1293 26.12C23.2413 26.48 23.3973 26.78 23.5973 27.02C23.7973 27.252 24.0293 27.424 24.2933 27.536C24.5653 27.648 24.8533 27.704 25.1573 27.704C25.3653 27.704 25.5693 27.68 25.7693 27.632C25.9693 27.576 26.1373 27.496 26.2733 27.392V25.808L24.4613 25.616V24.62Z" fill="white"/>
</svg>
