<svg width="10" height="10" viewBox="0 0 10 10" fill="none" xmlns="http://www.w3.org/2000/svg">
<path d="M5.88463 5.0001L9.81717 1.06756C10.0615 0.823449 10.0615 0.427359 9.81717 0.183243C9.57285 -0.0610811 9.17718 -0.0610811 8.93285 0.183243L5.00031 4.11578L1.06756 0.183243C0.82324 -0.0610811 0.427568 -0.0610811 0.183243 0.183243C-0.0610811 0.427359 -0.0610811 0.823449 0.183243 1.06756L4.11599 5.0001L0.183243 8.93264C-0.0610811 9.17676 -0.0610811 9.57285 0.183243 9.81696C0.305406 9.93892 0.465509 10 0.625404 10C0.785299 10 0.945402 9.93892 1.06756 9.81676L5.00031 5.88422L8.93285 9.81676C9.05501 9.93892 9.21512 10 9.37501 10C9.53491 10 9.69501 9.93892 9.81717 9.81676C10.0615 9.57264 10.0615 9.17655 9.81717 8.93244L5.88463 5.0001Z" fill="#B0B0B0"/>
</svg>
