<svg width="42" height="39" viewBox="0 0 42 39" fill="none" xmlns="http://www.w3.org/2000/svg">
<path d="M15.399 0C14.071 0 12.9844 1.09687 12.9844 2.4375V36.5625C12.9844 37.9031 14.071 39 15.399 39H39.5456C40.8736 39 41.9602 37.9031 41.9602 36.5625V9.75L32.3016 0H15.399Z" fill="#E2E5E7"/>
<path d="M35.2169 9H41.9613L32.9688 0V6.75C32.9688 7.9875 33.9804 9 35.2169 9Z" fill="#B0B7BD"/>
<path d="M41.9621 17L33.9688 9H41.9621V17Z" fill="#CAD1D8"/>
<path d="M37.9683 30.8333C37.9683 31.475 37.2564 32 36.3863 32H1.58201C0.711906 32 0 31.475 0 30.8333V19.1667C0 18.525 0.711906 18 1.58201 18H36.3863C37.2564 18 37.9683 18.525 37.9683 19.1667V30.8333Z" fill="#F1426C"/>
<path d="M35.7654 32.5H12.9844V34H35.7654C36.4248 34 36.9644 33.325 36.9644 32.5V31C36.9644 31.825 36.4248 32.5 35.7654 32.5Z" fill="#CAD1D8"/>
<path d="M8.75125 20.684C9.08725 20.62 9.45525 20.572 9.85525 20.54C10.2633 20.5 10.6673 20.48 11.0673 20.48C11.4833 20.48 11.8993 20.516 12.3153 20.588C12.7393 20.652 13.1193 20.788 13.4553 20.996C13.7913 21.196 14.0633 21.48 14.2713 21.848C14.4873 22.208 14.5953 22.68 14.5953 23.264C14.5953 23.792 14.5033 24.24 14.3193 24.608C14.1353 24.968 13.8913 25.264 13.5873 25.496C13.2833 25.728 12.9353 25.896 12.5433 26C12.1593 26.104 11.7593 26.156 11.3433 26.156C11.3033 26.156 11.2393 26.156 11.1513 26.156C11.0633 26.156 10.9713 26.156 10.8753 26.156C10.7793 26.148 10.6833 26.14 10.5873 26.132C10.4993 26.124 10.4353 26.116 10.3953 26.108V29H8.75125V20.684ZM11.1992 21.896C11.0393 21.896 10.8873 21.904 10.7433 21.92C10.5993 21.928 10.4833 21.94 10.3953 21.956V24.68C10.4273 24.688 10.4753 24.696 10.5393 24.704C10.6033 24.712 10.6713 24.72 10.7433 24.728C10.8153 24.728 10.8833 24.728 10.9473 24.728C11.0193 24.728 11.0713 24.728 11.1033 24.728C11.3193 24.728 11.5313 24.708 11.7393 24.668C11.9553 24.628 12.1473 24.556 12.3153 24.452C12.4833 24.34 12.6153 24.188 12.7113 23.996C12.8153 23.804 12.8673 23.552 12.8673 23.24C12.8673 22.976 12.8193 22.76 12.7233 22.592C12.6273 22.416 12.4993 22.276 12.3393 22.172C12.1873 22.068 12.0113 21.996 11.8113 21.956C11.6113 21.916 11.4073 21.896 11.1992 21.896ZM15.6184 20.6C15.7864 20.576 15.9744 20.556 16.1824 20.54C16.3984 20.524 16.6184 20.512 16.8424 20.504C17.0664 20.496 17.2824 20.492 17.4904 20.492C17.7064 20.484 17.8984 20.48 18.0664 20.48C18.8104 20.48 19.4464 20.584 19.9744 20.792C20.5024 21 20.9304 21.292 21.2584 21.668C21.5864 22.044 21.8264 22.492 21.9784 23.012C22.1304 23.532 22.2064 24.104 22.2064 24.728C22.2064 25.296 22.1344 25.844 21.9904 26.372C21.8464 26.9 21.6064 27.368 21.2704 27.776C20.9344 28.184 20.4904 28.512 19.9384 28.76C19.3944 29.008 18.7184 29.132 17.9104 29.132C17.7824 29.132 17.6104 29.128 17.3944 29.12C17.1864 29.112 16.9664 29.1 16.7344 29.084C16.5104 29.076 16.2944 29.064 16.0864 29.048C15.8784 29.04 15.7224 29.028 15.6184 29.012V20.6ZM18.1984 21.944C18.0224 21.944 17.8424 21.948 17.6584 21.956C17.4824 21.964 17.3504 21.976 17.2624 21.992V27.62C17.2944 27.628 17.3464 27.636 17.4184 27.644C17.4984 27.644 17.5824 27.648 17.6704 27.656C17.7584 27.656 17.8424 27.66 17.9224 27.668C18.0024 27.668 18.0624 27.668 18.1024 27.668C18.5664 27.668 18.9504 27.588 19.2544 27.428C19.5664 27.26 19.8104 27.04 19.9864 26.768C20.1704 26.496 20.2984 26.184 20.3704 25.832C20.4424 25.472 20.4784 25.104 20.4784 24.728C20.4784 24.4 20.4464 24.072 20.3824 23.744C20.3184 23.408 20.1984 23.108 20.0224 22.844C19.8544 22.58 19.6224 22.364 19.3264 22.196C19.0304 22.028 18.6544 21.944 18.1984 21.944ZM23.388 20.6H28.368V22.064H25.032V24.14H28.104V25.604H25.032V29H23.388V20.6Z" fill="white"/>
</svg>
