<svg width="19" height="19" viewBox="0 0 19 19" fill="none" xmlns="http://www.w3.org/2000/svg">
<path d="M18.1188 7.1814L18.1157 7.18898L18.1122 7.19634C15.9167 11.78 12.1909 15.5188 7.61865 17.7303C5.65036 18.6914 3.28495 18.2942 1.73577 16.7481C1.34863 16.3617 1.14453 15.84 1.14453 15.3186C1.14453 14.7972 1.3488 14.2757 1.73583 13.8893L1.73587 13.8892L3.86446 11.7647C4.23551 11.373 4.76092 11.1722 5.29853 11.1722C5.84198 11.1722 6.34396 11.3768 6.73001 11.7621L8.20495 13.2342C10.4124 11.8836 12.2955 10.0042 13.667 7.78232L12.1955 6.31363C11.803 5.94328 11.6017 5.41863 11.6017 4.88163C11.6017 4.33899 11.8067 3.83792 12.1925 3.45264C12.1926 3.4525 12.1928 3.45235 12.1929 3.45221L14.2834 1.3458L14.2842 1.34496C15.079 0.551678 16.3723 0.551683 17.1671 1.34495L17.1683 1.34618C18.6735 2.8694 19.0737 5.16548 18.1556 7.08947L18.1188 7.1814ZM17.6567 4.92138L17.6567 4.89076C17.6487 3.85465 17.2374 2.83834 16.4375 2.0584L16.4375 2.05842L16.4354 2.05636C16.0351 1.65676 15.3764 1.65676 14.9761 2.05636L12.8847 4.14375C12.6929 4.33529 12.5795 4.6095 12.5795 4.8814C12.5795 5.17127 12.6914 5.4262 12.8846 5.61901L14.757 7.48777L14.8847 7.61525L14.8039 7.77661L14.7323 7.91972L14.7181 7.96243L14.7098 7.98723L14.6966 8.00978C13.1605 10.6316 10.9593 12.7882 8.35614 14.3197L8.19955 14.4174L8.03112 14.5225L7.89061 14.3822L6.01832 12.5135C6.0183 12.5135 6.01828 12.5135 6.01826 12.5135C5.82634 12.3221 5.5514 12.2088 5.27857 12.2088C4.9877 12.2088 4.73206 12.3207 4.53887 12.5135L2.44743 14.6009C2.04733 15.0002 2.04733 15.6568 2.44743 16.0561L2.27082 16.2331L2.44743 16.0561C3.68639 17.2928 5.60315 17.6119 7.1807 16.8433L7.18099 16.8432C11.5489 14.7223 15.0923 11.1483 17.2197 6.76834L17.2563 6.6771L17.2595 6.66907L17.2633 6.66129C17.5251 6.12014 17.6567 5.52144 17.6567 4.92138Z" fill="#333333" stroke="#333333" stroke-width="0.5"/>
</svg>
