<svg width="13" height="15" viewBox="0 0 13 15" fill="none" xmlns="http://www.w3.org/2000/svg">
<path d="M2.64698 3.27625C4.30553 1.79893 6.6148 1.47106 8.56079 2.24047C9.10237 2.4546 8.91059 3.12591 8.32861 3.14761C8.11086 3.15618 7.94248 3.33343 7.95119 3.54784C7.9599 3.75654 8.13409 3.91949 8.34312 3.91949C8.34893 3.91949 8.35183 3.91949 8.35764 3.91949L10.9473 3.82515C11.1593 3.81657 11.3247 3.6479 11.3247 3.43921V3.41062C11.3247 3.4049 11.3247 3.40204 11.3247 3.39632V3.39347L11.2289 0.871968C11.2202 0.657555 11.0373 0.491742 10.8225 0.500318C10.6047 0.508895 10.4364 0.686143 10.4451 0.900556C10.4689 1.51791 9.72552 1.90882 9.16373 1.65177C8.42105 1.31196 7.61049 1.11381 6.76667 1.07209C5.04795 0.986321 3.39601 1.56667 2.1215 2.70449C0.367942 4.26827 -0.375285 6.64683 0.182135 8.91103C0.225684 9.08828 0.385362 9.20549 0.562459 9.20549C0.594394 9.20549 0.623427 9.20263 0.655362 9.19405C0.864395 9.1426 0.995041 8.9339 0.942782 8.72806C0.455039 6.73831 1.10536 4.6485 2.64698 3.27625Z" fill="white"/>
<path d="M12.8188 6.09125C12.7666 5.88541 12.5546 5.75676 12.3456 5.80822C12.1366 5.85968 12.0059 6.06838 12.0582 6.27421C12.5488 8.26397 11.8956 10.3538 10.354 11.726C9.27106 12.6895 7.91235 13.164 6.55944 13.164C5.82656 13.164 5.09462 13.0251 4.40866 12.7494C3.82713 12.5156 4.02191 11.7843 4.64621 11.7289C4.86105 11.7089 5.02073 11.523 5.00041 11.3086C4.98008 11.0942 4.79137 10.9398 4.57363 10.9599L1.99266 11.1886C1.77782 11.2086 1.61814 11.3944 1.63846 11.6088L1.87072 14.1503C1.88814 14.3504 2.05943 14.502 2.25975 14.502C2.28309 14.502 2.30637 14.4985 2.32933 14.4944C2.52636 14.4587 2.668 14.2815 2.64879 14.0789C2.59637 13.4971 3.29763 13.1008 3.82835 13.3448C4.57424 13.6876 5.38786 13.8881 6.23428 13.9302C6.3446 13.9359 6.45493 13.9388 6.56235 13.9388C8.16203 13.9388 9.68332 13.3613 10.8795 12.2978C12.633 10.734 13.3762 8.35831 12.8188 6.09125Z" fill="white"/>
</svg>
