<svg width="7" height="8" viewBox="0 0 7 8" fill="none" xmlns="http://www.w3.org/2000/svg">
<path d="M4.11907 4.00007L6.87174 1.2473C7.04276 1.07641 7.04276 0.799152 6.87174 0.62827C6.70072 0.457243 6.42376 0.457243 6.25274 0.62827L3.50007 3.38105L0.747264 0.62827C0.576244 0.457243 0.299285 0.457243 0.128265 0.62827C-0.042755 0.799152 -0.042755 1.07641 0.128265 1.2473L2.88107 4.00007L0.128265 6.75285C-0.042755 6.92373 -0.042755 7.20099 0.128265 7.37188C0.213775 7.45724 0.325843 7.5 0.437764 7.5C0.549686 7.5 0.661754 7.45724 0.747264 7.37173L3.50007 4.61895L6.25274 7.37173C6.33825 7.45724 6.45031 7.5 6.56224 7.5C6.67416 7.5 6.78622 7.45724 6.87174 7.37173C7.04276 7.20085 7.04276 6.92359 6.87174 6.7527L4.11907 4.00007Z" fill="#B0B0B0"/>
</svg>
