<svg width="21" height="23" viewBox="0 0 21 23" fill="none" xmlns="http://www.w3.org/2000/svg">
<path fill-rule="evenodd" clip-rule="evenodd" d="M20.0455 12.4598H10.3644C10.1564 13.2822 9.68138 14.0114 9.01435 14.5323C8.34732 15.0531 7.52639 15.336 6.68135 15.336C5.83632 15.336 5.01539 15.0531 4.34836 14.5323C3.68132 14.0114 3.20623 13.2822 2.99822 12.4598H0.954545C0.701384 12.4598 0.458606 12.3589 0.279594 12.1791C0.100582 11.9994 0 11.7556 0 11.5015C0 11.2473 0.100582 11.0035 0.279594 10.8238C0.458606 10.6441 0.701384 10.5431 0.954545 10.5431H2.99822C3.20623 9.72078 3.68132 8.99154 4.34836 8.47066C5.01539 7.94978 5.83632 7.66698 6.68135 7.66698C7.52639 7.66698 8.34732 7.94978 9.01435 8.47066C9.68138 8.99154 10.1564 9.72078 10.3644 10.5431H20.0455C20.2986 10.5431 20.5414 10.6441 20.7204 10.8238C20.8994 11.0035 21 11.2473 21 11.5015C21 11.7556 20.8994 11.9994 20.7204 12.1791C20.5414 12.3589 20.2986 12.4598 20.0455 12.4598ZM6.68182 9.58472C6.30424 9.58472 5.93513 9.69714 5.62118 9.90775C5.30723 10.1184 5.06252 10.4177 4.91803 10.768C4.77354 11.1182 4.73577 11.5036 4.80943 11.8754C4.88309 12.2472 5.06492 12.5887 5.33191 12.8568C5.59891 13.1249 5.93903 13.3074 6.30936 13.3814C6.67968 13.4553 7.06357 13.4174 7.41241 13.2723C7.76125 13.1272 8.05942 12.8816 8.26919 12.5664C8.47897 12.2511 8.59091 11.8806 8.59091 11.5015C8.59091 10.9931 8.38975 10.5056 8.03172 10.1461C7.6737 9.78666 7.18814 9.58472 6.68182 9.58472ZM20.0455 4.79285H18.0008C17.7928 5.61517 17.3177 6.3444 16.6507 6.86528C15.9837 7.38616 15.1627 7.66897 14.3177 7.66897C13.4727 7.66897 12.6517 7.38616 11.9847 6.86528C11.3177 6.3444 10.8426 5.61517 10.6346 4.79285H0.954545C0.701384 4.79285 0.458606 4.69188 0.279594 4.51215C0.100582 4.33242 0 4.08866 0 3.83448C0 3.5803 0.100582 3.33654 0.279594 3.15681C0.458606 2.97708 0.701384 2.87611 0.954545 2.87611H10.6346C10.8426 2.05379 11.3177 1.32456 11.9847 0.803678C12.6517 0.2828 13.4727 -6.08294e-06 14.3177 -6.08294e-06C15.1627 -6.08294e-06 15.9837 0.2828 16.6507 0.803678C17.3177 1.32456 17.7928 2.05379 18.0008 2.87611H20.0455C20.2986 2.87611 20.5414 2.97708 20.7204 3.15681C20.8994 3.33654 21 3.5803 21 3.83448C21 4.08866 20.8994 4.33242 20.7204 4.51215C20.5414 4.69188 20.2986 4.79285 20.0455 4.79285ZM14.3182 1.91773C13.9406 1.91773 13.5715 2.03015 13.2575 2.24077C12.9436 2.45138 12.6989 2.75073 12.5544 3.10097C12.4099 3.45121 12.3721 3.83661 12.4458 4.20842C12.5195 4.58023 12.7013 4.92176 12.9683 5.18983C13.2353 5.45789 13.5754 5.64043 13.9457 5.71439C14.316 5.78835 14.6999 5.7504 15.0488 5.60533C15.3976 5.46025 15.6958 5.21458 15.9056 4.89937C16.1153 4.58416 16.2273 4.21358 16.2273 3.83448C16.2273 3.32613 16.0261 2.83859 15.6681 2.47913C15.3101 2.11967 14.8245 1.91773 14.3182 1.91773ZM0.954545 18.2101H10.6346C10.8433 17.3884 11.3186 16.6599 11.9856 16.1396C12.6525 15.6193 13.4731 15.3369 14.3177 15.3369C15.1623 15.3369 15.9828 15.6193 16.6498 16.1396C17.3167 16.6599 17.7921 17.3884 18.0008 18.2101H20.0455C20.2986 18.2101 20.5414 18.311 20.7204 18.4908C20.8994 18.6705 21 18.9143 21 19.1684C21 19.4226 20.8994 19.6664 20.7204 19.8461C20.5414 20.0259 20.2986 20.1268 20.0455 20.1268H18.0008C17.7921 20.9485 17.3167 21.677 16.6498 22.1973C15.9828 22.7176 15.1623 23 14.3177 23C13.4731 23 12.6525 22.7176 11.9856 22.1973C11.3186 21.677 10.8433 20.9485 10.6346 20.1268H0.954545C0.701384 20.1268 0.458606 20.0259 0.279594 19.8461C0.100582 19.6664 0 19.4226 0 19.1684C0 18.9143 0.100582 18.6705 0.279594 18.4908C0.458606 18.311 0.701384 18.2101 0.954545 18.2101ZM14.3182 21.0852C14.6958 21.0852 15.0649 20.9728 15.3788 20.7622C15.6928 20.5515 15.9375 20.2522 16.082 19.902C16.2265 19.5517 16.2642 19.1663 16.1906 18.7945C16.1169 18.4227 15.9351 18.0812 15.6681 17.8131C15.4011 17.545 15.061 17.3625 14.6906 17.2885C14.3203 17.2146 13.9364 17.2525 13.5876 17.3976C13.2388 17.5427 12.9406 17.7883 12.7308 18.1036C12.521 18.4188 12.4091 18.7894 12.4091 19.1684C12.4091 19.6768 12.6103 20.1643 12.9683 20.5238C13.3263 20.8833 13.8119 21.0852 14.3182 21.0852Z" fill="white"/>
</svg>
