<svg width="17" height="14" viewBox="0 0 17 14" fill="none" xmlns="http://www.w3.org/2000/svg">
<path d="M0.298096 6.71989L4.20648 8.09575L5.73007 12.7236C5.79632 13.0363 6.19378 13.0988 6.45876 12.9112L8.64478 11.2227C8.84352 11.0351 9.17474 11.0351 9.43972 11.2227L13.3481 13.9118C13.6131 14.0995 14.0105 13.9744 14.0768 13.6617L16.9915 0.528547C17.0577 0.215853 16.7265 -0.0968385 16.3953 0.0282391L0.298096 5.90689C-0.0993653 6.03196 -0.0993653 6.59481 0.298096 6.71989ZM5.53135 7.40781L13.2156 2.96756C13.3481 2.90502 13.4806 3.09264 13.3481 3.15518L7.05494 8.72113C6.85621 8.90875 6.65748 9.1589 6.65748 9.4716L6.45876 10.9725C6.45876 11.1601 6.12753 11.2227 6.06129 10.9725L5.26636 8.22082C5.06763 7.90813 5.20013 7.53289 5.53135 7.40781Z" fill="#333333"/>
</svg>
