<svg width="12" height="12" viewBox="0 0 12 12" fill="none" xmlns="http://www.w3.org/2000/svg">
<path d="M6 0C2.69146 0 0 2.69146 0 6C0 9.30854 2.69146 12 6 12C9.30854 12 12 9.30854 12 6C12 2.69146 9.30854 0 6 0ZM11.2194 6C11.2194 8.87779 8.87784 11.2194 6 11.2194C3.12221 11.2194 0.780617 8.87774 0.780617 6C0.780617 3.12226 3.12226 0.780617 6 0.780617C8.87774 0.780617 11.2194 3.12226 11.2194 6Z" fill="white"/>
<path d="M9.06858 5.61031H6.42114V2.08141C6.42114 1.86646 6.24618 1.69141 6.03114 1.69141C5.81619 1.69141 5.64062 1.86646 5.64062 2.08141V6.0001C5.64062 6.21505 5.81558 6.39011 6.03063 6.39011H9.06863C9.28358 6.39011 9.45864 6.21515 9.45864 6.0001C9.45864 5.78516 9.28358 5.6101 9.06863 5.6101L9.06858 5.61031Z" fill="white"/>
</svg>
