<svg width="14" height="15" viewBox="0 0 14 15" fill="none" xmlns="http://www.w3.org/2000/svg">
<path d="M10.836 0.356031C8.29494 -0.118677 5.65619 -0.118677 3.11518 0.356031C1.99127 0.593384 0.574171 1.92257 0.329843 2.96692C-0.109948 5.00816 -0.109948 7.09688 0.329843 9.13812C0.623037 10.1825 2.04014 11.5117 3.11518 11.749C3.16405 11.749 3.21291 11.7965 3.21291 11.844V14.8346C3.21291 14.977 3.40838 15.072 3.50611 14.9296L4.97208 13.458C4.97208 13.458 6.14485 12.2712 6.34031 12.0813C6.34031 12.0813 6.38918 12.0338 6.43805 12.0338C7.90402 12.0813 9.41885 11.9389 10.8848 11.7015C12.0087 11.4642 13.4258 10.135 13.6702 9.09065C14.1099 7.04941 14.1099 4.96069 13.6702 2.91945C13.377 1.92257 11.9599 0.593384 10.836 0.356031ZM10.8848 9.28053C10.6405 9.75524 10.3473 10.135 9.85864 10.3724C9.71204 10.4198 9.56544 10.4673 9.41885 10.5148C9.22339 10.4673 9.07679 10.4198 8.93019 10.3724C7.36649 9.75524 5.90052 8.90077 4.72775 7.66653C4.0925 6.95447 3.55497 6.14746 3.11518 5.29299C2.91972 4.86575 2.72426 4.48599 2.57766 4.05875C2.43106 3.67898 2.67539 3.29922 2.91972 3.01439C3.16405 2.72957 3.45724 2.53969 3.7993 2.39727C4.04363 2.25486 4.28796 2.3498 4.48342 2.53969C4.87435 3.01439 5.26527 3.4891 5.55846 4.01128C5.75393 4.34357 5.70506 4.72334 5.363 4.96069C5.26527 5.00816 5.2164 5.05564 5.11867 5.15058C5.06981 5.19805 4.97207 5.24552 4.92321 5.34046C4.82548 5.48287 4.82548 5.62528 4.87434 5.7677C5.26527 6.85952 5.99825 7.714 7.12216 8.1887C7.31762 8.28365 7.46422 8.33112 7.70855 8.33112C8.05061 8.28365 8.19721 7.90388 8.44154 7.714C8.68586 7.52411 8.97906 7.52412 9.27225 7.66653C9.51658 7.80894 9.76091 7.99882 10.0541 8.1887C10.2984 8.37859 10.5428 8.521 10.7871 8.71088C10.9337 8.80583 10.9825 9.04318 10.8848 9.28053ZM8.83246 5.72023C8.73473 5.72023 8.78359 5.72023 8.83246 5.72023C8.637 5.72023 8.58813 5.62529 8.53927 5.48287C8.53927 5.38793 8.53927 5.24552 8.4904 5.15058C8.44153 4.96069 8.34381 4.77081 8.14834 4.6284C8.05061 4.58093 7.95288 4.53346 7.85515 4.48599C7.70855 4.43852 7.61082 4.43852 7.46422 4.43852C7.31763 4.39105 7.26876 4.2961 7.26876 4.15369C7.26876 4.05875 7.41536 3.96381 7.51309 3.96381C8.29494 4.01128 8.88133 4.43851 8.97906 5.34046C8.97906 5.38793 8.97906 5.48287 8.97906 5.53034C8.97906 5.62528 8.93019 5.72023 8.83246 5.72023ZM8.3438 3.63151C8.09947 3.53657 7.85515 3.44163 7.56195 3.39416C7.46422 3.39416 7.31763 3.34669 7.2199 3.34669C7.0733 3.34669 6.97557 3.25175 7.02443 3.10933C7.02443 2.96692 7.12216 2.87198 7.26876 2.91945C7.75742 2.96692 8.19721 3.06186 8.637 3.25175C9.51658 3.67898 10.0052 4.39104 10.1518 5.34046C10.1518 5.38793 10.1518 5.4354 10.1518 5.48287C10.1518 5.57781 10.1518 5.67275 10.1518 5.81517C10.1518 5.86264 10.1518 5.91011 10.1518 5.95758C10.103 6.14746 9.76091 6.19493 9.71204 5.95758C9.71204 5.91011 9.66318 5.81517 9.66318 5.7677C9.66318 5.34046 9.56545 4.91322 9.36998 4.53346C9.07679 4.10622 8.73473 3.8214 8.3438 3.63151ZM10.9825 6.47976C10.8359 6.47976 10.7382 6.33735 10.7382 6.19493C10.7382 5.91011 10.6894 5.62528 10.6405 5.34046C10.445 3.8214 9.17452 2.58716 7.65969 2.3498C7.41536 2.30233 7.17103 2.30233 6.97557 2.25486C6.82897 2.25486 6.63351 2.25486 6.58464 2.06498C6.53578 1.92257 6.68237 1.78015 6.82897 1.78015C6.87783 1.78015 6.9267 1.78015 6.9267 1.78015C7.02443 1.78015 8.93019 1.82762 6.9267 1.78015C8.97906 1.82762 10.6894 3.15681 11.0314 5.15058C11.0803 5.48287 11.1291 5.81517 11.1291 6.19493C11.2269 6.33735 11.1291 6.47976 10.9825 6.47976Z" fill="#333333"/>
</svg>
