<svg width="16" height="16" viewBox="0 0 16 16" fill="none" xmlns="http://www.w3.org/2000/svg">
<path d="M13.3357 2.66037C11.9168 1.24645 10.025 0.460938 8.02812 0.460938C3.87668 0.460938 0.513487 3.81245 0.513487 7.94948C0.513487 9.25867 0.881337 10.5679 1.51194 11.6676L0.460938 15.5428L4.45473 14.4954C5.55828 15.0715 6.76693 15.3857 8.02812 15.3857C12.1796 15.3857 15.5428 12.0341 15.5428 7.89712C15.4902 5.95952 14.7545 4.07429 13.3357 2.66037ZM11.6541 10.6202C11.4964 11.0392 10.7607 11.4581 10.3929 11.5105C10.0776 11.5628 9.65717 11.5628 9.23677 11.4581C8.97402 11.3534 8.60617 11.2486 8.18577 11.0392C6.29398 10.2537 5.08533 8.36842 4.98023 8.21132C4.87513 8.10658 4.19198 7.21634 4.19198 6.27372C4.19198 5.33111 4.66493 4.91217 4.82258 4.7027C4.98023 4.49323 5.19043 4.49323 5.34808 4.49323C5.45318 4.49323 5.61083 4.49323 5.71593 4.49323C5.82103 4.49323 5.97868 4.44086 6.13633 4.80744C6.29398 5.17401 6.66183 6.11662 6.71438 6.16899C6.76693 6.27372 6.76693 6.37846 6.71438 6.48319C6.66183 6.58793 6.60927 6.69266 6.50418 6.7974C6.39908 6.90213 6.29398 7.05924 6.24143 7.1116C6.13633 7.21634 6.03123 7.32107 6.13633 7.47817C6.24143 7.68764 6.60928 8.26369 7.18733 8.78736C7.92302 9.41577 8.50107 9.62524 8.71127 9.72998C8.92147 9.83471 9.02657 9.78234 9.13167 9.67761C9.23677 9.57287 9.60462 9.15393 9.70972 8.94446C9.81482 8.73499 9.97247 8.78736 10.1301 8.83973C10.2878 8.8921 11.2337 9.3634 11.3913 9.46814C11.6015 9.57287 11.7066 9.62524 11.7592 9.67761C11.8117 9.83471 11.8117 10.2013 11.6541 10.6202Z" fill="#333333"/>
</svg>
