<svg width="50" height="50" viewBox="0 0 50 50" fill="none" xmlns="http://www.w3.org/2000/svg">
<path d="M21.6953 23.9814V24.0421V26.148H28.3099V22.0586H21.6953V23.9814Z" fill="#438BE3"/>
<path d="M44.7383 11.5312H34.6914V7.80789C34.6914 6.2669 33.4081 5 31.8472 5H18.1687C16.5919 5 15.3097 6.2669 15.3097 7.80789V11.5312H5.26172C3.46873 11.5312 2 12.9655 2 14.7356V42.1115C2 43.8816 3.46873 45.3159 5.26172 45.3159H44.7383C46.5313 45.3159 48 43.8816 48 42.1115V14.7356C48 12.9655 46.5313 11.5312 44.7383 11.5312ZM16.8547 7.80789C16.8547 7.10592 17.4418 6.52635 18.1687 6.52635H31.8482C32.5593 6.52635 33.1464 7.10592 33.1464 7.80789V11.5312H16.8547V7.80789ZM46.455 42.1104C46.455 43.0415 45.6825 43.7895 44.7393 43.7895H25.0005H5.26172C4.3186 43.7895 3.54609 43.0415 3.54609 42.1104V22.044C8.92506 23.494 14.4895 24.3791 20.1461 24.6835V23.1572V21.295C20.1461 20.8682 20.4863 20.5323 20.9186 20.5323H29.0803C29.4978 20.5323 29.8528 20.8682 29.8528 21.295V23.1572V24.6981C35.4787 24.378 41.059 23.493 46.4529 22.043V42.1104H46.455Z" fill="#438BE3"/>
</svg>
