<svg width="50" height="50" viewBox="0 0 50 50" fill="none" xmlns="http://www.w3.org/2000/svg">
<path d="M22.396 33.6331V30.9311H19.7859V9.81193H21.1461C21.3025 9.81193 21.4524 9.74982 21.563 9.63927C21.6735 9.52871 21.7356 9.37876 21.7356 9.22241C21.7356 9.06606 21.6735 8.91611 21.563 8.80556C21.4524 8.695 21.3025 8.63289 21.1461 8.63289H19.7859V7.65371H21.1461C21.2235 7.65371 21.3002 7.63846 21.3717 7.60884C21.4432 7.57921 21.5082 7.53579 21.563 7.48104C21.6177 7.4263 21.6611 7.36131 21.6908 7.28979C21.7204 7.21826 21.7356 7.1416 21.7356 7.06419C21.7356 6.98677 21.7204 6.91011 21.6908 6.83859C21.6611 6.76706 21.6177 6.70207 21.563 6.64733C21.5082 6.59259 21.4432 6.54917 21.3717 6.51954C21.3002 6.48991 21.2235 6.47467 21.1461 6.47467H19.7859V5.49549H21.1461C21.3025 5.49549 21.4524 5.43338 21.563 5.32282C21.6735 5.21227 21.7356 5.06232 21.7356 4.90597C21.7356 4.74962 21.6735 4.59967 21.563 4.48911C21.4524 4.37856 21.3025 4.31644 21.1461 4.31644H19.7859V3.33727H21.1461C21.3025 3.33727 21.4524 3.27516 21.563 3.1646C21.6735 3.05404 21.7356 2.90409 21.7356 2.74774C21.7356 2.59139 21.6735 2.44144 21.563 2.33089C21.4524 2.22033 21.3025 2.15822 21.1461 2.15822H19.7859V1.17905H21.1461C21.2235 1.17905 21.3002 1.1638 21.3717 1.13417C21.4432 1.10454 21.5082 1.06112 21.563 1.00638C21.6177 0.951636 21.6611 0.886647 21.6908 0.815123C21.7204 0.743599 21.7356 0.66694 21.7356 0.589523C21.7356 0.512105 21.7204 0.435446 21.6908 0.363922C21.6611 0.292398 21.6177 0.227409 21.563 0.172667C21.5082 0.117925 21.4432 0.074501 21.3717 0.0448747C21.3002 0.0152484 21.2235 -1.15361e-09 21.1461 0H15.4781C15.4006 -1.15361e-09 15.324 0.0152484 15.2525 0.0448747C15.1809 0.074501 15.1159 0.117925 15.0612 0.172667C15.0065 0.227409 14.963 0.292398 14.9334 0.363922C14.9038 0.435446 14.8885 0.512105 14.8885 0.589523C14.8885 0.66694 14.9038 0.743599 14.9334 0.815123C14.963 0.886647 15.0065 0.951636 15.0612 1.00638C15.1159 1.06112 15.1809 1.10454 15.2525 1.13417C15.324 1.1638 15.4006 1.17905 15.4781 1.17905H16.8383V2.15822H15.4781C15.3217 2.15822 15.1718 2.22033 15.0612 2.33089C14.9506 2.44145 14.8885 2.5914 14.8885 2.74775C14.8885 2.9041 14.9506 3.05405 15.0612 3.1646C15.1718 3.27516 15.3217 3.33727 15.4781 3.33727H16.8383V4.31644H15.4781C15.3217 4.31644 15.1718 4.37856 15.0612 4.48911C14.9506 4.59967 14.8885 4.74962 14.8885 4.90597C14.8885 5.06232 14.9506 5.21227 15.0612 5.32282C15.1718 5.43338 15.3217 5.49549 15.4781 5.49549H16.8383V6.47467H15.4781C15.3217 6.47467 15.1718 6.53678 15.0612 6.64734C14.9506 6.75789 14.8885 6.90784 14.8885 7.06419C14.8885 7.22054 14.9506 7.37049 15.0612 7.48105C15.1718 7.5916 15.3217 7.65371 15.4781 7.65371H16.8383V8.63289H15.4781C15.4006 8.63289 15.324 8.64814 15.2525 8.67777C15.1809 8.70739 15.1159 8.75082 15.0612 8.80556C15.0065 8.8603 14.963 8.92529 14.9334 8.99682C14.9038 9.06834 14.8885 9.145 14.8885 9.22242C14.8885 9.29983 14.9038 9.37649 14.9334 9.44802C14.963 9.51954 15.0065 9.58453 15.0612 9.63927C15.1159 9.69401 15.1809 9.73744 15.2525 9.76706C15.324 9.79669 15.4006 9.81194 15.4781 9.81194H16.8383V30.9311H14.2282V33.6331C13.9024 33.6331 13.5901 33.7625 13.3597 33.9929C13.1294 34.2232 13 34.5356 13 34.8613V48.7716C13 49.0973 13.1294 49.4097 13.3597 49.64C13.59 49.8704 13.9024 49.9997 14.2282 49.9997H22.396C22.7218 49.9997 23.0341 49.8704 23.2645 49.64C23.4948 49.4097 23.6242 49.0973 23.6242 48.7716V34.8613C23.6242 34.7 23.5924 34.5403 23.5307 34.3913C23.469 34.2423 23.3785 34.1069 23.2645 33.9929C23.1504 33.8788 23.015 33.7883 22.866 33.7266C22.717 33.6649 22.5573 33.6331 22.396 33.6331ZM21.1679 47.5434H15.4563V38.7914H21.1679V47.5434Z" fill="#438BE3"/>
<path d="M35.568 16.3231V13.6211H27.4V16.3231C27.0743 16.3231 26.7619 16.4525 26.5316 16.6828C26.3013 16.9131 26.1719 17.2255 26.1719 17.5512V48.7703C26.1719 49.096 26.3013 49.4084 26.5316 49.6387C26.7619 49.8691 27.0743 49.9985 27.4 49.9985H35.568C35.8937 49.9985 36.2061 49.8691 36.4364 49.6387C36.6667 49.4084 36.7961 49.096 36.7961 48.7703V17.5513C36.7961 17.2255 36.6667 16.9131 36.4364 16.6828C36.2061 16.4525 35.8937 16.3231 35.568 16.3231ZM34.3398 47.5421H28.6282V21.4814H34.3398V47.5421Z" fill="#438BE3"/>
</svg>
