<svg width="50" height="50" viewBox="0 0 50 50" fill="none" xmlns="http://www.w3.org/2000/svg">
<g clip-path="url(#clip0_2971_1673)">
<path fill-rule="evenodd" clip-rule="evenodd" d="M42.5288 1.3725C37.5252 -0.475667 31.1693 3.98699 31.1693 3.98699L36.3081 7.59318L42.5288 1.3725Z" fill="#438BE3"/>
<path fill-rule="evenodd" clip-rule="evenodd" d="M45.7743 19.5838C48.6142 16.7439 49.4256 10.5232 47.9831 6.82686L42.3484 13.6335L30.2677 4.88854C30.2677 4.88854 27.518 8.17918 30.1325 13.8589L4.34823 38.2007C2.31975 40.2292 2.36483 43.5198 4.39331 45.5483C6.42179 47.5768 9.71244 47.6219 11.7409 45.5934L36.0827 19.8091C39.4635 21.2967 43.1148 22.2433 45.7743 19.5838ZM38.1562 14.1294C38.3816 13.904 38.7423 13.904 38.9676 14.1294C39.193 14.3548 39.193 14.7154 38.9676 14.9408L36.8941 17.0143C36.6687 17.2397 36.3081 17.2397 36.0827 17.0143C35.8573 16.789 35.8573 16.4283 36.0827 16.203L38.1562 14.1294ZM36.7138 12.6869C36.9392 12.4615 37.2998 12.4615 37.5252 12.6869C37.7506 12.9123 37.7506 13.2729 37.5252 13.4983L35.4516 15.5719C35.2262 15.7973 34.8656 15.7973 34.6402 15.5719C34.4148 15.3465 34.4148 14.9859 34.6402 14.7605L36.7138 12.6869ZM30.0874 21.2065C30.3128 21.4319 30.2677 21.7475 30.0423 21.9729L13.6342 38.381C13.4088 38.6064 13.0482 38.6064 12.8679 38.4261L11.5155 37.0738C11.2901 36.8484 11.3352 36.5328 11.5606 36.3075L27.9688 19.8993C28.1942 19.6739 28.5548 19.6739 28.7351 19.8542L30.0874 21.2065ZM35.2713 11.2444C35.4967 11.0191 35.8573 11.0191 36.0827 11.2444C36.3081 11.4698 36.3081 11.8305 36.0827 12.0558L34.0091 14.1294C33.7837 14.3548 33.4231 14.3548 33.1977 14.1294C32.9724 13.904 32.9724 13.5434 33.1977 13.318L35.2713 11.2444ZM5.70055 44.2411C4.57362 43.1141 4.52854 41.266 5.70055 40.094C6.82748 38.967 8.67566 38.9219 9.84767 40.094C11.0197 41.266 11.0197 43.0691 9.84767 44.2411C8.72073 45.368 6.87256 45.4131 5.70055 44.2411Z" fill="#438BE3"/>
</g>
<defs>
<clipPath id="clip0_2971_1673">
<path d="M0 0H50V50H0V0Z" fill="white"/>
</clipPath>
</defs>
</svg>
