<svg width="50" height="50" viewBox="0 0 50 50" fill="none" xmlns="http://www.w3.org/2000/svg">
<path d="M45.8938 17.0663C44.178 17.0663 42.7875 18.4556 42.7875 20.1702C42.7875 20.9947 43.1111 21.7409 43.6333 22.2959V26.8226C23.3314 20.7454 6.32866 26.8226 6.32866 26.8226V22.2309C6.87333 21.673 7.21073 20.9089 7.21073 20.066C7.21073 18.3508 5.82027 16.9609 4.10508 16.9609C2.39104 16.9609 1 18.3508 1 20.066C1 20.1817 1.00748 20.2963 1.01958 20.4092C1.01497 20.4754 1 20.5387 1 20.6049V29.7094C1 29.7923 1.01727 29.866 1.02361 29.9438C1.02015 30.0152 1 30.0819 1 30.1528C1 31.994 2.67777 33.483 4.74762 33.483H5.9193V37.2859H7.76346L8.65819 33.483H41.0499L41.9452 37.2859H43.7899V33.483H45.2161C47.2848 33.483 48.9637 31.994 48.9637 30.1528C48.9637 30.0819 48.9453 30.0152 48.9395 29.9455C48.9453 29.866 48.9637 29.7918 48.9637 29.7094V20.6187C48.9845 20.4713 49 20.324 49 20.1702C48.9994 18.4556 47.6078 17.0663 45.8938 17.0663Z" fill="#438BE3"/>
<path d="M41.8398 25.085C41.9976 24.6987 42.0886 24.2778 42.0886 23.8345V18.3026C42.0886 16.4791 40.61 15 38.786 15H11.2088C9.3848 15 7.90625 16.4786 7.90625 18.3026V23.8345C7.90625 24.2433 7.99031 24.6296 8.12562 24.9906C14.064 23.975 29.4265 21.9074 41.8398 25.085Z" fill="#438BE3"/>
</svg>
