<svg width="50" height="50" viewBox="0 0 50 50" fill="none" xmlns="http://www.w3.org/2000/svg">
<g clip-path="url(#clip0_2971_1607)">
<path d="M32.9562 28.886H22.6157C20.4662 28.886 18.7155 27.1149 18.7155 24.9371V14.6641H2.49449C1.11672 14.6641 0 15.7957 0 17.1896V35.1978C0 36.5922 1.11672 37.7234 2.49449 37.7234H12.1467V44.5568L19.4689 37.7234H32.7274C34.1047 37.7234 35.2213 36.5922 35.2213 35.1978V31.0194L33.9818 29.8522L32.9562 28.886Z" fill="#438BE3"/>
<path d="M38.5078 14.4975H40.8833L40.9683 14.4403L49.0709 9.56852C48.712 9.27457 48.2753 9.08301 47.7926 9.02734L38.5912 14.4403L38.5078 14.4975Z" fill="#438BE3"/>
<path d="M40.8203 20.0254L49.0492 24.9888C49.3786 24.7243 49.6436 24.3861 49.8075 23.9877L43.1111 20.0254L40.8203 20.0254Z" fill="#438BE3"/>
<path d="M49.9576 23.4585C49.9827 23.3158 50.0015 23.1714 50.0015 23.0225V19.9414H44.0469L49.9576 23.4585Z" fill="#438BE3"/>
<path d="M44.1875 14.4406H50.0005V11.5244C50.0005 11.3455 49.9811 11.1717 49.9466 11.0039H49.9017L44.1875 14.4406Z" fill="#438BE3"/>
<path d="M31.3156 20.0273L23.0234 24.9987C23.3895 25.2908 23.8351 25.4775 24.3257 25.5247L33.6921 20.0276L31.3156 20.0273Z" fill="#438BE3"/>
<path d="M22.0703 18.8801H34.6792V25.5468L40.7456 31.2073V25.5468H46.4636L38.2435 20.6267V25.5539H37.3945V18.8801H49.9963V15.6438H37.3945V9H34.6794V15.6438H22.0705L22.0703 18.8801Z" fill="#438BE3"/>
<path d="M22.0704 23.0212C22.0704 23.1729 22.0814 23.32 22.107 23.465L28.0308 19.9395H22.0703L22.0704 23.0212Z" fill="#438BE3"/>
<path d="M22.0703 14.4406H27.8904L22.1766 11.0039H22.1183C22.0833 11.1717 22.0711 11.3455 22.0711 11.5244V14.4406H22.0703Z" fill="#438BE3"/>
<path d="M33.6933 9H25.6328L33.6933 13.783V9Z" fill="#438BE3"/>
<path d="M25.6172 25.5482H33.6948V20.7148L25.6172 25.5482Z" fill="#438BE3"/>
<path d="M29.0542 14.4991H31.3175L31.2609 14.4414L23.0345 9.54297C22.7079 9.80127 22.4406 10.1335 22.2734 10.5246L28.9689 14.4418L29.0542 14.4991Z" fill="#438BE3"/>
<path d="M46.4522 9H38.25V13.8684L46.4522 9Z" fill="#438BE3"/>
</g>
<defs>
<clipPath id="clip0_2971_1607">
<path d="M0 0H50V50H0V0Z" fill="white"/>
</clipPath>
</defs>
</svg>
