<svg width="50" height="50" viewBox="0 0 50 50" fill="none" xmlns="http://www.w3.org/2000/svg">
<path d="M23.5022 0C20.7328 0 18.0256 0.821214 15.723 2.35979C13.4203 3.89837 11.6257 6.08522 10.5659 8.64378C9.50607 11.2023 9.22878 14.0177 9.76905 16.7339C10.3093 19.45 11.6429 21.945 13.6012 23.9032C15.5594 25.8615 18.0543 27.195 20.7705 27.7353C23.4867 28.2756 26.302 27.9983 28.8606 26.9385C31.4192 25.8787 33.606 24.084 35.1446 21.7814C36.6832 19.4787 37.5044 16.7716 37.5044 14.0022C37.5001 10.2899 36.0235 6.73085 33.3985 4.10585C30.7735 1.48086 27.2145 0.00426212 23.5022 0ZM23.5747 26.8771C19.0737 27.0381 10.9252 23.4953 10.7641 13.7284C10.848 10.3854 12.2348 7.20749 14.6289 4.8727C17.0229 2.53791 20.2346 1.2311 23.5787 1.2311C26.9227 1.2311 30.1344 2.53791 32.5285 4.8727C34.9225 7.20749 36.3094 10.3854 36.3932 13.7284C36.4025 17.1617 35.0653 20.4617 32.6687 22.9201C30.2721 25.3785 27.0071 26.7991 23.5747 26.8771Z" fill="#438BE3"/>
<path d="M23.6091 1.91016C20.4225 1.91005 17.365 3.16926 15.1028 5.41343C12.8405 7.6576 11.5568 10.7049 11.5313 13.8913C11.5228 17.0561 12.7718 20.0947 15.0036 22.3386C17.2354 24.5824 20.2672 25.8479 23.4319 25.8564C26.5967 25.8649 29.6353 24.6159 31.8792 22.3841C34.1231 20.1523 35.3885 17.1205 35.397 13.9557C35.4161 12.3902 35.1262 10.8363 34.5437 9.38302C33.9613 7.92975 33.0978 6.60569 32.0028 5.48671C30.9077 4.36773 29.6026 3.47582 28.1623 2.86209C26.7219 2.24836 25.1747 1.92487 23.6091 1.91016ZM15.7988 20.4294C15.72 20.4283 15.6432 20.4041 15.5781 20.3598C15.5129 20.3155 15.4622 20.253 15.4322 20.1802C15.4022 20.1073 15.3942 20.0272 15.4093 19.9499C15.4243 19.8725 15.4618 19.8013 15.517 19.745L29.503 5.77505C29.5778 5.70031 29.6792 5.65832 29.7849 5.65832C29.8372 5.65832 29.889 5.66863 29.9374 5.68866C29.9857 5.70868 30.0297 5.73804 30.0667 5.77505C30.1037 5.81206 30.133 5.85599 30.1531 5.90435C30.1731 5.9527 30.1834 6.00453 30.1834 6.05686C30.1834 6.1092 30.1731 6.16103 30.1531 6.20938C30.133 6.25774 30.1037 6.30167 30.0667 6.33868L16.0886 20.3248C16.0118 20.4018 15.9076 20.4453 15.7988 20.4455V20.4294ZM30.7591 11.7254L22.0712 20.4133C21.9968 20.4892 21.8956 20.5326 21.7894 20.5341C21.6806 20.5338 21.5763 20.4904 21.4995 20.4133C21.4252 20.3367 21.3837 20.2342 21.3837 20.1275C21.3837 20.0208 21.4252 19.9183 21.4995 19.8417L30.1955 11.1295C30.2316 11.091 30.2753 11.0603 30.3238 11.0393C30.3722 11.0184 30.4245 11.0075 30.4773 11.0075C30.5301 11.0075 30.5824 11.0184 30.6309 11.0393C30.6793 11.0603 30.723 11.091 30.7591 11.1295C30.8006 11.1673 30.8338 11.2133 30.8565 11.2646C30.8792 11.3159 30.8909 11.3714 30.8909 11.4275C30.8909 11.4836 30.8792 11.539 30.8565 11.5903C30.8338 11.6416 30.8006 11.6876 30.7591 11.7254Z" fill="#438BE3"/>
<path d="M36.2624 21.4648C34.9969 23.6421 33.1956 25.4596 31.0298 26.7445C28.8639 28.0294 26.4054 28.7391 23.8879 28.8061C21.3705 28.873 18.8777 28.2951 16.6466 27.1271C14.4155 25.9592 12.5201 24.2401 11.1406 22.1331C12.2139 24.5199 13.9603 26.5417 16.1657 27.9504C18.3712 29.3592 20.9398 30.0939 23.5566 30.0642C26.2941 30.0772 28.9718 29.2631 31.2389 27.7287C33.506 26.1943 35.257 24.0111 36.2624 21.4648Z" fill="#438BE3"/>
<path d="M23.5557 30.8711H23.2578V46.1696H24.063V30.8711H23.5557Z" fill="#438BE3"/>
<path d="M31.6211 46.9434H15.614C14.947 46.9434 14.4062 47.4841 14.4062 48.1511V48.5537C14.4062 49.2208 14.947 49.7615 15.614 49.7615H31.6211C32.2882 49.7615 32.8289 49.2208 32.8289 48.5537V48.1511C32.8289 47.4841 32.2882 46.9434 31.6211 46.9434Z" fill="#438BE3"/>
</svg>
