<svg width="50" height="50" viewBox="0 0 50 50" fill="none" xmlns="http://www.w3.org/2000/svg">
<path d="M12.3672 21.7822L12.4103 21.7578L12.3672 21.7822Z" fill="#438BE3"/>
<path d="M47.3263 12.7867H38.7458L41.2484 14.2223H47.3255C47.4577 14.2223 47.5643 14.3298 47.5643 14.4612V41.2584C47.5643 41.3906 47.4569 41.4973 47.3255 41.4973H3.58952C2.40231 41.4973 1.43645 40.5314 1.43645 39.3442C1.43645 38.157 2.40231 37.1911 3.58952 37.1911C4.77674 37.1911 5.7426 38.157 5.7426 39.3442C5.7426 39.7407 6.06429 40.0616 6.46003 40.0616C6.85656 40.0616 7.17745 39.7399 7.17745 39.3442V14.2223H13.4018L15.9044 12.7867H7.17745V11.5907C7.17745 9.61198 5.56742 8.00195 3.58873 8.00195C1.61003 8.00195 0 9.61198 0 11.5907V39.345C0 41.3237 1.61003 42.9337 3.58873 42.9337H47.3255C48.2491 42.9337 49 42.182 49 41.2592V14.4612C49.0008 13.5375 48.2499 12.7867 47.3263 12.7867ZM1.43645 11.5899C1.43645 10.4027 2.40231 9.43681 3.58952 9.43681C4.77674 9.43681 5.7426 10.4027 5.7426 11.5899V36.4745C5.14222 36.023 4.39613 35.7547 3.58952 35.7547C2.78212 35.7547 2.03603 36.0222 1.43645 36.4745V11.5899Z" fill="#438BE3"/>
<path d="M11.2969 38.3854C11.2969 38.7819 11.6186 39.1028 12.0143 39.1028H42.6399C43.0364 39.1028 43.3573 38.7811 43.3573 38.3854C43.3573 37.9889 43.0356 37.668 42.6399 37.668H12.0151C11.6186 37.668 11.2969 37.9889 11.2969 38.3854Z" fill="#438BE3"/>
<path d="M11.2969 17.5003V20.7435L26.9704 11.7545C27.1917 11.6279 27.4633 11.6279 27.6846 11.7545L43.3581 20.7435V17.5003C43.3581 17.2431 43.2204 17.0059 42.9974 16.8777L27.6846 8.09495C27.4633 7.96835 27.1917 7.96835 26.9704 8.09495L11.6576 16.8777C11.4346 17.0051 11.2969 17.2431 11.2969 17.5003Z" fill="#438BE3"/>
<path d="M13.8438 20.9332V36.2308H22.2976V25.4647C22.2976 25.0681 22.6193 24.7472 23.015 24.7472H31.6281C32.0247 24.7472 32.3456 25.0689 32.3456 25.4647V36.2316H40.7994V20.9332L27.3212 13.2031L13.8438 20.9332Z" fill="#438BE3"/>
<path d="M23.7422 26.1836V36.2323H30.9196V26.1836H23.7422ZM30.4419 31.6865C30.4419 32.0831 30.1202 32.4039 29.7245 32.4039C29.3287 32.4039 29.007 32.0823 29.007 31.6865V30.7294C29.007 30.3329 29.3287 30.012 29.7245 30.012C30.1202 30.012 30.4419 30.3337 30.4419 30.7294V31.6865Z" fill="#438BE3"/>
</svg>
