<svg width="50" height="50" viewBox="0 0 50 50" fill="none" xmlns="http://www.w3.org/2000/svg">
<path d="M25 3C12.8756 3 3 12.8756 3 25C3 37.1244 12.8756 47 25 47C37.1244 47 47 37.1244 47 25C47 12.8756 37.1244 3 25 3ZM8.37778 17.9111C9.35556 17.1778 10.8222 15.76 11.5556 14.7822L14.5378 10.7733C15.4178 9.55111 15.8578 9.40444 17.3244 8.67111C19.6222 7.49778 22.1644 6.91111 24.7067 6.81333H25.3422C27.9333 6.91111 30.4756 7.49778 32.7244 8.67111C34.1422 9.40444 34.5822 9.55111 35.5111 10.7733L38.4933 14.7822C39.2267 15.76 40.6444 17.2267 41.6711 17.9111C42.0133 18.3022 42.2089 18.7911 42.16 19.28C42.1111 19.6711 41.8667 20.0133 41.3778 20.2089L40.2044 20.5511C39.8622 20.6489 39.4711 20.6978 39.08 20.6978L32.3822 20.0622C31.6978 20.0133 31.0133 19.7689 30.3778 19.4267C28.1778 18.1067 27.1022 18.0089 25.0978 17.9111C23.0933 18.0089 22.0178 18.1556 19.8178 19.4267C19.2311 19.7689 18.5467 20.0133 17.8133 20.0622L11.1156 20.6978C10.7244 20.6978 10.3822 20.6489 9.99111 20.5511L8.81778 20.2089C8.32889 20.0133 8.08444 19.6711 8.03556 19.28C7.84 18.7911 8.03556 18.3022 8.37778 17.9111ZM40.2533 25.4889L35.6578 25.9778C35.3644 26.0267 35.12 25.8311 35.0222 25.5867L34.3378 23.4356C34.24 23.0444 34.4844 22.6533 34.8756 22.6533H39.3733C39.6178 22.6533 39.8133 22.8 39.9111 22.9956L40.6933 24.6089C40.8889 25 40.6444 25.44 40.2533 25.4889ZM30.8667 26.8089C30.8667 30.0356 28.2267 32.6756 25 32.6756C21.7733 32.6756 19.1333 30.0356 19.1333 26.8089C19.1333 23.5822 21.7733 20.9422 25 20.9422C28.2267 20.9422 30.8667 23.5822 30.8667 26.8089ZM15.8089 23.4356L15.1244 25.5867C15.0267 25.8311 14.7822 26.0267 14.4889 25.9778L9.89333 25.4889C9.50222 25.44 9.25778 25 9.45333 24.6578L10.2356 23.0444C10.3333 22.8489 10.5289 22.7022 10.7733 22.7022H15.2222C15.6622 22.7022 15.9067 23.0933 15.8089 23.4356ZM20.9422 42.3556C14.0978 41.7689 7.15556 33.8489 8.08444 27.64C8.13333 27.3956 8.37778 27.2489 8.62222 27.2978L14.7822 28.7156C15.3689 28.8622 15.9067 29.3022 16.1022 29.8889C16.8356 31.7467 18.1067 33.4578 19.9156 34.9733C20.3067 35.2667 20.5511 35.7067 20.6 36.1956L21.3333 42.0133C21.3822 42.16 21.1867 42.3556 20.9422 42.3556ZM26.3689 41.8178C26.32 42.0622 26.1244 42.2089 25.9289 42.2089H23.9733C23.7289 42.2089 23.5333 42.0133 23.5333 41.8178L23.0933 37.76C23.0444 37.4667 23.3378 37.2222 23.6311 37.2711L24.0711 37.32C24.6578 37.4178 25.2444 37.4178 25.8311 37.32L26.2711 37.2711C26.5644 37.2222 26.8089 37.4667 26.8089 37.76L26.3689 41.8178ZM29.0578 42.3556C28.8133 42.3556 28.6178 42.16 28.6667 41.9156L29.4 36.0978C29.4489 35.6089 29.6933 35.1689 30.0844 34.8756C31.8933 33.36 33.1644 31.6489 33.8978 29.7911C34.1422 29.2044 34.6311 28.7644 35.2178 28.6178L41.3778 27.2C41.6222 27.1511 41.8667 27.2978 41.9156 27.5422C42.8444 33.8 35.8533 41.7689 29.0578 42.3556ZM25 21.48C22.0667 21.48 19.6711 23.8756 19.6711 26.8089C19.6711 29.7422 22.0667 32.1378 25 32.1378C27.9333 32.1378 30.3289 29.7422 30.3289 26.8089C30.3289 23.8756 27.9333 21.48 25 21.48Z" fill="#438BE3"/>
</svg>
