<svg width="50" height="50" viewBox="0 0 50 50" fill="none" xmlns="http://www.w3.org/2000/svg">
<path d="M47 41V9H2V41H47ZM44.4336 14.6091C44.4336 14.5217 44.4684 14.4379 44.5304 14.3761C44.5924 14.3143 44.6764 14.2796 44.7641 14.2796C44.8517 14.2796 44.9358 14.3143 44.9977 14.3761C45.0597 14.4379 45.0945 14.5217 45.0945 14.6091V35.2857C45.0945 35.3731 45.0597 35.4569 44.9977 35.5187C44.9358 35.5805 44.8517 35.6153 44.7641 35.6153C44.6764 35.6153 44.5924 35.5805 44.5304 35.5187C44.4684 35.4569 44.4336 35.3731 44.4336 35.2857V14.6091ZM6.46484 31.4365C6.46484 31.3491 6.49966 31.2652 6.56164 31.2034C6.62361 31.1416 6.70767 31.1069 6.79531 31.1069C6.88296 31.1069 6.96701 31.1416 7.02899 31.2034C7.09096 31.2652 7.12578 31.3491 7.12578 31.4365V37.922H15.6828V29.7046C15.6828 29.6172 15.7176 29.5334 15.7796 29.4716C15.8416 29.4098 15.9256 29.3751 16.0133 29.3751H19.8594C19.947 29.3751 20.0311 29.4098 20.0931 29.4716C20.155 29.5334 20.1898 29.6172 20.1898 29.7046C20.1898 29.792 20.155 29.8759 20.0931 29.9377C20.0311 29.9995 19.947 30.0342 19.8594 30.0342H16.3438V37.95H24.282V30.0342H22.8195C22.7761 30.0342 22.7332 30.0257 22.6931 30.0091C22.653 29.9925 22.6165 29.9683 22.5859 29.9377C22.5552 29.9071 22.5308 29.8707 22.5142 29.8308C22.4976 29.7908 22.4891 29.7479 22.4891 29.7046C22.4891 29.6614 22.4976 29.6185 22.5142 29.5785C22.5308 29.5386 22.5552 29.5022 22.5859 29.4716C22.6165 29.441 22.653 29.4168 22.6931 29.4002C22.7332 29.3836 22.7761 29.3751 22.8195 29.3751H24.6125C24.7001 29.3751 24.7842 29.4098 24.8462 29.4716C24.9082 29.5334 24.943 29.6172 24.943 29.7046V37.95H30.3992V35.0894C30.3992 35.002 30.434 34.9182 30.496 34.8564C30.558 34.7946 30.642 34.7599 30.7297 34.7599C30.8173 34.7599 30.9014 34.7946 30.9634 34.8564C31.0253 34.9182 31.0602 35.002 31.0602 35.0894V37.95H41.8742V27.1735H31.0602V31.8992C31.0602 31.9866 31.0253 32.0704 30.9634 32.1322C30.9014 32.194 30.8173 32.2287 30.7297 32.2287C30.642 32.2287 30.558 32.194 30.496 32.1322C30.434 32.0704 30.3992 31.9866 30.3992 31.8992V26.844C30.3992 26.7566 30.434 26.6728 30.496 26.611C30.558 26.5492 30.642 26.5145 30.7297 26.5145H41.8742V12.05H20.1898V15.9553C20.1898 16.0427 20.155 16.1265 20.0931 16.1883C20.0311 16.2501 19.947 16.2848 19.8594 16.2848C19.7717 16.2848 19.6877 16.2501 19.6257 16.1883C19.5637 16.1265 19.5289 16.0427 19.5289 15.9553V12.05H7.12578V22.1954H19.5289V18.9211C19.5289 18.8337 19.5637 18.7499 19.6257 18.6881C19.6877 18.6263 19.7717 18.5916 19.8594 18.5916C19.947 18.5916 20.0311 18.6263 20.0931 18.6881C20.155 18.7499 20.1898 18.8337 20.1898 18.9211V22.553C20.1898 22.6404 20.155 22.7242 20.0931 22.786C20.0311 22.8478 19.947 22.8826 19.8594 22.8826H7.12578V28.3514L9.55859 30.6722C9.622 30.7327 9.65873 30.8157 9.66071 30.9032C9.66268 30.9906 9.62975 31.0753 9.56914 31.1385C9.50853 31.2017 9.42522 31.2383 9.33754 31.2403C9.24985 31.2423 9.16497 31.2094 9.10156 31.149L6.57031 28.7301C6.54733 28.7051 6.52836 28.6767 6.51406 28.6459C6.51348 28.6342 6.51348 28.6225 6.51406 28.6109C6.51046 28.5829 6.51046 28.5547 6.51406 28.5267V11.7204C6.51406 11.633 6.54888 11.5492 6.61085 11.4874C6.67283 11.4256 6.75689 11.3909 6.84453 11.3909H42.2047C42.2923 11.3909 42.3764 11.4256 42.4384 11.4874C42.5003 11.5492 42.5352 11.633 42.5352 11.7204V38.2796C42.5352 38.367 42.5003 38.4508 42.4384 38.5126C42.3764 38.5744 42.2923 38.6091 42.2047 38.6091H6.79531C6.70767 38.6091 6.62361 38.5744 6.56164 38.5126C6.49966 38.4508 6.46484 38.367 6.46484 38.2796V31.4365ZM3.82109 14.6091C3.82109 14.5217 3.85591 14.4379 3.91789 14.3761C3.97986 14.3143 4.06392 14.2796 4.15156 14.2796C4.23921 14.2796 4.32326 14.3143 4.38524 14.3761C4.44721 14.4379 4.48203 14.5217 4.48203 14.6091V35.2857C4.48203 35.3731 4.44721 35.4569 4.38524 35.5187C4.32326 35.5805 4.23921 35.6153 4.15156 35.6153C4.06392 35.6153 3.97986 35.5805 3.91789 35.5187C3.85591 35.4569 3.82109 35.3731 3.82109 35.2857V14.6091Z" fill="#438BE3"/>
</svg>
