<svg width="50" height="50" viewBox="0 0 50 50" fill="none" xmlns="http://www.w3.org/2000/svg">
<path d="M49.5339 15H0.466143C0.208538 15 0 15.2085 0 15.4661V35.0932C0 35.3508 0.208538 35.5594 0.466143 35.5594H2.50245C2.72326 36.9455 3.92542 38.0128 5.37291 38.0128C6.82041 38.0128 8.02257 36.9455 8.24338 35.5594H41.7689C41.9897 36.9455 43.1919 38.0128 44.6394 38.0128C46.0868 38.0128 47.289 36.9455 47.5098 35.5594H49.5339C49.7915 35.5594 50 35.3508 50 35.0932V15.4539C50 15.1963 49.7915 15 49.5339 15ZM2.91953 17.4534H5.37291C5.63052 17.4534 5.83906 17.6619 5.83906 17.9195C5.83906 18.1771 5.63052 18.3734 5.37291 18.3734H2.91953C2.66192 18.3734 2.45339 18.1649 2.45339 17.9073C2.45339 17.6497 2.66192 17.4534 2.91953 17.4534ZM2.91953 21.1335H5.37291C5.63052 21.1335 5.83906 21.342 5.83906 21.5996C5.83906 21.8572 5.63052 22.0535 5.37291 22.0535H2.91953C2.66192 22.0535 2.45339 21.8449 2.45339 21.5873C2.45339 21.3297 2.66192 21.1335 2.91953 21.1335ZM2.46565 25.2674C2.46565 25.0098 2.67419 24.8013 2.9318 24.8013H5.38518C5.64279 24.8013 5.85133 25.0098 5.85133 25.2674C5.85133 25.525 5.63052 25.7336 5.37291 25.7336H2.91953C2.66192 25.7336 2.46565 25.525 2.46565 25.2674ZM10.2797 25.7336H7.8263C7.56869 25.7336 7.36016 25.525 7.36016 25.2674C7.36016 25.0098 7.56869 24.8013 7.8263 24.8013H10.2797C10.5373 24.8013 10.7458 25.0098 10.7458 25.2674C10.7458 25.525 10.5373 25.7336 10.2797 25.7336ZM10.2797 22.0535H7.8263C7.56869 22.0535 7.36016 21.8449 7.36016 21.5873C7.36016 21.3297 7.56869 21.1212 7.8263 21.1212H10.2797C10.5373 21.1212 10.7458 21.3297 10.7458 21.5873C10.7458 21.8449 10.5373 22.0535 10.2797 22.0535ZM10.2797 18.3734H7.8263C7.56869 18.3734 7.36016 18.1649 7.36016 17.9073C7.36016 17.6497 7.56869 17.4411 7.8263 17.4411H10.2797C10.5373 17.4411 10.7458 17.6497 10.7458 17.9073C10.7458 18.1649 10.5373 18.3734 10.2797 18.3734ZM15.1865 25.7336H12.7331C12.4755 25.7336 12.2669 25.525 12.2669 25.2674C12.2669 25.0098 12.4755 24.8013 12.7331 24.8013H15.1865C15.4441 24.8013 15.6526 25.0098 15.6526 25.2674C15.6526 25.525 15.4441 25.7336 15.1865 25.7336ZM15.1865 22.0535H12.7331C12.4755 22.0535 12.2669 21.8449 12.2669 21.5873C12.2669 21.3297 12.4755 21.1212 12.7331 21.1212H15.1865C15.4441 21.1212 15.6526 21.3297 15.6526 21.5873C15.6526 21.8449 15.4441 22.0535 15.1865 22.0535ZM15.1865 18.3734H12.7331C12.4755 18.3734 12.2669 18.1649 12.2669 17.9073C12.2669 17.6497 12.4755 17.4411 12.7331 17.4411H15.1865C15.4441 17.4411 15.6526 17.6497 15.6526 17.9073C15.6526 18.1649 15.4441 18.3734 15.1865 18.3734ZM45.2527 30.7875C45.2404 30.7998 45.2404 30.7998 45.2404 30.7998C43.8297 32.2105 41.867 33.0815 39.7203 33.0815C37.5736 33.0815 35.6109 32.2105 34.2002 30.7998H34.1879V30.7875C32.7772 29.3768 31.9063 27.4264 31.9063 25.2674C31.9063 23.1084 32.7772 21.158 34.1879 19.7473V19.735H34.2002C35.6109 18.3243 37.5736 17.4534 39.7203 17.4534C41.867 17.4534 43.8297 18.3243 45.2404 19.735H45.2527V19.7473C46.6634 21.158 47.5343 23.1084 47.5343 25.2674C47.5343 27.4264 46.6634 29.3768 45.2527 30.7875Z" fill="#438BE3"/>
<path d="M45.8522 24.8146H46.6005C46.5024 23.2567 45.8768 21.846 44.9077 20.742L44.3802 21.2694C44.2943 21.3553 44.1717 21.4044 44.049 21.4044C43.9263 21.4044 43.8159 21.3553 43.7178 21.2694C43.5338 21.0854 43.5338 20.8033 43.7178 20.6193L44.2453 20.0918C43.1413 19.1227 41.7306 18.5094 40.1727 18.399V19.135C40.1727 19.3926 39.9641 19.6011 39.7065 19.6011C39.4489 19.6011 39.2404 19.3926 39.2404 19.135V18.3867C37.6825 18.4849 36.2718 19.1105 35.1678 20.0796L35.6952 20.607C35.8792 20.791 35.8792 21.0732 35.6952 21.2572C35.6094 21.343 35.4867 21.3921 35.364 21.3921C35.2414 21.3921 35.1309 21.343 35.0328 21.2572L34.5053 20.7297C33.5362 21.8337 32.9229 23.2444 32.8125 24.8023H33.5853C33.8429 24.8023 34.0515 25.0109 34.0515 25.2685C34.0515 25.5261 33.8429 25.7346 33.5853 25.7346H32.837C32.9352 27.2925 33.5608 28.7032 34.5299 29.8072L35.0573 29.2798C35.2414 29.0957 35.5235 29.0957 35.7075 29.2798C35.8915 29.4638 35.8915 29.7459 35.7075 29.9299L35.18 30.4574C36.284 31.4265 37.6947 32.0398 39.2526 32.1502V31.4019C39.2526 31.1443 39.4612 30.9358 39.7188 30.9358C39.9764 30.9358 40.1849 31.1443 40.1849 31.4019V32.1502C41.7428 32.0521 43.1535 31.4265 44.2575 30.4574L43.7301 29.9299C43.5461 29.7459 43.5461 29.4638 43.7301 29.2798C43.9141 29.0957 44.1962 29.0957 44.3802 29.2798L44.9077 29.8072C45.8768 28.7032 46.4901 27.2925 46.6005 25.7346H45.8522C45.5946 25.7346 45.3861 25.5261 45.3861 25.2685C45.3861 25.0109 45.5946 24.8146 45.8522 24.8146ZM39.7188 30.6414C36.7624 30.6414 34.3459 28.2371 34.3459 25.2685C34.3459 22.2999 36.7502 19.8956 39.7188 19.8956C42.6874 19.8956 45.0917 22.2999 45.0917 25.2685C45.0917 28.2371 42.6751 30.6414 39.7188 30.6414Z" fill="#438BE3"/>
</svg>
