<svg width="50" height="50" viewBox="0 0 50 50" fill="none" xmlns="http://www.w3.org/2000/svg">
<path d="M40.1583 20.9649C39.5601 19.1732 38.1199 15.1247 36.0739 11.0593C34.704 8.33932 33.0653 5.61189 31.2004 3.53554C30.2666 2.49761 29.2756 1.6212 28.2197 0.99655C27.25 0.42225 26.2186 0.0648082 25.1463 0.0109675V0C25.0994 0 25.0531 0.00448672 25.0062 0.00548377C24.9593 0.00448672 24.913 0 24.8661 0V0.0109675C23.7938 0.0648082 22.7628 0.42225 21.7927 0.99655C19.9472 2.09181 18.2916 3.94981 16.8119 6.11141C14.5965 9.35531 12.7874 13.2991 11.5236 16.4393C10.7504 18.3612 10.1846 19.9779 9.86002 20.9475C7.58475 25.341 3.0427 35.5293 5.93264 42.1408C9.18053 49.5698 20.335 49.5807 25.0062 49.51C29.6774 49.5807 40.8667 49.5698 44.0792 42.1408C46.9393 35.5278 42.4291 25.3654 40.1583 20.9649ZM28.4984 30.9823V35.8489C28.4984 36.663 27.8134 37.322 26.9684 37.322H23.1143C22.2688 37.322 21.5838 36.663 21.5838 35.8489V30.8597C17.3633 30.2804 10.8152 28.2589 10.7962 21.2935C11.4319 19.3911 13.0556 14.8296 15.3463 10.5069C16.6664 8.01328 18.2108 5.60192 19.8878 3.84113C20.7259 2.96024 21.5958 2.24336 22.4767 1.75331C23.3117 1.28869 24.1512 1.03494 25.0017 1.00752C25.915 1.03494 26.8168 1.32508 27.7122 1.85401C29.3558 2.82314 30.9476 4.57745 32.3774 6.67325C34.5255 9.81595 36.3172 13.7099 37.564 16.8107C38.1882 18.3617 38.6762 19.7146 39.0082 20.6788C39.0975 20.9375 39.1742 21.1654 39.2406 21.3643C39.3113 28.6612 32.7533 30.5346 28.4984 30.9823Z" fill="#438BE3"/>
<path d="M27.5667 35.3873C27.5667 36.0135 27.0592 36.5205 26.4335 36.5205H23.579C22.9528 36.5205 22.4453 36.013 22.4453 35.3873V31.0003C22.4453 30.3747 22.9528 29.8672 23.579 29.8672H26.4335C27.0597 29.8672 27.5667 30.3747 27.5667 31.0003V35.3873Z" fill="#438BE3"/>
</svg>
