<svg width="50" height="50" viewBox="0 0 50 50" fill="none" xmlns="http://www.w3.org/2000/svg">
<path d="M40.3985 42.8949C40.3985 42.8949 40.4606 8.86306 40.3985 7.99363C40.3985 7.18631 39.5291 7 39.5291 7H9.59599C9.59599 7 8.72656 7.18631 8.72656 8.05573C8.72656 9.11146 8.72656 42.8949 8.72656 42.8949H40.3985ZM24.6247 37.3678C23.4447 37.3678 22.5132 36.4363 22.5132 35.3185C22.5132 34.2006 23.4447 33.2691 24.6247 33.2691C25.8046 33.2691 26.7982 34.2006 26.7982 35.3185C26.7361 36.4363 25.7425 37.3678 24.6247 37.3678ZM37.8524 38.7341C37.8524 38.9825 37.4797 39.1067 37.4797 39.1067H35.3062C35.3062 39.1067 34.9957 39.0446 34.9957 38.7962C34.9957 38.2994 34.9957 32.7102 34.9957 32.3376C34.9957 32.0271 35.3062 32.0271 35.3062 32.0271H37.604C37.604 32.0271 37.8524 32.0892 37.8524 32.3376C37.8524 32.3997 37.8524 33.5796 37.8524 34.8838H36.424C36.1756 34.8838 35.9893 35.0701 35.9893 35.3185C35.9893 35.5669 36.1756 35.7532 36.424 35.7532H37.8524C37.8524 37.1815 37.8524 38.6099 37.8524 38.7341ZM10.2791 8.49045H38.846V28.3631H10.2791V8.49045Z" fill="#438BE3"/>
<path d="M37.2961 11.0371H12.0207C11.7722 11.0371 11.5859 11.2234 11.5859 11.4718C11.5859 11.7202 11.7722 11.9065 12.0207 11.9065H37.2961C37.5445 11.9065 37.7308 11.7202 37.7308 11.4718C37.7308 11.2234 37.5445 11.0371 37.2961 11.0371Z" fill="#438BE3"/>
<path d="M37.2961 14.2031H12.0207C11.7722 14.2031 11.5859 14.3894 11.5859 14.6378C11.5859 14.8862 11.7722 15.0726 12.0207 15.0726H37.2961C37.5445 15.0726 37.7308 14.8862 37.7308 14.6378C37.7308 14.3894 37.5445 14.2031 37.2961 14.2031Z" fill="#438BE3"/>
<path d="M37.2957 17.3701H27.6699C27.2973 16.7491 26.4279 16.0039 24.5648 16.0039C22.7018 16.0039 21.8945 16.7491 21.4597 17.3701H11.9582C11.7097 17.3701 11.5234 17.5565 11.5234 17.8049C11.5234 18.0533 11.7097 18.2396 11.9582 18.2396H37.2336C37.482 18.2396 37.6683 18.0533 37.6683 17.8049C37.7304 17.5565 37.5441 17.3701 37.2957 17.3701Z" fill="#438BE3"/>
<path d="M37.2961 20.5393H28.105V19.3594H21.1496V20.5393H12.0207C11.7722 20.5393 11.5859 20.7256 11.5859 20.974C11.5859 21.2224 11.7722 21.4087 12.0207 21.4087H37.2961C37.5445 21.4087 37.7308 21.2224 37.7308 20.974C37.7308 20.7877 37.5445 20.5393 37.2961 20.5393Z" fill="#438BE3"/>
<path d="M37.2961 23.769H28.105V22.4648H21.1496V23.769H12.0207C11.7722 23.769 11.5859 23.9553 11.5859 24.2037C11.5859 24.4521 11.7722 24.6384 12.0207 24.6384H37.2961C37.5445 24.6384 37.7308 24.4521 37.7308 24.2037C37.7308 23.9553 37.5445 23.769 37.2961 23.769Z" fill="#438BE3"/>
<path d="M43.1306 44.0117H5.86943C5.37261 44.0117 5 44.3843 5 44.8811C5 45.378 5.37261 45.7506 5.86943 45.7506H43.1306C43.6274 45.7506 44 45.378 44 44.8811C44 44.3843 43.6274 44.0117 43.1306 44.0117Z" fill="#438BE3"/>
<path d="M28.1038 25.5684H21.1484V27.3693H28.1038V25.5684Z" fill="#438BE3"/>
</svg>
