<svg width="145" height="50" viewBox="0 0 145 50" fill="none" xmlns="http://www.w3.org/2000/svg">
<path d="M9.98484 -0.283647C7.01377 0.334617 4.13999 2.4413 2.53135 5.17197C1.98751 6.09936 1.55243 7.29009 1.32917 8.46938C1.25475 8.87011 1.22612 9.29948 1.22612 10.2554C1.22612 11.6523 1.31199 12.2705 1.6612 13.3297C2.2165 15.0298 3.50455 16.8332 4.91281 17.875L5.37079 18.2071L5.40514 18.5391C5.43376 18.791 5.47383 18.8826 5.57688 18.9513C5.64557 18.997 5.78869 19.1115 5.89173 19.2031C5.99478 19.3004 6.28101 19.5123 6.52717 19.6783C6.89927 19.9301 6.9737 20.0103 6.94507 20.1019C6.8821 20.3252 6.85348 21.8193 6.91072 22.0312L6.96798 22.2429L6.65312 22.283C6.45848 22.3059 6.28674 22.3689 6.19514 22.4433C6.0692 22.5521 6.05202 22.615 6.05202 22.9414C6.05202 23.5138 6.29246 25.7178 6.40123 26.1071L6.49854 26.4563L6.905 26.4506C7.27138 26.4506 7.31145 26.462 7.24848 26.5364C6.905 26.9887 5.42804 28.5344 4.24303 29.685C2.34816 31.5226 1.79287 32.1695 1.07156 33.3545C0.647934 34.0415 0.310178 34.9059 0.189959 35.5929C0.058292 36.3486 0.109814 37.7167 0.298728 38.6269C0.441845 39.2967 0.544889 39.6001 0.653658 39.6345C0.796775 39.6746 0.86547 39.5143 0.968515 38.8731C1.1288 37.8942 1.30627 37.4133 1.78142 36.7149C2.02758 36.3542 2.64584 35.6673 2.80613 35.5871C2.89773 35.5356 2.89773 35.5528 2.79469 35.8905C2.35961 37.3389 2.41113 38.5583 2.96642 39.7318C3.21831 40.2643 3.44158 40.5103 3.59042 40.4188C3.64194 40.3844 3.75071 40.1268 3.83085 39.8463C3.97969 39.3311 4.14571 38.9647 4.22013 38.9647C4.24303 38.9647 4.36897 39.3082 4.50636 39.7261C5.03876 41.3862 5.87456 42.743 6.80196 43.4528C7.52899 44.0138 8.08429 44.1971 9.96767 44.5176C12.0744 44.8726 12.9274 45.1588 13.4998 45.6912C13.8548 46.0233 14.0437 46.3381 14.2841 47.0022C14.4845 47.5803 14.5818 47.6891 14.7536 47.5345C14.9252 47.38 15.1714 46.7789 15.2516 46.3266L15.3203 45.9202L15.3947 46.1778C15.6351 47.048 16.0359 47.546 17.0491 48.233C17.9994 48.8742 18.7837 49.6069 19.1386 50.1736C19.2188 50.3053 19.3161 50.4141 19.3447 50.4141C19.3734 50.4141 19.442 50.3282 19.4935 50.2251C19.6767 49.8702 20.8217 48.8054 21.5773 48.296C21.9723 48.0326 22.4246 47.6833 22.5848 47.5231C22.8998 47.214 23.1917 46.6759 23.3119 46.1835L23.392 45.8744L23.4607 46.3152C23.5581 46.8934 23.8901 47.5803 24.0847 47.5803C24.1993 47.5803 24.245 47.5059 24.4397 46.9964C24.806 46.0233 25.1209 45.6397 25.8423 45.2733C26.512 44.9413 27.2562 44.7524 29.2255 44.4318C30.2444 44.2658 30.9086 44.0711 31.4238 43.7906C31.8932 43.5272 32.7462 42.6914 33.1126 42.1248C33.5133 41.495 33.9713 40.5103 34.2461 39.6574L34.4922 38.9018L34.6467 39.1823C34.7327 39.3368 34.8414 39.6402 34.8872 39.8521C35.0017 40.3387 35.0589 40.4531 35.2021 40.4531C35.494 40.4531 36.015 39.3425 36.181 38.3636C36.2955 37.6824 36.181 36.7207 35.8547 35.6215C35.8318 35.5414 35.9463 35.6215 36.1752 35.8448C37.1313 36.7722 37.5892 37.6766 37.7781 39.0335C37.8469 39.5429 37.9213 39.6803 38.0873 39.6173C38.2075 39.5716 38.3277 39.1594 38.4938 38.1804C38.8544 36.1253 38.5395 34.6769 37.3603 32.8966C36.8222 32.0836 36.2096 31.3967 34.7899 30.017C33.5819 28.8378 32.4714 27.6871 31.5726 26.6739L31.3608 26.4335L31.7902 26.4678L32.2196 26.5021L32.2539 26.3361C32.2767 26.2445 32.3168 26.0899 32.3455 25.9983C32.4141 25.7922 32.6832 23.2734 32.6832 22.8498C32.6832 22.4719 32.5744 22.3632 32.1279 22.2945C31.9447 22.2658 31.7902 22.2373 31.7844 22.2257C31.7729 22.2201 31.7959 22.0597 31.8302 21.8708C31.8932 21.5503 31.876 20.8347 31.7902 20.2451L31.7558 19.9817L32.1165 19.7355C32.3168 19.5981 32.5458 19.4264 32.626 19.3519C32.7061 19.2833 32.895 19.1402 33.0496 19.0314C33.3301 18.8482 33.3359 18.8368 33.3473 18.5277C33.3587 18.2986 33.3931 18.1899 33.4732 18.1269C34.6697 17.1938 35.1563 16.7072 35.8146 15.7969C36.2325 15.2188 36.8393 14.0166 37.0569 13.3468C37.9098 10.7077 37.6121 7.68509 36.2554 5.28646C34.6811 2.50427 31.6929 0.317443 28.6244 -0.306546C28.2981 -0.375242 27.9088 -0.421039 27.7657 -0.40959C27.3364 -0.380967 27.3764 -0.249299 28.029 0.494908C29.6606 2.35543 30.2789 3.75797 30.2789 5.59559C30.2789 7.20422 29.7636 8.50945 28.5385 9.98643L28.195 10.41L27.9031 10.3757C27.6741 10.3471 27.5711 10.3643 27.3879 10.4615C27.1531 10.5875 26.6609 10.9882 26.2028 11.4233L25.9338 11.6752L25.4873 11.4748C24.8004 11.16 23.4435 10.7535 22.7795 10.6562L22.5162 10.6161L22.4532 10.2669C22.3787 9.88909 22.2472 9.66583 22.0296 9.55707C21.8464 9.45973 16.9918 9.45398 16.7228 9.54566C16.4996 9.62008 16.345 9.87192 16.2534 10.2955L16.179 10.6161L15.9156 10.6562C15.2688 10.7535 13.8834 11.1771 13.185 11.4862L12.8014 11.658L12.4923 11.389C12.3205 11.2344 12.0057 10.9825 11.7996 10.8165C11.4217 10.5245 11.4103 10.5188 11.0153 10.5131L10.6146 10.5074L10.2711 10.1066C8.86284 8.46938 8.26747 6.79778 8.45639 4.9945C8.6224 3.40877 9.28074 2.06919 10.6374 0.552153C11.2214 -0.100458 11.3072 -0.226401 11.2156 -0.335169C11.1184 -0.455387 10.7463 -0.438213 9.98484 -0.283647ZM21.2624 23.7371C22.4475 23.8057 23.8214 23.9146 23.7928 23.9432C23.7813 23.9547 23.2089 24.0806 22.5219 24.2294C21.1938 24.5042 21.0621 24.55 21.0621 24.6874C21.0621 24.7389 21.022 25.2141 20.9705 25.7464C20.8789 26.7483 20.8903 27.0001 21.0335 27.0001C21.0793 27.0001 21.4685 26.8856 21.8922 26.7425C23.3577 26.2502 24.6515 25.9926 26.1743 25.8896L26.615 25.8553V26.9315C26.615 28.6374 26.4662 30.0056 26.2144 30.6868C25.8251 31.7173 24.537 33.0167 23.1688 33.7495C22.2643 34.2419 21.4857 34.4536 20.1232 34.5739C19.3447 34.6426 19.0585 34.6368 17.9078 34.4995C16.4194 34.3277 15.0455 33.6522 13.849 32.513C12.6984 31.4196 12.3606 30.7211 12.1946 29.0839C12.1144 28.294 12.0572 26.0155 12.1144 25.9297C12.1488 25.8838 12.3492 25.8781 12.8758 25.9182C14.2097 26.0155 15.2001 26.2158 16.6713 26.6967C17.2037 26.8685 17.6731 26.9944 17.7189 26.9772C17.7761 26.9544 17.799 26.8455 17.799 26.5879C17.7933 26.0842 17.6617 24.6931 17.6101 24.6129C17.5529 24.5214 17.3353 24.4641 16.0301 24.1951C15.4176 24.0691 14.9081 23.9547 14.8967 23.9432C14.868 23.9146 16.2534 23.8057 17.4842 23.7371C18.0853 23.7027 18.6864 23.6684 18.8295 23.6569C19.1272 23.6341 19.8199 23.6569 21.2624 23.7371Z" fill="#333333"/>
<path d="M59.3173 20.6255C59.1178 20.0117 58.9414 19.4132 58.7879 18.8302L58.0514 16.2983C57.8059 15.4698 57.6141 14.8483 57.476 14.434C57.3532 13.9737 57.2535 13.6284 57.1768 13.3983L54.8291 5.45757H59.5245L63.8286 21.2929H59.5245L59.3173 20.6255ZM62.9309 14.2729L65.2556 5.45757H69.8589L67.5112 13.3983L66.6596 16.2983C66.3834 17.1883 66.1302 18.0323 65.9 18.8302C65.7466 19.4132 65.5701 20.0117 65.3707 20.6255L65.1635 21.2929H64.8413L62.9309 14.2729ZM73.6586 5.45757H78.2619V21.2929H73.6586V5.45757ZM83.4424 5.45757H88.0457V21.2929H83.4424V5.45757ZM89.0124 15.7459V10.7974L92.6491 5.45757H97.6667L92.2118 12.9149L97.7357 21.2929H92.58L89.0124 15.7459ZM101.341 5.45757H105.944V21.2929H101.341V5.45757ZM111.125 6.10203V5.45757H115.728L124.612 20.6255V21.2929H120.032L111.125 6.10203ZM120.239 11.2347V5.45757H124.612V18.7151L120.239 11.2347ZM111.125 8.0124L115.498 15.4928V21.2929H111.125V8.0124ZM135.034 5.31947C135.648 5.28878 136.154 5.27344 136.553 5.27344C137.934 5.27344 139.2 5.3655 140.351 5.54964C140.934 5.61101 141.494 5.70308 142.031 5.82583V9.1172C141.387 9.05582 140.903 9.00211 140.581 8.95608C140.32 8.94074 139.898 8.90237 139.315 8.841C138.732 8.81031 138.348 8.79496 138.164 8.79496C137.228 8.79496 136.538 8.81798 136.093 8.86401C135.663 8.8947 135.31 8.98677 135.034 9.14021V5.31947ZM136.553 21.4771C135.019 21.4771 133.791 21.362 132.87 21.1318C131.965 20.9016 131.259 20.495 130.753 19.9119C130.247 19.3289 129.886 18.5233 129.671 17.4952C129.472 16.4671 129.372 15.0938 129.372 13.3752C129.372 11.9175 129.441 10.7207 129.579 9.78467C129.717 8.84867 129.955 8.08145 130.293 7.48302C130.645 6.86925 131.121 6.40125 131.72 6.07902C132.318 5.75678 133.101 5.53429 134.067 5.41154V13.3752C134.067 14.4647 134.098 15.301 134.159 15.884C134.221 16.4518 134.336 16.8891 134.505 17.196C134.689 17.5182 134.95 17.7407 135.287 17.8635C135.64 17.9862 136.139 18.0476 136.783 18.0476V21.4771H136.553ZM137.75 15.2166H136.116V11.8792H142.1V20.9016C141.379 21.0704 140.481 21.2009 139.407 21.2929C138.885 21.3697 138.333 21.4157 137.75 21.431V15.2166Z" fill="#333333"/>
<path d="M61.2803 40.5054C61.2803 41.0005 61.2173 41.4517 61.0913 41.8589C60.9653 42.2632 60.7778 42.6118 60.5288 42.9048C60.2827 43.1948 59.9766 43.4189 59.6104 43.5771C59.2441 43.7354 58.8193 43.8145 58.3359 43.8145C57.8379 43.8145 57.4028 43.7354 57.0308 43.5771C56.6616 43.4189 56.354 43.1934 56.1079 42.9004C55.8647 42.6074 55.6816 42.2573 55.5586 41.8501C55.4385 41.4429 55.3784 40.9917 55.3784 40.4966C55.3784 39.8403 55.4868 39.2646 55.7036 38.7695C55.9204 38.2744 56.2485 37.8892 56.688 37.6138C57.1304 37.3384 57.6841 37.2007 58.3491 37.2007C58.9849 37.2007 59.5195 37.3369 59.9531 37.6094C60.3896 37.8818 60.7192 38.2656 60.9419 38.7607C61.1675 39.2529 61.2803 39.8345 61.2803 40.5054ZM56.165 40.5054C56.165 41.0503 56.2427 41.522 56.3979 41.9204C56.5532 42.3188 56.7905 42.6265 57.1099 42.8433C57.4321 43.0601 57.8408 43.1685 58.3359 43.1685C58.834 43.1685 59.2412 43.0601 59.5576 42.8433C59.877 42.6265 60.1128 42.3188 60.2651 41.9204C60.4175 41.522 60.4937 41.0503 60.4937 40.5054C60.4937 39.6763 60.3193 39.0288 59.9707 38.563C59.625 38.0942 59.0845 37.8599 58.3491 37.8599C57.8511 37.8599 57.4409 37.9668 57.1187 38.1807C56.7964 38.3945 56.5562 38.6992 56.3979 39.0947C56.2427 39.4873 56.165 39.9575 56.165 40.5054ZM66.3716 37.3018C67.2007 37.3018 67.8057 37.4644 68.1865 37.7896C68.5703 38.1118 68.7622 38.5747 68.7622 39.1782C68.7622 39.4507 68.7168 39.71 68.626 39.9561C68.5381 40.1992 68.3946 40.4146 68.1953 40.6021C67.9961 40.7866 67.7339 40.9331 67.4087 41.0415C67.0864 41.147 66.6909 41.1997 66.2222 41.1997H65.44V43.7266H64.6929V37.3018H66.3716ZM66.3013 37.939H65.44V40.5581H66.1387C66.5488 40.5581 66.8902 40.5142 67.1626 40.4263C67.438 40.3384 67.6446 40.1963 67.7822 40C67.9199 39.8008 67.9888 39.5371 67.9888 39.209C67.9888 38.7812 67.8526 38.4634 67.5801 38.2554C67.3076 38.0444 66.8814 37.939 66.3013 37.939ZM75.6949 37.3018V37.9697H72.834V43.7266H72.087V37.3018H75.6949ZM82.7813 43.7266L81.9903 41.6875H79.4151L78.6285 43.7266H77.8726L80.3863 37.2754H81.0587L83.5547 43.7266H82.7813ZM81.7662 41.0239L81.0147 38.998C80.9971 38.9453 80.9678 38.8589 80.9268 38.7388C80.8887 38.6187 80.8492 38.4941 80.8082 38.3652C80.7671 38.2363 80.7335 38.1323 80.7071 38.0532C80.6778 38.1733 80.6456 38.2935 80.6104 38.4136C80.5782 38.5308 80.546 38.6406 80.5137 38.7432C80.4815 38.8428 80.4537 38.9277 80.4302 38.998L79.6656 41.0239H81.7662ZM91.296 43.7266H90.5489V40.6987H87.1739V43.7266H86.4268V37.3018H87.1739V40.0396H90.5489V37.3018H91.296V43.7266ZM95.0514 37.3018H95.7501V41.0151C95.7501 41.1558 95.7486 41.3096 95.7457 41.4766C95.7428 41.6406 95.7384 41.8018 95.7325 41.96C95.7267 42.1182 95.7193 42.2617 95.7105 42.3906C95.7047 42.5195 95.6988 42.6191 95.693 42.6895H95.7281L99.3053 37.3018H100.127V43.7266H99.4283V40.0571C99.4283 39.9019 99.4313 39.7378 99.4371 39.5649C99.443 39.3892 99.4488 39.2192 99.4547 39.0552C99.4635 38.8911 99.4723 38.7446 99.4811 38.6157C99.4898 38.4839 99.4957 38.3828 99.4986 38.3125H99.4591L95.8775 43.7266H95.0514V37.3018ZM107.609 38.8091C107.609 39.2456 107.474 39.5913 107.205 39.8462C106.935 40.0981 106.575 40.2622 106.124 40.3384V40.3691C106.651 40.4453 107.052 40.6152 107.328 40.8789C107.603 41.1426 107.741 41.4883 107.741 41.916C107.741 42.2939 107.646 42.6265 107.455 42.9136C107.268 43.1978 106.985 43.4189 106.607 43.5771C106.229 43.7354 105.759 43.8145 105.196 43.8145C104.848 43.8145 104.515 43.7866 104.199 43.731C103.882 43.6782 103.592 43.5889 103.329 43.4629V42.7729C103.51 42.8608 103.707 42.937 103.918 43.0015C104.129 43.0659 104.342 43.1157 104.559 43.1509C104.779 43.1831 104.988 43.1992 105.188 43.1992C105.768 43.1992 106.207 43.0879 106.506 42.8652C106.808 42.6396 106.959 42.3232 106.959 41.916C106.959 41.4971 106.784 41.1924 106.436 41.002C106.09 40.8086 105.604 40.7119 104.977 40.7119H104.054V40.0835H104.946C105.368 40.0835 105.718 40.0352 105.996 39.9385C106.275 39.8389 106.483 39.6997 106.62 39.521C106.761 39.3394 106.831 39.1255 106.831 38.8794C106.831 38.5425 106.708 38.2832 106.462 38.1016C106.219 37.9199 105.901 37.8291 105.508 37.8291C105.101 37.8291 104.764 37.8818 104.498 37.9873C104.231 38.0898 103.972 38.2231 103.72 38.3872L103.359 37.8774C103.529 37.7544 103.723 37.6431 103.94 37.5435C104.156 37.4409 104.397 37.3604 104.66 37.3018C104.924 37.2402 105.208 37.2095 105.513 37.2095C105.967 37.2095 106.349 37.2783 106.66 37.416C106.97 37.5508 107.206 37.7383 107.367 37.9785C107.528 38.2188 107.609 38.4956 107.609 38.8091ZM115.117 43.7266L114.326 41.6875H111.751L110.964 43.7266H110.209L112.722 37.2754H113.395L115.891 43.7266H115.117ZM114.102 41.0239L113.351 38.998C113.333 38.9453 113.304 38.8589 113.263 38.7388C113.225 38.6187 113.185 38.4941 113.144 38.3652C113.103 38.2363 113.069 38.1323 113.043 38.0532C113.014 38.1733 112.982 38.2935 112.946 38.4136C112.914 38.5308 112.882 38.6406 112.85 38.7432C112.818 38.8428 112.79 38.9277 112.766 38.998L112.002 41.0239H114.102ZM124.318 43.0674V45.4053H123.601V43.7266H118.763V37.3018H119.51V43.0586H122.81V37.3018H123.548V43.0674H124.318ZM127.387 37.3018H128.086V41.0151C128.086 41.1558 128.085 41.3096 128.082 41.4766C128.079 41.6406 128.074 41.8018 128.069 41.96C128.063 42.1182 128.055 42.2617 128.047 42.3906C128.041 42.5195 128.035 42.6191 128.029 42.6895H128.064L131.641 37.3018H132.463V43.7266H131.764V40.0571C131.764 39.9019 131.767 39.7378 131.773 39.5649C131.779 39.3892 131.785 39.2192 131.791 39.0552C131.799 38.8911 131.808 38.7446 131.817 38.6157C131.826 38.4839 131.832 38.3828 131.835 38.3125H131.795L128.214 43.7266H127.387V37.3018ZM136.205 37.3018H136.904V41.0151C136.904 41.1558 136.903 41.3096 136.9 41.4766C136.897 41.6406 136.892 41.8018 136.886 41.96C136.881 42.1182 136.873 42.2617 136.864 42.3906C136.859 42.5195 136.853 42.6191 136.847 42.6895H136.882L140.459 37.3018H141.281V43.7266H140.582V40.0571C140.582 39.9019 140.585 39.7378 140.591 39.5649C140.597 39.3892 140.603 39.2192 140.609 39.0552C140.617 38.8911 140.626 38.7446 140.635 38.6157C140.644 38.4839 140.65 38.3828 140.653 38.3125H140.613L137.031 43.7266H136.205V37.3018Z" fill="#333333"/>
<path d="M60.2783 33.7266H59.5312V27.9609H57.4482C57.4072 28.2891 57.3633 28.6318 57.3164 28.9893C57.2695 29.3467 57.2212 29.7026 57.1714 30.0571C57.1216 30.4116 57.0718 30.7471 57.022 31.0635C56.9722 31.3799 56.9224 31.6611 56.8726 31.9072C56.7964 32.3145 56.7012 32.6616 56.5869 32.9487C56.4756 33.2329 56.3262 33.4512 56.1387 33.6035C55.9541 33.7529 55.7095 33.8276 55.4048 33.8276C55.3022 33.8276 55.1997 33.8174 55.0972 33.7969C54.9976 33.7764 54.9097 33.7515 54.8335 33.7222V33.0938C54.9009 33.123 54.9756 33.1479 55.0576 33.1685C55.1426 33.189 55.2319 33.1992 55.3257 33.1992C55.5103 33.1992 55.6553 33.126 55.7607 32.9795C55.8691 32.8301 55.9541 32.6411 56.0156 32.4126C56.0801 32.1841 56.1357 31.9497 56.1826 31.7095C56.2207 31.5103 56.2646 31.2583 56.3145 30.9536C56.3643 30.6489 56.417 30.3032 56.4727 29.9165C56.5283 29.5269 56.5854 29.1108 56.644 28.6685C56.7056 28.2261 56.7656 27.7705 56.8242 27.3018H60.2783V33.7266ZM68.4184 30.5054C68.4184 31.0005 68.3554 31.4517 68.2294 31.8589C68.1035 32.2632 67.916 32.6118 67.6669 32.9048C67.4208 33.1948 67.1147 33.4189 66.7485 33.5771C66.3823 33.7354 65.9575 33.8145 65.4741 33.8145C64.976 33.8145 64.541 33.7354 64.1689 33.5771C63.7997 33.4189 63.4921 33.1934 63.246 32.9004C63.0029 32.6074 62.8198 32.2573 62.6967 31.8501C62.5766 31.4429 62.5165 30.9917 62.5165 30.4966C62.5165 29.8403 62.6249 29.2646 62.8417 28.7695C63.0585 28.2744 63.3867 27.8892 63.8261 27.6138C64.2685 27.3384 64.8222 27.2007 65.4872 27.2007C66.123 27.2007 66.6577 27.3369 67.0912 27.6094C67.5278 27.8818 67.8574 28.2656 68.08 28.7607C68.3056 29.2529 68.4184 29.8345 68.4184 30.5054ZM63.3032 30.5054C63.3032 31.0503 63.3808 31.522 63.5361 31.9204C63.6913 32.3188 63.9287 32.6265 64.248 32.8433C64.5703 33.0601 64.9789 33.1685 65.4741 33.1685C65.9721 33.1685 66.3793 33.0601 66.6957 32.8433C67.0151 32.6265 67.2509 32.3188 67.4033 31.9204C67.5556 31.522 67.6318 31.0503 67.6318 30.5054C67.6318 29.6763 67.4575 29.0288 67.1088 28.563C66.7631 28.0942 66.2226 27.8599 65.4872 27.8599C64.9892 27.8599 64.579 27.9668 64.2568 28.1807C63.9345 28.3945 63.6943 28.6992 63.5361 29.0947C63.3808 29.4873 63.3032 29.9575 63.3032 30.5054ZM74.2689 27.3018V27.9697H71.4081V33.7266H70.661V27.3018H74.2689ZM81.7279 30.5054C81.7279 31.0005 81.6649 31.4517 81.5389 31.8589C81.4129 32.2632 81.2254 32.6118 80.9764 32.9048C80.7303 33.1948 80.4241 33.4189 80.0579 33.5771C79.6917 33.7354 79.2669 33.8145 78.7835 33.8145C78.2855 33.8145 77.8504 33.7354 77.4783 33.5771C77.1092 33.4189 76.8016 33.1934 76.5555 32.9004C76.3123 32.6074 76.1292 32.2573 76.0062 31.8501C75.8861 31.4429 75.826 30.9917 75.826 30.4966C75.826 29.8403 75.9344 29.2646 76.1512 28.7695C76.368 28.2744 76.6961 27.8892 77.1356 27.6138C77.5779 27.3384 78.1317 27.2007 78.7967 27.2007C79.4324 27.2007 79.9671 27.3369 80.4007 27.6094C80.8372 27.8818 81.1668 28.2656 81.3895 28.7607C81.6151 29.2529 81.7279 29.8345 81.7279 30.5054ZM76.6126 30.5054C76.6126 31.0503 76.6903 31.522 76.8455 31.9204C77.0008 32.3188 77.2381 32.6265 77.5574 32.8433C77.8797 33.0601 78.2884 33.1685 78.7835 33.1685C79.2816 33.1685 79.6888 33.0601 80.0052 32.8433C80.3245 32.6265 80.5604 32.3188 80.7127 31.9204C80.8651 31.522 80.9412 31.0503 80.9412 30.5054C80.9412 29.6763 80.7669 29.0288 80.4183 28.563C80.0726 28.0942 79.5321 27.8599 78.7967 27.8599C78.2987 27.8599 77.8885 27.9668 77.5662 28.1807C77.244 28.3945 77.0037 28.6992 76.8455 29.0947C76.6903 29.4873 76.6126 29.9575 76.6126 30.5054ZM85.9436 33.7266H85.1921V27.9609H83.1707V27.3018H87.9563V27.9609H85.9436V33.7266ZM89.7463 27.3018H90.445V31.0151C90.445 31.1558 90.4436 31.3096 90.4406 31.4766C90.4377 31.6406 90.4333 31.8018 90.4274 31.96C90.4216 32.1182 90.4143 32.2617 90.4055 32.3906C90.3996 32.5195 90.3937 32.6191 90.3879 32.6895H90.423L94.0002 27.3018H94.822V33.7266H94.1232V30.0571C94.1232 29.9019 94.1262 29.7378 94.132 29.5649C94.1379 29.3892 94.1437 29.2192 94.1496 29.0552C94.1584 28.8911 94.1672 28.7446 94.176 28.6157C94.1848 28.4839 94.1906 28.3828 94.1936 28.3125H94.154L90.5725 33.7266H89.7463V27.3018ZM97.3854 33.7266V27.3018H102.171V33.7266H101.433V27.9609H98.1325V33.7266H97.3854ZM107.9 27.3018H109.719C110.522 27.3018 111.126 27.4219 111.53 27.6621C111.934 27.9023 112.136 28.311 112.136 28.8882C112.136 29.1372 112.088 29.3613 111.991 29.5605C111.897 29.7568 111.76 29.9194 111.578 30.0483C111.397 30.1772 111.172 30.2666 110.906 30.3164V30.3604C111.187 30.4043 111.436 30.4849 111.653 30.6021C111.87 30.7192 112.04 30.8833 112.163 31.0942C112.286 31.3052 112.347 31.5732 112.347 31.8984C112.347 32.2939 112.255 32.6279 112.07 32.9004C111.889 33.1729 111.631 33.3794 111.297 33.52C110.963 33.6577 110.567 33.7266 110.11 33.7266H107.9V27.3018ZM108.647 30.0571H109.877C110.437 30.0571 110.824 29.9648 111.038 29.7803C111.254 29.5957 111.363 29.3262 111.363 28.9717C111.363 28.6055 111.234 28.3418 110.976 28.1807C110.721 28.0195 110.314 27.939 109.754 27.939H108.647V30.0571ZM108.647 30.6855V33.0894H109.983C110.554 33.0894 110.959 32.978 111.196 32.7554C111.433 32.5298 111.552 32.2266 111.552 31.8457C111.552 31.6025 111.498 31.3945 111.389 31.2217C111.284 31.0488 111.111 30.917 110.871 30.8262C110.633 30.7324 110.315 30.6855 109.917 30.6855H108.647ZM118.558 33.7266L117.767 31.6875H115.192L114.405 33.7266H113.649L116.163 27.2754H116.835L119.332 33.7266H118.558ZM117.543 31.0239L116.791 28.998C116.774 28.9453 116.745 28.8589 116.704 28.7388C116.665 28.6187 116.626 28.4941 116.585 28.3652C116.544 28.2363 116.51 28.1323 116.484 28.0532C116.455 28.1733 116.422 28.2935 116.387 28.4136C116.355 28.5308 116.323 28.6406 116.29 28.7432C116.258 28.8428 116.23 28.9277 116.207 28.998L115.442 31.0239H117.543ZM128.553 33.7266H121.034V27.3018H121.781V33.0586H124.413V27.3018H125.16V33.0586H127.797V27.3018H128.553V33.7266ZM134.711 33.7266H131.134V27.3018H134.711V27.9609H131.881V30.0396H134.548V30.6899H131.881V33.0674H134.711V33.7266ZM136.953 27.3018H137.652V31.0151C137.652 31.1558 137.651 31.3096 137.648 31.4766C137.645 31.6406 137.64 31.8018 137.635 31.96C137.629 32.1182 137.621 32.2617 137.613 32.3906C137.607 32.5195 137.601 32.6191 137.595 32.6895H137.63L141.207 27.3018H142.029V33.7266H141.33V30.0571C141.33 29.9019 141.333 29.7378 141.339 29.5649C141.345 29.3892 141.351 29.2192 141.357 29.0552C141.366 28.8911 141.374 28.7446 141.383 28.6157C141.392 28.4839 141.398 28.3828 141.401 28.3125H141.361L137.78 33.7266H136.953V27.3018ZM141.234 25.3154C141.207 25.6113 141.133 25.8589 141.01 26.0581C140.889 26.2573 140.712 26.4082 140.478 26.5107C140.243 26.6104 139.943 26.6602 139.577 26.6602C139.199 26.6602 138.894 26.6118 138.663 26.5151C138.434 26.4155 138.264 26.2661 138.153 26.0669C138.045 25.8677 137.98 25.6172 137.96 25.3154H138.645C138.678 25.6377 138.764 25.8574 138.905 25.9746C139.045 26.0918 139.274 26.1504 139.59 26.1504C139.871 26.1504 140.093 26.0889 140.254 25.9658C140.415 25.8428 140.512 25.626 140.544 25.3154H141.234Z" fill="#333333"/>
</svg>
