<svg width="55" height="24" viewBox="0 0 55 24" fill="none" xmlns="http://www.w3.org/2000/svg">
<path d="M15.7181 15.8648H11.3476L9.34876 8.70061L7.35711 15.8648H2.97762L-1.09416e-07 2.45703H4.41176L5.55727 8.51613L7.23342 2.45703H11.4569L13.1367 8.51255L14.284 2.45703H18.6778L15.7181 15.8648ZM11.8316 15.2272H15.2072L17.8837 3.09823H14.8092L13.2514 11.3227L10.9711 3.09823H7.71923L5.44075 11.337L3.88471 3.09823H0.795945L3.49749 15.2308H6.87309L9.34697 6.3221L11.8316 15.2272Z" fill="#929292"/>
<path d="M31.3475 15.8609H19.9336V2.45312H31.1557V5.81671H24.5228V7.21372H30.6699V10.4555H24.53V12.3361H31.3421L31.3475 15.8609ZM20.57 15.2233H30.7093V12.9683H23.8972V9.81432H30.046V7.84417H23.8918V5.17909H30.5247V3.09432H20.5718L20.57 15.2233Z" fill="#929292"/>
<path d="M5.87473 18.1413L4.79913 18.3365C4.77749 18.1504 4.68971 17.9781 4.55174 17.8512C4.4103 17.7381 4.23256 17.6802 4.05159 17.6882C3.92865 17.683 3.80612 17.7055 3.69314 17.7542C3.58015 17.8029 3.47963 17.8765 3.39905 17.9694C3.23652 18.1568 3.15525 18.4715 3.15525 18.9133C3.15525 19.4028 3.23772 19.7491 3.40264 19.9521C3.48193 20.0507 3.5832 20.1294 3.69837 20.182C3.81353 20.2345 3.9394 20.2594 4.06593 20.2547C4.2522 20.2615 4.43412 20.1975 4.57504 20.0756C4.73147 19.908 4.82956 19.6945 4.8547 19.4667L5.9303 19.6458C5.8525 20.0809 5.6256 20.4754 5.28853 20.7616C4.92015 21.0296 4.47081 21.163 4.01573 21.1395C3.74785 21.1521 3.48034 21.1077 3.23094 21.0092C2.98153 20.9107 2.75592 20.7604 2.56905 20.5682C2.21052 20.1873 2.03125 19.6595 2.03125 18.9849C2.03125 18.3103 2.21052 17.7795 2.56905 17.3927C2.75901 17.2002 2.98751 17.05 3.23959 16.9518C3.49167 16.8537 3.76165 16.8098 4.03187 16.8231C4.45657 16.8006 4.87736 16.9142 5.23296 17.1473C5.55286 17.3969 5.779 17.7472 5.87473 18.1413Z" fill="#929292"/>
<path d="M6.45004 18.9285C6.45158 18.5607 6.54394 18.199 6.71894 17.8754C6.88882 17.5456 7.15436 17.2747 7.48082 17.0981C7.81838 16.9168 8.19655 16.8244 8.57973 16.8294C8.86428 16.8194 9.14784 16.8683 9.41255 16.9731C9.67725 17.0779 9.91739 17.2363 10.1178 17.4384C10.3164 17.6412 10.4717 17.8821 10.5746 18.1465C10.6775 18.4109 10.7258 18.6933 10.7166 18.9769C10.7254 19.2631 10.6763 19.5482 10.5721 19.815C10.468 20.0818 10.3111 20.3249 10.1107 20.5297C9.91314 20.7321 9.67574 20.8914 9.41346 20.9974C9.15118 21.1035 8.86972 21.154 8.5869 21.1458C8.2133 21.1452 7.84499 21.0575 7.5113 20.8897C7.17671 20.728 6.90188 20.4647 6.72611 20.1375C6.53423 19.7639 6.4393 19.3482 6.45004 18.9285ZM7.57045 18.9876C7.54771 19.3264 7.65186 19.6616 7.86266 19.9279C7.95217 20.0299 8.06244 20.1116 8.1861 20.1676C8.30976 20.2236 8.44396 20.2525 8.57973 20.2525C8.71549 20.2525 8.84969 20.2236 8.97335 20.1676C9.09701 20.1116 9.20729 20.0299 9.29679 19.9279C9.5074 19.6581 9.61082 19.32 9.58721 18.9787C9.60934 18.6424 9.50586 18.3099 9.29679 18.0455C9.20729 17.9435 9.09701 17.8618 8.97335 17.8058C8.84969 17.7499 8.71549 17.7209 8.57973 17.7209C8.44396 17.7209 8.30976 17.7499 8.1861 17.8058C8.06244 17.8618 7.95217 17.9435 7.86266 18.0455C7.65186 18.3119 7.54771 18.647 7.57045 18.9858V18.9876Z" fill="#929292"/>
<path d="M11.4922 16.9224H12.4997V17.4865C12.6485 17.2843 12.8425 17.1195 13.0662 17.0054C13.29 16.8913 13.5374 16.831 13.7886 16.8292C14.0283 16.8232 14.2655 16.8794 14.477 16.9922C14.6795 17.1092 14.8453 17.2804 14.9556 17.4865C15.1161 17.2837 15.3162 17.1156 15.5436 16.9922C15.7516 16.8836 15.983 16.8276 16.2177 16.8292C16.486 16.8189 16.7522 16.8808 16.9885 17.0083C17.1996 17.1319 17.365 17.3204 17.46 17.5456C17.5502 17.8216 17.5884 18.1119 17.5729 18.4018V21.0418H16.4794V18.6919C16.4794 18.2824 16.4417 18.0179 16.3664 17.8985C16.3161 17.8217 16.2463 17.7597 16.1641 17.7188C16.0818 17.6779 15.9902 17.6595 15.8986 17.6656C15.7435 17.6662 15.5925 17.715 15.4665 17.8053C15.3262 17.9058 15.2234 18.0501 15.1743 18.2155C15.1029 18.4944 15.0727 18.7822 15.0847 19.0698V21.0525H13.9912V18.7904C14.0038 18.5299 13.9839 18.2688 13.932 18.0131C13.9024 17.9088 13.8394 17.8169 13.7527 17.7516C13.653 17.6895 13.5366 17.6595 13.4193 17.6656C13.2572 17.6637 13.0984 17.7112 12.964 17.8018C12.8259 17.8963 12.7237 18.0345 12.6736 18.194C12.6027 18.4717 12.5731 18.7584 12.5857 19.0447V21.0507H11.4922V16.9224Z" fill="#929292"/>
<path d="M18.6289 16.9213H19.6489V17.5285C19.7841 17.3187 19.9688 17.1453 20.1867 17.0234C20.4153 16.8928 20.6746 16.8254 20.9379 16.8282C21.1707 16.8262 21.4011 16.8757 21.6125 16.9732C21.8239 17.0708 22.0111 17.2139 22.1605 17.3924C22.4951 17.7685 22.6624 18.2921 22.6624 18.9631C22.6624 19.6533 22.4939 20.1906 22.1569 20.5751C22.008 20.7556 21.8206 20.9008 21.6085 20.9999C21.3964 21.099 21.1649 21.1497 20.9307 21.1482C20.7162 21.1511 20.504 21.1045 20.3104 21.0121C20.0884 20.8928 19.8898 20.7345 19.7242 20.5446V22.6187H18.6307L18.6289 16.9213ZM19.7045 18.9166C19.7045 19.381 19.7965 19.7237 19.9806 19.9446C20.0596 20.0483 20.1616 20.1323 20.2785 20.1901C20.3955 20.2479 20.5242 20.2779 20.6546 20.2778C20.7767 20.2794 20.8976 20.2528 21.0077 20.2C21.1178 20.1472 21.2142 20.0696 21.2892 19.9733C21.4577 19.7703 21.542 19.4366 21.542 18.9721C21.542 18.5387 21.4547 18.2175 21.2803 18.0085C21.2044 17.9097 21.1066 17.8299 20.9946 17.7752C20.8827 17.7205 20.7595 17.6924 20.6349 17.6933C20.5078 17.6912 20.3819 17.718 20.2667 17.7717C20.1514 17.8254 20.0499 17.9045 19.9698 18.0031C19.7774 18.2671 19.6852 18.5909 19.7099 18.9166H19.7045Z" fill="#929292"/>
<path d="M24.346 18.1826L23.3529 18.0035C23.4324 17.6463 23.6364 17.3289 23.9283 17.108C24.2008 16.9157 24.6054 16.8196 25.142 16.8196C25.5139 16.8012 25.8855 16.8622 26.2319 16.9987C26.4418 17.0885 26.6181 17.242 26.7357 17.4375C26.8325 17.6154 26.8809 17.9414 26.8809 18.4154L26.8683 19.6907C26.8613 19.9591 26.8787 20.2277 26.9203 20.4931C26.9626 20.6851 27.0288 20.871 27.1175 21.0465H26.0419C26.0132 20.9737 25.978 20.8662 25.9361 20.7241C25.9182 20.6596 25.9057 20.6166 25.8967 20.5951C25.7238 20.7685 25.5202 20.9082 25.2961 21.0071C25.0807 21.0983 24.8489 21.1446 24.6149 21.1432C24.2474 21.1637 23.8864 21.0396 23.6092 20.7975C23.4892 20.688 23.3937 20.5542 23.3291 20.4051C23.2645 20.256 23.2323 20.0949 23.2346 19.9325C23.2305 19.7126 23.2883 19.496 23.4013 19.3074C23.5131 19.124 23.6764 18.9776 23.871 18.8865C24.1492 18.7661 24.4412 18.6807 24.7404 18.6322C25.1023 18.5755 25.4581 18.4855 25.8035 18.3635V18.2542C25.8117 18.1725 25.802 18.0899 25.7751 18.0123C25.7481 17.9347 25.7046 17.8638 25.6475 17.8047C25.4718 17.6962 25.265 17.6489 25.0595 17.6704C24.8996 17.6612 24.7407 17.7012 24.6042 17.785C24.4798 17.8883 24.3897 18.027 24.346 18.1826ZM25.8088 19.0781C25.5901 19.1447 25.3681 19.2003 25.1438 19.2447C24.9367 19.2765 24.7358 19.3406 24.5486 19.4345C24.4833 19.4755 24.4295 19.5322 24.3922 19.5996C24.3549 19.6669 24.3353 19.7426 24.3353 19.8196C24.3359 19.8944 24.3522 19.9683 24.3831 20.0364C24.4139 20.1046 24.4587 20.1656 24.5145 20.2154C24.5722 20.271 24.6406 20.3144 24.7154 20.343C24.7902 20.3716 24.8701 20.3849 24.9502 20.382C25.1546 20.3796 25.3527 20.3111 25.5148 20.1868C25.6395 20.0997 25.7316 19.9737 25.7766 19.8286C25.8134 19.652 25.8279 19.4715 25.8196 19.2913L25.8088 19.0781Z" fill="#929292"/>
<path d="M31.7213 21.051H30.6278V18.9429C30.6432 18.6527 30.6197 18.3618 30.5579 18.0778C30.5165 17.9546 30.4367 17.8479 30.3302 17.7734C30.2179 17.6984 30.0851 17.6602 29.9502 17.6641C29.7684 17.662 29.5905 17.7165 29.441 17.8199C29.2942 17.9184 29.1849 18.0636 29.1309 18.2319C29.0604 18.5431 29.0321 18.8624 29.0467 19.1811V21.051H27.9531V16.9208H28.9696V17.528C29.1934 17.2192 29.515 16.9949 29.8824 16.8915C30.2497 16.7881 30.6412 16.8117 30.9935 16.9584C31.1708 17.0287 31.327 17.1434 31.447 17.2916C31.5498 17.4276 31.6225 17.5839 31.6604 17.7501C31.7072 17.9919 31.7277 18.2381 31.7213 18.4844V21.051Z" fill="#929292"/>
<path d="M38.434 12.6096C38.579 12.4839 38.6938 12.3271 38.7698 12.151C38.8458 11.9749 38.8812 11.7839 38.8732 11.5923C38.8793 11.4108 38.8433 11.2304 38.768 11.0651C38.6927 10.8998 38.5803 10.7542 38.4394 10.6395C38.1502 10.4007 37.6434 10.2813 36.9192 10.2813H34.8164V12.9911H36.9264C37.6387 12.9887 38.1412 12.8615 38.434 12.6096Z" fill="#929292"/>
<path d="M37.9643 7.39618C38.0945 7.27333 38.196 7.12325 38.2614 6.95667C38.3267 6.79009 38.3545 6.61114 38.3426 6.4326C38.3519 6.26178 38.3227 6.09105 38.2573 5.93298C38.1918 5.7749 38.0917 5.6335 37.9643 5.51917C37.7122 5.30066 37.2724 5.19141 36.6449 5.19141H34.8164V7.72932H36.6091C37.2532 7.7317 37.705 7.62066 37.9643 7.39618Z" fill="#929292"/>
<path d="M42.7014 1.40377e-05C40.0542 -0.00406267 37.4805 0.869658 35.3838 2.48419H38.3901C39.6808 2.48419 40.6721 2.8036 41.3641 3.4424C41.6977 3.74006 41.963 4.10621 42.1419 4.5158C42.3207 4.92539 42.4088 5.36875 42.4003 5.81553C42.4161 6.56226 42.152 7.28793 41.6599 7.85016C41.2655 8.26956 40.7679 8.57833 40.2168 8.74568C41.1789 8.97732 41.887 9.37434 42.3411 9.93673C42.8095 10.5429 43.0505 11.2938 43.0223 12.0591C43.0324 12.7151 42.8652 13.3617 42.5383 13.9308C42.2214 14.4788 41.7642 14.9325 41.2135 15.2454C40.7222 15.4887 40.1895 15.6376 39.6432 15.6842C39.0288 15.7756 38.4101 15.8354 37.7895 15.8633H31.3359C32.164 18.287 33.7448 20.3833 35.8481 21.8472C35.9795 21.6786 36.0747 21.4847 36.1277 21.2776L34.5556 17.1367H35.719L36.7086 20.0687L37.673 17.1367H38.806L37.3468 21.111L37.085 21.8275C37.0132 22.0205 36.9213 22.2054 36.8107 22.3791L36.7731 22.431C38.372 23.3396 40.1584 23.8691 41.9946 23.9786C43.8307 24.0882 45.6676 23.775 47.3634 23.0631C49.0592 22.3513 50.5687 21.2598 51.7755 19.8728C52.9823 18.4858 53.8541 16.8405 54.3237 15.0636C54.7933 13.2868 54.8482 11.4259 54.484 9.62451C54.1199 7.82312 53.3465 6.12935 52.2235 4.67384C51.1005 3.21832 49.6579 2.03995 48.007 1.2296C46.3561 0.419251 44.5409 -0.001426 42.7014 1.40377e-05Z" fill="#929292"/>
</svg>
