<svg width="50" height="50" viewBox="0 0 50 50" fill="none" xmlns="http://www.w3.org/2000/svg">
<path d="M40.168 44.117V39.7027L39.5535 39.5543C38.8208 39.3902 38.2063 38.9683 37.8124 38.3823C36.5519 36.5073 37.3082 34.6791 37.3634 34.5541C38.293 31.8821 38.2851 26.4366 38.1039 22.3427C38.0015 19.991 37.5918 17.7722 36.8749 15.7409C33.377 5.79517 25.0497 0.974636 23.4425 0.123063C23.1589 -0.0410211 22.8044 -0.0410211 22.5208 0.123063C22.2292 0.287101 22.0559 0.591816 22.0559 0.927759V5.94361C21.7487 5.91233 21.4414 5.89674 21.1342 5.90451C18.8259 5.95139 16.6042 7.13113 15.194 9.04527C13.4923 11.3891 10.7822 13.6158 9.29316 14.7486C8.82574 15.1062 8.27344 15.3235 7.69382 15.3814C7.54582 15.3962 7.45488 15.5436 7.523 15.6748L11.1365 22.631C11.2074 22.7675 11.3962 22.781 11.4879 22.6574C11.9838 21.9886 12.8191 20.1852 20.9608 19.7567C19.6373 21.452 18.0381 24.4756 16.1866 28.7961C15.2964 30.8664 14.8473 33.054 14.8473 35.3041C14.8316 36.1323 14.3195 37.2573 13.3899 38.4683C12.9566 39.0308 12.3263 39.4137 11.6094 39.5543L10.9712 39.6715V44.117H8.63141V50H42.5V44.117L40.168 44.117ZM29.17 11.0375C29.4772 11.2954 36.5441 17.5691 33.7236 30.6867L32.1874 30.3586C34.8187 18.1394 28.2088 12.272 28.1379 12.2173L29.17 11.0375ZM20.0864 13.1079C19.4561 13.1079 18.944 12.6001 18.944 11.9751C18.944 11.3501 19.4561 10.8422 20.0864 10.8422C20.7087 10.8422 21.2208 11.3501 21.2208 11.9751C21.2208 12.6001 20.7087 13.1079 20.0864 13.1079ZM38.5924 44.117H12.5469V40.9137C13.3741 40.6324 14.1068 40.109 14.6425 39.4136C15.3122 38.5386 15.7927 37.7105 16.0842 36.937H35.5829C35.6932 37.6558 35.9611 38.4527 36.4968 39.2496C37.0009 39.9996 37.7258 40.5621 38.5924 40.8903L38.5924 44.117Z" fill="#438BE3"/>
</svg>
