<svg width="50" height="50" viewBox="0 0 50 50" fill="none" xmlns="http://www.w3.org/2000/svg">
<path d="M34.1115 36.315C30.8385 33.1954 25.6222 3.48306 25.6222 3.48306L5.42191 2C5.42191 2 6.34243 7.82997 6.49585 10.9495C6.70041 14.0691 2.30236 20.4104 2.50692 23.8879C2.50692 23.8879 2.50692 26.1381 3.83656 27.1098C5.16621 28.0814 6.85383 29.5134 6.85383 29.5134C14.2691 35.5479 19.7411 45.3156 24.446 46.8498C29.4577 48.4863 47.9193 48.6909 47.9193 45.3668C47.9193 42.145 37.3333 39.3834 34.1115 36.315Z" fill="#438BE3"/>
<path d="M4.19543 46.9517H7.26384V35.5986C7.26384 34.627 8.03094 33.8087 9.0026 33.8087H10.2811C5.01367 29.6152 2.50781 27.1094 2.50781 27.1094C3.32605 30.8937 4.19543 46.9517 4.19543 46.9517Z" fill="#438BE3"/>
<path d="M8.33239 35.7533C8.07669 36.9806 8.33239 46.9529 8.33239 46.9529L9.25292 45.9813L10.2757 35.0373C10.2757 35.0373 8.58809 34.5259 8.33239 35.7533Z" fill="#438BE3"/>
</svg>
