<svg width="50" height="50" viewBox="0 0 50 50" fill="none" xmlns="http://www.w3.org/2000/svg">
<g clip-path="url(#clip0_2985_1635)">
<path d="M31.4266 41.2953H31.9125C31.7348 40.7975 31.3436 40.3946 30.834 40.2168V40.7027C30.834 41.0346 30.5733 41.2953 30.2414 41.2953C29.9096 41.2953 29.6488 41.0346 29.6488 40.7027V40.2168C29.1511 40.3946 28.7481 40.7857 28.5703 41.2953H29.0562C29.3881 41.2953 29.6488 41.5561 29.6488 41.8879C29.6488 42.2198 29.3881 42.4805 29.0562 42.4805H28.5703C28.7481 42.9783 29.1392 43.3812 29.6488 43.559V43.0731C29.6488 42.7412 29.9096 42.4805 30.2414 42.4805C30.5733 42.4805 30.834 42.7412 30.834 43.0731V43.559C31.3318 43.3812 31.7348 42.9901 31.9125 42.4805H31.4266C31.0948 42.4805 30.834 42.2198 30.834 41.8879C30.834 41.5561 31.0948 41.2953 31.4266 41.2953Z" fill="#438BE3"/>
<path d="M40.9074 11.6667H37.5296L37.897 6.92593H38.537C38.8689 6.92593 39.1296 6.66519 39.1296 6.33333V3.96296C39.1296 3.63111 38.8689 3.37037 38.537 3.37037H28.463V1.59259C28.463 1.26074 28.2022 1 27.8704 1H20.7593C20.4274 1 20.1667 1.26074 20.1667 1.59259V3.37037H10.0926C9.76074 3.37037 9.5 3.63111 9.5 3.96296V6.33333C9.5 6.66519 9.76074 6.92593 10.0926 6.92593H10.7326L12.9607 35.963H35.6689L36.3681 26.8726L41.1563 24.6444C41.3696 24.5496 41.5 24.3363 41.5 24.1111V12.2593C41.5 11.9274 41.2393 11.6667 40.9074 11.6667ZM21.3519 2.18519H27.2778V3.37037H21.3519V2.18519ZM10.6852 5.74074V4.55556H37.9444V5.74074H10.6852ZM35.5267 22.3452C32.5874 23.3881 27.5859 24.6444 24.6704 22.4519C21.743 20.2593 16.8481 20.5674 13.02 21.3022L11.9178 6.92593H36.7119L35.5267 22.3452ZM40.3148 23.7319L36.4748 25.5215L37.4467 12.8519H40.3148V23.7319Z" fill="#438BE3"/>
<path d="M35.597 37.1484H13.031L9.52289 48.8344C9.47548 49.0121 9.49919 49.2018 9.61771 49.3558C9.72437 49.4981 9.90215 49.5929 10.0918 49.5929H38.5362C38.7259 49.5929 38.9036 49.4981 39.0103 49.3558C39.1288 49.2018 39.1525 49.0121 39.1051 48.8344L35.597 37.1484ZM17.2029 44.8521H16.0177C15.6859 44.8521 15.4251 44.5914 15.4251 44.2595C15.4251 43.9277 15.6859 43.667 16.0177 43.667H17.2029C17.5347 43.667 17.7955 43.9277 17.7955 44.2595C17.7955 44.5914 17.5347 44.8521 17.2029 44.8521ZM17.2029 42.4818H16.0177C15.6859 42.4818 15.4251 42.221 15.4251 41.8892C15.4251 41.5573 15.6859 41.2966 16.0177 41.2966H17.2029C17.5347 41.2966 17.7955 41.5573 17.7955 41.8892C17.7955 42.221 17.5347 42.4818 17.2029 42.4818ZM17.2029 40.1114H16.0177C15.6859 40.1114 15.4251 39.8507 15.4251 39.5188C15.4251 39.187 15.6859 38.9262 16.0177 38.9262H17.2029C17.5347 38.9262 17.7955 39.187 17.7955 39.5188C17.7955 39.8507 17.5347 40.1114 17.2029 40.1114ZM20.7584 44.8521H19.5733C19.2414 44.8521 18.9807 44.5914 18.9807 44.2595C18.9807 43.9277 19.2414 43.667 19.5733 43.667H20.7584C21.0903 43.667 21.351 43.9277 21.351 44.2595C21.351 44.5914 21.0903 44.8521 20.7584 44.8521ZM20.7584 42.4818H19.5733C19.2414 42.4818 18.9807 42.221 18.9807 41.8892C18.9807 41.5573 19.2414 41.2966 19.5733 41.2966H20.7584C21.0903 41.2966 21.351 41.5573 21.351 41.8892C21.351 42.221 21.0903 42.4818 20.7584 42.4818ZM20.7584 40.1114H19.5733C19.2414 40.1114 18.9807 39.8507 18.9807 39.5188C18.9807 39.187 19.2414 38.9262 19.5733 38.9262H20.7584C21.0903 38.9262 21.351 39.187 21.351 39.5188C21.351 39.8507 21.0903 40.1114 20.7584 40.1114ZM30.2399 44.8521C28.6044 44.8521 27.277 43.5247 27.277 41.8892C27.277 40.2536 28.6044 38.9262 30.2399 38.9262C31.8755 38.9262 33.2029 40.2536 33.2029 41.8892C33.2029 43.5247 31.8755 44.8521 30.2399 44.8521Z" fill="#438BE3"/>
</g>
<defs>
<clipPath id="clip0_2985_1635">
<path d="M0 0H50V50H0V0Z" fill="white"/>
</clipPath>
</defs>
</svg>
