<svg width="50" height="50" viewBox="0 0 50 50" fill="none" xmlns="http://www.w3.org/2000/svg">
<g clip-path="url(#clip0_2985_1641)">
<path d="M42.073 4.41996C39.5266 3.73597 36.9802 4.90852 35.6599 7.05821C33.3021 6.1788 30.3785 5.4948 27.1719 5.10395V1.97713C27.1719 1.48857 26.7947 1 26.2288 1H17.458C16.9864 1 16.5149 1.48857 16.5149 1.97713V13.7027C9.72449 15.8524 4.63173 21.9106 3.68862 29.3368C3.59431 29.5322 3.5 29.6299 3.5 29.8254C3.5 29.9231 3.5 30.0208 3.59431 30.1185C3.5 30.7048 3.5 31.2911 3.5 31.8773C3.5 38.3264 6.61225 44.2869 11.7993 47.8046C11.9879 47.9023 12.0823 48 12.2709 48H31.2273C31.4159 48 31.6045 47.9023 31.6988 47.8046C36.8859 44.2869 39.9982 38.3264 39.9982 31.8773C39.9982 31.2911 39.9982 30.7048 39.9039 30.1185C39.9039 30.0208 39.9982 29.9231 39.9982 29.8254C39.9982 29.6299 39.9039 29.4345 39.8095 29.3368C38.8664 21.9106 33.7737 15.8524 26.9833 13.7027V7.15592C29.9069 7.44906 32.4533 8.03534 34.6225 8.91476C34.6225 9.01247 34.6225 9.01247 34.5282 9.11019C33.7737 12.4324 35.7542 15.8524 38.9608 16.7318C39.4323 16.8295 39.9039 16.9272 40.3754 16.9272C41.5071 16.9272 42.5446 16.6341 43.4877 16.0478C44.9023 15.1684 45.8454 13.8004 46.2227 12.1393C47.2601 8.62162 45.2796 5.29938 42.073 4.41996ZM5.66914 28.8482C6.98949 21.1289 13.214 15.2661 20.9474 14.8753V27.0894C20.9474 27.6757 20.9474 28.3597 21.0418 28.9459H5.66914V28.8482ZM22.7393 6.66736C22.645 6.76507 22.645 6.86279 22.5507 6.9605C22.4564 7.05821 22.3621 7.15592 22.2678 7.15592C22.1735 7.15592 21.9849 7.25364 21.8906 7.25364C21.7962 7.25364 21.7962 7.25364 21.7019 7.25364C21.6076 7.25364 21.6076 7.25364 21.5133 7.25364C21.419 7.25364 21.419 7.15592 21.3247 7.15592C21.2304 7.15592 21.2304 7.05821 21.1361 7.05821C21.0418 6.9605 20.9474 6.86279 20.9474 6.76507C20.9474 6.66736 20.8531 6.47193 20.8531 6.37422C20.8531 6.27651 20.8531 6.27651 20.8531 6.17879C20.8531 6.08108 20.8531 6.08108 20.9474 5.98337C20.9474 5.88566 21.0418 5.88565 21.0418 5.78794C21.0418 5.69023 21.1361 5.69023 21.1361 5.59252C21.2304 5.59252 21.2304 5.4948 21.3247 5.4948C21.419 5.4948 21.419 5.39709 21.5133 5.39709C21.6076 5.39709 21.6076 5.39709 21.7019 5.29938C21.8905 5.29938 22.0792 5.29938 22.2678 5.39709C22.3621 5.39709 22.4564 5.4948 22.5507 5.59252C22.5507 5.59252 22.645 5.69023 22.645 5.78794C22.645 5.78794 22.7393 5.88566 22.7393 5.98337C22.7393 6.08108 22.7393 6.08108 22.8337 6.17879C22.8337 6.27651 22.8337 6.27651 22.8337 6.37422C22.8337 6.37422 22.7393 6.47193 22.7393 6.66736ZM38.0176 28.8482H22.928C22.8337 28.262 22.8337 27.6757 22.8337 26.9917V14.8753C30.4728 15.2661 36.6973 21.1289 38.0176 28.8482Z" fill="#438BE3"/>
</g>
<defs>
<clipPath id="clip0_2985_1641">
<path d="M0 0H50V50H0V0Z" fill="white"/>
</clipPath>
</defs>
</svg>
