<svg width="50" height="50" viewBox="0 0 50 50" fill="none" xmlns="http://www.w3.org/2000/svg">
<path d="M5.55469 10.7119L14.3248 15.7982H20.9893L19.236 4.92354L42.2127 1.59105C42.2127 1.59105 43.6162 -0.163277 42.2127 0.0123598C40.8096 0.187996 6.95774 4.57278 6.95774 4.57278L5.55469 10.7119Z" fill="#438BE3"/>
<path d="M46.4061 20.8941L47.2956 20.1818V16.6737H13.8496L7.38166 12.9863L4.5 16.6737V49.9992H21.163V30.8813C21.163 30.8813 21.3376 23.3392 29.4067 23.3392C32.8071 23.3392 35.896 23.2769 38.332 23.2049L39.0534 25.6194C39.0534 25.6194 44.0493 25.6194 47.2966 23.2049L46.4061 20.8941Z" fill="#438BE3"/>
</svg>
