<svg width="50" height="50" viewBox="0 0 50 50" fill="none" xmlns="http://www.w3.org/2000/svg">
<path fill-rule="evenodd" clip-rule="evenodd" d="M43.6154 15.8077V16.7308C39 16.7308 36.2308 20.8846 36.2308 25.1923V33.0385C28.6923 33.0385 21.3077 33.0385 13.7692 33.0385V25.1923C13.7692 20.8846 11 16.7308 6.38462 16.7308V15.8077C6.38462 -1.26923 43.6154 -1.26923 43.6154 15.8077ZM38.8462 27.8077C39.7692 24.1154 42.8462 21.0385 46.8462 20.4231C46.0769 19.6538 45 19.1923 43.6154 19.1923C40.3846 19.1923 38.8462 22.2692 38.8462 25.1923V27.8077ZM3.46154 28.1154C3 24.5769 5 21.0385 8.53846 19.8077C7.92308 19.5 7.15385 19.1923 6.38462 19.1923C1.15385 19.1923 0.230769 25.6538 3.46154 28.1154ZM20.0769 4.42308C16.0769 7.96154 13.1538 12.7308 11.9231 17.9615C10.6923 16.7308 9.15385 15.9615 7.46154 15.8077C7.46154 9.34615 13.3077 5.65385 20.0769 4.42308ZM38.3846 44.7308V45.1923C38.3846 46.8846 40.8462 46.8846 40.8462 45.1923V44.7308C42.3846 44.5769 43.6154 43.3462 43.6154 41.8077V30.1154C51.4615 30.1154 51.4615 18.2692 43.6154 18.2692C39.9231 18.2692 37.7692 21.5 37.7692 25.1923V34.5769C29.3077 34.5769 20.6923 34.5769 12.2308 34.5769V25.1923C12.2308 21.5 10.0769 18.2692 6.38462 18.2692C-1.46154 18.2692 -1.46154 30.1154 6.38462 30.1154V41.8077C6.38462 43.3462 7.61538 44.5769 9.15385 44.7308V45.1923C9.15385 46.8846 11.6154 46.8846 11.6154 45.1923V44.7308C20.5385 44.7308 29.4615 44.7308 38.3846 44.7308Z" fill="#438BE3"/>
</svg>
