<svg width="50" height="50" viewBox="0 0 50 50" fill="none" xmlns="http://www.w3.org/2000/svg">
<path d="M35.7016 25.2C39.1016 25.2 41.8016 22.5 41.8016 19.1C41.8016 15.7 39.1016 13 35.7016 13C32.3016 13 29.6016 15.7 29.6016 19.1C29.6016 22.5 32.3016 25.2 35.7016 25.2ZM37.1016 15.9C37.4016 15.6 38.2016 15.9 38.8016 16.6C39.5016 17.3 39.8016 18 39.5016 18.3C39.2016 18.6 38.4016 18.3 37.8016 17.6C37.1016 16.9 36.8016 16.2 37.1016 15.9Z" fill="#438BE3"/>
<path d="M35.7016 29.2C41.3016 29.2 45.8016 24.7 45.8016 19.1C45.8016 13.5 41.3016 9 35.7016 9C30.1016 9 25.6016 13.5 25.6016 19.1C25.6016 24.7 30.1016 29.2 35.7016 29.2ZM35.7016 11C40.2016 11 43.8016 14.6 43.8016 19.1C43.8016 23.6 40.2016 27.2 35.7016 27.2C31.2016 27.2 27.6016 23.6 27.6016 19.1C27.6016 14.6 31.2016 11 35.7016 11Z" fill="#438BE3"/>
<path d="M47.8 19.3996C47.7 25.8996 42.3 31.1996 35.7 31.1996C29 31.1996 23.6 25.7996 23.6 19.0996H4.5C2.8 19.0996 1.5 20.3996 1.5 22.0996V32.9996C1.5 34.6996 2.8 35.9996 4.5 35.9996H46.5C48.2 35.9996 49.5 34.6996 49.5 32.9996V22.0996C49.5 20.8996 48.8 19.7996 47.8 19.3996ZM7.9 33.4996C7.3 33.4996 6.8 32.9996 6.8 32.3996C6.8 31.7996 7.3 31.2996 7.9 31.2996C8.5 31.2996 9 31.7996 9 32.3996C9 32.9996 8.5 33.4996 7.9 33.4996ZM11.4 33.4996C10.8 33.4996 10.3 32.9996 10.3 32.3996C10.3 31.7996 10.8 31.2996 11.4 31.2996C12 31.2996 12.5 31.7996 12.5 32.3996C12.5 32.9996 12 33.4996 11.4 33.4996ZM14.9 33.4996C14.3 33.4996 13.8 32.9996 13.8 32.3996C13.8 31.7996 14.3 31.2996 14.9 31.2996C15.5 31.2996 16 31.7996 16 32.3996C16 32.9996 15.5 33.4996 14.9 33.4996ZM17.4 28.3996H5.4C4.8 28.3996 4.4 27.9996 4.4 27.3996C4.4 26.7996 4.8 26.3996 5.4 26.3996H17.3C17.9 26.3996 18.3 26.7996 18.3 27.3996C18.3 27.9996 17.9 28.3996 17.4 28.3996ZM17.4 23.8996H5.4C4.8 23.8996 4.4 23.4996 4.4 22.8996C4.4 22.2996 4.8 21.8996 5.4 21.8996H17.3C17.9 21.8996 18.3 22.2996 18.3 22.8996C18.3 23.4996 17.9 23.8996 17.4 23.8996Z" fill="#438BE3"/>
<path d="M12.1 38H8V40.2H12.1V38Z" fill="#438BE3"/>
<path d="M42.9984 38H38.8984V40.2H42.9984V38Z" fill="#438BE3"/>
</svg>
