<svg width="50" height="50" viewBox="0 0 50 50" fill="none" xmlns="http://www.w3.org/2000/svg">
<g clip-path="url(#clip0_2985_1658)">
<path fill-rule="evenodd" clip-rule="evenodd" d="M33.9834 4C32.6406 4 31.6109 5.25604 31.8875 6.55561L34.6103 19.3462H18.312L17.1093 13.6924H15.4393L16.7935 20.0545L9.56151 35.1543C9.30518 35.6903 9.70055 36.3076 10.3 36.3075H14.4376C14.4036 36.0427 14.3834 35.7731 14.3834 35.4998C14.3834 35.2264 14.4036 34.9568 14.4376 34.6921H11.5904L14.6689 28.2653C15.6422 28.7288 16.5129 29.3786 17.2305 30.1772C17.2447 30.1675 16.4872 26.4559 16.4872 26.4559C16.2403 26.3118 15.9878 26.176 15.7296 26.0505L17.3502 22.6683L18.7825 29.3979C19.2907 29.2221 19.8259 29.1073 20.3807 29.0619L19.344 24.1921H35.6406L35.9038 25.4257C31.4965 26.7029 28.2666 30.7337 28.2666 35.5C28.2666 41.2894 33.0296 46 38.8833 46C44.737 46 49.5 41.2894 49.5 35.5C49.5 29.8 44.8822 25.1487 39.1528 25.0065L39.676 27.4643C43.8583 27.8677 47.0485 31.3442 47.0499 35.5002C47.0499 39.9609 43.3935 43.5771 38.8832 43.5771C34.3729 43.5771 30.7166 39.9609 30.7166 35.5002C30.7325 31.9924 33.036 28.8958 36.4173 27.8366L38.0841 35.6658C38.1767 36.1023 38.6094 36.3819 39.0507 36.2905C39.492 36.199 39.7748 35.771 39.6824 35.3346L33.4856 6.22298C33.4154 5.89315 33.6424 5.61564 33.9833 5.61564H39.6999C40.6117 5.61564 41.3333 6.32931 41.3333 7.23102C41.3333 8.13273 40.6117 8.8464 39.6999 8.8464H38.0666C37.6156 8.8464 37.2499 9.20802 37.2499 9.65409C37.2499 10.1002 37.6156 10.4618 38.0666 10.4618H39.6999C41.4944 10.4618 42.9666 9.00576 42.9666 7.23102C42.9666 5.45628 41.4944 4.00026 39.6999 4.00026L33.9834 4ZM13.5667 7.23076C12.2235 7.23076 11.1167 8.32542 11.1167 9.65383C11.1167 10.9822 12.2235 12.0769 13.5667 12.0769H19.2834C20.6265 12.0769 21.7334 10.9822 21.7334 9.65383C21.7334 8.32542 20.6265 7.23076 19.2834 7.23076H13.5667ZM11.1167 24.9999C5.26297 24.9999 0.5 29.7106 0.5 35.4999C0.5 41.2893 5.26297 45.9999 11.1167 45.9999C14.5709 45.9999 17.6439 44.3588 19.5831 41.8242C18.7241 41.6455 17.9269 41.297 17.2256 40.8178C15.6835 42.5613 13.4587 43.5661 11.1165 43.5768C6.60623 43.5768 2.94984 39.9606 2.94984 35.4999C2.94984 31.0392 6.60623 27.423 11.1165 27.423C11.2288 27.4239 11.341 27.4271 11.4531 27.4325L12.5696 25.1009C12.0942 25.0362 11.6099 24.9999 11.1167 24.9999ZM20.9167 30.6538C18.2202 30.6538 16.0167 32.833 16.0167 35.4999C16.0167 38.1668 18.2202 40.3461 20.9167 40.3461C21.9716 40.3461 22.9496 40.0111 23.7511 39.4453L24.6619 40.3461L24.4226 40.5827C24.1038 40.8981 24.1038 41.4094 24.4226 41.7248C24.7415 42.0402 25.2586 42.0402 25.5775 41.7248L27.2108 40.1095C27.5296 39.7941 27.5296 39.2827 27.2108 38.9673C26.8919 38.652 26.3749 38.652 26.0559 38.9673L25.8167 39.2039L24.9059 38.3032C25.478 37.5104 25.8167 36.5432 25.8167 35.5C25.8167 32.833 23.6133 30.6538 20.9167 30.6538Z" fill="#438BE3"/>
</g>
<defs>
<clipPath id="clip0_2985_1658">
<path d="M0 0H50V50H0V0Z" fill="white"/>
</clipPath>
</defs>
</svg>
