<svg width="50" height="50" viewBox="0 0 50 50" fill="none" xmlns="http://www.w3.org/2000/svg">
<g clip-path="url(#clip0_2985_1565)">
<path d="M46.9702 14.256C46.9785 13.93 46.9225 13.6055 46.8053 13.3011C46.6882 12.9967 46.5122 12.7184 46.2875 12.482C46.0627 12.2457 45.7936 12.0559 45.4955 11.9236C45.1974 11.7913 44.8761 11.719 44.5501 11.7109H40.3811V15.6613H43.9723V39.7847H6.99084V15.6613H10.5664V11.7109H6.39751C6.07079 11.718 5.74869 11.7895 5.44968 11.9214C5.15066 12.0533 4.88062 12.2429 4.65505 12.4793C4.42948 12.7158 4.2528 12.9944 4.13517 13.2993C4.01754 13.6042 3.96125 13.9293 3.96955 14.256V42.7514H46.9702V14.256Z" fill="#438BE3"/>
<path d="M49.8625 43.7048H32.4296L31.4303 45.313H19.5325L18.5254 43.7048H1.10027C1.00636 43.7049 0.913813 43.7273 0.830255 43.7702C0.746697 43.8131 0.674511 43.8752 0.619635 43.9514C0.564758 44.0276 0.528759 44.1158 0.514597 44.2086C0.500435 44.3015 0.508516 44.3964 0.538174 44.4855L1.23299 46.406C1.45458 47.0191 1.85983 47.5489 2.3935 47.9234C2.92718 48.2978 3.56333 48.4985 4.21525 48.4982H46.7475C47.3994 48.4985 48.0356 48.2978 48.5692 47.9234C49.1029 47.5489 49.5082 47.0191 49.7297 46.406L50.4636 44.5011C50.4978 44.4079 50.5081 44.3076 50.4936 44.2094C50.479 44.1112 50.44 44.0182 50.3802 43.939C50.3204 43.8597 50.2417 43.7968 50.1512 43.7559C50.0607 43.7149 49.9615 43.6974 49.8625 43.7048Z" fill="#438BE3"/>
<path d="M12.3666 34.7729H38.5902C38.7972 34.7729 38.9958 34.6906 39.1422 34.5442C39.2886 34.3978 39.3709 34.1992 39.3709 33.9922V6.58977C39.3721 6.48827 39.3535 6.3875 39.3162 6.29311C39.2786 6.19106 39.2201 6.09799 39.1445 6.01987L34.3354 1.23421C34.2616 1.15688 34.1707 1.09803 34.0699 1.06246C33.9731 1.02312 33.8699 1.00195 33.7655 1H12.3666C12.1596 1 11.961 1.08225 11.8146 1.22866C11.6682 1.37507 11.5859 1.57364 11.5859 1.78069V33.9922C11.5859 34.1992 11.6682 34.3978 11.8146 34.5442C11.961 34.6906 12.1596 34.7729 12.3666 34.7729ZM13.1473 2.56139H33.0004V6.58977C33.0004 6.79683 33.0826 6.9954 33.2291 7.14181C33.3755 7.28822 33.574 7.37047 33.7811 7.37047H37.8095V33.2115H13.1473V2.56139Z" fill="#438BE3"/>
<path d="M34.2214 10.5547H16.7338C16.5268 10.5547 16.3282 10.6369 16.1818 10.7833C16.0354 10.9298 15.9531 11.1283 15.9531 11.3354V27.7924C15.9531 27.9995 16.0354 28.1981 16.1818 28.3445C16.3282 28.4909 16.5268 28.5731 16.7338 28.5731H34.2214C34.4284 28.5731 34.627 28.4909 34.7734 28.3445C34.9198 28.1981 35.0021 27.9995 35.0021 27.7924V11.3354C35.0021 11.1283 34.9198 10.9298 34.7734 10.7833C34.627 10.6369 34.4284 10.5547 34.2214 10.5547ZM22.7139 25.5362C22.7532 25.5734 22.7844 25.6182 22.8057 25.6679C22.8271 25.7175 22.8381 25.771 22.8381 25.8251C22.8381 25.8791 22.8271 25.9326 22.8057 25.9823C22.7844 26.0319 22.7532 26.0767 22.7139 26.1139C22.6776 26.1517 22.6339 26.1815 22.5856 26.2016C22.5372 26.2218 22.4853 26.2318 22.4329 26.231C22.3793 26.2324 22.326 26.2227 22.2763 26.2026C22.2266 26.1824 22.1816 26.1522 22.144 26.1139L20.8403 24.8102L19.5287 26.1139C19.4924 26.1517 19.4487 26.1815 19.4003 26.2016C19.352 26.2218 19.3 26.2318 19.2477 26.231C19.1941 26.2319 19.1409 26.222 19.0913 26.2019C19.0417 26.1818 18.9966 26.1519 18.9588 26.1139C18.8835 26.0367 18.8413 25.933 18.8413 25.8251C18.8413 25.7171 18.8835 25.6135 18.9588 25.5362L20.2626 24.2325L18.9588 22.9365C18.8835 22.8592 18.8413 22.7556 18.8413 22.6476C18.8413 22.5397 18.8835 22.4361 18.9588 22.3588C18.9953 22.3198 19.0394 22.2887 19.0885 22.2674C19.1375 22.2462 19.1903 22.2352 19.2438 22.2352C19.2972 22.2352 19.35 22.2462 19.399 22.2674C19.4481 22.2887 19.4922 22.3198 19.5287 22.3588L20.8403 23.6626L22.144 22.3588C22.1805 22.3198 22.2247 22.2887 22.2737 22.2674C22.3227 22.2462 22.3756 22.2352 22.429 22.2352C22.4824 22.2352 22.5353 22.2462 22.5843 22.2674C22.6333 22.2887 22.6774 22.3198 22.7139 22.3588C22.7532 22.396 22.7844 22.4408 22.8057 22.4904C22.8271 22.5401 22.8381 22.5936 22.8381 22.6476C22.8381 22.7017 22.8271 22.7552 22.8057 22.8048C22.7844 22.8545 22.7532 22.8993 22.7139 22.9365L21.418 24.2403L22.7139 25.5362ZM23.0887 15.9415H21.2462V17.7839C21.222 17.8687 21.1708 17.9434 21.1004 17.9965C21.0299 18.0496 20.9441 18.0784 20.8559 18.0784C20.7677 18.0784 20.6818 18.0496 20.6114 17.9965C20.541 17.9434 20.4898 17.8687 20.4655 17.7839V15.9493H18.5919C18.507 15.9251 18.4324 15.8738 18.3793 15.8034C18.3262 15.733 18.2974 15.6472 18.2974 15.5589C18.2974 15.4707 18.3262 15.3849 18.3793 15.3145C18.4324 15.244 18.507 15.1928 18.5919 15.1686H20.4343V13.2949C20.4585 13.2101 20.5098 13.1355 20.5802 13.0823C20.6506 13.0292 20.7364 13.0005 20.8247 13.0005C20.9129 13.0005 20.9987 13.0292 21.0691 13.0823C21.1396 13.1355 21.1908 13.2101 21.215 13.2949V15.1374H23.0574C23.1423 15.1616 23.2169 15.2128 23.27 15.2832C23.3232 15.3537 23.3519 15.4395 23.3519 15.5277C23.3519 15.6159 23.3232 15.7018 23.27 15.7722C23.2169 15.8426 23.1423 15.8938 23.0574 15.9181L23.0887 15.9415ZM31.9027 25.9344L31.8168 26.0281C31.7395 26.1033 31.6359 26.1453 31.528 26.1452C31.4756 26.1459 31.4236 26.1359 31.3753 26.1158C31.327 26.0956 31.2833 26.0658 31.2469 26.0281C31.2077 25.9909 31.1765 25.9461 31.1551 25.8964C31.1338 25.8467 31.1228 25.7932 31.1228 25.7392C31.1228 25.6851 31.1338 25.6317 31.1551 25.582C31.1765 25.5323 31.2077 25.4875 31.2469 25.4503L31.3328 25.3645C31.4109 25.3033 31.5087 25.2729 31.6076 25.2789C31.7066 25.2849 31.8 25.3269 31.8701 25.3971C31.9403 25.4672 31.9823 25.5605 31.9883 25.6595C31.9943 25.7585 31.9639 25.8563 31.9027 25.9344ZM31.9964 22.9365L28.8112 26.1139C28.7732 26.1519 28.7282 26.182 28.6786 26.2025C28.6291 26.223 28.576 26.2336 28.5223 26.2336C28.4687 26.2336 28.4155 26.223 28.366 26.2025C28.3164 26.182 28.2714 26.1519 28.2335 26.1139C28.1955 26.076 28.1654 26.031 28.1449 25.9814C28.1244 25.9318 28.1138 25.8787 28.1138 25.8251C28.1138 25.7714 28.1244 25.7183 28.1449 25.6687C28.1654 25.6192 28.1955 25.5742 28.2335 25.5362L31.4187 22.3588C31.4559 22.3196 31.5007 22.2883 31.5503 22.267C31.6 22.2457 31.6535 22.2347 31.7075 22.2347C31.7616 22.2347 31.8151 22.2457 31.8647 22.267C31.9144 22.2883 31.9592 22.3196 31.9964 22.3588C32.0349 22.3972 32.0654 22.4429 32.0862 22.4931C32.1071 22.5433 32.1178 22.5972 32.1178 22.6516C32.1178 22.7059 32.1071 22.7598 32.0862 22.81C32.0654 22.8602 32.0349 22.9059 31.9964 22.9443V22.9365ZM28.3193 22.5384L28.4208 22.4447C28.4573 22.4057 28.5015 22.3746 28.5505 22.3533C28.5995 22.3321 28.6523 22.3211 28.7058 22.3211C28.7592 22.3211 28.8121 22.3321 28.8611 22.3533C28.9101 22.3746 28.9542 22.4057 28.9907 22.4447C29.0299 22.4819 29.0612 22.5267 29.0825 22.5763C29.1039 22.626 29.1149 22.6795 29.1149 22.7335C29.1149 22.7876 29.1039 22.8411 29.0825 22.8907C29.0612 22.9404 29.0299 22.9852 28.9907 23.0224L28.897 23.1083C28.861 23.1464 28.8174 23.1765 28.7689 23.1966C28.7205 23.2168 28.6684 23.2266 28.616 23.2254C28.5611 23.2273 28.5065 23.218 28.4554 23.1978C28.4044 23.1777 28.358 23.1472 28.3193 23.1083C28.2502 23.031 28.212 22.9309 28.212 22.8272C28.212 22.7235 28.2502 22.6234 28.3193 22.5462V22.5384ZM32.3633 15.9415H27.8665C27.8061 15.9587 27.7425 15.9617 27.6807 15.9502C27.619 15.9387 27.5607 15.9131 27.5105 15.8752C27.4604 15.8374 27.4197 15.7884 27.3917 15.7322C27.3636 15.6759 27.3491 15.614 27.3491 15.5511C27.3491 15.4883 27.3636 15.4263 27.3917 15.3701C27.4197 15.3138 27.4604 15.2649 27.5105 15.227C27.5607 15.1892 27.619 15.1635 27.6807 15.152C27.7425 15.1405 27.8061 15.1435 27.8665 15.1608H32.3633C32.4482 15.185 32.5228 15.2362 32.5759 15.3067C32.629 15.3771 32.6578 15.4629 32.6578 15.5511C32.6578 15.6394 32.629 15.7252 32.5759 15.7956C32.5228 15.866 32.4482 15.9172 32.3633 15.9415Z" fill="#438BE3"/>
</g>
<defs>
<clipPath id="clip0_2985_1565">
<path d="M0 0H50V50H0V0Z" fill="white"/>
</clipPath>
</defs>
</svg>
