<svg width="50" height="50" viewBox="0 0 50 50" fill="none" xmlns="http://www.w3.org/2000/svg">
<g clip-path="url(#clip0_2985_1571)">
<path d="M35.9769 43.8769C35.3735 39.8635 34.1139 31.5125 34.1139 27.9555C34.1139 24.8631 34.9783 23.4082 35.768 22.7241L25.9062 21.6289C26.9071 22.5378 28.2882 24.3238 29.863 27.868C31.8505 32.3392 32.7797 40.5348 33.0158 44.6734C33.0411 45.147 33.1624 45.6106 33.3724 46.036C33.5823 46.4614 33.8764 46.8397 34.2369 47.148C34.3123 47.2121 34.3953 47.2574 34.473 47.314C35.0229 46.9418 35.4561 46.4214 35.7223 45.813C35.9885 45.2047 36.0768 44.5334 35.9769 43.8769Z" fill="#438BE3"/>
<path d="M28.6169 26.9805C28.2085 27.1718 27.8823 27.5031 27.6972 27.9144C27.5122 28.3256 27.4807 28.7896 27.6085 29.2221L28.4751 32.1116C28.6167 32.5788 28.934 32.9728 29.3603 33.2108C29.7865 33.4488 30.2884 33.5123 30.7605 33.3878C30.4029 31.6027 29.8725 29.8567 29.1765 28.1744C28.988 27.749 28.8024 27.3538 28.6169 26.9805Z" fill="#438BE3"/>
<path d="M37.0857 22.8691C36.9348 22.891 34.875 23.2938 34.875 27.955C34.875 31.4555 36.1746 40.081 36.7297 43.764C36.8428 44.4996 36.7617 45.2521 36.4943 45.9467C36.2269 46.6413 35.7826 47.2539 35.2054 47.7238C35.7833 47.9665 36.4154 48.051 37.0368 47.9686C37.6581 47.8861 38.2464 47.6397 38.741 47.2546C39.2356 46.8696 39.6187 46.3597 39.851 45.7775C40.0833 45.1953 40.1564 44.5618 40.0627 43.942C39.4578 39.9287 38.199 31.5777 38.199 28.0206C38.199 25.3363 38.8506 23.8919 39.5385 23.1075C39.4684 23.1075 39.4005 23.118 39.3303 23.118L37.0857 22.8691Z" fill="#438BE3"/>
<path d="M39.3309 2L37.4453 2.20968V10.3231C38.7388 10.4513 39.708 11.2176 39.708 12.1823C39.708 13.147 38.7388 13.9171 37.4453 14.0415V22.1527L39.3732 22.3669C39.8872 22.3646 40.3999 22.3156 40.905 22.2206C40.9753 22.2021 41.0469 22.189 41.1192 22.1813V22.1859C43.0658 21.7717 44.8114 20.7023 46.0646 19.1562C47.3177 17.6101 48.0026 15.681 48.0047 13.6908V10.6738C48.0021 8.37418 47.0875 6.16946 45.4614 4.54337C43.8353 2.91727 41.6306 2.0026 39.3309 2Z" fill="#438BE3"/>
<path d="M37.0575 13.3135C38.0989 13.3135 38.9431 12.807 38.9431 12.1821C38.9431 11.5573 38.0989 11.0508 37.0575 11.0508C36.0161 11.0508 35.1719 11.5573 35.1719 12.1821C35.1719 12.807 36.0161 13.3135 37.0575 13.3135Z" fill="#438BE3"/>
<path d="M36.6836 14.0411C35.39 13.9129 34.4208 13.1466 34.4208 12.1819C34.4208 11.2172 35.39 10.4509 36.6836 10.3227V2.29297L19.3359 4.22157V20.1407L36.6836 22.0685V14.0411Z" fill="#438BE3"/>
<path d="M5.00917 18.9713V5.39485C5.00858 5.30174 5.04247 5.2117 5.10429 5.14207C5.16612 5.07245 5.25152 5.02815 5.34405 5.01773L13.3391 4.12998L1.99219 2.07617V22.2899L13.3391 20.2331L5.34405 19.3484C5.25152 19.338 5.16612 19.2937 5.10429 19.224C5.04247 19.1544 5.00858 19.0644 5.00917 18.9713Z" fill="#438BE3"/>
<path d="M5.75781 5.78678C9.5049 5.9595 16.3172 8.66045 16.3172 12.1813C16.3172 15.7021 9.5049 18.403 5.75781 18.5758V18.6316L18.58 20.0563V4.30469L5.75781 5.73021V5.78678Z" fill="#438BE3"/>
<path d="M15.563 12.1825C15.563 9.25146 9.21678 6.71871 5.75781 6.54297V17.8219C9.21678 17.6462 15.563 15.1135 15.563 12.1825Z" fill="#438BE3"/>
</g>
<defs>
<clipPath id="clip0_2985_1571">
<path d="M0 0H50V50H0V0Z" fill="white"/>
</clipPath>
</defs>
</svg>
