<svg width="50" height="50" viewBox="0 0 50 50" fill="none" xmlns="http://www.w3.org/2000/svg">
<g clip-path="url(#clip0_2985_1583)">
<g clip-path="url(#clip1_2985_1583)">
<path d="M23.1135 12.1865C23.3633 12.1865 23.6028 12.2853 23.7794 12.4611C23.956 12.6369 24.0552 12.8754 24.0552 13.124V13.9002C24.6644 14.1152 25.3293 14.1152 25.9385 13.9002V13.124C25.9385 12.8754 26.0377 12.6369 26.2143 12.4611C26.3909 12.2853 26.6304 12.1865 26.8801 12.1865H27.6598C27.8107 11.7623 27.8571 11.3082 27.7951 10.8624C27.7331 10.4167 27.5646 9.9922 27.3037 9.62469C27.0428 9.25719 26.6971 8.95739 26.2957 8.75047C25.8943 8.54354 25.4489 8.43555 24.9968 8.43555C24.5448 8.43555 24.0993 8.54354 23.6979 8.75047C23.2965 8.95739 22.9508 9.25719 22.6899 9.62469C22.429 9.9922 22.2605 10.4167 22.1985 10.8624C22.1366 11.3082 22.183 11.7623 22.3338 12.1865H23.1135Z" fill="#438BE3"/>
<path d="M26.8838 3.02496V0H23.1172V3.02496C24.3566 2.74153 25.6444 2.74153 26.8838 3.02496Z" fill="#438BE3"/>
<path d="M24.99 17.812C26.2937 17.812 27.5681 17.4271 28.6521 16.7061C29.736 15.985 30.5809 14.9601 31.0798 13.761C31.5787 12.5619 31.7092 11.2425 31.4549 9.96952C31.2005 8.69657 30.5728 7.52729 29.6509 6.60954C28.7291 5.69179 27.5546 5.0668 26.2759 4.81359C24.9973 4.56039 23.672 4.69034 22.4675 5.18702C21.2631 5.68371 20.2336 6.52481 19.5093 7.60396C18.785 8.68312 18.3984 9.95186 18.3984 11.2498C18.4004 12.9896 19.0955 14.6575 20.3313 15.8878C21.567 17.118 23.2424 17.81 24.99 17.812ZM24.99 6.56243C25.9212 6.56243 26.8315 6.83734 27.6057 7.35239C28.38 7.86744 28.9835 8.5995 29.3398 9.45599C29.6962 10.3125 29.7894 11.255 29.6078 12.1642C29.4261 13.0735 28.9777 13.9087 28.3192 14.5642C27.6608 15.2197 26.8218 15.6661 25.9085 15.847C24.9952 16.0279 24.0485 15.935 23.1882 15.5803C22.3279 15.2255 21.5926 14.6247 21.0752 13.8539C20.5579 13.0831 20.2817 12.1768 20.2817 11.2498C20.2831 10.007 20.7796 8.8156 21.6623 7.93686C22.545 7.05812 23.7417 6.56383 24.99 6.56243Z" fill="#438BE3"/>
<path d="M37.0657 27.6148L31.4464 16.7188C30.7702 17.5088 29.9543 18.1688 29.0391 18.666L47.6004 50.0005V48.0374L37.0657 27.6148Z" fill="#438BE3"/>
<path d="M18.5524 16.7188L12.9331 27.6148L2.39844 48.0374V50.0005L20.9598 18.6657C20.0446 18.1686 19.2287 17.5087 18.5524 16.7188Z" fill="#438BE3"/>
<path d="M24.9922 19.6857C24.224 19.6855 23.4595 19.581 22.7197 19.375L18.6484 26.2479H31.3366L27.2654 19.375C26.5254 19.581 25.7606 19.6855 24.9922 19.6857Z" fill="#438BE3"/>
<path d="M43.8218 26.25H38.1719V28.1249H43.8218V26.25Z" fill="#438BE3"/>
<path d="M11.8218 26.25H6.17188V28.1249H11.8218V26.25Z" fill="#438BE3"/>
<path d="M7.10986 24.375H5.22656V29.9998H7.10986V24.375Z" fill="#438BE3"/>
<path d="M44.7817 24.375H42.8984V29.9998H44.7817V24.375Z" fill="#438BE3"/>
</g>
</g>
<defs>
<clipPath id="clip0_2985_1583">
<path d="M0 0H50V50H0V0Z" fill="white"/>
</clipPath>
<clipPath id="clip1_2985_1583">
<rect width="50" height="50" fill="white"/>
</clipPath>
</defs>
</svg>
