<svg width="50" height="50" viewBox="0 0 50 50" fill="none" xmlns="http://www.w3.org/2000/svg">
<g clip-path="url(#clip0_2985_1596)">
<path fill-rule="evenodd" clip-rule="evenodd" d="M48.2837 38.3165C48.2837 38.7925 47.9261 39.2089 47.3897 39.2089H39.5816C39.1047 39.2089 38.6875 38.7925 38.6875 38.3165V36.5913C38.6875 36.4723 38.6875 36.3534 38.8067 36.2344C39.522 36.7698 40.0584 36.8293 40.8332 36.7698C42.681 36.7698 46.1976 36.8888 48.1049 36.7103C48.1645 36.7103 48.2241 36.7103 48.2837 36.7103V38.3165Z" fill="#438BE3"/>
<path fill-rule="evenodd" clip-rule="evenodd" d="M2.67969 38.3165C2.67969 38.7925 3.09692 39.2089 3.57375 39.2089H11.3819C11.9183 39.2089 12.2759 38.7925 12.2759 38.3165V36.5913C12.2759 36.4723 12.2759 36.3534 12.2163 36.2344C11.4415 36.7698 10.905 36.8293 10.1302 36.7698C8.28246 36.7698 4.76583 36.8888 2.8585 36.7103C2.7989 36.7103 2.73929 36.7103 2.67969 36.7103V38.3165Z" fill="#438BE3"/>
<path fill-rule="evenodd" clip-rule="evenodd" d="M50.3723 16.4845C49.955 17.2578 48.7034 17.4958 47.8689 17.6743C46.5576 17.9717 44.8291 17.9717 45.0079 19.6375C46.6172 20.0539 48.1073 21.1842 48.465 22.8499C49.061 25.4675 49.061 34.629 49.061 34.748C49.061 34.748 49.061 35.7594 48.5246 36.1163C47.9881 36.4138 41.1337 36.1758 41.0741 36.1758C40.3588 36.4138 39.6436 36.0568 39.1071 35.6404C34.6964 36.0568 30.1069 36.2948 25.5174 36.2948C20.8683 36.2948 16.2788 36.0568 11.9277 35.6404C11.3913 36.0568 10.6164 36.4138 9.90117 36.1758C9.84157 36.1758 2.98711 36.4138 2.51028 36.1163C1.97384 35.7594 1.97384 34.748 1.97384 34.748C1.97384 34.629 1.97384 25.4675 2.51028 22.8499C2.8679 21.1842 4.4176 20.0539 5.96731 19.6375C6.20572 17.9717 4.4176 17.9717 3.10632 17.6743C2.33146 17.4958 1.02018 17.2578 0.662552 16.4845C0.245325 15.7706 0.662552 14.9972 1.55661 14.9972C2.33146 14.9972 5.37127 15.2947 5.49048 15.3541C5.72889 15.6516 5.60968 16.7819 5.60968 17.2578C5.60968 18.2692 6.32493 18.7451 6.74216 18.8046L6.98058 18.8641C8.23226 16.4845 9.48394 13.9264 10.8548 11.6062C11.4509 10.5354 18.4841 10 25.5174 10C32.4911 10 39.5244 10.5354 40.18 11.6062C41.5509 13.9264 42.8026 16.4845 43.9947 18.8641L44.2331 18.8046C44.6503 18.7451 45.4251 18.2692 45.4251 17.2578C45.4251 16.7819 45.2463 15.6516 45.5444 15.3541C45.604 15.2947 48.7034 14.9972 49.4186 14.9972C50.3127 14.9972 50.7299 15.7706 50.3723 16.4845ZM25.5174 33.4987H36.4845C36.8422 33.4987 36.8422 32.9633 36.4845 32.9633H25.5174H14.5503C14.1927 32.9633 14.1927 33.4987 14.5503 33.4987H25.5174ZM25.5174 32.4279H36.4845C36.8422 32.4279 36.8422 31.8925 36.4845 31.8925H25.5174H14.5503C14.1927 31.8925 14.1927 32.4279 14.5503 32.4279H25.5174ZM25.5174 30.7622H36.3057L35.1137 28.799C32.6699 29.2154 29.0937 29.3939 25.5174 29.3939C21.8816 29.3939 18.3053 29.2154 15.8616 28.799L14.6695 30.7622H25.5174ZM25.5174 19.8159H41.9085C42.1469 19.8159 42.2661 19.578 42.1469 19.3995C41.6701 18.3287 39.882 14.8782 39.0475 13.4504C38.1535 12.0227 31.299 11.6657 25.5174 11.7252C19.7358 11.6657 12.8218 12.0227 11.9873 13.4504C11.1529 14.8782 9.36473 18.3287 8.8283 19.3995C8.70909 19.578 8.8879 19.8159 9.12632 19.8159H25.5174ZM7.57661 33.3203C7.21899 33.3203 6.92097 33.5582 6.92097 33.9152C6.92097 34.2721 7.21899 34.5696 7.57661 34.5696C7.93424 34.5696 8.23226 34.2721 8.23226 33.9152C8.23226 33.5582 7.93424 33.3203 7.57661 33.3203ZM4.77523 32.3089C4.11958 32.3089 3.58315 32.7848 3.58315 33.4392C3.58315 34.0341 4.11958 34.5696 4.77523 34.5696C5.37127 34.5696 5.9077 34.0341 5.9077 33.4392C5.9077 32.7848 5.37127 32.3089 4.77523 32.3089ZM5.66929 25.527C5.49048 25.4675 5.01364 25.2296 4.83483 25.2296C4.65602 25.2296 4.59642 25.646 4.59642 25.646C4.4176 28.9775 7.15939 30.6432 10.1396 30.6432C12.7026 30.6432 13.6562 29.0369 13.7158 28.8585C13.835 28.7395 13.8946 28.442 13.835 28.3231L13.2986 28.1446C13.2986 29.2749 12.4045 30.1673 11.2721 30.1673C10.1396 30.1673 9.18592 29.2749 9.18592 28.1446C9.18592 27.6687 9.36473 27.2522 9.66275 26.8953L9.54355 26.8358C9.36473 27.7876 8.53028 28.5015 7.51701 28.5015C6.32493 28.5015 5.43087 27.6092 5.43087 26.4789C5.43087 26.1219 5.49048 25.8245 5.66929 25.527ZM7.87463 26.2409L7.3382 26.0624C7.15939 26.1219 7.09978 26.2409 7.09978 26.4194C7.09978 26.6573 7.2786 26.7763 7.51701 26.7763C7.69582 26.7763 7.87463 26.6573 7.87463 26.4194C7.87463 26.3599 7.87463 26.3004 7.87463 26.2409ZM11.2721 27.7282C11.0336 27.7282 10.7952 27.9066 10.7952 28.1446C10.7952 28.3825 11.0336 28.561 11.2721 28.561C11.5105 28.561 11.6893 28.3825 11.6893 28.1446C11.6893 27.9066 11.5105 27.7282 11.2721 27.7282ZM12.643 27.9066L12.2853 27.7876C12.2853 27.9066 12.3449 28.0256 12.3449 28.1446C12.3449 28.7395 11.8681 29.2154 11.2721 29.2154C10.676 29.2154 10.1396 28.7395 10.1396 28.1446C10.1396 27.7282 10.378 27.4307 10.676 27.2522L10.3184 27.1332C10.0204 27.3712 9.84157 27.7282 9.84157 28.1446C9.84157 28.918 10.4972 29.5129 11.2721 29.5129C12.0469 29.5129 12.643 28.918 12.643 28.1446C12.643 28.0851 12.643 27.9661 12.643 27.9066ZM7.51701 27.8471C8.23226 27.8471 8.8283 27.3117 8.8879 26.5978L8.53028 26.4789C8.53028 27.0143 8.05345 27.4307 7.51701 27.4307C6.92097 27.4307 6.44414 27.0143 6.44414 26.4194C6.44414 26.1814 6.50374 26.0029 6.62295 25.8245L6.32493 25.7055C6.14612 25.9434 6.08652 26.1814 6.08652 26.4789C6.08652 27.2522 6.74216 27.8471 7.51701 27.8471ZM43.3986 33.3203C43.7562 33.3203 44.0543 33.5582 44.0543 33.9152C44.0543 34.2721 43.7562 34.5696 43.3986 34.5696C43.041 34.5696 42.743 34.2721 42.743 33.9152C42.743 33.5582 43.041 33.3203 43.3986 33.3203ZM46.2596 32.3089C46.8556 32.3089 47.3921 32.7848 47.3921 33.4392C47.3921 34.0341 46.8556 34.5696 46.2596 34.5696C45.604 34.5696 45.0675 34.0341 45.0675 33.4392C45.0675 32.7848 45.604 32.3089 46.2596 32.3089ZM45.3059 25.527C45.4848 25.4675 45.9616 25.2296 46.1404 25.2296C46.3788 25.2296 46.3788 25.646 46.3788 25.646C46.6172 28.9775 43.8158 30.6432 40.8356 30.6432C38.2727 30.6432 37.3786 29.0369 37.2594 28.8585C37.1998 28.7395 37.0806 28.442 37.1402 28.3231L37.6766 28.1446C37.6766 29.2749 38.6303 30.1673 39.7628 30.1673C40.8952 30.1673 41.7893 29.2749 41.7893 28.1446C41.7893 27.6687 41.6105 27.2522 41.3721 26.8953L41.4913 26.8358C41.6701 27.7876 42.5046 28.5015 43.5178 28.5015C44.6503 28.5015 45.5444 27.6092 45.5444 26.4789C45.5444 26.1219 45.4848 25.8245 45.3059 25.527ZM43.1602 26.2409L43.6966 26.0624C43.8158 26.1219 43.8754 26.2409 43.8754 26.4194C43.8754 26.6573 43.6966 26.7763 43.5178 26.7763C43.2794 26.7763 43.1006 26.6573 43.1006 26.4194C43.1006 26.3599 43.1006 26.3004 43.1602 26.2409ZM39.7628 27.7282C40.0012 27.7282 40.18 27.9066 40.18 28.1446C40.18 28.3825 40.0012 28.561 39.7628 28.561C39.5244 28.561 39.2859 28.3825 39.2859 28.1446C39.2859 27.9066 39.5244 27.7282 39.7628 27.7282ZM38.3919 27.9066L38.7495 27.7876C38.6899 27.9066 38.6303 28.0256 38.6303 28.1446C38.6303 28.7395 39.1667 29.2154 39.7628 29.2154C40.3588 29.2154 40.8356 28.7395 40.8356 28.1446C40.8356 27.7282 40.6568 27.4307 40.3588 27.2522L40.6568 27.1332C40.9548 27.3712 41.1337 27.7282 41.1337 28.1446C41.1337 28.918 40.5376 29.5129 39.7628 29.5129C38.9879 29.5129 38.3323 28.918 38.3323 28.1446C38.3323 28.0851 38.3323 27.9661 38.3919 27.9066ZM43.5178 27.8471C42.8026 27.8471 42.2065 27.3117 42.0873 26.5978L42.4449 26.4789C42.5046 27.0143 42.9218 27.4307 43.5178 27.4307C44.0543 27.4307 44.5311 27.0143 44.5311 26.4194C44.5311 26.1814 44.4715 26.0029 44.3523 25.8245L44.7099 25.7055C44.8291 25.9434 44.8887 26.1814 44.8887 26.4789C44.8887 27.2522 44.2927 27.8471 43.5178 27.8471Z" fill="#438BE3"/>
</g>
<defs>
<clipPath id="clip0_2985_1596">
<path d="M0 0H50V50H0V0Z" fill="white"/>
</clipPath>
</defs>
</svg>
