<svg width="50" height="50" viewBox="0 0 50 50" fill="none" xmlns="http://www.w3.org/2000/svg">
<g clip-path="url(#clip0_2985_1601)">
<path d="M0.5 34.7332C0.5 36.5223 1.95 37.9707 3.7375 37.9707H47.2609C49.05 37.9707 50.4984 36.5207 50.4984 34.7332V34.3457H0.5V34.7332Z" fill="#438BE3"/>
<path d="M35.4969 44.4441H32.9578L30.2922 39.5332H25.4922H20.6922L18.025 44.4441H15.4844C14.6219 44.4441 13.9219 45.1457 13.9219 46.0066C13.9219 46.8707 14.6219 47.5691 15.4844 47.5691H35.4984C36.3609 47.5691 37.0609 46.8707 37.0609 46.0066C37.0594 45.1457 36.3609 44.4441 35.4969 44.4441Z" fill="#438BE3"/>
<path d="M39.4141 26.3109V16.9141L31.75 26.3109H39.4141Z" fill="#438BE3"/>
<path d="M47.2625 2H3.7375C1.95 2 0.5 3.45 0.5 5.2375V32.7828H50.5V5.2375C50.5 3.45 49.05 2 47.2625 2ZM35.0703 7.38594H38.1594V8.16719H35.0703V7.38594ZM30.1297 7.38594H33.2188V8.16719H30.1297V7.38594ZM25.1891 7.38594H28.2781V8.16719H25.1891V7.38594ZM15.3078 7.38594H18.3969V8.16719H15.3078V7.38594ZM10.0781 29.1578C9.90781 29.5391 9.62812 29.5391 9.45781 29.1578L8.08594 26.1125H11.45L10.0781 29.1578ZM11.45 25.4313H8.08594V10.2188H11.45V25.4313ZM11.45 9.5375H8.08594V8.17969C8.08594 7.71563 8.46094 7.34063 8.92813 7.34063H10.6094C11.0734 7.34063 11.4516 7.71563 11.4516 8.17969L11.45 9.5375ZM16.4203 29.8172H13.3312V29.0359H16.4203V29.8172ZM21.3625 29.8172H18.2734V29.0359H21.3625V29.8172ZM23.3359 8.16719H20.2469V7.38594H23.3359V8.16719ZM42.9688 29.0813C42.9688 29.5109 42.6172 29.8625 42.1875 29.8625H25.0516C24.6219 29.8625 24.4922 29.5875 24.7641 29.2547L27.1531 26.3281L28.1 27.1219L28.6016 26.5234L27.6469 25.7219L30.0469 22.7797L30.9984 23.5797L31.5 22.9813L30.5406 22.175L32.9406 19.2328L33.8953 20.0328L34.3969 19.4344L33.4344 18.625L35.8344 15.6828L36.7938 16.4891L37.2953 15.8906L36.3281 15.0781L38.7297 12.1328L39.6922 12.9422L40.1937 12.3438L39.2219 11.5297L42.4734 7.54375C42.7453 7.21094 42.9672 7.29063 42.9672 7.72031L42.9688 29.0813Z" fill="#438BE3"/>
</g>
<defs>
<clipPath id="clip0_2985_1601">
<path d="M0 0H50V50H0V0Z" fill="white"/>
</clipPath>
</defs>
</svg>
