<svg width="50" height="50" viewBox="0 0 50 50" fill="none" xmlns="http://www.w3.org/2000/svg">
<path d="M22.5886 47.3746C22.8544 48.144 23.3544 48.811 24.0184 49.2818C24.6825 49.7527 25.4773 50.0038 26.2914 50H30.0281C30.8429 50.004 31.6384 49.7525 32.3028 49.2809C32.9672 48.8092 33.467 48.1412 33.732 47.3707C35.6899 41.5997 37.6195 35.3461 37.5234 29.188C37.4438 24.0836 36.5321 19.0377 35.671 14.019C35.4599 12.7954 34.9481 11.6434 34.1817 10.6665C33.4153 9.68965 32.4182 8.91846 31.28 8.42223C31.28 8.42223 34.1766 7.5527 34.1802 7.55159C36.98 6.71112 37.4704 3.1071 35.5276 1.16182C33.5999 -0.768322 29.9726 -0.249166 29.1454 2.51094L28.1544 5.82026C28.1544 5.82026 27.1647 2.51528 27.1634 2.51094C26.33 -0.271838 22.7112 -0.771541 20.7813 1.16172C18.8316 3.11485 19.3356 6.71337 22.1286 7.55159L25.0243 8.42087C24.3712 8.70639 23.7613 9.08205 23.2125 9.53688C21.6307 10.6458 19.8305 12.4382 18.0466 15.3418C16.3003 18.1841 11.9384 22.2012 6.66364 19.2267C6.48292 19.1257 6.2695 19.1004 6.07018 19.1565C5.87086 19.2126 5.70192 19.3454 5.60042 19.5259C5.49891 19.7063 5.47312 19.9197 5.52871 20.1192C5.58429 20.3186 5.71672 20.4879 5.89693 20.5898C10.9919 23.4631 16.5218 20.8097 19.3772 16.1614C19.772 15.5186 20.1662 14.9379 20.557 14.4103C19.697 19.5118 18.7798 24.7141 18.7798 29.9037C18.7798 35.3731 21.1662 43.1974 22.5886 47.3746ZM30.6422 2.96009C31.1501 1.26417 33.2942 1.13831 34.4228 2.26782C35.554 3.3999 35.4202 5.54602 33.7316 6.0533L29.3194 7.37784C29.3194 7.37784 30.6409 2.96467 30.6422 2.96009ZM22.5772 6.0533C22.2384 5.95569 21.9316 5.76985 21.6881 5.51479C21.4447 5.25972 21.2734 4.94458 21.1917 4.6016C20.5172 1.92301 24.8264 0.153286 25.6666 2.96009L26.9894 7.37784L22.5772 6.0533ZM22.161 14.2941C22.6465 11.4386 25.346 9.45393 28.1631 9.34931C29.5805 9.33451 30.9573 9.82192 32.0498 10.7252C33.1422 11.6284 33.8796 12.8892 34.1314 14.2841C35.0062 19.3794 35.9618 24.5878 35.9657 29.7748C35.1946 31.1713 34.0633 32.3355 32.6895 33.1463C31.3157 33.957 29.7496 34.3847 28.1544 34.3847C26.5592 34.3847 24.9931 33.957 23.6193 33.1463C22.2455 32.3355 21.1142 31.1713 20.3431 29.7748C20.347 24.5987 21.2961 19.3815 22.161 14.2941Z" fill="#438BE3"/>
<path d="M38.9339 32.8311C38.4382 37.9982 36.8451 43.0653 35.2144 47.8722C35.0439 48.3719 34.8009 48.844 34.4931 49.2731L34.4923 49.2757C34.968 49.6083 35.5102 49.8337 36.0815 49.9363C36.6528 50.0389 37.2396 50.0162 37.8013 49.8699L41.445 48.9247C42.2362 48.7282 42.9447 48.2859 43.4687 47.6614C43.9928 47.037 44.3054 46.2624 44.3616 45.4491C44.6289 41.1288 44.8607 33.161 43.4701 27.9093C43.4565 27.8379 43.4389 27.7673 43.4175 27.6979C42.0003 22.5795 39.6415 17.688 37.3802 12.9009C37.1442 12.4064 36.8547 11.9392 36.5168 11.5078C36.5234 11.5222 36.5261 11.5376 36.5317 11.5523C36.8522 12.2541 37.0814 12.9942 37.2135 13.7543L37.347 14.5312C37.5296 15.5926 37.7127 16.6631 37.8892 17.7394C39.3925 21.0885 40.9093 24.4845 41.8878 28.0313C41.4201 29.8969 40.3886 31.573 38.9339 32.8311Z" fill="#438BE3"/>
</svg>
