<svg width="50" height="50" viewBox="0 0 50 50" fill="none" xmlns="http://www.w3.org/2000/svg">
<g clip-path="url(#clip0_2985_1611)">
<g clip-path="url(#clip1_2985_1611)">
<path d="M44.9504 26.7081C44.2337 25.4998 42.9671 24.7748 41.5588 24.7748H37.3255V23.5415C37.3255 21.9415 36.0255 20.6332 34.4256 20.6332H18.7175V19.3999C18.7175 17.8 17.4092 16.5 15.8092 16.5H3.40114C1.80113 16.5 0.501155 17.8 0.501155 19.3999V40.0829C0.440273 42.7302 2.79476 45.1265 5.4678 45.0577C5.46775 45.0578 34.0422 45.0578 34.0422 45.0578C35.8216 45.0699 37.5566 44.0589 38.4088 42.4829C38.4088 42.4829 45.0004 30.6248 45.0087 30.6164C45.6837 29.3831 45.667 27.9248 44.9504 26.7081ZM43.5504 29.8164L37.3255 41.0162C36.9329 41.7752 36.4445 42.5733 35.6588 42.9661C35.1697 43.2491 34.6043 43.3879 34.0422 43.3911H5.46776C4.64095 43.3923 3.83581 43.0736 3.22613 42.5162L11.5093 27.6081C11.9176 26.8915 12.6759 26.4415 13.5092 26.4415H41.5588C43.2392 26.3863 44.4052 28.3681 43.5504 29.8164Z" fill="#438BE3"/>
<path d="M45.4993 8.99991C45.4993 6.2428 43.2565 4 40.4994 4H20.4997C18.3277 4 16.4817 5.39427 15.7943 7.33327H10.4999C7.74163 7.33327 5.5 9.5749 5.5 12.3332V14.8331H15.8081C16.9748 14.8331 18.0331 15.2664 18.8331 15.9831V13.9998C18.8331 10.3249 21.8247 7.33327 25.4996 7.33327H17.6397C18.2154 6.34243 19.2727 5.66664 20.4997 5.66664H40.4994C42.3373 5.66664 43.8326 7.16197 43.8326 8.99991H25.4996C22.7414 8.99991 20.4997 11.2415 20.4997 13.9998V18.9664H22.1664V13.9998C22.1664 12.1582 23.658 10.6665 25.4996 10.6665H45.4993C47.3409 10.6665 48.8325 12.1582 48.8325 13.9998V36.4994C48.8325 38.341 47.3409 39.8327 45.4993 39.8327H41.791L40.8577 41.4993H45.4993C48.2576 41.4993 50.4992 39.2577 50.4992 36.4994V13.9998C50.4992 11.2415 48.2576 8.99991 45.4993 8.99991Z" fill="#438BE3"/>
<path d="M44.6697 15.6666C45.7604 15.6494 45.7686 14.0189 44.6696 14C44.6697 14 26.3367 14 26.3367 14C25.2473 14.0168 25.2366 15.6476 26.3367 15.6666H44.6697Z" fill="#438BE3"/>
<path d="M26.3367 18.9987H44.6697C45.7604 18.9814 45.7686 17.351 44.6696 17.332C44.6697 17.332 26.3367 17.332 26.3367 17.332C25.2473 17.3488 25.2366 18.9796 26.3367 18.9987Z" fill="#438BE3"/>
<path d="M37.9688 20.666C38.3604 21.1493 38.6521 21.716 38.827 22.3327H44.6603C45.7546 22.3119 45.7551 20.6868 44.6603 20.666H37.9688Z" fill="#438BE3"/>
</g>
</g>
<defs>
<clipPath id="clip0_2985_1611">
<path d="M0 0H50V50H0V0Z" fill="white"/>
</clipPath>
<clipPath id="clip1_2985_1611">
<rect width="50" height="50" fill="white"/>
</clipPath>
</defs>
</svg>
