<svg width="50" height="50" viewBox="0 0 50 50" fill="none" xmlns="http://www.w3.org/2000/svg">
<path d="M21.3307 25H8.7593C8.20361 25 7.67068 25.2207 7.27774 25.6137C6.88481 26.0066 6.66406 26.5395 6.66406 27.0952V39.6667C6.66406 40.2224 6.88481 40.7553 7.27774 41.1482C7.67068 41.5412 8.20361 41.7619 8.7593 41.7619H21.3307C21.8864 41.7619 22.4194 41.5412 22.8123 41.1482C23.2052 40.7553 23.426 40.2224 23.426 39.6667V27.0952C23.426 26.5395 23.2052 26.0066 22.8123 25.6137C22.4194 25.2207 21.8864 25 21.3307 25ZM20.2831 35.4762C20.2831 36.0319 20.0624 36.5648 19.6694 36.9577C19.2765 37.3507 18.7436 37.5714 18.1879 37.5714H11.9022C11.3465 37.5714 10.8135 37.3507 10.4206 36.9577C10.0277 36.5648 9.80692 36.0319 9.80692 35.4762V31.2857C9.80692 30.73 10.0277 30.1971 10.4206 29.8042C10.8135 29.4112 11.3465 29.1905 11.9022 29.1905H18.1879C18.7436 29.1905 19.2765 29.4112 19.6694 29.8042C20.0624 30.1971 20.2831 30.73 20.2831 31.2857V35.4762Z" fill="#438BE3"/>
<path d="M15.0484 35.4756C16.2055 35.4756 17.1436 34.5376 17.1436 33.3804C17.1436 32.2232 16.2055 31.2852 15.0484 31.2852C13.8912 31.2852 12.9531 32.2232 12.9531 33.3804C12.9531 34.5376 13.8912 35.4756 15.0484 35.4756Z" fill="#438BE3"/>
<path d="M26.5718 29.1914H24.4766V37.5724H26.5718V29.1914Z" fill="#438BE3"/>
<path d="M46.4743 25H29.7124C28.5553 25 27.6172 25.9381 27.6172 27.0952V39.6667C27.6172 40.8238 28.5553 41.7619 29.7124 41.7619H46.4743C47.6315 41.7619 48.5696 40.8238 48.5696 39.6667V27.0952C48.5696 25.9381 47.6315 25 46.4743 25Z" fill="#438BE3"/>
<path d="M12.9546 19.7617H17.1451C17.7008 19.7617 18.2337 19.9825 18.6266 20.3754C19.0196 20.7683 19.2403 21.3013 19.2403 21.857V23.9522H10.8594V21.857C10.8594 21.3013 11.0801 20.7683 11.4731 20.3754C11.866 19.9825 12.3989 19.7617 12.9546 19.7617Z" fill="#438BE3"/>
<path d="M16.0952 16.6191H14V18.7144H16.0952V16.6191Z" fill="#438BE3"/>
<path d="M15.0513 15.5714C18.5228 15.5714 21.3371 12.7572 21.3371 9.28571C21.3371 5.81421 18.5228 3 15.0513 3C11.5798 3 8.76562 5.81421 8.76562 9.28571C8.76562 12.7572 11.5798 15.5714 15.0513 15.5714Z" fill="#438BE3"/>
<path d="M9.8125 42.8086H20.2887V44.9038C20.2887 45.4595 20.0679 45.9925 19.675 46.3854C19.2821 46.7783 18.7491 46.9991 18.1935 46.9991H11.9077C11.352 46.9991 10.8191 46.7783 10.4262 46.3854C10.0332 45.9925 9.8125 45.4595 9.8125 44.9038V42.8086Z" fill="#438BE3"/>
<path d="M3.52493 29.1914H5.62016V37.5724H3.52493C2.96923 37.5724 2.4363 37.3516 2.04337 36.9587C1.65044 36.5657 1.42969 36.0328 1.42969 35.4771V31.2866C1.42969 30.731 1.65044 30.198 2.04337 29.8051C2.4363 29.4122 2.96923 29.1914 3.52493 29.1914Z" fill="#438BE3"/>
</svg>
