<svg width="50" height="50" viewBox="0 0 50 50" fill="none" xmlns="http://www.w3.org/2000/svg">
<path d="M11.9996 39.334H10.3643V42.6046H7.09375V44.2399H10.3643V47.5105H11.9996V44.2399H15.2702V42.6046H11.9996V39.334Z" fill="#438BE3"/>
<path d="M42.0751 39.9902L39.7857 42.2796L37.4963 39.9902L36.3516 41.1349L38.641 43.4244L36.3516 45.7138L37.4963 46.8585L39.7857 44.5691L42.0751 46.8585L43.2198 45.7138L40.9304 43.4244L43.2198 41.1349L42.0751 39.9902Z" fill="#438BE3"/>
<path d="M25.0827 42.6055H16.9062V44.2408H25.0827V42.6055Z" fill="#438BE3"/>
<path d="M27.3281 45.7343L28.4844 46.8906L34.266 41.109L33.1096 39.9527L27.3281 45.7343Z" fill="#438BE3"/>
<path d="M28.513 41.9517C28.9645 41.9517 29.3306 41.5856 29.3306 41.1341C29.3306 40.6825 28.9645 40.3164 28.513 40.3164C28.0614 40.3164 27.6953 40.6825 27.6953 41.1341C27.6953 41.5856 28.0614 41.9517 28.513 41.9517Z" fill="#438BE3"/>
<path d="M33.0911 46.5318C33.5427 46.5318 33.9087 46.1657 33.9087 45.7141C33.9087 45.2626 33.5427 44.8965 33.0911 44.8965C32.6395 44.8965 32.2734 45.2626 32.2734 45.7141C32.2734 46.1657 32.6395 46.5318 33.0911 46.5318Z" fill="#438BE3"/>
<path d="M47.9704 31.158V34.4285H39.7939V12.3521C39.7939 11.698 39.5486 11.0438 39.1398 10.635L31.0451 2.45854C30.5545 1.96795 29.9822 1.72266 29.3281 1.72266H12.8116C11.4216 1.72266 10.3586 2.7856 10.3586 4.1756V34.4285H2.18217V31.158H0.546875V39.3344H2.18217V36.0638H47.9704V39.3344H49.6057V31.158H47.9704ZM27.5292 4.99324H29.1645V10.7168C29.1645 11.2074 29.4916 11.5344 29.9822 11.5344H36.5233V13.1697H29.9822C28.5922 13.1697 27.5292 12.1068 27.5292 10.7168V4.99324ZM13.6292 4.99324H25.8939V6.62854H13.6292V4.99324ZM13.6292 8.26383H25.8939V9.89913H13.6292V8.26383ZM13.6292 11.5344H25.8939V13.1697H13.6292V11.5344ZM13.6292 14.805H36.5233V16.4403H13.6292V14.805ZM13.6292 18.0756H36.5233V19.7109H13.6292V18.0756ZM13.6292 21.3462H36.5233V22.9815H13.6292V21.3462ZM13.6292 24.6168H36.5233V26.2521H13.6292V24.6168ZM13.6292 27.8874H36.5233V29.5227H13.6292V27.8874ZM13.6292 31.158H36.5233V32.7932H13.6292V31.158Z" fill="#438BE3"/>
</svg>
