<svg width="50" height="50" viewBox="0 0 50 50" fill="none" xmlns="http://www.w3.org/2000/svg">
<g clip-path="url(#clip0_3028_1590)">
<path d="M40.4648 0.197266H28.0469V29.6868H40.4648V0.197266Z" fill="#438BE3"/>
<path d="M8.91251 30.5099C8.91251 30.5099 8.63303 42.0999 11.0848 47.5604C11.087 48.8985 11.9466 49.9 11.9466 49.9L22.7659 49.6798L23.6234 47.3762L25.4167 37.0756L25.6856 29.6799H10.4179C10.4179 29.6799 8.63303 29.1739 8.91251 30.5099Z" fill="#438BE3"/>
<path d="M12.2476 26.7546L11.9384 13.9895C11.9384 13.9895 11.8008 13.295 14.8666 13.295C17.9325 13.295 21.1084 13.295 21.1084 13.295C21.1084 13.295 21.8876 12.6831 21.9447 14.5209C21.9998 16.3587 22.275 27.6587 22.275 27.6587H13.3951H11.9406L12.2476 26.7546Z" fill="#438BE3"/>
<path d="M25.6772 29.1486H25.2199H25.1987V28.6722C25.1987 27.8189 24.5064 27.1223 23.6531 27.1223H23.1449H22.8104V13.9931C22.8104 13.1843 22.1625 12.5237 21.3643 12.5237L21.3537 0.859535C21.3537 0.671097 21.2521 0.493245 21.0891 0.400084C20.9218 0.296337 20.7228 0.298455 20.5555 0.393732L13.3419 4.3954C13.2932 4.42293 13.2487 4.45892 13.2064 4.50338L13.1048 4.61772C13.0307 4.69606 12.9693 4.9226 12.9587 5.03059C12.9121 5.38629 12.8846 6.10405 12.8719 6.5635L12.8613 12.5215H12.8465C12.0482 12.5215 11.4004 13.1843 11.4004 13.9909V27.1202H10.5598C9.70653 27.1202 9.01418 27.8168 9.01418 28.6701V29.1465H8.53567C8.23925 29.1465 8 29.3857 8 29.6821V30.7958C8.00635 38.0475 9.07558 45.1785 10.8583 49.8747C10.9388 50.0801 11.2352 50.2198 11.4575 50.2198H22.8528C23.0751 50.2198 23.2741 50.0801 23.3545 49.8747C25.1415 45.1701 26.2108 38.0369 26.2129 30.7958V29.6842C26.2129 29.3899 25.9736 29.1486 25.6772 29.1486ZM14.011 5.24655L20.2824 1.76785V12.5215H13.9305L13.9432 6.5762C13.9517 6.22262 13.9729 5.68271 14.011 5.24655ZM12.8465 13.595H13.3927H20.818H21.3643C21.5697 13.595 21.7369 13.7729 21.7369 13.9931V27.1223H12.4738V13.9931C12.4738 13.7729 12.6411 13.595 12.8465 13.595ZM10.5598 28.1937H11.5274H11.9381H22.2747H23.1449H23.6531C23.9135 28.1937 24.1274 28.4054 24.1274 28.6701V29.1465H10.0855V28.6701C10.0855 28.4075 10.2973 28.1937 10.5598 28.1937ZM25.1415 30.8001C25.1373 37.7405 24.1485 44.5645 22.4801 49.1506H11.7328C10.0686 44.5709 9.07982 37.7511 9.07135 30.8001V30.222H9.31483H9.54774H24.663H25.1394V30.8001H25.1415Z" fill="#438BE3"/>
<path d="M40.4671 -0.339844H28.0513C27.7549 -0.339844 27.5156 -0.100591 27.5156 0.195829V49.6852C27.5156 49.9817 27.7549 50.2209 28.0513 50.2209H40.4671C40.7635 50.2209 41.0027 49.9817 41.0027 49.6852V0.195829C41.0027 -0.100591 40.7635 -0.339844 40.4671 -0.339844ZM39.9314 0.731502V29.1476H28.5891V0.731502H39.9314ZM28.587 49.1496V30.221H39.9293V49.1496H28.587Z" fill="#438BE3"/>
</g>
<defs>
<clipPath id="clip0_3028_1590">
<rect width="50" height="50" fill="white"/>
</clipPath>
</defs>
</svg>
