<svg width="50" height="50" viewBox="0 0 50 50" fill="none" xmlns="http://www.w3.org/2000/svg">
<g clip-path="url(#clip0_3028_1603)">
<path d="M26.473 19.4699L24.1964 21.7465L21.9198 24.0231L16.1248 18.2281C15.9869 18.0902 15.7799 17.8832 15.7109 17.6762C12.7444 18.918 9.15706 18.2971 6.74248 15.8825C4.3279 13.468 3.70701 9.94958 4.87981 6.9831L8.46718 10.5705C9.77795 11.8812 11.8476 11.8812 13.1584 10.5705C14.4691 9.2597 14.4691 7.19006 13.1584 5.87929L9.57099 2.29192C12.5375 1.11912 16.0559 1.74001 18.4704 4.15459C20.885 6.56917 21.5059 10.1565 20.2641 13.192C20.4711 13.33 20.6091 13.468 20.816 13.6059L26.473 19.4699Z" fill="#438BE3"/>
<path d="M48.1361 41.0648L44.4798 37.4084C43.169 36.0977 41.0994 36.0977 39.7886 37.4084C38.4778 38.7192 38.4778 40.7888 39.7886 42.0996L43.4449 45.756C40.4785 46.9288 36.9601 46.3079 34.5455 43.8933C32.1309 41.4787 31.51 37.9603 32.6828 34.9938L26.3359 28.647L28.6125 26.3704L30.8891 24.0938L37.236 30.4406C40.2025 29.2678 43.7209 29.8887 46.1355 32.3033C48.688 34.5799 49.3089 38.0983 48.1361 41.0648Z" fill="#438BE3"/>
<path d="M33.0298 31.0615C33.2965 31.0615 33.5127 30.8453 33.5127 30.5786C33.5127 30.3119 33.2965 30.0957 33.0298 30.0957C32.7631 30.0957 32.5469 30.3119 32.5469 30.5786C32.5469 30.8453 32.7631 31.0615 33.0298 31.0615Z" fill="#438BE3"/>
<path d="M20.0532 18.1611C20.3199 18.1611 20.5361 17.9449 20.5361 17.6782C20.5361 17.4115 20.3199 17.1953 20.0532 17.1953C19.7865 17.1953 19.5703 17.4115 19.5703 17.6782C19.5703 17.9449 19.7865 18.1611 20.0532 18.1611Z" fill="#438BE3"/>
<path d="M20.8175 36.9953L20.6105 37.2022C20.2655 37.5472 19.7826 37.5472 19.5067 37.2022L13.2978 30.9933C12.9528 30.7174 12.9528 30.1654 13.2978 29.8895L13.5047 29.6825C13.8497 29.3376 14.3326 29.3376 14.6085 29.6825L16.1263 31.2003L19.2997 34.3737L20.8175 35.8914C21.1624 36.1674 21.1624 36.6503 20.8175 36.9953Z" fill="#438BE3"/>
<path d="M49.997 3.32851L43.7191 11.676L42.8913 10.7792L27.369 26.3705L25.0234 28.6471L20.0563 33.6832L16.8828 30.4408L21.8499 25.4736L24.1955 23.128L39.7178 7.60576L38.821 6.7779L47.1685 0.5L49.997 3.32851Z" fill="#438BE3"/>
<path d="M20.7516 32.9944L17.5781 29.752L20.7516 32.9944Z" fill="#438BE3"/>
<path d="M12.7455 31.752L1.08656 43.3419C-0.362187 44.7907 -0.362187 47.0673 1.08656 48.516L1.9834 49.4129C3.43215 50.8616 5.70875 50.8616 7.1575 49.4129L18.7475 37.7539L12.7455 31.752ZM5.4328 46.3084C5.15685 46.5844 4.67393 46.5844 4.39798 46.3084L4.19102 46.1014C3.91507 45.8255 3.91507 45.3426 4.19102 45.0666L12.7455 36.5121C13.0215 36.2362 13.5044 36.2362 13.7803 36.5121L13.9873 36.7191C14.2633 36.995 14.2633 37.478 13.9873 37.7539L5.4328 46.3084Z" fill="#438BE3"/>
</g>
<defs>
<clipPath id="clip0_3028_1603">
<rect width="50" height="50" fill="white"/>
</clipPath>
</defs>
</svg>
