<svg width="50" height="50" viewBox="0 0 50 50" fill="none" xmlns="http://www.w3.org/2000/svg">
<path d="M36.0156 22.5501V23.4791C36.0156 24.8304 36.9446 25.9283 38.127 26.1817C38.3804 26.2661 38.6337 26.2661 38.8871 26.2661C39.1405 26.2661 39.4783 26.1817 39.7317 26.0972C40.7451 25.6749 41.4208 24.7459 41.4208 23.5636V22.5501C41.4208 22.0434 40.9985 21.6211 40.4918 21.6211H36.9446C36.4379 21.6211 36.0156 22.0434 36.0156 22.5501Z" fill="#438BE3"/>
<path d="M14.4051 22.5501V23.4791C14.4051 24.8304 13.4761 25.9283 12.2938 26.1817C12.0404 26.2661 11.787 26.2661 11.5337 26.2661C11.2803 26.2661 10.9425 26.1817 10.6891 26.0972C9.67564 25.6749 9 24.7459 9 23.5636V22.5501C9 22.0434 9.42228 21.6211 9.92901 21.6211H13.4761C13.9829 21.6211 14.4051 22.0434 14.4051 22.5501Z" fill="#438BE3"/>
<path d="M39.6493 27.1953V28.2088C39.6493 31.0803 37.5379 33.445 34.8354 33.8673C34.1597 34.374 33.2307 34.7118 32.4706 34.9652C30.1903 35.6408 27.6567 35.8942 25.2075 35.8942C22.6738 35.8942 20.2246 35.6408 17.9443 34.9652C17.1842 34.7118 16.2552 34.374 15.5796 33.8673C12.877 33.445 10.7656 31.0803 10.7656 28.2088V27.1953C11.019 27.2798 11.1879 27.2798 11.4413 27.2798C11.5257 27.2798 11.6102 27.2798 11.6946 27.2798C11.948 27.2798 12.2014 27.2798 12.3703 27.1953V28.2088C12.3703 29.8134 13.2993 31.1647 14.5661 31.8403C14.3972 30.658 14.6506 29.1378 16.1708 29.2222C18.3666 29.2222 20.478 29.729 22.6738 29.8979C23.5184 29.9823 24.3629 29.9823 25.2075 29.9823C26.052 29.9823 26.8966 29.8979 27.7411 29.8979C29.937 29.729 32.0483 29.3067 34.2442 29.2222C35.7644 29.2222 36.0177 30.658 35.8488 31.8403C37.2001 31.1647 38.0447 29.8134 38.0447 28.2088V27.1953C38.298 27.2798 38.4669 27.2798 38.7203 27.2798C38.8048 27.2798 38.8892 27.2798 38.9737 27.2798C39.227 27.2798 39.3959 27.2798 39.6493 27.1953Z" fill="#438BE3"/>
<path d="M14.9982 49.9984C15.7912 49.9984 16.434 49.3556 16.434 48.5627C16.434 47.7698 15.7912 47.127 14.9982 47.127C14.2053 47.127 13.5625 47.7698 13.5625 48.5627C13.5625 49.3556 14.2053 49.9984 14.9982 49.9984Z" fill="#438BE3"/>
<path d="M25.2248 49.9984C26.0177 49.9984 26.6605 49.3556 26.6605 48.5627C26.6605 47.7698 26.0177 47.127 25.2248 47.127C24.4319 47.127 23.7891 47.7698 23.7891 48.5627C23.7891 49.3556 24.4319 49.9984 25.2248 49.9984Z" fill="#438BE3"/>
<path d="M35.4435 49.9984C36.2365 49.9984 36.8793 49.3556 36.8793 48.5627C36.8793 47.7698 36.2365 47.127 35.4435 47.127C34.6506 47.127 34.0078 47.7698 34.0078 48.5627C34.0078 49.3556 34.6506 49.9984 35.4435 49.9984Z" fill="#438BE3"/>
<path d="M36.4405 3.54712C36.356 2.78702 36.0182 2.19584 35.5115 1.77356C35.3426 1.60465 35.1737 1.43574 35.0048 1.35128C33.6535 0.506731 31.711 0.337821 30.3597 0.253366C30.2753 0.253366 30.1908 0.253366 30.1908 0.253366C29.7685 0.253366 29.4307 0.16891 29.0084 0.16891C27.8261 0.084455 26.5592 0 25.3769 0C25.208 0 25.1235 0 24.9546 0C23.2655 0.0844552 21.6608 0.16891 19.9717 0.253366C17.8604 0.422276 14.1443 0.760097 13.891 3.54712C13.6376 6.08077 13.8065 8.78334 14.0599 11.4015C14.0599 11.4859 14.0599 11.5704 14.0599 11.5704C14.0599 11.6548 14.0599 11.8237 14.1443 11.9082C14.2288 12.5838 14.3132 13.175 14.3132 13.8507C14.3132 14.1885 14.3977 14.5263 14.3977 14.8641C14.3977 15.033 14.3977 15.1175 14.3977 15.2864C14.3977 15.7087 14.4821 16.0465 14.4821 16.4688C14.4821 16.891 14.5666 17.3133 14.5666 17.7356C14.6511 18.2423 14.6511 18.6646 14.7355 19.1713C14.82 19.5936 14.82 20.1003 14.9044 20.5226C14.9044 20.776 14.9889 21.0293 14.9889 21.3672C14.9889 21.4516 14.9889 21.4516 14.9889 21.5361C14.9889 21.705 14.9889 21.7894 15.0733 21.9584C15.1578 22.3806 15.2422 22.8029 15.4112 23.2252C15.9179 24.5765 16.8469 25.6744 18.0293 26.35C18.2826 26.5189 18.536 26.6034 18.7894 26.7723C19.3805 27.0257 20.0562 27.1946 20.7318 27.279C21.6608 27.3635 22.5898 27.4479 23.6033 27.4479C24.0256 27.4479 24.5323 27.4479 24.9546 27.4479C25.039 27.4479 25.039 27.4479 25.1235 27.4479C26.6437 27.4479 28.1639 27.3635 29.5152 27.1946C32.4711 26.8568 34.9203 24.492 35.1737 21.5361C35.1737 21.4516 35.1737 21.4516 35.1737 21.3672C35.2581 20.2693 35.427 19.1713 35.5115 18.0734C35.5115 17.7356 35.5959 17.3978 35.5959 17.06C35.6804 16.5532 35.6804 16.0465 35.7649 15.5398V15.4553C35.7649 15.033 35.8493 14.6108 35.8493 14.1885C35.9338 13.7662 35.9338 13.2595 36.0182 12.7527C36.0182 12.3305 36.1027 11.9082 36.1027 11.4859C36.1871 10.8947 36.1871 10.388 36.2716 9.7968C36.2716 9.54344 36.2716 9.29007 36.356 9.03671C36.6094 7.09424 36.6094 5.32068 36.4405 3.54712ZM34.2447 15.033C34.0758 16.7221 33.9068 18.4112 33.7379 20.1003V20.1848C33.7379 20.3537 33.6535 20.5226 33.6535 20.6915C33.569 20.6071 33.4001 20.5226 33.2312 20.5226C32.8934 20.5226 32.5556 20.8604 32.5556 21.1983C32.5556 21.5361 32.8934 21.8739 33.2312 21.8739C32.7245 22.9718 31.7955 23.9008 30.6131 24.4076C30.2753 24.5765 30.0219 24.6609 29.6841 24.7454C29.4307 24.9987 29.1774 24.9987 28.924 25.0832C27.7416 25.1677 26.4748 25.2521 25.208 25.2521C25.039 25.2521 24.8701 25.2521 24.6168 25.2521C24.7857 25.1677 24.9546 24.9143 24.9546 24.6609C24.9546 24.3231 24.6168 23.9853 24.2789 23.9853C23.9411 23.9853 23.6033 24.3231 23.6033 24.6609C23.6033 24.9143 23.6878 25.0832 23.8567 25.2521C23.0121 25.2521 22.252 25.1677 21.4919 25.0832C20.5629 24.9987 19.6339 24.6609 18.8738 24.0697C18.6205 23.9008 18.3671 23.7319 18.1982 23.4785C17.3536 22.634 16.8469 21.5361 16.678 20.2693V20.1848C16.5091 18.4957 16.3402 16.8066 16.1712 15.1175C15.8334 11.8237 15.4112 8.44552 15.6645 5.15177C15.9179 2.78702 19.0427 2.53366 20.8163 2.36475C21.6608 2.28029 22.5898 2.19584 23.4344 2.19584C23.0966 2.28029 22.8432 2.53366 22.8432 2.87148C22.8432 3.2093 23.181 3.54712 23.5189 3.54712C23.8567 3.54712 24.1945 3.2093 24.1945 2.87148C24.1945 2.53366 23.9411 2.19584 23.6033 2.19584C24.11 2.19584 24.5323 2.19584 25.039 2.11138C25.1235 2.11138 25.2924 2.11138 25.3769 2.11138C25.6302 2.11138 25.7991 2.11138 26.0525 2.11138C26.3903 2.11138 26.7282 2.11138 27.1504 2.19584C27.995 2.28029 28.8395 2.28029 29.5996 2.36475C30.3597 2.4492 31.2887 2.53366 32.2177 2.78702C32.3022 2.87148 32.4711 2.95593 32.64 2.95593H32.7245C33.8224 3.37821 34.6669 3.96939 34.7514 5.15177C35.0048 8.36107 34.5825 11.7393 34.2447 15.033Z" fill="#438BE3"/>
<path d="M27.2381 24.24C27.6113 24.24 27.9138 23.9375 27.9138 23.5643C27.9138 23.1912 27.6113 22.8887 27.2381 22.8887C26.865 22.8887 26.5625 23.1912 26.5625 23.5643C26.5625 23.9375 26.865 24.24 27.2381 24.24Z" fill="#438BE3"/>
<path d="M30.2772 23.1423C30.6504 23.1423 30.9528 22.8398 30.9528 22.4667C30.9528 22.0935 30.6504 21.791 30.2772 21.791C29.9041 21.791 29.6016 22.0935 29.6016 22.4667C29.6016 22.8398 29.9041 23.1423 30.2772 23.1423Z" fill="#438BE3"/>
<path d="M21.1522 23.7321C21.5254 23.7321 21.8278 23.4296 21.8278 23.0565C21.8278 22.6834 21.5254 22.3809 21.1522 22.3809C20.7791 22.3809 20.4766 22.6834 20.4766 23.0565C20.4766 23.4296 20.7791 23.7321 21.1522 23.7321Z" fill="#438BE3"/>
<path d="M24.1991 22.6345C24.5722 22.6345 24.8747 22.332 24.8747 21.9588C24.8747 21.5857 24.5722 21.2832 24.1991 21.2832C23.8259 21.2832 23.5234 21.5857 23.5234 21.9588C23.5234 22.332 23.8259 22.6345 24.1991 22.6345Z" fill="#438BE3"/>
<path d="M27.1522 21.4528C27.5254 21.4528 27.8278 21.1504 27.8278 20.7772C27.8278 20.4041 27.5254 20.1016 27.1522 20.1016C26.7791 20.1016 26.4766 20.4041 26.4766 20.7772C26.4766 21.1504 26.7791 21.4528 27.1522 21.4528Z" fill="#438BE3"/>
<path d="M30.1913 20.3532C30.5644 20.3532 30.8669 20.0507 30.8669 19.6776C30.8669 19.3044 30.5644 19.002 30.1913 19.002C29.8181 19.002 29.5156 19.3044 29.5156 19.6776C29.5156 20.0507 29.8181 20.3532 30.1913 20.3532Z" fill="#438BE3"/>
<path d="M33.1444 19.2556C33.5175 19.2556 33.82 18.9531 33.82 18.5799C33.82 18.2068 33.5175 17.9043 33.1444 17.9043C32.7712 17.9043 32.4688 18.2068 32.4688 18.5799C32.4688 18.9531 32.7712 19.2556 33.1444 19.2556Z" fill="#438BE3"/>
<path d="M18.1131 22.0407C18.4863 22.0407 18.7888 21.7382 18.7888 21.3651C18.7888 20.9919 18.4863 20.6895 18.1131 20.6895C17.74 20.6895 17.4375 20.9919 17.4375 21.3651C17.4375 21.7382 17.74 22.0407 18.1131 22.0407Z" fill="#438BE3"/>
<path d="M21.0663 20.9431C21.4394 20.9431 21.7419 20.6406 21.7419 20.2674C21.7419 19.8943 21.4394 19.5918 21.0663 19.5918C20.6931 19.5918 20.3906 19.8943 20.3906 20.2674C20.3906 20.6406 20.6931 20.9431 21.0663 20.9431Z" fill="#438BE3"/>
<path d="M24.1131 19.8474C24.4863 19.8474 24.7888 19.5449 24.7888 19.1717C24.7888 18.7986 24.4863 18.4961 24.1131 18.4961C23.74 18.4961 23.4375 18.7986 23.4375 19.1717C23.4375 19.5449 23.74 19.8474 24.1131 19.8474Z" fill="#438BE3"/>
<path d="M27.0663 18.7497C27.4394 18.7497 27.7419 18.4472 27.7419 18.0741C27.7419 17.7009 27.4394 17.3984 27.0663 17.3984C26.6931 17.3984 26.3906 17.7009 26.3906 18.0741C26.3906 18.4472 26.6931 18.7497 27.0663 18.7497Z" fill="#438BE3"/>
<path d="M30.0975 17.6521C30.4707 17.6521 30.7732 17.3496 30.7732 16.9764C30.7732 16.6033 30.4707 16.3008 30.0975 16.3008C29.7244 16.3008 29.4219 16.6033 29.4219 16.9764C29.4219 17.3496 29.7244 17.6521 30.0975 17.6521Z" fill="#438BE3"/>
<path d="M33.0585 16.5525C33.4316 16.5525 33.7341 16.25 33.7341 15.8768C33.7341 15.5037 33.4316 15.2012 33.0585 15.2012C32.6853 15.2012 32.3828 15.5037 32.3828 15.8768C32.3828 16.25 32.6853 16.5525 33.0585 16.5525Z" fill="#438BE3"/>
<path d="M18.0272 19.3396C18.4004 19.3396 18.7028 19.0371 18.7028 18.6639C18.7028 18.2908 18.4004 17.9883 18.0272 17.9883C17.6541 17.9883 17.3516 18.2908 17.3516 18.6639C17.3516 19.0371 17.6541 19.3396 18.0272 19.3396Z" fill="#438BE3"/>
<path d="M20.9881 18.2419C21.3613 18.2419 21.6638 17.9394 21.6638 17.5663C21.6638 17.1931 21.3613 16.8906 20.9881 16.8906C20.615 16.8906 20.3125 17.1931 20.3125 17.5663C20.3125 17.9394 20.615 18.2419 20.9881 18.2419Z" fill="#438BE3"/>
<path d="M24.035 17.1443C24.4082 17.1443 24.7107 16.8418 24.7107 16.4686C24.7107 16.0955 24.4082 15.793 24.035 15.793C23.6619 15.793 23.3594 16.0955 23.3594 16.4686C23.3594 16.8418 23.6619 17.1443 24.035 17.1443Z" fill="#438BE3"/>
<path d="M26.9881 16.0446C27.3613 16.0446 27.6638 15.7421 27.6638 15.369C27.6638 14.9959 27.3613 14.6934 26.9881 14.6934C26.615 14.6934 26.3125 14.9959 26.3125 15.369C26.3125 15.7421 26.615 16.0446 26.9881 16.0446Z" fill="#438BE3"/>
<path d="M30.0192 14.865C30.3924 14.865 30.6948 14.5625 30.6948 14.1893C30.6948 13.8162 30.3924 13.5137 30.0192 13.5137C29.6461 13.5137 29.3436 13.8162 29.3436 14.1893C29.3436 14.5625 29.6461 14.865 30.0192 14.865Z" fill="#438BE3"/>
<path d="M32.9725 13.7673C33.3457 13.7673 33.6482 13.4648 33.6482 13.0917C33.6482 12.7185 33.3457 12.416 32.9725 12.416C32.5994 12.416 32.2969 12.7185 32.2969 13.0917C32.2969 13.4648 32.5994 13.7673 32.9725 13.7673Z" fill="#438BE3"/>
<path d="M17.9491 16.6384C18.3222 16.6384 18.6247 16.3359 18.6247 15.9628C18.6247 15.5896 18.3222 15.2871 17.9491 15.2871C17.5759 15.2871 17.2734 15.5896 17.2734 15.9628C17.2734 16.3359 17.5759 16.6384 17.9491 16.6384Z" fill="#438BE3"/>
<path d="M20.9022 15.5388C21.2754 15.5388 21.5778 15.2363 21.5778 14.8631C21.5778 14.49 21.2754 14.1875 20.9022 14.1875C20.5291 14.1875 20.2266 14.49 20.2266 14.8631C20.2266 15.2363 20.5291 15.5388 20.9022 15.5388Z" fill="#438BE3"/>
<path d="M23.9491 14.3591C24.3222 14.3591 24.6247 14.0566 24.6247 13.6835C24.6247 13.3103 24.3222 13.0078 23.9491 13.0078C23.5759 13.0078 23.2734 13.3103 23.2734 13.6835C23.2734 14.0566 23.5759 14.3591 23.9491 14.3591Z" fill="#438BE3"/>
<path d="M26.8944 13.2595C27.2675 13.2595 27.57 12.957 27.57 12.5838C27.57 12.2107 27.2675 11.9082 26.8944 11.9082C26.5212 11.9082 26.2188 12.2107 26.2188 12.5838C26.2188 12.957 26.5212 13.2595 26.8944 13.2595Z" fill="#438BE3"/>
<path d="M29.9335 12.1638C30.3066 12.1638 30.6091 11.8613 30.6091 11.4881C30.6091 11.115 30.3066 10.8125 29.9335 10.8125C29.5603 10.8125 29.2578 11.115 29.2578 11.4881C29.2578 11.8613 29.5603 12.1638 29.9335 12.1638Z" fill="#438BE3"/>
<path d="M32.8944 11.0642C33.2675 11.0642 33.57 10.7617 33.57 10.3885C33.57 10.0154 33.2675 9.71289 32.8944 9.71289C32.5212 9.71289 32.2188 10.0154 32.2188 10.3885C32.2188 10.7617 32.5212 11.0642 32.8944 11.0642Z" fill="#438BE3"/>
<path d="M17.8631 13.8513C18.2363 13.8513 18.5388 13.5488 18.5388 13.1756C18.5388 12.8025 18.2363 12.5 17.8631 12.5C17.49 12.5 17.1875 12.8025 17.1875 13.1756C17.1875 13.5488 17.49 13.8513 17.8631 13.8513Z" fill="#438BE3"/>
<path d="M20.8163 12.7536C21.1894 12.7536 21.4919 12.4511 21.4919 12.078C21.4919 11.7048 21.1894 11.4023 20.8163 11.4023C20.4431 11.4023 20.1406 11.7048 20.1406 12.078C20.1406 12.4511 20.4431 12.7536 20.8163 12.7536Z" fill="#438BE3"/>
<path d="M23.8475 11.656C24.2207 11.656 24.5232 11.3535 24.5232 10.9803C24.5232 10.6072 24.2207 10.3047 23.8475 10.3047C23.4744 10.3047 23.1719 10.6072 23.1719 10.9803C23.1719 11.3535 23.4744 11.656 23.8475 11.656Z" fill="#438BE3"/>
<path d="M26.8163 10.5564C27.1894 10.5564 27.4919 10.2539 27.4919 9.88072C27.4919 9.50757 27.1894 9.20508 26.8163 9.20508C26.4431 9.20508 26.1406 9.50757 26.1406 9.88072C26.1406 10.2539 26.4431 10.5564 26.8163 10.5564Z" fill="#438BE3"/>
<path d="M29.8553 9.45871C30.2285 9.45871 30.531 9.15621 30.531 8.78306C30.531 8.40992 30.2285 8.10742 29.8553 8.10742C29.4822 8.10742 29.1797 8.40992 29.1797 8.78306C29.1797 9.15621 29.4822 9.45871 29.8553 9.45871Z" fill="#438BE3"/>
<path d="M32.8085 8.363C33.1816 8.363 33.4841 8.06051 33.4841 7.68736C33.4841 7.31421 33.1816 7.01172 32.8085 7.01172C32.4353 7.01172 32.1328 7.31421 32.1328 7.68736C32.1328 8.06051 32.4353 8.363 32.8085 8.363Z" fill="#438BE3"/>
<path d="M17.7772 11.1482C18.1504 11.1482 18.4528 10.8457 18.4528 10.4725C18.4528 10.0994 18.1504 9.79688 17.7772 9.79688C17.4041 9.79688 17.1016 10.0994 17.1016 10.4725C17.1016 10.8457 17.4041 11.1482 17.7772 11.1482Z" fill="#438BE3"/>
<path d="M20.7225 10.0505C21.0957 10.0505 21.3982 9.74801 21.3982 9.37486C21.3982 9.00171 21.0957 8.69922 20.7225 8.69922C20.3494 8.69922 20.0469 9.00171 20.0469 9.37486C20.0469 9.74801 20.3494 10.0505 20.7225 10.0505Z" fill="#438BE3"/>
<path d="M23.7616 8.95089C24.1347 8.95089 24.4372 8.6484 24.4372 8.27525C24.4372 7.9021 24.1347 7.59961 23.7616 7.59961C23.3884 7.59961 23.0859 7.9021 23.0859 8.27525C23.0859 8.6484 23.3884 8.95089 23.7616 8.95089Z" fill="#438BE3"/>
<path d="M26.7303 7.77121C27.1035 7.77121 27.406 7.46871 27.406 7.09556C27.406 6.72242 27.1035 6.41992 26.7303 6.41992C26.3572 6.41992 26.0547 6.72242 26.0547 7.09556C26.0547 7.46871 26.3572 7.77121 26.7303 7.77121Z" fill="#438BE3"/>
<path d="M29.7694 6.6716C30.1425 6.6716 30.445 6.3691 30.445 5.99595C30.445 5.62281 30.1425 5.32031 29.7694 5.32031C29.3962 5.32031 29.0938 5.62281 29.0938 5.99595C29.0938 6.3691 29.3962 6.6716 29.7694 6.6716Z" fill="#438BE3"/>
<path d="M32.7225 5.57199C33.0957 5.57199 33.3982 5.26949 33.3982 4.89634C33.3982 4.5232 33.0957 4.2207 32.7225 4.2207C32.3494 4.2207 32.0469 4.5232 32.0469 4.89634C32.0469 5.26949 32.3494 5.57199 32.7225 5.57199Z" fill="#438BE3"/>
<path d="M17.6989 8.44503C18.072 8.44503 18.3745 8.14254 18.3745 7.76939C18.3745 7.39625 18.072 7.09375 17.6989 7.09375C17.3257 7.09375 17.0232 7.39625 17.0232 7.76939C17.0232 8.14254 17.3257 8.44503 17.6989 8.44503Z" fill="#438BE3"/>
<path d="M20.6444 7.26535C21.0175 7.26535 21.32 6.96285 21.32 6.5897C21.32 6.21656 21.0175 5.91406 20.6444 5.91406C20.2712 5.91406 19.9688 6.21656 19.9688 6.5897C19.9688 6.96285 20.2712 7.26535 20.6444 7.26535Z" fill="#438BE3"/>
<path d="M23.6835 6.16378C24.0566 6.16378 24.3591 5.86129 24.3591 5.48814C24.3591 5.11499 24.0566 4.8125 23.6835 4.8125C23.3103 4.8125 23.0078 5.11499 23.0078 5.48814C23.0078 5.86129 23.3103 6.16378 23.6835 6.16378Z" fill="#438BE3"/>
<path d="M26.6366 5.06613C27.0097 5.06613 27.3122 4.76363 27.3122 4.39049C27.3122 4.01734 27.0097 3.71484 26.6366 3.71484C26.2634 3.71484 25.9609 4.01734 25.9609 4.39049C25.9609 4.76363 26.2634 5.06613 26.6366 5.06613Z" fill="#438BE3"/>
<path d="M29.6835 3.97042C30.0566 3.97042 30.3591 3.66793 30.3591 3.29478C30.3591 2.92164 30.0566 2.61914 29.6835 2.61914C29.3103 2.61914 29.0078 2.92164 29.0078 3.29478C29.0078 3.66793 29.3103 3.97042 29.6835 3.97042Z" fill="#438BE3"/>
<path d="M17.6131 5.65988C17.9863 5.65988 18.2888 5.35738 18.2888 4.98424C18.2888 4.61109 17.9863 4.30859 17.6131 4.30859C17.24 4.30859 16.9375 4.61109 16.9375 4.98424C16.9375 5.35738 17.24 5.65988 17.6131 5.65988Z" fill="#438BE3"/>
<path d="M20.5585 4.56222C20.9316 4.56222 21.2341 4.25973 21.2341 3.88658C21.2341 3.51343 20.9316 3.21094 20.5585 3.21094C20.1853 3.21094 19.8828 3.51343 19.8828 3.88658C19.8828 4.25973 20.1853 4.56222 20.5585 4.56222Z" fill="#438BE3"/>
<path d="M32.0574 43.2413H26.1455V41.2989C26.6523 41.2144 27.0745 40.7077 27.0745 40.2009V36.8227V36.7383C26.4833 36.7383 25.8922 36.7383 25.301 36.7383C25.2165 36.7383 25.0476 36.7383 24.9632 36.7383C24.4564 36.7383 24.0341 36.7383 23.5274 36.7383V36.8227V40.1165C23.5274 40.6232 23.9497 41.13 24.4564 41.2144V43.1569H18.5446C16.6021 43.1569 14.913 44.5082 14.4062 46.2817C14.6596 46.1973 14.913 46.1128 15.1663 46.1128C15.5886 46.1128 15.9264 46.1973 16.2643 46.3662C16.6865 45.5216 17.5311 44.9304 18.5446 44.9304H24.4564V46.2817C24.7098 46.1973 25.0476 46.1128 25.3854 46.1128C25.7232 46.1128 26.0611 46.1973 26.3144 46.2817V44.9304H32.2263C33.2398 44.9304 34.0843 45.5216 34.5066 46.3662C34.8444 46.1973 35.1822 46.1128 35.6045 46.1128C35.8579 46.1128 36.1957 46.1973 36.3646 46.2817C35.689 44.5926 34.0843 43.2413 32.0574 43.2413Z" fill="#438BE3"/>
</svg>
