<svg width="50" height="50" viewBox="0 0 50 50" fill="none" xmlns="http://www.w3.org/2000/svg">
<path d="M49.6057 4.60486V1.72266H0.546875V4.60486H2.00331V33.059H0.546875V35.9718H14.383L8.81022 47.3474H11.2325L16.8053 35.9718H23.9801V47.3474H26.1648V35.9718H33.2706L38.8741 47.3474H41.304L35.7006 35.9718H49.6057V33.059H48.1493V4.60486H49.6057ZM46.6162 33.059H3.5364V4.60486H46.6162V33.059Z" fill="#438BE3"/>
<path d="M29.5984 9.11267C28.4018 7.99853 26.8332 7.36999 25.1984 7.34962H25.0758C23.4 7.34654 21.7848 7.97667 20.5539 9.11382C19.3229 10.251 18.567 11.8112 18.4375 13.482L24.9225 13.5893L29.5984 9.11267Z" fill="#438BE3"/>
<path d="M23.9951 20.5726L24.6696 14.3866L18.4453 14.2793C18.503 15.9126 19.1639 17.4665 20.3003 18.6409C21.2942 19.6627 22.5889 20.3396 23.9951 20.5726Z" fill="#438BE3"/>
<path d="M24.75 20.656C26.3847 20.7411 27.9932 20.2193 29.2666 19.1907C30.5399 18.1621 31.3884 16.6993 31.6489 15.0832L25.4169 14.4316L24.75 20.656Z" fill="#438BE3"/>
<path d="M31.7405 14.3247C31.8243 12.6231 31.2507 10.9545 30.1385 9.66406L25.9531 13.7114L31.7405 14.3247Z" fill="#438BE3"/>
<path d="M9.15432 22.3359H6.5864C6.37472 22.3359 6.20312 22.5075 6.20312 22.7192V25.1568C6.20312 25.3685 6.37472 25.5401 6.5864 25.5401H9.15432C9.36599 25.5401 9.53759 25.3685 9.53759 25.1568V22.7192C9.53759 22.5075 9.36599 22.3359 9.15432 22.3359Z" fill="#438BE3"/>
<path d="M11.4848 23.5693H22.0708C22.1725 23.5693 22.2699 23.5289 22.3418 23.457C22.4137 23.3851 22.4541 23.2877 22.4541 23.186C22.4541 23.0844 22.4137 22.9869 22.3418 22.915C22.2699 22.8431 22.1725 22.8027 22.0708 22.8027H11.4848C11.3832 22.8027 11.2857 22.8431 11.2138 22.915C11.1419 22.9869 11.1016 23.0844 11.1016 23.186C11.1016 23.2877 11.1419 23.3851 11.2138 23.457C11.2857 23.5289 11.3832 23.5693 11.4848 23.5693Z" fill="#438BE3"/>
<path d="M11.4848 25.3408H20.2158C20.3174 25.3408 20.4149 25.3004 20.4868 25.2285C20.5587 25.1566 20.599 25.0591 20.599 24.9575C20.599 24.8558 20.5587 24.7584 20.4868 24.6865C20.4149 24.6146 20.3174 24.5742 20.2158 24.5742H11.4848C11.3832 24.5742 11.2857 24.6146 11.2138 24.6865C11.1419 24.7584 11.1016 24.8558 11.1016 24.9575C11.1016 25.0591 11.1419 25.1566 11.2138 25.2285C11.2857 25.3004 11.3832 25.3408 11.4848 25.3408Z" fill="#438BE3"/>
<path d="M30.8809 22.3359H28.313C28.1013 22.3359 27.9297 22.5075 27.9297 22.7192V25.1568C27.9297 25.3685 28.1013 25.5401 28.313 25.5401H30.8809C31.0926 25.5401 31.2642 25.3685 31.2642 25.1568V22.7192C31.2642 22.5075 31.0926 22.3359 30.8809 22.3359Z" fill="#438BE3"/>
<path d="M33.2114 23.5693H43.7974C43.899 23.5693 43.9965 23.5289 44.0684 23.457C44.1403 23.3851 44.1806 23.2877 44.1806 23.186C44.1806 23.0844 44.1403 22.9869 44.0684 22.915C43.9965 22.8431 43.899 22.8027 43.7974 22.8027H33.2114C33.1097 22.8027 33.0123 22.8431 32.9404 22.915C32.8685 22.9869 32.8281 23.0844 32.8281 23.186C32.8301 23.287 32.8711 23.3834 32.9426 23.4548C33.014 23.5263 33.1104 23.5673 33.2114 23.5693Z" fill="#438BE3"/>
<path d="M33.2114 25.3408H41.9423C42.044 25.3408 42.1415 25.3004 42.2133 25.2285C42.2852 25.1566 42.3256 25.0591 42.3256 24.9575C42.3256 24.8558 42.2852 24.7584 42.2133 24.6865C42.1415 24.6146 42.044 24.5742 41.9423 24.5742H33.2114C33.1097 24.5742 33.0123 24.6146 32.9404 24.6865C32.8685 24.7584 32.8281 24.8558 32.8281 24.9575C32.8281 25.0591 32.8685 25.1566 32.9404 25.2285C33.0123 25.3004 33.1097 25.3408 33.2114 25.3408Z" fill="#438BE3"/>
<path d="M9.15432 27.6777H6.5864C6.37472 27.6777 6.20312 27.8493 6.20312 28.061V30.4986C6.20312 30.7103 6.37472 30.8819 6.5864 30.8819H9.15432C9.36599 30.8819 9.53759 30.7103 9.53759 30.4986V28.061C9.53759 27.8493 9.36599 27.6777 9.15432 27.6777Z" fill="#438BE3"/>
<path d="M11.4848 28.913H22.0708C22.1725 28.913 22.2699 28.8726 22.3418 28.8008C22.4137 28.7289 22.4541 28.6314 22.4541 28.5298C22.4541 28.4281 22.4137 28.3306 22.3418 28.2587C22.2699 28.1869 22.1725 28.1465 22.0708 28.1465H11.4848C11.3832 28.1465 11.2857 28.1869 11.2138 28.2587C11.1419 28.3306 11.1016 28.4281 11.1016 28.5298C11.1016 28.6314 11.1419 28.7289 11.2138 28.8008C11.2857 28.8726 11.3832 28.913 11.4848 28.913Z" fill="#438BE3"/>
<path d="M11.4848 30.6669H20.2158C20.3174 30.6669 20.4149 30.6266 20.4868 30.5547C20.5587 30.4828 20.599 30.3853 20.599 30.2837C20.599 30.182 20.5587 30.0845 20.4868 30.0126C20.4149 29.9408 20.3174 29.9004 20.2158 29.9004H11.4848C11.3832 29.9004 11.2857 29.9408 11.2138 30.0126C11.1419 30.0845 11.1016 30.182 11.1016 30.2837C11.1016 30.3853 11.1419 30.4828 11.2138 30.5547C11.2857 30.6266 11.3832 30.6669 11.4848 30.6669Z" fill="#438BE3"/>
<path d="M30.8809 27.6777H28.313C28.1013 27.6777 27.9297 27.8493 27.9297 28.061V30.4986C27.9297 30.7103 28.1013 30.8819 28.313 30.8819H30.8809C31.0926 30.8819 31.2642 30.7103 31.2642 30.4986V28.061C31.2642 27.8493 31.0926 27.6777 30.8809 27.6777Z" fill="#438BE3"/>
<path d="M33.2114 28.913H43.7974C43.899 28.913 43.9965 28.8726 44.0684 28.8008C44.1403 28.7289 44.1806 28.6314 44.1806 28.5298C44.1806 28.4281 44.1403 28.3306 44.0684 28.2587C43.9965 28.1869 43.899 28.1465 43.7974 28.1465H33.2114C33.1097 28.1465 33.0123 28.1869 32.9404 28.2587C32.8685 28.3306 32.8281 28.4281 32.8281 28.5298C32.8301 28.6308 32.8711 28.7271 32.9426 28.7986C33.014 28.8701 33.1104 28.9111 33.2114 28.913Z" fill="#438BE3"/>
<path d="M33.2114 30.6669H41.9423C42.044 30.6669 42.1415 30.6266 42.2133 30.5547C42.2852 30.4828 42.3256 30.3853 42.3256 30.2837C42.3256 30.182 42.2852 30.0845 42.2133 30.0126C42.1415 29.9408 42.044 29.9004 41.9423 29.9004H33.2114C33.1097 29.9004 33.0123 29.9408 32.9404 30.0126C32.8685 30.0845 32.8281 30.182 32.8281 30.2837C32.8281 30.3853 32.8685 30.4828 32.9404 30.5547C33.0123 30.6266 33.1097 30.6669 33.2114 30.6669Z" fill="#438BE3"/>
</svg>
