<svg width="50" height="50" viewBox="0 0 50 50" fill="none" xmlns="http://www.w3.org/2000/svg">
<path d="M49.7607 13.9136L46.1527 10.3134L46.0199 10.1494L44.9422 9.06389C44.3986 8.47803 43.6622 8.10747 42.8677 8.01999C42.0733 7.93252 41.2739 8.13397 40.6158 8.58751C32.2858 14.9083 24.8649 22.345 18.5618 30.6884C18.117 31.3442 17.9228 32.138 18.0146 32.925C18.1063 33.712 18.4779 34.4399 19.0616 34.9758L23.8722 39.8255C23.9452 39.8979 24.0317 39.9551 24.1269 39.994C24.222 40.0329 24.3239 40.0526 24.4267 40.052C24.578 40.0484 24.725 40.001 24.8498 39.9154C24.9746 39.8299 25.0719 39.7099 25.1298 39.5701C25.1877 39.4303 25.2038 39.2766 25.176 39.1279C25.1482 38.9791 25.0778 38.8417 24.9734 38.7322L21.7793 35.5303C22.0214 35.2023 22.2556 34.8899 22.5055 34.5775L25.8246 37.8887C25.9709 38.0342 26.1688 38.1158 26.3752 38.1158C26.5815 38.1158 26.7794 38.0342 26.9257 37.8887C27.0712 37.7424 27.1528 37.5445 27.1528 37.3382C27.1528 37.1318 27.0712 36.9339 26.9257 36.7876L23.4817 33.3436L24.3564 32.2503L27.9097 35.8036C27.9827 35.876 28.0692 35.9332 28.1644 35.9721C28.2595 36.011 28.3614 36.0307 28.4642 36.0301C28.5647 36.0312 28.6644 36.0117 28.7571 35.9728C28.8498 35.9338 28.9335 35.8762 29.0031 35.8036C29.1461 35.6576 29.2263 35.4614 29.2263 35.2569C29.2263 35.0525 29.1461 34.8563 29.0031 34.7103L25.3482 31.0398L26.2541 29.9621L30.0027 33.7107C30.149 33.8561 30.3469 33.9378 30.5532 33.9378C30.7596 33.9378 30.9575 33.8561 31.1038 33.7107C31.2493 33.5643 31.3309 33.3664 31.3309 33.1601C31.3309 32.9538 31.2493 32.7558 31.1038 32.6095L27.2772 28.7829C27.5817 28.4314 27.8863 28.0878 28.2065 27.7442L32.1112 31.6489C32.2567 31.7932 32.453 31.8746 32.6579 31.8754C32.7607 31.876 32.8626 31.8563 32.9577 31.8175C33.0529 31.7786 33.1394 31.7213 33.2124 31.6489C33.3578 31.5026 33.4395 31.3047 33.4395 31.0984C33.4395 30.8921 33.3578 30.6941 33.2124 30.5478L29.2686 26.6431L30.2291 25.6044L34.2042 29.5872C34.3505 29.7327 34.5484 29.8143 34.7547 29.8143C34.9611 29.8143 35.159 29.7327 35.3053 29.5872C35.4508 29.4409 35.5324 29.243 35.5324 29.0367C35.5324 28.8304 35.4508 28.6324 35.3053 28.4861L31.2444 24.3861L32.244 23.4256L36.2659 27.4474C36.3389 27.5198 36.4254 27.5771 36.5205 27.6159C36.6157 27.6548 36.7176 27.6745 36.8204 27.6739C36.9209 27.6751 37.0206 27.6556 37.1133 27.6166C37.206 27.5777 37.2897 27.5201 37.3592 27.4474C37.5023 27.3015 37.5824 27.1052 37.5824 26.9008C37.5824 26.6964 37.5023 26.5001 37.3592 26.3541L33.3451 22.3322C33.6731 21.9964 34.0089 21.6684 34.3447 21.3482L38.3588 25.3545C38.5043 25.4988 38.7006 25.5801 38.9055 25.581C39.0083 25.5816 39.1102 25.5619 39.2053 25.523C39.3004 25.4841 39.387 25.4269 39.46 25.3545C39.6054 25.2082 39.6871 25.0102 39.6871 24.8039C39.6871 24.5976 39.6054 24.3997 39.46 24.2534L35.4771 20.2705C35.8129 19.9425 36.1565 19.6301 36.5002 19.3178L40.444 23.2225C40.5903 23.368 40.7882 23.4496 40.9945 23.4496C41.2008 23.4496 41.3988 23.368 41.5451 23.2225C41.6882 23.0765 41.7683 22.8803 41.7683 22.6758C41.7683 22.4714 41.6882 22.2752 41.5451 22.1292L37.6403 18.2244C37.9918 17.9277 38.351 17.6153 38.7024 17.3029L42.5369 21.1452C42.6824 21.2895 42.8787 21.3708 43.0836 21.3717C43.1863 21.3722 43.2882 21.3525 43.3834 21.3137C43.4785 21.2748 43.5651 21.2176 43.638 21.1452C43.7835 20.9989 43.8651 20.8009 43.8651 20.5946C43.8651 20.3883 43.7835 20.1904 43.638 20.044L39.8817 16.2799C40.2331 15.9831 40.5845 15.6785 40.9516 15.3818L44.622 19.06C44.695 19.1324 44.7816 19.1897 44.8767 19.2285C44.9718 19.2674 45.0737 19.2871 45.1765 19.2865C45.3294 19.2844 45.4782 19.2374 45.6046 19.1515C45.7311 19.0655 45.8295 18.9443 45.8877 18.803C45.9459 18.6616 45.9613 18.5063 45.9321 18.3563C45.9028 18.2062 45.8302 18.0681 45.7232 17.9589L42.1777 14.3822L43.2866 13.4919L46.7384 16.9515C46.8107 17.0253 46.897 17.084 46.9922 17.1242C47.0873 17.1644 47.1896 17.1853 47.2929 17.1858C47.4989 17.1828 47.6954 17.0986 47.8396 16.9515C47.9826 16.8055 48.0628 16.6092 48.0628 16.4048C48.0628 16.2004 47.9826 16.0041 47.8396 15.8582L44.5205 12.5313L45.4811 11.805L48.6908 15.0069C48.8371 15.1524 49.035 15.234 49.2414 15.234C49.4477 15.234 49.6456 15.1524 49.7919 15.0069C49.9309 14.8569 50.0055 14.6583 49.9997 14.4539C49.9938 14.2494 49.908 14.0554 49.7607 13.9136Z" fill="#438BE3"/>
<path d="M7.42019 33.789C7.60655 33.641 7.78388 33.4819 7.95124 33.3126L16.8384 24.4254C16.9334 24.3288 17.0622 24.2728 17.1977 24.2692L20.0325 24.2068L20.1028 24.1365C26.0615 17.639 28.1232 14.4996 28.5995 13.6952L28.2794 13.375C25.7022 14.9369 19.931 19.6226 12.8634 26.6511C12.4814 27.0353 12.0001 27.3057 11.4733 27.4321C11.2674 27.4718 11.0583 27.4927 10.8486 27.4946C10.4405 27.4932 10.0369 27.4103 9.66139 27.2507C9.28588 27.0911 8.94605 26.858 8.6619 26.5652C8.2308 26.1502 7.72174 25.8247 7.16412 25.6076C6.60651 25.3904 6.01139 25.2859 5.41315 25.3001H5.22572C3.86514 25.3607 2.57834 25.9357 1.62554 26.9089C0.660749 27.8459 0.083688 29.1115 0.00897898 30.4544C-0.0312794 31.0917 0.0641524 31.7303 0.28897 32.328C0.513787 32.9257 0.862872 33.469 1.31316 33.9218C1.67102 34.3032 2.10271 34.6079 2.58199 34.8174C3.06127 35.0268 3.57813 35.1366 4.10115 35.1401C5.29296 35.0966 6.43282 34.6412 7.32648 33.8515C7.36194 33.8378 7.39394 33.8165 7.42019 33.789ZM19.3453 21.4188C19.5084 21.2607 19.7274 21.1737 19.9544 21.1767C20.0649 21.1728 20.1749 21.1923 20.2772 21.234C20.3795 21.2758 20.4718 21.3387 20.5479 21.4188C20.6294 21.4943 20.6938 21.5862 20.7369 21.6886C20.78 21.7909 20.8008 21.9013 20.7979 22.0123C20.7989 22.1241 20.7779 22.235 20.7361 22.3387C20.6942 22.4423 20.6324 22.5367 20.5541 22.6165C20.4757 22.6963 20.3825 22.7598 20.2796 22.8036C20.1767 22.8473 20.0662 22.8703 19.9544 22.8713C19.7266 22.8706 19.508 22.7809 19.3453 22.6214C19.1872 22.4578 19.0978 22.2398 19.0954 22.0123C19.0977 21.7894 19.1875 21.5763 19.3453 21.4188ZM4.69468 33.6641C3.93282 33.6619 3.19524 33.3958 2.60743 32.9112C2.01963 32.4265 1.61791 31.7531 1.47062 31.0056C1.32333 30.2581 1.43957 29.4827 1.79957 28.8112C2.15957 28.1398 2.74108 27.6138 3.44517 27.3228C4.14926 27.0318 4.93243 26.9937 5.66144 27.215C6.39044 27.4363 7.02025 27.9034 7.44371 28.5367C7.86716 29.1701 8.05811 29.9306 7.98405 30.6888C7.91 31.4471 7.57552 32.1562 7.03752 32.6957C6.73105 33.0048 6.36598 33.2497 5.96369 33.416C5.5614 33.5823 5.12997 33.6666 4.69468 33.6641Z" fill="#438BE3"/>
<path d="M14.4894 30.4941C14.6171 29.9655 14.8872 29.482 15.2704 29.0962C16.434 27.9248 17.5117 26.8158 18.566 25.7069L18.9642 25.293L17.4023 25.3476L8.726 34.0787C8.52295 34.2817 8.31991 34.4691 8.07 34.68C6.41439 36.7417 6.39096 39.0455 8.01534 40.6464C8.44193 41.0686 8.94804 41.4019 9.50436 41.6272C10.0607 41.8524 10.6561 41.965 11.2563 41.9584C12.6504 41.9329 13.9832 41.3809 14.9871 40.4132C15.991 39.4456 16.5916 38.1339 16.6683 36.7417C16.6969 36.1084 16.5953 35.476 16.3696 34.8836C16.1439 34.2912 15.799 33.7514 15.3563 33.2977C14.9867 32.9416 14.7134 32.4978 14.5619 32.0075C14.4103 31.5173 14.3853 30.9966 14.4894 30.4941ZM13.9271 39.6156C13.3886 40.1516 12.6811 40.4845 11.9249 40.5578C11.1686 40.6311 10.4104 40.4402 9.77897 40.0176C9.14757 39.595 8.68202 38.9667 8.46148 38.2397C8.24095 37.5126 8.27903 36.7316 8.56926 36.0294C8.85948 35.3273 9.38394 34.7473 10.0535 34.3881C10.723 34.0289 11.4962 33.9127 12.2417 34.0593C12.9873 34.2058 13.659 34.606 14.1428 35.1918C14.6266 35.7776 14.8926 36.513 14.8955 37.2727C14.898 37.708 14.8137 38.1395 14.6474 38.5417C14.4811 38.944 14.2363 39.3091 13.9271 39.6156Z" fill="#438BE3"/>
</svg>
