<svg width="50" height="50" viewBox="0 0 50 50" fill="none" xmlns="http://www.w3.org/2000/svg">
<path d="M47.4654 2L13.0781 25.1703L19.8278 31.6204C20.0551 31.8393 20.2164 32.1176 20.2932 32.4237C20.3701 32.7297 20.3595 33.0512 20.2627 33.3515L18.4567 40.2177L20.5748 38.7009L24.6154 39.5977L25.0732 35.401L27.7364 35.7235L28.1963 31.5205L30.8533 31.8451L31.3131 27.6422L33.9701 27.9668L34.43 23.7638L37.0849 24.0884L37.5447 19.8854L40.2017 20.21L40.6616 16.0071L43.3186 16.3317L43.7784 12.1266L46.4354 12.4533L46.8786 8.24409L49.5356 8.56867L49.9996 4.36364L47.4654 2Z" fill="#438BE3"/>
<path d="M18.9359 32.5476L11.9844 25.9082L0.386709 33.7253C0.249619 33.8122 0.140929 33.9373 0.0740163 34.0851C0.00710368 34.233 -0.0151105 34.3972 0.0101078 34.5575C0.0912539 35.0569 0.594776 35.2275 1.39167 35.1672C2.40851 39.4902 3.99539 43.6589 6.11063 47.5638C6.33984 47.9909 6.70581 48.3286 7.14986 48.5229C7.59392 48.7172 8.09035 48.7568 8.55958 48.6354C10.9382 48.0382 13.2048 47.0609 15.2718 45.7411C15.5216 45.5883 15.7274 45.3732 15.869 45.1169C16.5306 43.9102 16.3267 42.953 16.7761 41.5382L19.0358 32.9533C19.0592 32.8832 19.0622 32.8078 19.0445 32.736C19.0269 32.6642 18.9892 32.5989 18.9359 32.5476ZM11.2478 28.7546C11.4249 28.6331 11.6341 28.5668 11.8489 28.5642C12.0636 28.5615 12.2744 28.6226 12.4544 28.7398C12.6344 28.8569 12.7757 29.0247 12.8604 29.2221C12.945 29.4195 12.9693 29.6376 12.93 29.8488C12.8907 30.0599 12.7897 30.2547 12.6398 30.4085C12.4898 30.5623 12.2976 30.6681 12.0875 30.7127C11.8774 30.7572 11.6588 30.7385 11.4594 30.6588C11.2599 30.5792 11.0885 30.4422 10.9669 30.2651C10.8861 30.1475 10.8293 30.0151 10.7997 29.8755C10.7701 29.736 10.7683 29.5919 10.7944 29.4516C10.8205 29.3114 10.8739 29.1776 10.9517 29.058C11.0295 28.9384 11.1301 28.8353 11.2478 28.7546ZM13.0871 42.3247C12.7334 43.8914 10.7734 44.3076 9.20459 43.2319C8.95134 43.0588 8.77411 42.7951 8.70939 42.4953C8.2454 40.3439 7.15513 38.1051 5.54885 35.7935C5.42409 35.6136 5.35203 35.4024 5.34078 35.1838C5.24507 33.0761 7.50676 31.8548 8.95283 32.8493C9.05931 32.9229 9.1493 33.0179 9.21707 33.1281C11.3102 36.5134 13.4512 40.6976 13.0871 42.3247Z" fill="#438BE3"/>
</svg>
