<svg width="50" height="50" viewBox="0 0 50 50" fill="none" xmlns="http://www.w3.org/2000/svg">
<g clip-path="url(#clip0_3019_1722)">
<path d="M43.1668 33.3522C43.1668 33.3522 13.5484 32.3205 2.77867 37.1512C-7.99105 41.9819 23.7155 46.1085 23.7155 46.1085L50.7738 43.3763C50.7738 43.3763 -15.4235 37.1616 43.1668 33.3522Z" fill="#438BE3"/>
<path d="M5.21875 34.4287C24.7936 31.7982 44.933 32.3619 44.933 32.3619C43.684 32.2739 42.4749 32.2026 41.2855 32.1391V28.2043C41.9634 28.2122 42.7087 28.1307 43.4551 27.876L40.8925 16.9704L39.2086 24.6045L36.6167 13.3064L33.6347 27.16C33.6347 27.16 34.7436 27.6191 36.295 27.7667V31.9333C32.9685 31.8386 29.9099 31.8363 27.1226 31.9018V26.1727C27.7858 26.1682 28.5045 26.0801 29.2253 25.8341L26.5728 14.2719L25.2931 20.2175L21.3707 -0.613281L17.3152 22.3413L13.9675 7.74795L9.44564 28.7553C9.44564 28.7553 11.2819 29.4299 13.5161 29.451V32.8818C7.97206 33.5991 5.21875 34.4287 5.21875 34.4287ZM37.189 27.8108C37.6337 27.8124 38.0996 27.7823 38.5772 27.7069C38.7632 27.7789 39.5221 28.0508 40.5448 28.1598V32.0996C39.3973 32.0425 38.2799 31.9967 37.189 31.9606V27.8108ZM22.1792 32.0959V28.3882C23.4483 28.4068 24.832 28.2285 26.2286 27.7212V31.9259C24.8085 31.9673 23.454 32.0241 22.1792 32.0959ZM14.4101 29.419C15.8315 29.3123 17.3312 28.8988 18.5801 27.855C19.3381 28.0669 20.2571 28.2608 21.2851 28.3461V32.151C18.6723 32.3152 16.3815 32.5331 14.4101 32.7705V29.419Z" fill="#438BE3"/>
</g>
<defs>
<clipPath id="clip0_3019_1722">
<rect width="50" height="50" fill="white"/>
</clipPath>
</defs>
</svg>
