<svg width="50" height="50" viewBox="0 0 50 50" fill="none" xmlns="http://www.w3.org/2000/svg">
<g clip-path="url(#clip0_3019_1726)">
<path d="M42.4416 40.2302C44.3855 40.2302 45.9613 38.4377 45.9613 36.2264C45.9613 34.0152 44.3855 32.2227 42.4416 32.2227C40.4977 32.2227 38.9219 34.0152 38.9219 36.2264C38.9219 38.4377 40.4977 40.2302 42.4416 40.2302Z" fill="#438BE3"/>
<path d="M42.4452 41.0469C38.273 41.0469 34.8907 44.1172 34.8906 47.9045C34.8906 50.6969 49.9997 50.6969 49.9997 47.9045C49.9998 44.1172 46.6175 41.0469 42.4452 41.0469Z" fill="#438BE3"/>
<path d="M25.0041 40.2302C26.948 40.2302 28.5238 38.4377 28.5238 36.2264C28.5238 34.0152 26.948 32.2227 25.0041 32.2227C23.0602 32.2227 21.4844 34.0152 21.4844 36.2264C21.4844 38.4377 23.0602 40.2302 25.0041 40.2302Z" fill="#438BE3"/>
<path d="M17.4453 47.9045C17.4452 50.6969 32.5544 50.6969 32.5544 47.9045C32.5545 44.1172 29.1722 41.0469 24.9999 41.0469C20.8277 41.0469 17.4454 44.1172 17.4453 47.9045Z" fill="#438BE3"/>
<path d="M7.5588 40.2302C9.50269 40.2302 11.0785 38.4377 11.0785 36.2264C11.0785 34.0152 9.50269 32.2227 7.5588 32.2227C5.6149 32.2227 4.03906 34.0152 4.03906 36.2264C4.03906 38.4377 5.6149 40.2302 7.5588 40.2302Z" fill="#438BE3"/>
<path d="M9.85469e-10 47.9045C6.66665e-05 50.6969 15.1092 50.6969 15.1091 47.9045C15.1091 44.1172 11.7268 41.0469 7.55453 41.0469C3.38224 41.0469 -6.66645e-05 44.1172 9.85469e-10 47.9045Z" fill="#438BE3"/>
<path d="M49.4436 0H21.152C21.0047 0 20.8634 0.0585307 20.7592 0.162716C20.655 0.266901 20.5965 0.408206 20.5965 0.555546V18.7285C21.3123 18.764 22.0899 18.8238 22.8187 18.9206V2.22218H47.777V25.5551H22.8187V23.7044C23.1449 23.6579 23.444 23.6117 23.6918 23.5693C23.9321 23.5324 24.1527 23.4148 24.3175 23.236C24.4822 23.0572 24.5812 22.8276 24.5982 22.5851L32.0157 17.2672C32.1926 17.1371 32.311 16.9425 32.3452 16.7257C32.3795 16.5088 32.3267 16.2872 32.1985 16.109C32.0703 15.9308 31.877 15.8103 31.6605 15.7739C31.444 15.7374 31.2218 15.7878 31.0423 15.9141L23.5306 21.2996C21.8397 21.0078 20.1253 20.8735 18.4096 20.8986C18.2977 20.1031 16.7814 15.7684 15.3427 14.2974C14.535 13.4714 12.6038 12.6885 10.5624 12.3946C9.40139 12.2351 8.22402 12.2351 7.06299 12.3946C5.02147 12.6875 3.09043 13.4714 2.28267 14.2974C0.0518072 16.5787 -0.0407639 23.2531 0.00854075 27.7773H2.7449C3.18855 24.7599 3.59354 23.6142 3.90123 20.4108L4.2949 24.149C4.30981 24.4157 4.31411 24.6828 4.30778 24.9503L4.24119 27.7773H13.3842L13.3176 24.9503C13.3114 24.6831 13.3157 24.416 13.3305 24.149L13.7242 20.4108C13.8512 20.811 16.0595 23.4419 17.3476 23.9164C17.8951 24.1181 19.229 24.0812 20.5965 23.9612V27.2217C20.5965 27.3691 20.655 27.5104 20.7592 27.6146C20.8634 27.7188 21.0047 27.7773 21.152 27.7773H49.4436C49.591 27.7773 49.7323 27.7188 49.8365 27.6146C49.9407 27.5104 49.9992 27.3691 49.9992 27.2217V0.555546C49.9992 0.408206 49.9407 0.266901 49.8365 0.162716C49.7323 0.0585307 49.591 0 49.4436 0Z" fill="#438BE3"/>
<path d="M8.81144 10.6088C10.8431 10.6088 12.4901 8.81415 12.4901 6.60031C12.4901 4.38647 10.8431 2.5918 8.81144 2.5918C6.77979 2.5918 5.13281 4.38647 5.13281 6.60031C5.13281 8.81415 6.77979 10.6088 8.81144 10.6088Z" fill="#438BE3"/>
</g>
<defs>
<clipPath id="clip0_3019_1726">
<rect width="50" height="50" fill="white"/>
</clipPath>
</defs>
</svg>
