<svg width="50" height="50" viewBox="0 0 50 50" fill="none" xmlns="http://www.w3.org/2000/svg">
<g clip-path="url(#clip0_3028_1569)">
<path d="M25 2.5C12.6 2.5 2.5 12.6 2.5 25C2.5 37.4 12.6 47.5 25 47.5C37.4 47.5 47.5 37.4 47.5 25C47.5 12.6 37.4 2.5 25 2.5ZM46.5 25C46.5 26.3 46.4 27.5 46.2 28.7L33.6 25.2L32.2 25.6L46 29.5C45.4 32.1 44.4 34.6 43 36.7L26.7 27.4C27 27.2 27.2 27 27.4 26.7L27.9 27.5L29.2 28.2L28.1 26.2L46.2 21.2C46.4 22.5 46.5 23.7 46.5 25ZM22.6 23.3L22.1 22.5L20.8 21.8L21.9 23.8L3.8 28.8C3.6 27.6 3.5 26.3 3.5 25.1C3.5 23.9 3.6 22.6 3.8 21.4L16.4 24.9L17.8 24.5L4 20.5C4.6 17.9 5.6 15.4 7 13.3L23.3 22.6C23 22.8 22.8 23 22.6 23.3ZM23.5 25C23.5 24.2 24.2 23.5 25 23.5C25.8 23.5 26.5 24.2 26.5 25C26.5 25.8 25.8 26.5 25 26.5C24.2 26.5 23.5 25.8 23.5 25ZM42.6 12.7L31.2 19.2L30.5 20.5L43 13.3C44.4 15.5 45.5 17.9 46 20.5L27.9 25.5C27.9 25.3 28 25.2 28 25C28 24.8 28 24.7 27.9 24.5L28.8 24.7L30.2 24.3L28 23.8L37.3 7.5C39.4 8.8 41.2 10.6 42.6 12.7ZM28.7 3.8L25.2 16.4L25.6 17.8L29.5 4C32.1 4.6 34.6 5.6 36.7 7L27.4 23.3C27.2 23 27 22.8 26.7 22.6L27.5 22.1L28.2 20.8L26.2 21.9L21.2 3.8C22.4 3.6 23.7 3.5 24.9 3.5C26.1 3.5 27.5 3.6 28.7 3.8ZM12.7 7.4L19.2 18.8L20.5 19.5L13.3 7C15.5 5.6 17.9 4.5 20.5 4L25.5 22.1C25.3 22.1 25.2 22 25 22C24.8 22 24.7 22 24.5 22.1L24.7 21.2L24.3 19.8L23.8 22L7.5 12.7C8.8 10.6 10.6 8.8 12.7 7.4ZM7.4 37.3L18.8 30.8L19.5 29.5L7 36.7C5.6 34.5 4.5 32.1 4 29.5L22.1 24.5C22.1 24.7 22 24.8 22 25C22 25.2 22 25.3 22.1 25.5L21.2 25.3L19.8 25.7L22 26.3L12.7 42.6C10.6 41.2 8.8 39.4 7.4 37.3ZM21.3 46.2L24.8 33.6L24.4 32.2L20.5 46C17.9 45.4 15.4 44.4 13.3 43L22.6 26.7C22.8 27 23 27.2 23.3 27.4L22.5 27.9L21.8 29.2L23.8 28.1L28.8 46.2C27.6 46.4 26.3 46.5 25.1 46.5C23.9 46.5 22.5 46.4 21.3 46.2ZM37.3 42.6L30.8 31.2L29.5 30.5L36.7 43C34.5 44.4 32.1 45.5 29.5 46L24.5 27.9C24.7 27.9 24.8 28 25 28C25.2 28 25.3 28 25.5 27.9L25.3 28.8L25.7 30.2L26.3 28L42.6 37.3C41.2 39.4 39.4 41.2 37.3 42.6Z" fill="#438BE3"/>
<path d="M25 0C11.2 0 0 11.2 0 25C0 38.8 11.2 50 25 50C38.8 50 50 38.8 50 25C50 11.2 38.8 0 25 0ZM25 48.2C12.2 48.2 1.8 37.8 1.8 25C1.8 12.2 12.2 1.8 25 1.8C37.8 1.8 48.2 12.2 48.2 25C48.2 37.8 37.8 48.2 25 48.2Z" fill="#438BE3"/>
</g>
<defs>
<clipPath id="clip0_3028_1569">
<rect width="50" height="50" fill="white"/>
</clipPath>
</defs>
</svg>
