<svg width="50" height="50" viewBox="0 0 50 50" fill="none" xmlns="http://www.w3.org/2000/svg">
<g clip-path="url(#clip0_3028_1573)">
<path d="M46.6994 29.3183C45.7545 21.047 42.8854 13.2953 41.2576 9.40801C41.2564 9.4044 41.2552 9.4012 41.2536 9.39799C40.4729 7.52945 39.6434 5.76264 38.9785 4.55059C38.5247 3.71866 37.7829 3.06938 36.8881 2.72251L30.3484 0.197869C30.0007 0.0664905 29.6418 0 29.2821 0H20.7104C20.3512 0 19.9919 0.0664905 19.6414 0.19867L13.1037 2.72291C12.2101 3.06938 11.4679 3.71866 11.0144 4.54979C10.3563 5.74943 9.52842 7.51343 8.74295 9.39038C8.74175 9.39319 8.74015 9.39639 8.73895 9.39919C7.11073 13.2809 4.24042 21.0262 3.29353 29.3183C2.4616 36.5874 2.14878 41.6383 2.27815 45.695C2.30098 46.3903 2.33503 47.0713 2.38269 47.7758C2.3843 47.7947 2.3867 47.8131 2.39071 47.8311C2.40152 47.9953 2.41354 48.1564 2.42756 48.3134C2.50646 49.3059 3.2683 50.1214 4.23842 50.2528C5.29626 50.3966 6.38815 50.4687 7.50727 50.4687C8.62479 50.4687 9.76875 50.3966 10.9315 50.2532C11.9806 50.1202 12.772 49.2158 12.772 48.1495V46.0827H37.2209V48.4584C37.2209 49.3396 37.8778 50.0942 38.7498 50.2131C41.2776 50.5532 43.7294 50.5524 46.0393 50.2123C46.8508 50.0922 47.4685 49.4381 47.5414 48.6206L47.5462 48.5649C47.569 48.3054 47.5914 48.0446 47.6103 47.7758C47.6503 47.1834 47.6936 46.4733 47.7148 45.695C47.8442 41.6383 47.5313 36.5878 46.6994 29.3183ZM14.2557 28.2212C14.7423 26.4476 15.3479 24.2406 16.449 24.2406C17.2329 24.2406 17.6395 25.4254 18.1097 26.7977C18.8263 28.8885 19.7183 31.4909 22.6174 31.4909C25.4982 31.4909 26.4555 28.9085 27.2249 26.8337C27.7408 25.4422 28.1862 24.2406 29.0061 24.2406C29.8649 24.2406 30.4165 25.4931 31.0549 26.9431C31.9473 28.9694 33.0576 31.4909 35.7193 31.4909C36.3569 31.4909 36.8524 31.2477 37.2213 30.9293V34.6231H36.2336C36.4427 34.3568 36.5728 34.0259 36.5728 33.6618C36.5728 32.7982 35.8703 32.0957 35.0067 32.0957C34.1431 32.0957 33.4406 32.7982 33.4406 33.6618C33.4406 34.0259 33.5707 34.3572 33.7798 34.6231H23.8399C24.049 34.3568 24.1792 34.0259 24.1792 33.6618C24.1792 32.7982 23.4766 32.0957 22.613 32.0957C21.7495 32.0957 21.0469 32.7982 21.0469 33.6618C21.0469 34.0259 21.1771 34.3572 21.3862 34.6231H12.772V31.3959C13.4766 31.0519 13.8287 29.7773 14.2557 28.2212ZM37.2209 37.0144V40.4751H12.772V37.0144H37.2209ZM12.772 15.7615H15.1036C14.9746 15.9886 14.8949 16.2473 14.8949 16.5265C14.8949 17.3921 15.5995 18.0966 16.4651 18.0966C17.3286 18.0966 18.0312 17.3921 18.0312 16.5265C18.0312 16.2473 17.9519 15.9886 17.8233 15.7615H27.6639C27.5353 15.9886 27.456 16.2473 27.456 16.5265C27.456 17.3921 28.1586 18.0966 29.0222 18.0966C29.8877 18.0966 30.5923 17.3921 30.5923 16.5265C30.5923 16.2473 30.5126 15.9886 30.3836 15.7615H37.2213V24.807C37.1168 25.0132 36.6882 25.699 35.5951 25.699C33.882 25.699 33.3012 24.2686 32.6299 22.612C31.9578 20.9553 31.1963 19.078 29.0061 19.078C26.7847 19.078 26.0024 21.0334 25.3119 22.7586C24.6538 24.4024 24.0858 25.8227 22.5329 25.8227C20.9424 25.8227 20.41 24.2738 19.8465 22.6336C19.2733 20.9669 18.6236 19.0776 16.6453 19.0776C14.6318 19.0776 13.4454 20.6689 12.772 22.1794V15.7615ZM45.9035 29.4092C46.7086 36.4484 47.0243 41.3851 46.9217 45.3493C43.6617 46.0082 40.7429 46.0118 38.0216 45.3617V15.3609C38.0216 14.7465 38.1077 14.1433 38.2784 13.5669C38.6837 12.1766 39.5905 10.9044 40.6964 10.1458C42.3307 14.1156 45.0027 21.5293 45.9035 29.4092ZM17.0887 2.04318C17.8185 2.97885 20.6067 6.13635 24.9963 6.13635C29.3855 6.13635 32.174 2.97926 32.9038 2.04318L33.9156 2.43371C33.0332 3.65618 29.9887 7.28992 24.9963 7.28992C20.0039 7.28992 16.9593 3.65578 16.0765 2.43371L17.0887 2.04318ZM20.7104 0.80109H29.2821C29.5449 0.80109 29.8084 0.850357 30.0632 0.946488L30.2562 1.02099C29.4543 1.81447 27.4797 3.47633 24.9963 3.47633C22.5125 3.47633 20.5378 1.81407 19.7359 1.02059L19.9266 0.946889C20.1837 0.850358 20.4477 0.80109 20.7104 0.80109ZM11.7174 4.93392C12.0803 4.26781 12.6759 3.7479 13.3925 3.47032L15.3035 2.73252C16.0857 3.88689 19.325 8.09101 24.9967 8.09101C30.6684 8.09101 33.9076 3.88649 34.6899 2.73252L36.6001 3.46992C37.3174 3.7479 37.9127 4.26781 38.2764 4.93512C38.8916 6.05624 39.6522 7.66603 40.3828 9.39198C39.1291 10.1963 38.1225 11.5309 37.6082 13.0538H12.3859C11.8732 11.5241 10.8682 10.1867 9.61494 9.38357C10.3495 7.65121 11.1086 6.04383 11.7174 4.93392ZM4.08902 29.4092C4.99145 21.5097 7.66509 14.1016 9.30011 10.1366C10.4056 10.894 11.3112 12.1694 11.7146 13.5677C11.8848 14.1433 11.9709 14.7461 11.9709 15.3609V45.3617C9.24964 46.0122 6.33007 46.0082 3.07043 45.3493C2.96829 41.3863 3.28352 36.4496 4.08902 29.4092ZM10.8318 49.4585C8.57472 49.7365 6.39255 49.7373 4.34577 49.4589C3.74615 49.378 3.27511 48.8693 3.22544 48.2457C3.22464 48.2369 3.22424 48.228 3.22344 48.2192C4.79999 48.4604 6.32847 48.5873 7.79566 48.5873C9.24644 48.5873 10.6363 48.4624 11.9637 48.2268C11.9273 48.8557 11.455 49.3796 10.8318 49.4585ZM12.772 45.2816V43.8677H37.2209V45.2816H12.772ZM46.7435 48.5505C46.7038 48.9967 46.3662 49.354 45.9224 49.4197C43.6869 49.7489 41.3097 49.7489 38.8567 49.4189C38.3809 49.354 38.0216 48.941 38.0216 48.4584V48.2252C39.3522 48.462 40.7449 48.5869 42.1993 48.5869C43.6661 48.5869 45.1946 48.46 46.7707 48.2192C46.7631 48.311 46.7563 48.4047 46.7483 48.496L46.7435 48.5505Z" fill="#438BE3"/>
<path d="M22.613 23.4038C23.4766 23.4038 24.1791 22.6993 24.1791 21.8337C24.1791 20.9701 23.4766 20.2676 22.613 20.2676C21.7494 20.2676 21.0469 20.9701 21.0469 21.8337C21.0469 22.6993 21.7494 23.4038 22.613 23.4038Z" fill="#438BE3"/>
<path d="M16.4686 30.4858C17.3321 30.4858 18.0347 29.7832 18.0347 28.9196C18.0347 28.0561 17.3321 27.3535 16.4686 27.3535C15.603 27.3535 14.8984 28.0561 14.8984 28.9196C14.8984 29.7832 15.603 30.4858 16.4686 30.4858Z" fill="#438BE3"/>
<path d="M35.0036 23.4038C35.8672 23.4038 36.5698 22.6993 36.5698 21.8337C36.5698 20.9701 35.8672 20.2676 35.0036 20.2676C34.1401 20.2676 33.4375 20.9701 33.4375 21.8337C33.4375 22.6993 34.1401 23.4038 35.0036 23.4038Z" fill="#438BE3"/>
<path d="M29.0193 30.4858C29.8848 30.4858 30.5894 29.7832 30.5894 28.9196C30.5894 28.0561 29.8848 27.3535 29.0193 27.3535C28.1557 27.3535 27.4531 28.0561 27.4531 28.9196C27.4531 29.7832 28.1557 30.4858 29.0193 30.4858Z" fill="#438BE3"/>
</g>
<defs>
<clipPath id="clip0_3028_1573">
<rect width="50" height="50" fill="white"/>
</clipPath>
</defs>
</svg>
