<svg width="50" height="50" viewBox="0 0 50 50" fill="none" xmlns="http://www.w3.org/2000/svg">
<path d="M37.2187 6.69531H38.2891C38.3927 6.69531 38.492 6.65416 38.5653 6.5809C38.6385 6.50764 38.6797 6.40829 38.6797 6.30469C38.6797 6.20109 38.6385 6.10173 38.5653 6.02847C38.492 5.95522 38.3927 5.91406 38.2891 5.91406H37.2187C37.1151 5.91406 37.0158 5.95522 36.9425 6.02847C36.8693 6.10173 36.8281 6.20109 36.8281 6.30469C36.8281 6.40829 36.8693 6.50764 36.9425 6.5809C37.0158 6.65416 37.1151 6.69531 37.2187 6.69531Z" fill="#438BE3"/>
<path d="M40.7891 6.69531H41.8594C41.963 6.69531 42.0623 6.65416 42.1356 6.5809C42.2088 6.50764 42.25 6.40829 42.25 6.30469C42.25 6.20109 42.2088 6.10173 42.1356 6.02847C42.0623 5.95522 41.963 5.91406 41.8594 5.91406H40.7891C40.6855 5.91406 40.5861 5.95522 40.5128 6.02847C40.4396 6.10173 40.3984 6.20109 40.3984 6.30469C40.3984 6.40829 40.4396 6.50764 40.5128 6.5809C40.5861 6.65416 40.6855 6.69531 40.7891 6.69531Z" fill="#438BE3"/>
<path d="M37.2187 8.33008H38.2891C38.3927 8.33008 38.492 8.28892 38.5653 8.21567C38.6385 8.14241 38.6797 8.04305 38.6797 7.93945C38.6797 7.83585 38.6385 7.7365 38.5653 7.66324C38.492 7.58998 38.3927 7.54883 38.2891 7.54883H37.2187C37.1151 7.54883 37.0158 7.58998 36.9425 7.66324C36.8693 7.7365 36.8281 7.83585 36.8281 7.93945C36.8281 8.04305 36.8693 8.14241 36.9425 8.21567C37.0158 8.28892 37.1151 8.33008 37.2187 8.33008Z" fill="#438BE3"/>
<path d="M40.7891 8.33008H41.8594C41.963 8.33008 42.0623 8.28892 42.1356 8.21567C42.2088 8.14241 42.25 8.04305 42.25 7.93945C42.25 7.83585 42.2088 7.7365 42.1356 7.66324C42.0623 7.58998 41.963 7.54883 41.8594 7.54883H40.7891C40.6855 7.54883 40.5861 7.58998 40.5128 7.66324C40.4396 7.7365 40.3984 7.83585 40.3984 7.93945C40.3984 8.04305 40.4396 8.14241 40.5128 8.21567C40.5861 8.28892 40.6855 8.33008 40.7891 8.33008Z" fill="#438BE3"/>
<path d="M39.3984 23.9844H37.3359C37.7968 25.316 38.0293 26.7159 38.0234 28.125C38.0265 29.5269 37.7914 30.9191 37.3281 32.2422H39.3984C39.8203 32.2422 39.8359 32.0625 39.8672 32V24.2187C39.8359 24.1484 39.8203 23.9844 39.3984 23.9844Z" fill="#438BE3"/>
<path d="M25.3828 16.2188C23.0373 16.2188 20.7445 16.9138 18.7938 18.2161C16.8431 19.5183 15.322 21.3694 14.4227 23.5356C13.5234 25.7018 13.2861 28.0858 13.7408 30.3868C14.1956 32.6877 15.3219 34.8023 16.9777 36.4635C18.6334 38.1247 20.7443 39.258 23.0437 39.7203C25.3432 40.1826 27.728 39.9532 29.8971 39.061C32.0662 38.1687 33.9223 36.6538 35.231 34.7074C36.5397 32.761 37.2422 30.4704 37.2499 28.125C37.253 26.5639 36.9484 25.0174 36.3536 23.5741C35.7588 22.1307 34.8854 20.8187 33.7834 19.713C32.6813 18.6073 31.3721 17.7295 29.9307 17.13C28.4893 16.5304 26.9439 16.2208 25.3828 16.2188ZM34.3827 31.25C34.3731 31.2825 34.36 31.314 34.3437 31.3437C33.6627 33.2196 32.4107 34.8346 30.7637 35.9614C29.1167 37.0883 27.1578 37.6703 25.1627 37.6254C23.1677 37.5806 21.2369 36.9112 19.6422 35.7114C18.0476 34.5117 16.8693 32.842 16.2734 30.9375C15.8611 29.6229 15.7383 28.2346 15.9133 26.868C16.0884 25.5015 16.5571 24.1889 17.2874 23.0207C18.0176 21.8524 18.9921 20.856 20.1438 20.0999C21.2956 19.3439 22.5974 18.8461 23.9597 18.6407C25.3221 18.4353 26.7127 18.5272 28.0362 18.9101C29.3596 19.293 30.5845 19.9579 31.6268 20.8589C32.669 21.76 33.5038 22.876 34.074 24.1302C34.6441 25.3845 34.936 26.7473 34.9296 28.125C34.9244 29.19 34.7395 30.2465 34.3827 31.25Z" fill="#438BE3"/>
<path d="M25.5 31.7989C22.802 30.8319 19.8953 30.6 17.0781 31.1271C17.6741 32.7667 18.7425 34.1929 20.1484 35.2258C21.5543 36.2587 23.2348 36.8519 24.9776 36.9305C26.7204 37.009 28.4474 36.5695 29.9405 35.6673C31.4337 34.7651 32.6261 33.4408 33.3672 31.8614C32.2186 32.3557 30.9846 32.6211 29.7344 32.6427C28.2879 32.5811 26.8596 32.2965 25.5 31.7989Z" fill="#438BE3"/>
<path d="M45.4922 0H5.26562C4.66538 0.00205919 4.0903 0.241419 3.66586 0.665861C3.24142 1.0903 3.00206 1.66538 3 2.26562V47.7344C3 48.3352 3.2387 48.9115 3.66359 49.3364C4.08847 49.7613 4.66474 50 5.26562 50H45.4922C45.7904 50.001 46.0858 49.9432 46.3616 49.8298C46.6374 49.7164 46.8881 49.5497 47.0993 49.3392C47.3105 49.1287 47.4781 48.8786 47.5924 48.6032C47.7068 48.3278 47.7656 48.0325 47.7656 47.7344V2.26562C47.7635 1.66403 47.5231 1.08777 47.097 0.66311C46.6709 0.238446 46.0938 -3.55214e-06 45.4922 0ZM35.1797 5.38281C35.1776 5.29225 35.1936 5.20218 35.2269 5.11791C35.2601 5.03363 35.3098 4.95685 35.3731 4.89207C35.4365 4.82729 35.5121 4.77582 35.5956 4.74069C35.6791 4.70556 35.7688 4.68747 35.8594 4.6875H43.2266C43.4049 4.68948 43.5754 4.76066 43.7022 4.88602C43.8291 5.01138 43.9022 5.1811 43.9062 5.35937V8.83594C43.9042 9.01484 43.8317 9.18572 43.7044 9.3115C43.5772 9.43729 43.4055 9.50782 43.2266 9.50781H35.8594C35.7705 9.50884 35.6823 9.49223 35.5999 9.45893C35.5174 9.42563 35.4424 9.3763 35.3792 9.31381C35.316 9.25131 35.2658 9.1769 35.2316 9.09487C35.1973 9.01284 35.1797 8.92483 35.1797 8.83594V5.38281ZM17.5703 3.0625C17.7669 3.06095 17.9595 3.11782 18.1237 3.2259C18.2878 3.33398 18.4162 3.48839 18.4925 3.66955C18.5688 3.85071 18.5896 4.05044 18.5522 4.24342C18.5148 4.4364 18.4209 4.61392 18.2825 4.75346C18.144 4.893 17.9673 4.98828 17.7746 5.0272C17.5819 5.06612 17.382 5.04693 17.2003 4.97207C17.0185 4.89721 16.8631 4.77005 16.7537 4.60672C16.6443 4.44339 16.5859 4.25125 16.5859 4.05469C16.5859 3.79289 16.6894 3.5417 16.8738 3.35585C17.0582 3.17 17.3085 3.06456 17.5703 3.0625ZM12.625 3.0625C12.8209 3.06404 13.0119 3.12354 13.1741 3.2335C13.3362 3.34345 13.4622 3.49895 13.5361 3.68038C13.61 3.8618 13.6285 4.06105 13.5893 4.253C13.5502 4.44495 13.4551 4.621 13.316 4.75898C13.1769 4.89696 13.0001 4.99069 12.8079 5.02834C12.6156 5.066 12.4166 5.0459 12.2357 4.97058C12.0549 4.89526 11.9004 4.76809 11.7917 4.6051C11.683 4.4421 11.625 4.25059 11.625 4.05469C11.6238 3.92072 11.6499 3.78792 11.7018 3.6644C11.7537 3.54089 11.8303 3.42928 11.9268 3.33639C12.0234 3.24351 12.1379 3.1713 12.2633 3.12421C12.3887 3.07711 12.5224 3.05611 12.6562 3.0625H12.625ZM7.65625 3.0625C7.85396 3.05471 8.04949 3.10621 8.21771 3.21039C8.38593 3.31457 8.51916 3.46667 8.60028 3.64714C8.6814 3.82762 8.70671 4.02823 8.67295 4.22319C8.63919 4.41816 8.54791 4.59858 8.41084 4.74127C8.27376 4.88397 8.09715 4.98242 7.9037 5.02397C7.71024 5.06553 7.50878 5.0483 7.3252 4.97449C7.14161 4.90068 6.98429 4.77366 6.87344 4.60976C6.76259 4.44586 6.70328 4.25255 6.70312 4.05469C6.70312 3.79289 6.80658 3.5417 6.99096 3.35585C7.17535 3.17 7.42571 3.06456 7.6875 3.0625H7.65625ZM45.6953 47.7344C45.6964 47.7654 45.6911 47.7964 45.6797 47.8253C45.6683 47.8543 45.6511 47.8805 45.6291 47.9025C45.6071 47.9245 45.5808 47.9417 45.5519 47.9531C45.523 47.9645 45.492 47.9698 45.4609 47.9687H5.26562C5.20973 47.961 5.15873 47.9327 5.12261 47.8894C5.08648 47.846 5.06783 47.7907 5.07031 47.7344V7.99219V7.60156C9.32031 7.60156 21.5156 7.88281 30.7109 10.9844C37.1016 13.1484 41.9922 13.6875 45.6953 12.375V47.7344Z" fill="#438BE3"/>
</svg>
