<svg width="16" height="15" viewBox="0 0 16 15" fill="none" xmlns="http://www.w3.org/2000/svg">
<path fill-rule="evenodd" clip-rule="evenodd" d="M1.52134 1.29345V10.5797C1.52134 11.3164 2.10814 11.9191 2.8036 11.9191H5.49854C6.19401 11.9191 6.78081 11.3164 6.78081 10.5797V1.29345H14.8004C15.4307 1.29345 15.9306 1.82919 15.9306 2.45423V13.0575H0V2.45423C0 1.47203 0.717201 1.20416 1.52134 1.29345ZM15.9306 13.5263C15.9306 14.2183 15.5394 14.7987 14.8004 14.7987H1.13013C0.412934 14.7987 0 14.2183 0 13.5263H15.9306ZM12.801 10.1556H14.431V11.495H12.801V10.1556ZM12.801 7.96796H14.431V9.30732H12.801V7.96796ZM10.4537 10.1556H12.0838V11.495H10.4537V10.1556ZM10.4537 7.94563H12.0838V9.30732H10.4537V7.94563ZM8.10654 10.1556H9.73655V11.5173H8.10654V10.1556ZM8.10654 7.94563H9.73655V9.30732H8.10654V7.94563ZM10.4537 5.5571H12.0838V6.89646H10.4537V5.5571ZM12.801 5.5571H14.431V6.89646H12.801V5.5571ZM8.10654 5.5571H9.73655V6.89646H8.10654V5.5571ZM8.10654 2.61049H14.4527V4.95438H8.10654V2.61049Z" fill="#999999"/>
<path d="M5.80303 0H2.60823C2.42818 0 2.28223 0.149914 2.28223 0.334842V10.7149C2.28223 10.8999 2.42818 11.0498 2.60823 11.0498H5.80303C5.98308 11.0498 6.12903 10.8999 6.12903 10.7149V0.334842C6.12903 0.149914 5.98308 0 5.80303 0Z" fill="#999999"/>
</svg>
