<svg width="16" height="16" viewBox="0 0 16 16" fill="none" xmlns="http://www.w3.org/2000/svg">
<path d="M12.8747 2.19943C11.4559 0.785511 9.56408 0 7.56719 0C3.41574 0 0.0525491 3.35152 0.0525491 7.48854C0.0525491 8.79773 0.420399 10.1069 1.051 11.2066L0 15.0818L3.99379 14.0345C5.09734 14.6105 6.30599 14.9247 7.56719 14.9247C11.7186 14.9247 15.0818 11.5732 15.0818 7.43618C15.0293 5.49858 14.2936 3.61335 12.8747 2.19943ZM11.1931 10.1593C11.0355 10.5782 10.2998 10.9972 9.93193 11.0495C9.61663 11.1019 9.19623 11.1019 8.77584 10.9972C8.51309 10.8924 8.14524 10.7877 7.72484 10.5782C5.83304 9.79271 4.62439 7.90748 4.51929 7.75038C4.41419 7.64565 3.73104 6.7554 3.73104 5.81279C3.73104 4.87017 4.20399 4.45123 4.36164 4.24176C4.51929 4.03229 4.72949 4.03229 4.88714 4.03229C4.99224 4.03229 5.14989 4.03229 5.25499 4.03229C5.36009 4.03229 5.51774 3.97993 5.67539 4.3465C5.83304 4.71307 6.20089 5.65568 6.25344 5.70805C6.30599 5.81279 6.30599 5.91752 6.25344 6.02226C6.20089 6.12699 6.14834 6.23173 6.04324 6.33646C5.93814 6.4412 5.83304 6.5983 5.78049 6.65067C5.67539 6.7554 5.57029 6.86013 5.67539 7.01724C5.78049 7.22671 6.14834 7.80275 6.72639 8.32642C7.46209 8.95483 8.04014 9.1643 8.25034 9.26904C8.46054 9.37377 8.56563 9.32141 8.67073 9.21667C8.77583 9.11194 9.14369 8.693 9.24879 8.48353C9.35389 8.27406 9.51153 8.32642 9.66918 8.37879C9.82683 8.43116 10.7727 8.90247 10.9304 9.0072C11.1406 9.11194 11.2457 9.1643 11.2982 9.21667C11.3508 9.37377 11.3508 9.74034 11.1931 10.1593Z" fill="white"/>
</svg>
