<svg width="39" height="51" viewBox="0 0 39 51" fill="none" xmlns="http://www.w3.org/2000/svg">
<path d="M9.86814 0.130415C6.89707 0.74868 4.02329 2.85536 2.41465 5.58603C1.87081 6.51342 1.43573 7.70415 1.21247 8.88344C1.13805 9.28417 1.10942 9.71354 1.10942 10.6695C1.10942 12.0664 1.1953 12.6846 1.5445 13.7437C2.0998 15.4439 3.38785 17.2472 4.79611 18.2891L5.25409 18.6211L5.28844 18.9531C5.31706 19.2051 5.35713 19.2967 5.46018 19.3653C5.52887 19.4111 5.67199 19.5256 5.77503 19.6172C5.87808 19.7145 6.16431 19.9264 6.41047 20.0924C6.78257 20.3442 6.857 20.4244 6.82837 20.516C6.76541 20.7392 6.73678 22.2334 6.79402 22.4452L6.85128 22.657L6.53642 22.6971C6.34178 22.72 6.17004 22.783 6.07844 22.8574C5.9525 22.9662 5.93532 23.0291 5.93532 23.3554C5.93532 23.9279 6.17576 26.1319 6.28453 26.5212L6.38185 26.8703L6.7883 26.8647C7.15468 26.8647 7.19475 26.8761 7.13178 26.9505C6.7883 27.4028 5.31134 28.9484 4.12633 30.0991C2.23146 31.9367 1.67617 32.5836 0.95486 33.7686C0.531234 34.4555 0.193479 35.32 0.0732602 36.0069C-0.0584072 36.7626 -0.00688515 38.1308 0.182029 39.041C0.325146 39.7108 0.42819 40.0142 0.536959 40.0485C0.680076 40.0886 0.748771 39.9284 0.851816 39.2872C1.0121 38.3083 1.18957 37.8273 1.66472 37.129C1.91088 36.7683 2.52914 36.0814 2.68943 36.0012C2.78103 35.9497 2.78103 35.9668 2.67799 36.3046C2.24291 37.7529 2.29443 38.9723 2.84972 40.1459C3.10161 40.6783 3.32488 40.9244 3.47372 40.8328C3.52524 40.7985 3.63401 40.5409 3.71415 40.2604C3.86299 39.7452 4.02901 39.3788 4.10343 39.3788C4.12633 39.3788 4.25227 39.7223 4.38966 40.1401C4.92206 41.8003 5.75786 43.1571 6.68526 43.8669C7.41229 44.4279 7.96759 44.6112 9.85097 44.9317C11.9577 45.2866 12.8107 45.5729 13.3831 46.1052C13.7381 46.4373 13.927 46.7522 14.1674 47.4162C14.3678 47.9944 14.4651 48.1032 14.6369 47.9486C14.8085 47.7941 15.0547 47.193 15.1349 46.7407L15.2036 46.3342L15.278 46.5918C15.5184 47.4621 15.9192 47.9601 16.9324 48.647C17.8827 49.2882 18.667 50.0209 19.0219 50.5877C19.1021 50.7194 19.1994 50.8281 19.228 50.8281C19.2567 50.8281 19.3253 50.7423 19.3768 50.6392C19.56 50.2843 20.705 49.2195 21.4606 48.71C21.8556 48.4467 22.3079 48.0974 22.4681 47.9372C22.7831 47.6281 23.075 47.09 23.1952 46.5976L23.2753 46.2885L23.344 46.7293C23.4414 47.3075 23.7734 47.9944 23.9681 47.9944C24.0826 47.9944 24.1283 47.92 24.323 47.4105C24.6893 46.4373 25.0042 46.0537 25.7256 45.6874C26.3953 45.3554 27.1395 45.1664 29.1088 44.8458C30.1277 44.6798 30.7919 44.4852 31.3071 44.2046C31.7765 43.9413 32.6294 43.1055 32.9959 42.5388C33.3966 41.909 33.8546 40.9244 34.1294 40.0715L34.3755 39.3158L34.53 39.5964C34.616 39.7509 34.7247 40.0543 34.7705 40.2661C34.885 40.7527 34.9422 40.8672 35.0854 40.8672C35.3773 40.8672 35.8983 39.7566 36.0643 38.7776C36.1788 38.0964 36.0643 37.1347 35.738 36.0356C35.7151 35.9554 35.8296 36.0356 36.0585 36.2589C37.0146 37.1862 37.4725 38.0907 37.6614 39.4475C37.7302 39.9569 37.8046 40.0944 37.9706 40.0314C38.0908 39.9856 38.211 39.5734 38.3771 38.5945C38.7377 36.5394 38.4228 35.091 37.2436 33.3106C36.7055 32.4977 36.0929 31.8107 34.6732 30.4311C33.4652 29.2519 32.3547 28.1011 31.4559 27.0879L31.2441 26.8475L31.6735 26.8818L32.1029 26.9162L32.1372 26.7502C32.16 26.6586 32.2001 26.504 32.2288 26.4124C32.2974 26.2063 32.5665 23.6874 32.5665 23.2638C32.5665 22.886 32.4577 22.7772 32.0112 22.7086C31.828 22.6799 31.6735 22.6513 31.6677 22.6398C31.6562 22.6341 31.6792 22.4738 31.7135 22.2849C31.7765 21.9644 31.7593 21.2487 31.6735 20.6591L31.6391 20.3958L31.9998 20.1496C32.2001 20.0122 32.4291 19.8404 32.5093 19.766C32.5894 19.6973 32.7783 19.5543 32.9329 19.4455C33.2134 19.2622 33.2192 19.2508 33.2306 18.9417C33.242 18.7127 33.2764 18.604 33.3565 18.541C34.553 17.6078 35.0396 17.1212 35.6979 16.211C36.1158 15.6328 36.7226 14.4307 36.9402 13.7609C37.7931 11.1218 37.4954 8.09916 36.1387 5.70052C34.5644 2.91833 31.5762 0.731506 28.5077 0.107516C28.1814 0.0388205 27.7921 -0.00697692 27.649 0.00447243C27.2197 0.0330958 27.2597 0.164763 27.9123 0.908971C29.5439 2.76949 30.1622 4.17203 30.1622 6.00965C30.1622 7.61828 29.6469 8.92351 28.4218 10.4005L28.0783 10.8241L27.7864 10.7898C27.5574 10.7612 27.4544 10.7783 27.2712 10.8756C27.0364 11.0016 26.5442 11.4023 26.0861 11.8374L25.8171 12.0892L25.3706 11.8889C24.6837 11.574 23.3268 11.1676 22.6628 11.0703L22.3995 11.0302L22.3365 10.681C22.262 10.3031 22.1305 10.0799 21.9129 9.97114C21.7297 9.8738 16.8751 9.86804 16.6061 9.95972C16.3829 10.0341 16.2283 10.286 16.1367 10.7096L16.0623 11.0302L15.7989 11.0703C15.1521 11.1676 13.7667 11.5912 13.0683 11.9003L12.6847 12.0721L12.3756 11.8031C12.2038 11.6485 11.889 11.3965 11.6829 11.2305C11.305 10.9386 11.2936 10.9328 10.8986 10.9272L10.4979 10.9214L10.1544 10.5207C8.74614 8.88344 8.15077 7.21184 8.33969 5.40856C8.5057 3.82283 9.16404 2.48325 10.5208 0.966216C11.1047 0.313604 11.1905 0.187662 11.0989 0.0788932C11.0017 -0.0413249 10.6296 -0.024151 9.86814 0.130415ZM21.1457 24.1511C22.3308 24.2198 23.7047 24.3286 23.6761 24.3572C23.6646 24.3687 23.0922 24.4947 22.4052 24.6435C21.0771 24.9183 20.9454 24.9641 20.9454 25.1014C20.9454 25.1529 20.9053 25.6281 20.8538 26.1605C20.7622 27.1624 20.7736 27.4142 20.9168 27.4142C20.9626 27.4142 21.3518 27.2997 21.7755 27.1566C23.241 26.6642 24.5348 26.4067 26.0576 26.3037L26.4983 26.2693V27.3455C26.4983 29.0514 26.3495 30.4197 26.0977 31.1009C25.7084 32.1313 24.4203 33.4308 23.0521 34.1636C22.1476 34.656 21.369 34.8677 20.0065 34.988C19.228 35.0566 18.9418 35.0509 17.7911 34.9136C16.3027 34.7418 14.9288 34.0663 13.7323 32.927C12.5817 31.8337 12.2439 31.1352 12.0779 29.498C11.9977 28.708 11.9405 26.4296 11.9977 26.3437C12.0321 26.2979 12.2325 26.2921 12.7591 26.3322C14.093 26.4296 15.0834 26.6299 16.5546 27.1108C17.087 27.2825 17.5564 27.4084 17.6022 27.3913C17.6594 27.3685 17.6823 27.2596 17.6823 27.002C17.6766 26.4982 17.545 25.1072 17.4934 25.027C17.4362 24.9354 17.2186 24.8782 15.9134 24.6092C15.3009 24.4831 14.7914 24.3687 14.78 24.3572C14.7513 24.3286 16.1367 24.2198 17.3675 24.1511C17.9686 24.1168 18.5697 24.0825 18.7128 24.071C19.0105 24.0481 19.7032 24.071 21.1457 24.1511Z" fill="#333333"/>
</svg>
