<svg id="Ipad_copy" data-name="Ipad copy" xmlns="http://www.w3.org/2000/svg" width="859" height="1115" viewBox="0 0 859 1115">
  <defs>
    <style>
      .cls-1, .cls-3 {
        fill: #dbdbdb;
      }

      .cls-1 {
        fill-rule: evenodd;
      }

      .cls-2 {
        fill: #ebebeb;
      }

      .cls-4 {
        fill: #cacaca;
      }

      .cls-5 {
        fill: #fff;
      }
    </style>
  </defs>
  <path id="Rounded_Rectangle_1_copy_2" data-name="Rounded Rectangle 1 copy 2" class="cls-1" d="M1179,273h-1V225h1a2,2,0,0,1,2,2v44A2,2,0,0,1,1179,273Zm0-60h-1V165h1a2,2,0,0,1,2,2v44A2,2,0,0,1,1179,213ZM1057,69a2,2,0,0,1,2-2h54a2,2,0,0,1,2,2v1h-58V69Z" transform="translate(-322 -67)"/>
  <rect id="Rectangle_1_copy" data-name="Rectangle 1 copy" class="cls-2" y="3" width="856" height="1112" rx="60" ry="60"/>
  <rect id="Rectangle_1_copy_2" data-name="Rectangle 1 copy 2" class="cls-3" x="6" y="9" width="844" height="1100" rx="53" ry="53"/>
  <circle class="cls-4" cx="428" cy="28" r="5"/>
  <rect class="cls-5" x="44" y="47" width="768" height="1024" rx="15" ry="15"/>
</svg>
