<svg id="IphoneX_copy" data-name="IphoneX copy" xmlns="http://www.w3.org/2000/svg" width="433" height="864" viewBox="0 0 433 864">
  <defs>
    <style>
      .cls-1 {
        fill: #cacaca;
      }

      .cls-1, .cls-4, .cls-5 {
        fill-rule: evenodd;
      }

      .cls-2, .cls-5 {
        fill: #dbdbdb;
      }

      .cls-3 {
        fill: #fff;
      }

      .cls-4 {
        fill: #f0f0f0;
        opacity: 0.5;
      }
    </style>
  </defs>
  <path id="Rounded_Rectangle_6" data-name="Rounded Rectangle 6" class="cls-1" d="M963,406h-1V310h1a2,2,0,0,1,2,2v92A2,2,0,0,1,963,406ZM532,426V368a2,2,0,0,1,2-2h1v62h-1A2,2,0,0,1,532,426Zm0-78V290a2,2,0,0,1,2-2h1v62h-1A2,2,0,0,1,532,348Zm0-92V228a2,2,0,0,1,2-2h1v32h-1A2,2,0,0,1,532,256Z" transform="translate(-532 -110)"/>
  <rect id="Rounded_Rectangle_2_copy" data-name="Rounded Rectangle 2 copy" class="cls-2" x="3" width="427" height="864" rx="66" ry="66"/>
  <rect id="Rounded_Rectangle_2" data-name="Rounded Rectangle 2" class="cls-3" x="29" y="26" width="375" height="812" rx="40" ry="40"/>
  <path id="Rounded_Rectangle_2_copy_3" data-name="Rounded Rectangle 2 copy 3" class="cls-4" d="M896,969H601a61,61,0,0,1-61-61V176a61,61,0,0,1,61-61H896a61,61,0,0,1,61,61V908A61,61,0,0,1,896,969Zm56-793a56,56,0,0,0-56-56H601a56,56,0,0,0-56,56V908a56,56,0,0,0,56,56H896a56,56,0,0,0,56-56V176Z" transform="translate(-532 -110)"/>
  <path id="Rounded_Rectangle_8_copy" data-name="Rounded Rectangle 8 copy" class="cls-5" d="M853,144v-2a24,24,0,0,1-24,24H667a24,24,0,0,1-24-24v2a8,8,0,0,0-8-8H861A8,8,0,0,0,853,144Z" transform="translate(-532 -110)"/>
  <path class="cls-1" d="M721,145h54a3,3,0,0,1,0,6H721A3,3,0,0,1,721,145Zm79,0a3,3,0,1,1-3,3A3,3,0,0,1,800,145Z" transform="translate(-532 -110)"/>
  <path class="cls-1" d="M593.812,159.033h2.136V147.982h-1.7c-0.241,1.619-1.594,2.149-3.083,2.1V151.7h2.646v7.329Zm9.161-.018c2.105,0,3.879-1.332,3.879-5.553,0-4.13-1.774-5.461-3.879-5.461s-3.85,1.331-3.85,5.461C599.123,157.683,600.882,159.015,602.973,159.015Zm0-1.77c-1.715,0-1.715-2.587-1.715-3.783,0-1.1-.015-3.691,1.715-3.691s1.744,2.587,1.744,3.691C604.717,154.658,604.717,157.245,602.973,157.245Zm5.852-5.124h2.36v-2.33h-2.36v2.33Zm0,5.01h2.36V154.8h-2.36v2.33Zm4.1-1.475c0.045,2.224,1.864,3.359,3.909,3.359a3.821,3.821,0,0,0,3.91-3.813c0-1.982-1.173-3.6-3.248-3.6a2.667,2.667,0,0,0-2.06.817l-0.03-.031,0.421-2.636h4.345v-1.77h-5.879l-1.038,6.086h1.925a1.742,1.742,0,0,1,1.609-.848,1.816,1.816,0,0,1,1.819,1.982,1.912,1.912,0,0,1-1.819,2.043,1.684,1.684,0,0,1-1.729-1.589h-2.135Zm9.268,3.32h7.729V157.13h-4.977c1.534-2.178,4.917-2.609,4.917-5.816A3.359,3.359,0,0,0,626.252,148c-2.526,0-3.894,1.861-3.819,4.281h2.045c0-1.119.406-2.435,1.669-2.435a1.517,1.517,0,0,1,1.579,1.634c0,1.3-1.293,1.936-2.21,2.587C623.7,155.323,622.192,156.51,622.192,158.976ZM903,150h12a1,1,0,0,1,1,1v5a1,1,0,0,1-1,1H903a1,1,0,0,1-1-1v-5A1,1,0,0,1,903,150Zm12,9H903a3,3,0,0,1-3-3v-5a3,3,0,0,1,3-3h12a3,3,0,0,1,3,3v5A3,3,0,0,1,915,159Zm2-8a2,2,0,0,0-2-2H903a2,2,0,0,0-2,2v5a2,2,0,0,0,2,2h12a2,2,0,0,0,2-2v-5Zm2,5v-5a1,1,0,0,1,1,1v3A1,1,0,0,1,919,156Zm-49-8h1a1,1,0,0,1,1,1v9a1,1,0,0,1-1,1h-1a1,1,0,0,1-1-1v-9A1,1,0,0,1,870,148Zm-4,2h1a1,1,0,0,1,1,1v7a1,1,0,0,1-1,1h-1a1,1,0,0,1-1-1v-7A1,1,0,0,1,866,150Zm-4,2h1a1,1,0,0,1,1,1v5a1,1,0,0,1-1,1h-1a1,1,0,0,1-1-1v-5A1,1,0,0,1,862,152Zm-4,2h1a1,1,0,0,1,1,1v3a1,1,0,0,1-1,1h-1a1,1,0,0,1-1-1v-3A1,1,0,0,1,858,154Zm34.364-.364a9,9,0,0,0-12.728,0l-2.121-2.121a12,12,0,0,1,16.97,0ZM886,152a7.975,7.975,0,0,1,5.657,2.343l-2.121,2.121a5,5,0,0,0-7.072,0l-2.121-2.121A7.975,7.975,0,0,1,886,152Zm0,4a3.984,3.984,0,0,1,2.828,1.172L886,160l-2.828-2.828A3.984,3.984,0,0,1,886,156Z" transform="translate(-532 -110)"/>
</svg>
