<svg width="51" height="50" viewBox="0 0 51 50" fill="none" xmlns="http://www.w3.org/2000/svg">
<g clip-path="url(#clip0_127_1182)">
<path d="M13.2646 41.9199C10.6963 37.1305 11.7658 32.6844 13.2101 29.6879L13.2204 29.6667L13.2176 29.6433C13.1065 28.7169 13.0283 27.8112 12.9824 26.9255L12.9692 26.671L12.8334 26.8867C10.7456 30.2017 7.8455 36.9196 12.5007 44.0194L12.5007 44.0195C12.6607 44.263 12.9336 44.4102 13.2261 44.4106H13.2262H13.2273C13.5197 44.4106 13.7923 44.2642 13.9527 44.021L13.9527 44.021L16.0043 40.9089L16.0269 40.8747L16.0125 40.8362C15.7787 40.2112 15.5624 39.5937 15.3579 38.9817L15.3053 38.8242L15.2139 38.9628L13.2646 41.9199Z" fill="#438BE3" stroke="#438BE3" stroke-width="0.161515"/>
<path d="M37.625 29.6454L37.7028 29.6537L37.6327 29.6875C39.077 32.6841 40.1468 37.1303 37.5786 41.9204L35.6292 38.9637L35.5378 38.8251L35.4852 38.9826C35.2808 39.5946 35.0644 40.2121 34.8306 40.8371L34.8162 40.8755L34.8388 40.9098L36.8904 44.0219L36.9579 43.9774L36.8904 44.0219C37.0508 44.2651 37.3234 44.4115 37.6159 44.4115H37.6169H37.617C37.9095 44.4111 38.1824 44.2639 38.3424 44.0203L38.3425 44.0203C42.998 36.9201 40.0971 30.2015 38.0094 26.8866L37.8737 26.6713L37.8604 26.9254C37.8184 27.7225 37.7509 28.5362 37.6573 29.3665L37.6519 29.3552L37.625 29.645L37.625 29.6454Z" fill="#438BE3" stroke="#438BE3" stroke-width="0.161515"/>
<path d="M18.4698 43.0496H19.0425V47.6563C19.0425 48.1328 19.4314 48.5183 19.9098 48.5183C20.3882 48.5183 20.7771 48.1328 20.7771 47.6563V43.0496H24.5482V49.2188C24.5482 49.6953 24.937 50.0808 25.4155 50.0808C25.8939 50.0808 26.2827 49.6953 26.2827 49.2188V43.0496H29.6606V47.6563C29.6606 48.1328 30.0494 48.5183 30.5279 48.5183C31.0063 48.5183 31.3951 48.1328 31.3951 47.6563V43.0496H32.3611H32.4143L32.4353 43.0008C38.1774 29.6792 36.9909 19.3598 34.1017 12.1517C31.2167 4.95421 26.6369 0.865339 25.5794 -0.0125264C25.5359 -0.0566841 25.4765 -0.0807577 25.4155 -0.0807577C25.3545 -0.0807577 25.2951 -0.0566887 25.2516 -0.0125276C24.1941 0.865256 19.6144 4.95413 16.7296 12.1516C13.8404 19.3598 12.654 29.6792 18.3957 43.0008L18.4167 43.0496H18.4698ZM18.4704 38.2005L18.4684 38.2006C18.4466 38.2011 18.4248 38.2024 18.4029 38.2045C15.2786 29.0176 15.2561 20.487 18.341 12.7898L18.3411 12.7896C19.9305 8.79831 22.3401 5.18023 25.4157 2.1665C28.4913 5.18058 30.901 8.79867 32.4903 12.7896L32.4904 12.7898C35.575 20.4859 35.5524 29.0156 32.4299 38.2003L18.4704 38.2005ZM31.8097 39.9246C31.6337 40.3902 31.4518 40.8569 31.26 41.3256H19.5718C19.3799 40.8568 19.198 40.3902 19.022 39.9246H31.8097Z" fill="#438BE3" stroke="#438BE3" stroke-width="0.161515"/>
<path d="M25.0409 1.52654C19.7077 12.9577 20.6537 28.3866 21.4625 35.4001C21.5623 36.2657 20.342 36.7427 19.85 36.0235L15.7435 30.02C15.5054 29.672 15.3603 29.2613 15.3326 28.8407C14.1201 10.4526 25.3376 0.890563 25.0409 1.52654Z" fill="#438BE3" fill-opacity="0.26"/>
<path d="M12.8362 29.9945C10.4326 34.8037 11.2262 38.1919 12.2766 40.1583C12.65 40.8572 13.4109 40.4533 13.2813 39.6717C12.5053 34.9906 12.9346 29.7976 12.8362 29.9945Z" fill="#438BE3" fill-opacity="0.26"/>
<path d="M37.7488 29.4861C40.8041 34.3755 39.6361 37.979 38.2178 40.0762C37.7585 40.7553 36.9754 40.2294 37.176 39.4345C38.4307 34.4618 37.6325 29.2998 37.7488 29.4861Z" fill="#438BE3" fill-opacity="0.26"/>
</g>
<defs>
<clipPath id="clip0_127_1182">
<rect width="50" height="50" fill="white" transform="translate(0.520508)"/>
</clipPath>
</defs>
</svg>
