<svg width="51" height="50" viewBox="0 0 51 50" fill="none" xmlns="http://www.w3.org/2000/svg">
<path d="M16.2841 2.00065C14.4279 2.00065 12.9048 3.49085 12.9048 5.3079C12.9048 6.84877 14.0054 8.14039 15.4705 8.5005V15.917H14.2155C14.1876 15.9156 14.1594 15.9156 14.1316 15.917C13.717 15.9577 13.4015 16.2994 13.4019 16.7069V19.4409H9.16989C8.80306 18.0038 7.47645 16.9239 5.8998 16.9239C4.04354 16.9239 2.52051 18.4141 2.52051 20.2311C2.52051 22.0478 4.04317 23.5398 5.8998 23.5398C7.4746 23.5398 8.79944 22.462 9.16804 21.0274L13.4019 21.027V28.9721H9.16989C8.8027 27.536 7.47645 26.4611 5.8998 26.4611C4.04354 26.4611 2.52051 27.9454 2.52051 29.7621C2.52051 31.5787 4.04317 33.0708 5.8998 33.0708C7.4746 33.0708 8.79944 31.993 9.16804 30.5583H13.4019V33.2877V33.2874C13.4012 33.4988 13.4865 33.702 13.6392 33.8514C13.7922 34.0008 13.9995 34.0844 14.2155 34.0837H15.4705V41.4927C14.005 41.8542 12.9048 43.1504 12.9048 44.6913C12.9048 46.508 14.4275 48 16.2841 48C18.1404 48 19.6588 46.508 19.6588 44.6913C19.6588 43.1483 18.5601 41.8503 17.0931 41.4909V34.0836H25.2095V41.4926C23.744 41.8541 22.6438 43.1503 22.6438 44.6912C22.6438 46.5079 24.1665 47.9999 26.0231 47.9999C27.8794 47.9999 29.4039 46.5079 29.4039 44.6912C29.4039 43.1483 28.3005 41.8502 26.832 41.4908V34.0835H34.9484V41.4925C33.4832 41.854 32.3827 43.1502 32.3827 44.6911C32.3827 46.5078 33.9072 47.9998 35.7635 47.9998C37.6197 47.9998 39.1428 46.5078 39.1428 44.6911C39.1428 43.1482 38.0394 41.8501 36.5709 41.4907V34.0834H37.8324H37.8317C38.2795 34.0816 38.6406 33.7251 38.6391 33.2871V30.5577H42.8777C43.2449 31.9927 44.566 33.0701 46.1412 33.0701C47.9975 33.0701 49.5205 31.5781 49.5205 29.7614C49.5205 27.9447 47.9978 26.4605 46.1412 26.4605C44.5643 26.4605 43.2416 27.5354 42.8758 28.9715L38.6391 28.9719V21.0268H42.8777C43.2449 22.4618 44.566 23.5392 46.1412 23.5392C47.9975 23.5392 49.5205 22.0472 49.5205 20.2305C49.5205 18.4138 47.9978 16.9232 46.1412 16.9232C44.5643 16.9232 43.2416 18.0031 42.8758 19.4403H38.6388V16.7063L38.6391 16.7066C38.6373 16.2711 38.277 15.9185 37.8316 15.9167H36.5705V8.50303C38.0393 8.14543 39.1424 6.85068 39.1424 5.30727C39.1424 3.49058 37.6197 2.00002 35.7631 2.00002C33.9069 2.00002 32.3823 3.49022 32.3823 5.30727C32.3823 6.84814 33.4825 8.13975 34.948 8.49986V15.9163L26.8316 15.9167V8.50303C28.3004 8.14543 29.4035 6.85067 29.4035 5.30726C29.4035 3.49057 27.879 2.00001 26.0227 2.00001C24.1665 2.00001 22.6435 3.49021 22.6435 5.30726C22.6435 6.84813 23.7436 8.13974 25.2091 8.49985V15.9163L17.0931 15.9167V8.50302C18.5605 8.14506 19.6588 6.85066 19.6588 5.30725C19.6588 3.49057 18.1408 2 16.2841 2L16.2841 2.00065ZM16.2841 3.58684C17.2645 3.58684 18.0442 4.34842 18.0442 5.3079C18.0442 6.26741 17.2645 7.02407 16.2841 7.02407C15.3037 7.02407 14.5256 6.26744 14.5256 5.3079C14.5256 4.34839 15.3037 3.58684 16.2841 3.58684ZM26.0225 3.58684C27.0029 3.58684 27.7825 4.34842 27.7825 5.3079C27.7825 6.26741 27.0029 7.02407 26.0225 7.02407C25.042 7.02407 24.2639 6.26744 24.2639 5.3079C24.2639 4.34839 25.0421 3.58684 26.0225 3.58684ZM35.7626 3.58684C36.7431 3.58684 37.5212 4.34842 37.5212 5.3079C37.5212 6.26741 36.743 7.02407 35.7626 7.02407C34.7822 7.02407 34.0026 6.26744 34.0026 5.3079C34.0026 4.34839 34.7822 3.58684 35.7626 3.58684ZM15.0218 17.5036H37.0176V32.4963H15.0218V17.5036ZM5.89898 18.5105C6.87939 18.5105 7.65753 19.2718 7.65753 20.2316C7.65753 21.1911 6.87936 21.9527 5.89898 21.9527C4.91857 21.9527 4.14043 21.1914 4.14043 20.2316C4.14043 19.2721 4.91823 18.5105 5.89898 18.5105ZM46.1406 18.5105C47.121 18.5105 47.8991 19.2718 47.8991 20.2316C47.8991 21.1911 47.1209 21.9527 46.1406 21.9527C45.1602 21.9527 44.3885 21.1914 44.3885 20.2316C44.3885 19.2721 45.1602 18.5105 46.1406 18.5105ZM19.1844 20.9054L19.1848 20.9051C18.7369 20.9068 18.3759 21.2634 18.3773 21.7013V28.2985C18.3784 28.7347 18.7391 29.0884 19.1848 29.0902H32.8555H32.8551C33.0704 29.0909 33.2773 29.0081 33.4296 28.8594C33.5823 28.711 33.6684 28.5092 33.6687 28.2985V21.7013C33.6695 21.49 33.5841 21.2871 33.4314 21.1377C33.2788 20.9879 33.0715 20.9043 32.8551 20.9051L19.1844 20.9054ZM19.998 22.4912H32.0462V27.5022L19.998 27.5026V22.4912ZM5.89853 28.0415C6.87894 28.0415 7.65708 28.8027 7.65708 29.7625C7.65708 30.722 6.87891 31.4836 5.89853 31.4836C4.91812 31.4836 4.13998 30.7223 4.13998 29.7625C4.13998 28.803 4.91779 28.0415 5.89853 28.0415ZM46.1401 28.0415C47.1205 28.0415 47.8987 28.8027 47.8987 29.7625C47.8987 30.722 47.1205 31.4836 46.1401 31.4836C45.1597 31.4836 44.3881 30.7223 44.3881 29.7625C44.3881 28.803 45.1597 28.0415 46.1401 28.0415ZM16.2833 42.9707C17.2637 42.9707 18.0433 43.7319 18.0433 44.6917C18.0433 45.6512 17.2637 46.4128 16.2833 46.4128C15.3029 46.4128 14.5248 45.6516 14.5248 44.6917C14.5248 43.7322 15.3029 42.9707 16.2833 42.9707ZM26.0216 42.9707C27.0021 42.9707 27.7817 43.7319 27.7817 44.6917C27.7817 45.6512 27.0021 46.4128 26.0216 46.4128C25.0412 46.4128 24.2631 45.6516 24.2631 44.6917C24.2631 43.7322 25.0413 42.9707 26.0216 42.9707ZM35.7618 42.9707C36.7422 42.9707 37.5204 43.7319 37.5204 44.6917C37.5204 45.6512 36.7422 46.4128 35.7618 46.4128C34.7814 46.4128 34.0018 45.6516 34.0018 44.6917C34.0018 43.7322 34.7814 42.9707 35.7618 42.9707Z" fill="#438BE3"/>
<path d="M30.0046 18H35.5205C36.0728 18 36.5205 18.4477 36.5205 19V31C36.5205 31.5523 36.0728 32 35.5205 32C34.9682 32 34.5205 31.5523 34.5205 31V21C34.5205 20.4477 34.0728 20 33.5205 20H25.0205C24.4682 20 24.0205 19.5523 24.0205 19C24.0205 18.4477 24.4682 18 25.0205 18H30.0046Z" fill="#438BE3" fill-opacity="0.26"/>
<path d="M22.0364 32H16.5205C15.9682 32 15.5205 31.5523 15.5205 31V19C15.5205 18.4477 15.9682 18 16.5205 18C17.0728 18 17.5205 18.4477 17.5205 19V29C17.5205 29.5523 17.9682 30 18.5205 30H27.0205C27.5728 30 28.0205 30.4477 28.0205 31C28.0205 31.5523 27.5728 32 27.0205 32H22.0364Z" fill="#438BE3" fill-opacity="0.26"/>
</svg>
