<svg width="51" height="50" viewBox="0 0 51 50" fill="none" xmlns="http://www.w3.org/2000/svg">
<path d="M26.0219 6.1531C29.3568 6.1531 32.3813 7.53228 34.5719 9.76058C36.7627 11.9858 38.1174 15.0631 38.1174 18.461C38.1174 21.8534 36.7623 24.9296 34.5738 27.1587C32.0288 29.4889 29.5235 30.7686 26.0218 30.7686C22.6878 30.7686 19.6644 29.3898 17.4737 27.163C15.1836 24.5734 13.9259 22.0243 13.9259 18.4614C13.9259 15.0635 15.281 11.9861 17.4695 9.75899C19.9322 7.43615 22.6127 6.1534 26.0214 6.1534L26.0219 6.1531ZM17.7046 34.3419L13.0569 42.5343L16.6057 41.7429C17.177 41.6178 17.7414 41.9727 17.8904 42.5416L18.9473 45.9787L24.2665 36.604C23.8217 36.4385 23.392 36.2083 22.9884 35.9142L21.7094 34.981C21.4379 34.7833 21.1652 34.6384 20.8852 34.5458C20.5977 34.4512 20.2938 34.4036 19.97 34.4013L18.397 34.3908C18.1624 34.3896 17.9309 34.3726 17.7042 34.3416L17.7046 34.3419ZM25.9739 38.0203L19.6267 49.206C19.4995 49.471 19.2702 49.6838 18.972 49.7783C18.3973 49.9601 17.7852 49.6338 17.6066 49.0494L16.0938 44.1305L11.1105 45.2415C10.8557 45.2934 10.5811 45.2574 10.3385 45.1156C9.81827 44.8117 9.63888 44.1347 9.93748 43.6049L15.6261 33.578C15.5351 33.5195 15.4467 33.4587 15.3599 33.3943C14.5067 32.7623 13.8452 31.8582 13.4883 30.7638L12.9925 29.2439C12.8904 28.9316 12.7514 28.6514 12.5727 28.4006C12.3979 28.1553 12.1785 27.936 11.9161 27.738L10.6482 26.7893C9.7368 26.1061 9.0954 25.1869 8.76907 24.1654C8.44799 23.052 8.42591 22.0367 8.77364 20.9225L9.27333 19.3181C9.35522 19.0321 9.39635 18.7484 9.39635 18.4605C9.39635 18.1559 9.34531 17.8462 9.2459 17.5269L8.74469 15.9047C8.43238 14.8398 8.45332 13.7516 8.76868 12.761C9.09509 11.734 9.73684 10.8148 10.6478 10.1316L11.915 9.18215C12.1789 8.98451 12.3975 8.76479 12.572 8.52064C12.7506 8.26991 12.89 7.98972 12.9917 7.67737L13.4876 6.15752C13.8456 5.06157 14.506 4.15749 15.3595 3.52693C16.2115 2.89681 17.2608 2.53756 18.3942 2.53099L19.9672 2.52052C20.2902 2.51859 20.5934 2.47053 20.8817 2.37559C21.1624 2.28258 21.4355 2.13727 21.7066 1.9404L22.9875 1.00606C23.9073 0.336026 24.9635 0 26.0203 0C27.078 0 28.1337 0.33676 29.0531 1.00646L30.3835 1.97955C30.6345 2.15471 30.8912 2.28725 31.1566 2.37444C31.4442 2.469 31.7485 2.51744 32.0719 2.51899L33.646 2.53022C34.7799 2.53681 35.8284 2.89721 36.6815 3.52696C37.5354 4.15825 38.1951 5.0616 38.5531 6.15755L39.049 7.67741C39.151 7.98975 39.2901 8.26994 39.4687 8.52067C39.6435 8.76481 39.8621 8.98454 40.1257 9.18218L41.3928 10.1316C42.3042 10.8148 42.9456 11.734 43.272 12.7564C43.593 13.8698 43.6151 14.8851 43.2674 15.9993L42.7677 17.6036C42.6858 17.8896 42.6447 18.1733 42.6447 18.4605C42.6447 18.7662 42.6957 19.0755 42.7951 19.3948L43.2963 21.017C43.6086 22.0819 43.5877 23.1701 43.2723 24.1607C42.9459 25.1869 42.3042 26.1061 41.3932 26.7893L40.0983 27.7585C39.8473 27.9515 39.6378 28.1639 39.4687 28.4011C39.2901 28.6518 39.1507 28.932 39.049 29.2443L38.5531 30.7646C38.1951 31.8597 37.5347 32.7638 36.6816 33.3948C36.5726 33.475 36.461 33.5509 36.3464 33.6226L42.1054 43.7725C42.4067 44.3019 42.2292 44.9813 41.7089 45.2877C41.4652 45.4315 41.1887 45.4683 40.9331 45.4118L35.9487 44.3026L34.4363 49.2207C34.2577 49.8055 33.6456 50.1314 33.0709 49.9497C32.7731 49.8551 32.5434 49.6427 32.4162 49.3773L25.9723 38.021L25.9739 38.0203ZM27.6969 36.6326L33.0972 46.1492L34.1538 42.7133C34.3027 42.1444 34.8671 41.7895 35.4384 41.9146L38.9854 42.7052L34.246 34.3531C34.0498 34.3768 33.8499 34.3892 33.6477 34.3907L32.0747 34.4012C31.7509 34.4031 31.447 34.4512 31.1594 34.5457C30.8795 34.6383 30.606 34.7833 30.3345 34.9809L29.0552 35.9141C28.6275 36.2256 28.1704 36.4652 27.6969 36.6326ZM29.0627 3.74633L27.7826 2.81277C27.2448 2.42098 26.6301 2.22334 26.0215 2.22334C25.4114 2.22334 24.7982 2.4202 24.2605 2.81199L22.9796 3.74633C22.5302 4.07379 22.0594 4.31987 21.5574 4.48573C21.0634 4.64849 20.5397 4.73066 19.9776 4.73452L18.4046 4.74499C17.7457 4.74809 17.1355 4.95774 16.64 5.32357C16.1453 5.68901 15.761 6.21527 15.5534 6.85196L15.0575 8.37181C14.88 8.91513 14.6424 9.39603 14.3384 9.82272C14.0303 10.2544 13.6536 10.6346 13.2042 10.971L11.9371 11.9204C11.405 12.3188 11.0317 12.8528 10.8432 13.4426C10.6619 14.0115 10.6486 14.639 10.8257 15.2555L11.328 16.8586C11.4956 17.3981 11.5813 17.9282 11.5813 18.4603C11.5813 18.9545 11.5051 19.4544 11.3524 19.9694L10.8519 21.5889C10.652 22.2147 10.6539 22.8553 10.8287 23.4366C11.05 24.0907 11.3848 24.5868 11.9366 25.0003L13.2038 25.9497C13.6558 26.2904 14.031 26.6682 14.338 27.0988C14.6419 27.5254 14.8796 28.0064 15.0571 28.5497L15.5529 30.0695C15.7601 30.7055 16.1444 31.2318 16.6388 31.5979C17.1347 31.9641 17.7457 32.1734 18.4053 32.1773L19.9782 32.1877C20.5408 32.1916 21.0649 32.273 21.5588 32.4358C22.0604 32.6012 22.5301 32.8473 22.9802 33.1752L24.2592 34.1083C24.7977 34.5013 25.4108 34.6978 26.021 34.6978C26.6312 34.6978 27.2444 34.5017 27.7829 34.1083L29.0622 33.1752C29.5124 32.8469 29.9823 32.6008 30.4843 32.4358C30.9783 32.273 31.5027 32.1916 32.0649 32.1877L33.6379 32.1773C33.8901 32.1753 34.2149 32.1393 34.4549 32.0618C34.8026 31.9587 35.1088 31.8149 35.4029 31.5979C35.8968 31.2325 36.2811 30.707 36.4887 30.0703L36.9846 28.5501C37.1621 28.0067 37.3998 27.5258 37.7037 27.0992C38.0023 26.681 38.3649 26.3125 38.796 25.9835L40.1051 25.0007C40.6364 24.6023 41.01 24.0695 41.1989 23.4789C41.3802 22.91 41.3936 22.2825 41.2164 21.666L40.7141 20.0628C40.5465 19.5234 40.4608 18.9925 40.4608 18.4604C40.4608 17.9663 40.537 17.4668 40.6897 16.9518L41.1902 15.3323C41.3901 14.7065 41.3882 14.0659 41.2134 13.4846C40.9921 12.8297 40.6581 12.3336 40.1055 11.9201L38.8384 10.9707C38.3889 10.6339 38.0123 10.2541 37.7041 9.82242C37.4002 9.39575 37.1625 8.91484 36.9851 8.37152L36.4892 6.85166C36.2816 6.21533 35.8973 5.68905 35.4033 5.32327C34.9074 4.95705 34.2972 4.74701 33.6383 4.74392L32.0642 4.73268C31.5024 4.72958 30.9783 4.6482 30.4836 4.48466C29.9347 4.30369 29.5386 4.06535 29.063 3.74564L29.0627 3.74633ZM33.0295 11.328C31.2398 9.50423 28.7607 8.37654 26.0215 8.37654C23.3063 8.37654 20.8475 9.48488 19.062 11.2776C17.1587 13.3427 16.111 15.5861 16.111 18.4616C16.111 21.2491 17.2197 23.7715 19.0097 25.5921C20.8033 27.4177 23.2822 28.5455 26.0218 28.5455C28.7614 28.5455 31.2404 27.4174 33.0298 25.5961C34.824 23.7712 35.9324 21.2488 35.9324 18.4613C35.9324 15.6757 34.8225 13.1541 33.0298 11.3281L33.0295 11.328Z" fill="#438BE3"/>
<path d="M26.5205 7.5C12.5205 8.5 12.0205 25.5 26.5205 30C18.2138 21 22.5205 9.5 26.5205 7.5Z" fill="#438BE3" fill-opacity="0.26"/>
<path d="M34.5205 33.0001C34.5205 33.0001 39.894 41.3744 40.5205 43.5001H35.5209L30.0205 34.0001L34.5205 33.0001Z" fill="#438BE3" fill-opacity="0.26"/>
</svg>
