<svg width="51" height="50" viewBox="0 0 51 50" fill="none" xmlns="http://www.w3.org/2000/svg">
<path d="M25.3029 40.5822C26.6846 36.7283 29.021 33.6282 31.3466 30.5442C34.7195 26.0717 38.0678 21.6307 38.0678 15.0169C38.0678 11.4358 36.6387 8.1926 34.3293 5.84664C32.0202 3.50095 28.8284 2.04879 25.3023 2.04879C21.7764 2.04879 18.5839 3.50058 16.2753 5.84664C13.9662 8.19233 12.5367 11.4348 12.5367 15.0169C12.5367 21.6309 15.8857 26.0716 19.2579 30.5452C21.5835 33.6294 23.92 36.7291 25.3023 40.5822H25.3029ZM28.4459 43.3786C27.9263 43.1779 27.6654 42.5865 27.863 42.0586C28.0605 41.5307 28.6427 41.2657 29.1624 41.4664C30.0648 41.8161 30.8204 42.2936 31.3572 42.856C31.9598 43.4878 32.2991 44.2264 32.2991 45.0318C32.2991 46.3296 31.4216 47.45 30.0055 48.2104C28.7838 48.8664 27.1188 49.2729 25.3023 49.2729C23.4861 49.2729 21.8204 48.8664 20.5991 48.2104C19.183 47.4504 18.3055 46.3297 18.3055 45.0318C18.3055 43.8175 19.0747 42.7593 20.3364 42.0047C21.1348 41.5268 22.1519 41.1629 23.2928 40.9639C21.9843 37.52 19.8162 34.645 17.6597 31.7845C14.0779 27.0331 10.5205 22.3162 10.5205 15.0165C10.5205 10.8704 12.1761 7.11579 14.8507 4.3989C17.5253 1.68201 21.222 0 25.3033 0C29.3845 0 33.0805 1.68183 35.755 4.3989C38.4294 7.11598 40.0851 10.8714 40.0851 15.0165C40.0851 22.3154 36.5283 27.033 32.946 31.7836C30.04 35.6382 27.1146 39.5183 26.2965 44.782C26.2336 45.2127 25.9017 45.5706 25.4566 45.6402C24.9089 45.7259 24.3953 45.3445 24.3109 44.7881C24.2121 44.1495 24.0817 43.5313 23.9239 42.931C22.904 43.0724 22.0149 43.367 21.3522 43.7642C20.7124 44.1463 20.3225 44.5952 20.3225 45.0317C20.3225 45.5106 20.7873 45.9999 21.5364 46.402C22.4811 46.9095 23.8121 47.2238 25.3028 47.2238C26.7934 47.2238 28.1244 46.9095 29.0691 46.402C29.8179 45.9998 30.283 45.5106 30.283 45.0317C30.283 44.7838 30.1501 44.5259 29.9163 44.2806C29.5855 43.9334 29.0789 43.6231 28.4464 43.3784L28.4459 43.3786ZM25.3022 8.10182C27.1809 8.10182 28.8835 8.87646 30.1151 10.1275C31.3467 11.3785 32.1091 13.1083 32.1091 15.0168C32.1091 16.9254 31.3466 18.655 30.1151 19.9062C28.8836 21.1573 27.1809 21.9318 25.3022 21.9318C23.4234 21.9318 21.7208 21.1572 20.4892 19.9062C19.2577 18.6551 18.4952 16.9254 18.4952 15.0168C18.4952 13.1083 19.2577 11.3786 20.4892 10.1275C21.7207 8.8764 23.4234 8.10182 25.3022 8.10182ZM28.6899 11.5754C27.8236 10.6954 26.6254 10.1507 25.3022 10.1507C23.9789 10.1507 22.7804 10.6957 21.9145 11.5754C21.0482 12.4554 20.5121 13.6726 20.5121 15.0168C20.5121 16.3611 21.0486 17.5787 21.9145 18.4583C22.7807 19.3383 23.9789 19.8829 25.3022 19.8829C26.6254 19.8829 27.824 19.3379 28.6899 18.4583C29.5561 17.5783 30.0922 16.3611 30.0922 15.0168C30.0922 13.6726 29.5558 12.455 28.6899 11.5754Z" fill="#438BE3"/>
<path d="M25.0205 2C41.0205 2.00003 45.5205 19 25.0205 41C43.5205 8 27.5205 5.5 25.0205 2Z" fill="#438BE3" fill-opacity="0.26"/>
</svg>
