<svg width="29" height="26" viewBox="0 0 29 26" fill="none" xmlns="http://www.w3.org/2000/svg">
<g clip-path="url(#clip0_1002_1443)">
<path d="M26.825 17.0777C26.8244 17.5284 26.6444 17.9605 26.3245 18.2792C26.0046 18.5979 25.5708 18.7772 25.1184 18.7778H3.88165C3.42919 18.7772 2.99544 18.5979 2.6755 18.2792C2.35557 17.9605 2.17558 17.5284 2.175 17.0777V3.8675C2.17558 3.41671 2.35554 2.98454 2.67546 2.66572C2.99537 2.34689 3.42913 2.16743 3.88165 2.16667H25.1184C25.5709 2.16743 26.0046 2.34689 26.3245 2.66572C26.6445 2.98454 26.8244 3.41671 26.825 3.8675V17.0777ZM25.1184 0H3.88165C2.85246 0.00133806 1.86582 0.409258 1.13814 1.13429C0.410456 1.85931 0.00115099 2.84225 0 3.8675V17.0777C0.00115136 18.1028 0.410479 19.0857 1.13818 19.8106C1.86588 20.5355 2.85253 20.9433 3.88165 20.9444H13.4125V23.8333H7.975C7.68658 23.8333 7.40997 23.9475 7.20602 24.1506C7.00208 24.3538 6.8875 24.6293 6.8875 24.9167C6.8875 25.204 7.00208 25.4795 7.20602 25.6827C7.40997 25.8859 7.68658 26 7.975 26H21.025C21.3134 26 21.59 25.8859 21.794 25.6827C21.9979 25.4795 22.1125 25.204 22.1125 24.9167C22.1125 24.6293 21.9979 24.3538 21.794 24.1506C21.59 23.9475 21.3134 23.8333 21.025 23.8333H15.5875V20.9444H25.1184C26.1475 20.9433 27.1341 20.5355 27.8618 19.8106C28.5895 19.0857 28.9988 18.1028 29 17.0777V3.8675C28.9988 2.84225 28.5895 1.85931 27.8619 1.13429C27.1342 0.409258 26.1475 0.00133806 25.1184 0Z" fill="black"/>
</g>
<defs>
<clipPath id="clip0_1002_1443">
<rect width="29" height="26" fill="white"/>
</clipPath>
</defs>
</svg>
