<svg width="16" height="26" viewBox="0 0 16 26" fill="none" xmlns="http://www.w3.org/2000/svg">
<g clip-path="url(#clip0_1002_1447)">
<path d="M11.8111 25.803H4.22843C2.01009 25.803 0.195074 23.9078 0.195074 21.5915V4.40844C0.195074 2.09211 2.01009 0.196922 4.22843 0.196922H11.7708C13.9892 0.196922 15.8042 2.09211 15.8042 4.40844V21.5915C15.8445 23.9078 14.0295 25.803 11.8111 25.803ZM4.22843 1.54461C2.69576 1.54461 1.48575 2.85018 1.48575 4.40844V21.5915C1.48575 23.1918 2.73609 24.4553 4.22843 24.4553H11.7708C13.3035 24.4553 14.5135 23.1497 14.5135 21.5915V4.40844C14.5135 2.80807 13.2632 1.54461 11.7708 1.54461H4.22843Z" fill="black"/>
<path fill-rule="evenodd" clip-rule="evenodd" d="M11.8112 26H4.22848C1.89621 26 0 24.0103 0 21.5915V4.40849C0 1.9897 1.89621 0 4.22848 0H11.7709C14.1031 0 15.9993 1.9897 15.9993 4.40849V21.5898C16.0406 24.0111 14.1424 26 11.8112 26ZM15.8042 21.5915V4.40844C15.8042 2.09211 13.9892 0.196922 11.7708 0.196922H4.22843C2.01009 0.196922 0.195074 2.09211 0.195074 4.40844V21.5915C0.195074 23.9078 2.01009 25.803 4.22843 25.803H11.8111C14.0295 25.803 15.8445 23.9078 15.8042 21.5915ZM4.22848 1.74163C2.81156 1.74163 1.68092 2.95076 1.68092 4.40849V21.5915C1.68092 23.0875 2.84822 24.2584 4.22848 24.2584H11.7709C13.1878 24.2584 14.3184 23.0492 14.3184 21.5915V4.40849C14.3184 2.91248 13.1511 1.74163 11.7709 1.74163H4.22848ZM1.48575 4.40844C1.48575 2.85018 2.69576 1.54461 4.22843 1.54461H11.7708C13.2632 1.54461 14.5135 2.80807 14.5135 4.40844V21.5915C14.5135 23.1497 13.3035 24.4553 11.7708 24.4553H4.22843C2.73609 24.4553 1.48575 23.1918 1.48575 21.5915V4.40844Z" fill="black"/>
<path d="M8.01958 23.7813C8.50964 23.7813 8.90692 23.3665 8.90692 22.8548C8.90692 22.3431 8.50964 21.9283 8.01958 21.9283C7.52952 21.9283 7.13224 22.3431 7.13224 22.8548C7.13224 23.3665 7.52952 23.7813 8.01958 23.7813Z" fill="black"/>
<path fill-rule="evenodd" clip-rule="evenodd" d="M9.10209 22.8548C9.10209 23.469 8.62362 23.9784 8.01963 23.9784C7.41564 23.9784 6.93717 23.469 6.93717 22.8548C6.93717 22.2407 7.41564 21.7313 8.01963 21.7313C8.62362 21.7313 9.10209 22.2407 9.10209 22.8548ZM8.90692 22.8548C8.90692 23.3665 8.50964 23.7813 8.01958 23.7813C7.52952 23.7813 7.13224 23.3665 7.13224 22.8548C7.13224 22.3431 7.52952 21.9283 8.01958 21.9283C8.50964 21.9283 8.90692 22.3431 8.90692 22.8548Z" fill="black"/>
<path d="M8.46313 3.187H5.39778C5.11544 3.187 4.91378 2.97643 4.91378 2.68162C4.91378 2.38681 5.11544 2.17624 5.39778 2.17624H8.46313C8.74547 2.17624 8.94714 2.38681 8.94714 2.68162C8.94714 2.97643 8.74547 3.187 8.46313 3.187Z" fill="black"/>
<path fill-rule="evenodd" clip-rule="evenodd" d="M8.46318 3.38402H5.39783C5.00157 3.38402 4.7187 3.07893 4.7187 2.68167C4.7187 2.2844 5.00157 1.97931 5.39783 1.97931H8.46318C8.85944 1.97931 9.14231 2.2844 9.14231 2.68167C9.14231 3.07893 8.85944 3.38402 8.46318 3.38402ZM5.39778 3.187H8.46313C8.74547 3.187 8.94714 2.97643 8.94714 2.68162C8.94714 2.38681 8.74547 2.17624 8.46313 2.17624H5.39778C5.11544 2.17624 4.91378 2.38681 4.91378 2.68162C4.91378 2.97643 5.11544 3.187 5.39778 3.187Z" fill="black"/>
<path d="M10.8832 3.187H10.1572C9.87488 3.187 9.67321 2.97643 9.67321 2.68162C9.67321 2.38681 9.87488 2.17624 10.1572 2.17624H10.8832C11.1656 2.17624 11.3672 2.38681 11.3672 2.68162C11.3672 2.97643 11.1656 3.187 10.8832 3.187Z" fill="black"/>
<path fill-rule="evenodd" clip-rule="evenodd" d="M10.8833 3.38402H10.1573C9.761 3.38402 9.47814 3.07893 9.47814 2.68167C9.47814 2.2844 9.761 1.97931 10.1573 1.97931H10.8833C11.2795 1.97931 11.5624 2.2844 11.5624 2.68167C11.5624 3.07893 11.2795 3.38402 10.8833 3.38402ZM10.1572 3.187H10.8832C11.1656 3.187 11.3672 2.97643 11.3672 2.68162C11.3672 2.38681 11.1656 2.17624 10.8832 2.17624H10.1572C9.87488 2.17624 9.67321 2.38681 9.67321 2.68162C9.67321 2.97643 9.87488 3.187 10.1572 3.187Z" fill="black"/>
</g>
<defs>
<clipPath id="clip0_1002_1447">
<rect width="16" height="26" fill="white"/>
</clipPath>
</defs>
</svg>
