<svg width="23" height="26" viewBox="0 0 23 26" fill="none" xmlns="http://www.w3.org/2000/svg">
<g clip-path="url(#clip0_1002_1445)">
<path fill-rule="evenodd" clip-rule="evenodd" d="M2.07901 1.81395C2.01942 1.81395 1.94132 1.86799 1.94132 1.95854V24.0415C1.94132 24.132 2.01942 24.186 2.07901 24.186H20.921C20.9806 24.186 21.0587 24.132 21.0587 24.0415V1.95854C21.0587 1.86799 20.9806 1.81395 20.921 1.81395H2.07901ZM0 1.95854C0 0.892377 0.919419 0 2.07901 0H20.921C22.0806 0 23 0.892377 23 1.95854V24.0415C23 25.1076 22.0806 26 20.921 26H2.07901C0.919419 26 0 25.1076 0 24.0415V1.95854Z" fill="black"/>
<path d="M11.5 22.9373C11.9591 22.9373 12.3312 22.5842 12.3312 22.1487C12.3312 21.7131 11.9591 21.36 11.5 21.36C11.0409 21.36 10.6687 21.7131 10.6687 22.1487C10.6687 22.5842 11.0409 22.9373 11.5 22.9373Z" fill="black"/>
<path fill-rule="evenodd" clip-rule="evenodd" d="M9.14386 3.64105C9.14386 3.14014 9.57844 2.73407 10.1145 2.73407H12.8854C13.4215 2.73407 13.8561 3.14014 13.8561 3.64105C13.8561 4.14195 13.4215 4.54802 12.8854 4.54802H10.1145C9.57844 4.54802 9.14386 4.14195 9.14386 3.64105Z" fill="black"/>
</g>
<defs>
<clipPath id="clip0_1002_1445">
<rect width="23" height="26" fill="white"/>
</clipPath>
</defs>
</svg>
