<svg width="50" height="50" viewBox="0 0 50 50" fill="none" xmlns="http://www.w3.org/2000/svg">
<path fill-rule="evenodd" clip-rule="evenodd" d="M17.0527 33.3435L8.59715 49.5688C8.39499 49.9567 7.91599 50.1099 7.52545 49.9095C7.13473 49.7091 6.98038 49.2303 7.18296 48.8416L15.6386 32.6163C15.8407 32.2284 16.3197 32.0752 16.7103 32.2756C17.1009 32.4761 17.2553 32.9548 17.0527 33.3435Z" fill="#438BE3"/>
<path fill-rule="evenodd" clip-rule="evenodd" d="M33.9175 32.6163L42.373 48.8416C42.5756 49.2303 42.4213 49.7091 42.0306 49.9095C41.64 50.1099 41.161 49.9567 40.9589 49.5688L32.5033 33.3435C32.3007 32.9548 32.4551 32.4761 32.8458 32.2756C33.2363 32.0752 33.7153 32.2284 33.9175 32.6163Z" fill="#438BE3"/>
<path fill-rule="evenodd" clip-rule="evenodd" d="M25.5788 32.9772V44.1671C25.5788 44.6053 25.2217 44.9608 24.7816 44.9608C24.3414 44.9608 23.9844 44.6053 23.9844 44.1671V32.9772C23.9844 32.539 24.3414 32.1836 24.7816 32.1836C25.2217 32.1836 25.5788 32.539 25.5788 32.9772Z" fill="#438BE3"/>
<path fill-rule="evenodd" clip-rule="evenodd" d="M6.50781 3.83984V29.6692H42.979V3.83984H6.50781ZM14.2063 18.6276H11.2675V26.7694H14.2063V18.6276ZM22.2106 11.2157H19.2718V26.7694H22.2106V11.2157ZM30.215 20.1675H27.2761V26.7694H30.215V20.1675ZM38.2193 6.73975H35.2804V26.7693H38.2193V6.73975Z" fill="#438BE3"/>
<path fill-rule="evenodd" clip-rule="evenodd" d="M1.57031 0.529084V32.9796V33.5087H2.10176C20.0112 33.5087 29.5036 33.5087 47.4014 33.5087H47.9329V32.9796V0.529084V0H47.4014H2.10176H1.57031V0.529084ZM5.98457 2.78144H43.5187H44.0501V3.31056V30.1982V30.7273H43.5187H5.98457H5.45312V30.1982V3.31056V2.78144H5.98457Z" fill="#438BE3"/>
</svg>
