<svg width="50" height="50" viewBox="0 0 50 50" fill="none" xmlns="http://www.w3.org/2000/svg">
<g clip-path="url(#clip0_3034_1825)">
<path d="M44.7864 49.9922C45.8799 49.9922 46.9108 49.5756 47.6815 48.8154C48.4833 48.0448 48.9311 47.0034 48.952 45.8891C48.9728 44.7748 48.5458 43.723 47.7752 42.9212L31.0089 25.6758L25.2188 31.6742L41.7976 48.7217C42.5891 49.5444 43.6513 49.9922 44.7864 49.9922Z" fill="#438BE3"/>
<path d="M11.652 18.4835C12.0269 18.3898 12.4018 18.4835 12.6622 18.7647L17.9524 24.2112L23.753 18.2128L18.6398 12.9538C18.3794 12.6934 18.2961 12.3081 18.4002 11.9228C19.2958 8.71533 18.4211 5.23709 16.1092 2.86273C13.4432 0.113466 9.42348 -0.740471 5.86193 0.696643C5.5391 0.82161 5.29958 1.10278 5.2371 1.44644C5.1642 1.7901 5.26834 2.13376 5.50786 2.38369L10.1629 7.18449L7.17408 10.09L2.50866 5.28916C2.26914 5.03923 1.91507 4.92468 1.57141 4.98716C1.22776 5.04964 0.946583 5.27875 0.800789 5.59116C-0.740465 9.11105 -0.0219078 13.1621 2.65446 15.9113C4.95592 18.2857 8.40292 19.275 11.652 18.4835Z" fill="#438BE3"/>
<path d="M42.9261 12.097C42.9261 12.097 42.9261 12.097 42.9261 12.0866L37.0318 6.20277C36.6257 5.79663 35.9696 5.79663 35.5635 6.20277L34.8241 6.94215L33.3557 5.46338L34.0847 4.724C34.2826 4.53655 34.3971 4.26579 34.3971 3.99503C34.3971 3.71385 34.2826 3.45351 34.0847 3.25564L31.148 0.308516C30.7523 -0.0767971 30.065 -0.0767971 29.6692 0.308516L23.775 6.20277C23.3688 6.60891 23.3688 7.26498 23.775 7.67112L26.7221 10.6183C26.9304 10.8265 27.1907 10.9203 27.4615 10.9203C27.7322 10.9203 27.9926 10.8265 28.2009 10.6183L28.9298 9.87887L30.4086 11.3576L29.6692 12.0866C29.2631 12.5032 29.2631 13.1592 29.6692 13.5654L30.419 14.3152L0.47914 45.286C0.0834125 45.6922 0.0938266 46.3378 0.489554 46.744L3.43668 49.6911C3.63454 49.8786 3.89489 49.9931 4.17607 49.9931H4.18648C4.46765 49.9931 4.728 49.8786 4.92586 49.6703L34.8345 18.7307L35.4177 19.3138C35.5322 19.4805 35.6989 19.6054 35.9071 19.6783C35.9071 19.6887 35.9176 19.6887 35.928 19.6887C36.0113 19.7096 36.0842 19.7512 36.1779 19.7512C36.2091 19.7616 39.6665 20.4906 47.9768 31.8521L47.9872 31.8626C48.081 31.9875 48.1955 32.0812 48.3309 32.1541C48.3725 32.175 48.4246 32.175 48.4663 32.1958C48.5392 32.227 48.6121 32.2583 48.685 32.2687C48.737 32.2791 48.7787 32.2791 48.8203 32.2791C48.9349 32.2791 49.0494 32.2583 49.164 32.2166C49.2057 32.1958 49.2369 32.175 49.2786 32.1541C49.3306 32.1333 49.3827 32.1125 49.4348 32.0812C49.4452 32.0708 49.4452 32.05 49.4556 32.05C49.5285 31.9875 49.5806 31.925 49.6326 31.8521C49.6639 31.8209 49.6951 31.7897 49.7159 31.748C49.7576 31.6855 49.7784 31.6022 49.7992 31.5293C49.8097 31.4772 49.8409 31.4356 49.8409 31.3835C49.8409 31.3731 49.8513 31.3731 49.8513 31.3627C51.1739 20.5323 43.2697 12.4303 42.9261 12.097Z" fill="#438BE3"/>
</g>
<defs>
<clipPath id="clip0_3034_1825">
<rect width="50" height="50" fill="white"/>
</clipPath>
</defs>
</svg>
