<svg width="50" height="50" viewBox="0 0 50 50" fill="none" xmlns="http://www.w3.org/2000/svg">
<g clip-path="url(#clip0_3034_1830)">
<path d="M34.3738 27.0791H24.9995V28.1205C24.9995 30.4184 23.1309 32.287 20.833 32.287H16.6665C14.3686 32.287 12.4999 30.4184 12.4999 28.1205V27.0391H0.202935C0.0780078 27.3772 0 27.7385 0 28.1207V46.8701C0 48.5887 1.39581 49.995 3.12489 49.995H8.33304C8.33304 45.4742 11.1871 40.7765 14.8328 39.2974C15.2078 39.1516 15.6349 39.2244 15.9369 39.5057C17.4994 40.9431 19.9993 40.9431 21.5618 39.4953C21.8534 39.2244 22.2805 39.1516 22.6555 39.2974C26.3116 40.7765 29.1656 45.4742 29.1656 49.995C29.1656 49.995 35.0583 50.0283 35.4154 49.995V43.7452V28.1207C35.4154 27.5478 34.9467 27.0791 34.3738 27.0791ZM18.7493 38.537C17.0203 38.537 15.6245 37.1307 15.6245 35.4122C15.6245 33.683 17.0203 32.2873 18.7493 32.2873C20.4681 32.2873 21.8742 33.683 21.8742 35.4122C21.8742 37.1307 20.4681 38.537 18.7493 38.537Z" fill="#438BE3"/>
<path d="M42.5625 0.644531V7.43598H49.3644C47.229 5.31101 44.6875 2.7695 42.5625 0.644531Z" fill="#438BE3"/>
<path d="M41.5278 9.52039C40.955 9.52039 40.4862 9.05171 40.4862 8.47876V0H21.8827C20.1536 0 18.7578 1.39575 18.7578 3.12489V17.7075H20.8415C23.1393 17.7075 25.008 19.5761 25.008 21.874V24.9991H34.3823L35.4239 25.1164V25.1909C36.2925 25.5005 36.9816 26.1771 37.303 27.0423L37.5072 28.124V43.7485H46.8818C48.6005 43.7485 50.0067 42.3422 50.0067 40.6236V9.52039H41.5278ZM41.6737 20.8326H27.0909C26.518 20.8326 26.0492 20.3638 26.0492 19.791C26.0492 19.218 26.518 18.7493 27.0909 18.7493H41.6737C42.2466 18.7493 42.7153 19.218 42.7153 19.791C42.7153 20.3638 42.2466 20.8326 41.6737 20.8326ZM41.6737 15.6245H27.0909C26.518 15.6245 26.0492 15.1556 26.0492 14.5828C26.0492 14.0099 26.518 13.5412 27.0909 13.5412H41.6737C42.2466 13.5412 42.7153 14.0099 42.7153 14.5828C42.7153 15.1556 42.2466 15.6245 41.6737 15.6245Z" fill="#438BE3"/>
<path d="M16.6614 30.2093H20.8279C21.9737 30.2093 22.9112 29.2717 22.9112 28.126V27.0844V27.0443V25.0011V21.8762C22.9112 20.7303 21.9737 19.793 20.8279 19.793H18.7446H16.6614C15.5156 19.793 14.5781 20.7303 14.5781 21.8762V25.0011V27.0443V28.126C14.5781 29.2717 15.5156 30.2093 16.6614 30.2093Z" fill="#438BE3"/>
</g>
<defs>
<clipPath id="clip0_3034_1830">
<rect width="50" height="50" fill="white"/>
</clipPath>
</defs>
</svg>
