<svg width="50" height="50" viewBox="0 0 50 50" fill="none" xmlns="http://www.w3.org/2000/svg">
<g clip-path="url(#clip0_3034_1792)">
<path d="M25.4824 23.4961H9.17166C8.04721 23.4961 7.13281 24.411 7.13281 25.5349V47.9622C7.13281 49.0862 8.04721 50.0011 9.17166 50.0011H25.4824C26.6069 50.0011 27.5213 49.0862 27.5213 47.9622V25.5349C27.5213 24.411 26.6069 23.4961 25.4824 23.4961ZM12.9537 45.6277C12.76 45.8218 12.4947 45.9333 12.2299 45.9333C11.9646 45.9333 11.6998 45.8218 11.5062 45.6277C11.3225 45.4445 11.2105 45.1787 11.2105 44.904C11.2105 44.6391 11.3225 44.3743 11.5062 44.1902C11.8934 43.8029 12.5764 43.8129 12.9537 44.1902C13.1368 44.3743 13.2493 44.6391 13.2493 44.904C13.2493 45.1787 13.1369 45.4445 12.9537 45.6277ZM12.9537 41.55C12.76 41.7441 12.4947 41.8556 12.2299 41.8556C11.9646 41.8556 11.6998 41.7441 11.5062 41.55C11.3225 41.3668 11.2105 41.101 11.2105 40.8263C11.2105 40.5615 11.3225 40.2966 11.5062 40.1125C11.8934 39.7352 12.5659 39.7352 12.9537 40.1125C13.1368 40.2966 13.2493 40.5615 13.2493 40.8263C13.2493 41.101 13.1369 41.3559 12.9537 41.55ZM12.9537 37.4723C12.76 37.6665 12.4947 37.778 12.2299 37.778C11.9646 37.778 11.6998 37.6665 11.5062 37.4723C11.3225 37.2892 11.2105 37.0233 11.2105 36.7486C11.2105 36.4838 11.3225 36.219 11.5062 36.0348C11.883 35.6575 12.5764 35.6575 12.9537 36.0348C13.1368 36.219 13.2493 36.4838 13.2493 36.7486C13.2493 37.0233 13.1369 37.2782 12.9537 37.4723ZM18.0508 45.6277C17.8572 45.8218 17.5918 45.9333 17.327 45.9333C17.0617 45.9333 16.7969 45.8218 16.6033 45.6277C16.4196 45.4336 16.3076 45.1787 16.3076 44.904C16.3076 44.6391 16.4196 44.3743 16.6033 44.1902C16.9905 43.8129 17.663 43.8129 18.0508 44.1902C18.234 44.3743 18.3465 44.6391 18.3465 44.904C18.3465 45.1787 18.234 45.4336 18.0508 45.6277ZM18.0508 41.55C17.8572 41.7441 17.5918 41.8556 17.327 41.8556C17.0617 41.8556 16.7969 41.7441 16.6033 41.55C16.4196 41.3559 16.3076 41.101 16.3076 40.8263C16.3076 40.5615 16.4196 40.2966 16.6033 40.1125C16.9801 39.7352 17.6735 39.7352 18.0508 40.1125C18.234 40.2966 18.3465 40.5615 18.3465 40.8263C18.3465 41.101 18.234 41.3668 18.0508 41.55ZM18.0508 37.4723C17.8572 37.6665 17.5918 37.778 17.327 37.778C17.0617 37.778 16.7969 37.6665 16.6033 37.4723C16.4196 37.2892 16.3076 37.0233 16.3076 36.7486C16.3076 36.4838 16.4196 36.219 16.6033 36.0348C16.9801 35.6575 17.6735 35.6575 18.0508 36.0348C18.234 36.219 18.3465 36.4838 18.3465 36.7486C18.3465 37.0233 18.234 37.2892 18.0508 37.4723ZM23.1479 45.6277C22.9543 45.8218 22.689 45.9333 22.4241 45.9333C22.1588 45.9333 21.894 45.8218 21.7004 45.6277C21.5167 45.4336 21.4047 45.1787 21.4047 44.904C21.4047 44.6391 21.5167 44.3743 21.7004 44.1902C22.0877 43.8129 22.7601 43.8129 23.1479 44.1902C23.3311 44.3743 23.4436 44.6391 23.4436 44.904C23.4436 45.1787 23.3311 45.4336 23.1479 45.6277ZM23.1479 41.55C22.9543 41.7441 22.689 41.8556 22.4241 41.8556C22.1588 41.8556 21.894 41.7441 21.7004 41.55C21.5167 41.3559 21.4047 41.101 21.4047 40.8263C21.4047 40.5615 21.5167 40.2966 21.7004 40.1125C22.0772 39.7352 22.7706 39.7352 23.1479 40.1125C23.3311 40.2966 23.4436 40.5615 23.4436 40.8263C23.4436 41.101 23.3311 41.3559 23.1479 41.55ZM23.1479 37.4723C22.9543 37.6665 22.689 37.778 22.4241 37.778C22.1588 37.778 21.894 37.6665 21.7004 37.4723C21.5167 37.2892 21.4047 37.0233 21.4047 36.7486C21.4047 36.4838 21.5167 36.219 21.7004 36.0348C22.0877 35.6575 22.7706 35.6575 23.1479 36.0348C23.3311 36.219 23.4436 36.4838 23.4436 36.7486C23.4436 37.0233 23.3311 37.2892 23.1479 37.4723ZM23.4436 33.6953H11.2105V27.5788H23.4436V33.6953Z" fill="#438BE3"/>
<path d="M26.505 11.2684C24.8185 11.2684 23.4467 9.89656 23.4467 8.21013V0H3.05827C1.37184 0 0 1.37184 0 3.05827V39.7575C0 41.4439 1.37184 42.8157 3.05827 42.8157H5.09711V25.5353C5.09711 23.2864 6.9264 21.4576 9.1748 21.4576H25.4856C27.734 21.4576 29.5632 23.2864 29.5632 25.5353V42.8157H31.6021C33.2885 42.8157 34.6603 41.4439 34.6603 39.7575V11.2684H26.505ZM25.4885 19.374L9.17779 19.4238H9.1748C8.61332 19.4238 8.15687 18.9698 8.15538 18.4073C8.15388 17.8449 8.60884 17.3869 9.17181 17.3849L25.4826 17.3352H25.4856C26.047 17.3352 26.5035 17.7891 26.505 18.3516C26.5065 18.9141 26.0515 19.372 25.4885 19.374ZM25.4885 14.2769L9.17779 14.3267H9.1748C8.61332 14.3267 8.15687 13.8727 8.15538 13.3102C8.15388 12.7478 8.60884 12.2898 9.17181 12.2878L25.4826 12.238H25.4856C26.047 12.238 26.5035 12.692 26.505 13.2545C26.5065 13.817 26.0515 14.2749 25.4885 14.2769Z" fill="#438BE3"/>
<path d="M26.5038 9.22792H33.7083L25.4844 0.0234375V8.20849C25.4844 8.77097 25.9418 9.22792 26.5038 9.22792Z" fill="#438BE3"/>
</g>
<defs>
<clipPath id="clip0_3034_1792">
<rect width="50" height="50" fill="white"/>
</clipPath>
</defs>
</svg>
