<svg width="50" height="50" viewBox="0 0 50 50" fill="none" xmlns="http://www.w3.org/2000/svg">
<g clip-path="url(#clip0_3034_1798)">
<path d="M14.8516 49.1089C14.8516 49.3457 14.9456 49.5728 15.113 49.7402C15.2805 49.9076 15.5075 50.0017 15.7443 50.0017C15.9811 50.0017 16.2082 49.9076 16.3756 49.7402C16.543 49.5728 16.6371 49.3457 16.6371 49.1089V31.2539H14.8516V49.1089Z" fill="#438BE3"/>
<path d="M7.71094 49.1089C7.71094 49.3457 7.80499 49.5728 7.97242 49.7402C8.13984 49.9076 8.36692 50.0017 8.60369 50.0017C8.84046 50.0017 9.06753 49.9076 9.23496 49.7402C9.40238 49.5728 9.49644 49.3457 9.49644 49.1089V31.2539H7.71094V49.1089Z" fill="#438BE3"/>
<path d="M13.8754 13.3973H17.625L18.6963 3.43685C18.7621 3.01334 18.7358 2.58061 18.6192 2.1682C18.5025 1.75579 18.2982 1.3734 18.0203 1.04715C17.7423 0.720895 17.3973 0.458457 17.0086 0.277748C16.62 0.0970389 16.1969 0.00231472 15.7683 4.18936e-05C15.3398 -0.00223093 14.9157 0.0880011 14.5252 0.264578C14.1347 0.441155 13.7868 0.699919 13.5054 1.02321C13.224 1.34649 13.0157 1.72669 12.8947 2.13784C12.7737 2.54899 12.7428 2.98142 12.8041 3.4056L13.8754 13.3973Z" fill="#438BE3"/>
<path d="M0.5625 49.1089C0.5625 49.3457 0.656557 49.5728 0.823981 49.7402C0.991404 49.9076 1.21848 50.0017 1.45525 50.0017C1.69202 50.0017 1.9191 49.9076 2.08652 49.7402C2.25394 49.5728 2.348 49.3457 2.348 49.1089V31.2539H0.5625V49.1089Z" fill="#438BE3"/>
<path d="M21.9922 49.1089C21.9922 49.3457 22.0862 49.5728 22.2537 49.7402C22.4211 49.9076 22.6482 50.0017 22.8849 50.0017C23.1217 50.0017 23.3488 49.9076 23.5162 49.7402C23.6836 49.5728 23.7777 49.3457 23.7777 49.1089V31.2539H21.9922V49.1089Z" fill="#438BE3"/>
<path d="M29.1328 49.1089C29.1328 49.3457 29.2269 49.5728 29.3943 49.7402C29.5617 49.9076 29.7888 50.0017 30.0256 50.0017C30.2623 50.0017 30.4894 49.9076 30.6568 49.7402C30.8243 49.5728 30.9183 49.3457 30.9183 49.1089V31.2539H29.1328V49.1089Z" fill="#438BE3"/>
<path d="M18.4219 49.1089C18.4219 49.3457 18.5159 49.5728 18.6834 49.7402C18.8508 49.9076 19.0779 50.0017 19.3146 50.0017C19.5514 50.0017 19.7785 49.9076 19.9459 49.7402C20.1133 49.5728 20.2074 49.3457 20.2074 49.1089V31.2539H18.4219V49.1089Z" fill="#438BE3"/>
<path d="M11.2812 49.1089C11.2812 49.3457 11.3753 49.5728 11.5427 49.7402C11.7102 49.9076 11.9372 50.0017 12.174 50.0017C12.4108 50.0017 12.6378 49.9076 12.8053 49.7402C12.9727 49.5728 13.0667 49.3457 13.0667 49.1089V31.2539H11.2812V49.1089Z" fill="#438BE3"/>
<path d="M4.14062 49.1089C4.14062 49.3457 4.23468 49.5728 4.4021 49.7402C4.56953 49.9076 4.7966 50.0017 5.03337 50.0017C5.27015 50.0017 5.49722 49.9076 5.66464 49.7402C5.83207 49.5728 5.92612 49.3457 5.92612 49.1089V31.2539H4.14062V49.1089Z" fill="#438BE3"/>
<path d="M25.5625 49.1089C25.5625 49.3457 25.6566 49.5728 25.824 49.7402C25.9914 49.9076 26.2185 50.0017 26.4552 50.0017C26.692 50.0017 26.9191 49.9076 27.0865 49.7402C27.2539 49.5728 27.348 49.3457 27.348 49.1089V31.2539H25.5625V49.1089Z" fill="#438BE3"/>
<path d="M29.1559 19.7046C28.0925 18.2944 26.715 17.1516 25.1327 16.3668C23.5505 15.582 21.8071 15.1769 20.0409 15.1837H11.4491C9.70411 15.1836 7.98222 15.5824 6.41496 16.3496C4.84771 17.1168 3.47657 18.2322 2.4063 19.6104C1.33604 20.9886 0.594983 22.5932 0.239747 24.3016C-0.115488 26.01 -0.075499 27.7771 0.356661 29.4677H31.1333C31.5677 27.7971 31.6153 26.0494 31.2727 24.3576C30.93 22.6659 30.2061 21.0745 29.1559 19.7046ZM16.6377 18.7547H14.8522C14.6155 18.7547 14.3884 18.6606 14.221 18.4932C14.0535 18.3258 13.9595 18.0987 13.9595 17.8619C13.9595 17.6252 14.0535 17.3981 14.221 17.2307C14.3884 17.0632 14.6155 16.9692 14.8522 16.9692H16.6377C16.8745 16.9692 17.1016 17.0632 17.269 17.2307C17.4364 17.3981 17.5305 17.6252 17.5305 17.8619C17.5305 18.0987 17.4364 18.3258 17.269 18.4932C17.1016 18.6606 16.8745 18.7547 16.6377 18.7547ZM28.3417 27.6768C28.3091 27.6803 28.2763 27.6821 28.2435 27.6822C28.0239 27.682 27.812 27.6008 27.6485 27.4542C27.4849 27.3076 27.3811 27.1059 27.357 26.8876C27.231 24.9148 26.4477 23.0411 25.1321 21.5656C23.8165 20.0901 22.0445 19.0979 20.0989 18.7475C19.8684 18.7132 19.6604 18.59 19.5195 18.4043C19.3785 18.2186 19.3158 17.9851 19.3447 17.7538C19.3737 17.5225 19.4919 17.3117 19.6742 17.1664C19.8565 17.0211 20.0884 16.9529 20.3203 16.9763C22.6615 17.3825 24.7999 18.559 26.3962 20.319C27.9925 22.079 28.9553 24.3217 29.1318 26.6912C29.1447 26.8078 29.1345 26.9258 29.1017 27.0385C29.069 27.1511 29.0144 27.2562 28.941 27.3478C28.8676 27.4393 28.7769 27.5155 28.6741 27.5719C28.5713 27.6284 28.4583 27.664 28.3417 27.6768Z" fill="#438BE3"/>
</g>
<defs>
<clipPath id="clip0_3034_1798">
<rect width="50" height="50" fill="white"/>
</clipPath>
</defs>
</svg>
