<svg width="50" height="50" viewBox="0 0 50 50" fill="none" xmlns="http://www.w3.org/2000/svg">
<path fill-rule="evenodd" clip-rule="evenodd" d="M0.523438 3.14361V46.8564C0.523438 47.7214 0.875325 48.5075 1.44217 49.077C2.00902 49.6465 2.79147 50 3.65249 50H40.2012C41.0623 50 41.8447 49.6465 42.4116 49.077C42.9784 48.5075 43.3303 47.7214 43.3303 46.8564V3.14361C43.3303 2.27854 42.9784 1.49249 42.4116 0.923004C41.8447 0.353522 41.0623 0 40.2012 0H3.65249C2.79143 0 2.00902 0.353523 1.44217 0.923004C0.875324 1.49249 0.523438 2.27854 0.523438 3.14361ZM8.44791 5.72916H35.4058C35.6921 5.72916 35.9242 5.96238 35.9242 6.25C35.9242 6.53763 35.6921 6.77085 35.4058 6.77085H8.44791C8.16161 6.77085 7.92947 6.53763 7.92947 6.25C7.92947 5.96238 8.16161 5.72916 8.44791 5.72916ZM8.44791 8.85423H35.4058C35.6921 8.85423 35.9242 9.08745 35.9242 9.37508C35.9242 9.6627 35.6921 9.89592 35.4058 9.89592H8.44791C8.16161 9.89592 7.92947 9.6627 7.92947 9.37508C7.92947 9.08745 8.16161 8.85423 8.44791 8.85423ZM8.44791 11.9792H11.5584H12.0769V12.5V27.0833V27.6041H11.5584H8.44791H7.92947V27.0833V12.5V11.9792H8.44791ZM23.8277 27.0834V14.5834V14.0625H24.3462H27.4567H27.9751V14.5834V27.0834V27.6042H27.4567H24.3462H23.8277V27.0834ZM31.5174 33.8476C32.1346 33.8476 32.7308 33.9378 33.2938 34.1058L33.2837 34.2545L31.3011 39.7439L25.4008 38.9229C25.6392 37.6689 26.2503 36.5477 27.1138 35.6801C28.2408 34.5478 29.7977 33.8476 31.5174 33.8476ZM33.9312 34.335C34.6804 34.6518 35.355 35.1114 35.921 35.6801C36.9664 36.7303 37.6417 38.1523 37.734 39.7317L31.9787 39.7847L33.9116 34.433L33.9312 34.335ZM31.6741 40.4562L37.7388 40.3848C37.6677 42.0008 36.9866 43.4576 35.921 44.5282C34.794 45.6604 33.2371 46.3607 31.5174 46.3607C29.7977 46.3607 28.2408 45.6604 27.1138 44.5282C25.9868 43.396 25.2898 41.8318 25.2898 40.1041C25.2898 39.9245 25.2973 39.7467 25.3122 39.571L31.4725 40.4281L31.6741 40.4562ZM32.2953 16.1458H35.4059H35.9243V16.6667V27.0834V27.6042H35.4059H32.2953H31.7769V27.0834V16.6667V16.1458H32.2953ZM16.397 21.3542H19.5075H20.026V21.875V27.0833V27.6042H19.5075H16.397H15.8786V27.0833V21.875V21.3542H16.397ZM6.56413 35.5916H20.0292C20.2773 35.5916 20.4784 35.7936 20.4784 36.0428C20.4784 36.292 20.2773 36.4941 20.0292 36.4941H6.56413C6.31611 36.4941 6.11497 36.292 6.11497 36.0428C6.11497 35.7936 6.31611 35.5916 6.56413 35.5916ZM6.11497 38.7503C6.11497 38.5012 6.31611 38.2991 6.56413 38.2991H20.0292C20.2773 38.2991 20.4784 38.5012 20.4784 38.7503C20.4784 38.9995 20.2773 39.2016 20.0292 39.2016H6.56413C6.31611 39.2016 6.11497 38.9995 6.11497 38.7503ZM6.11497 41.4579C6.11497 41.2087 6.31611 41.0066 6.56413 41.0066H20.0292C20.2773 41.0066 20.4784 41.2087 20.4784 41.4579C20.4784 41.707 20.2773 41.9091 20.0292 41.9091H6.56413C6.31611 41.9091 6.11497 41.707 6.11497 41.4579ZM6.11497 44.1654C6.11497 43.9162 6.31611 43.7141 6.56413 43.7141H20.0292C20.2773 43.7141 20.4784 43.9162 20.4784 44.1654C20.4784 44.4145 20.2773 44.6166 20.0292 44.6166H6.56413C6.31611 44.6166 6.11497 44.4145 6.11497 44.1654Z" fill="#438BE3"/>
</svg>
