<svg width="50" height="50" viewBox="0 0 50 50" fill="none" xmlns="http://www.w3.org/2000/svg">
<g clip-path="url(#clip0_3032_1678)">
<path d="M36.3442 0.731987C42.8967 7.52636 43.3022 11.6276 42.9354 13.5001L42.9341 13.5065L42.9336 13.5085C42.5665 15.3599 40.881 17.8967 38.3093 20.4684C35.7862 22.9914 32.9392 25.0363 30.4991 26.0781C28.0813 27.1107 25.107 26.0149 21.659 22.8214C20.9503 22.165 20.2976 21.4896 19.7272 20.8602C20.0075 23.9989 19.8882 28.3888 17.5416 30.7353C16.628 31.649 15.0336 32.6657 13.1882 33.8441C9.43716 36.2377 4.29996 39.5159 3.93917 42.8925C3.80057 44.1914 4.37436 45.4642 5.69368 46.7835C7.01301 48.1028 8.28577 48.6766 9.58479 48.5378C12.9614 48.177 16.2393 43.04 18.6332 39.2888C19.811 37.4431 20.8282 35.8492 21.7421 34.9354C22.9683 33.7092 24.8608 32.5677 27.2569 31.1224C31.8882 28.3287 38.2317 24.5033 43.2718 17.6221C44.9737 15.2985 45.5645 12.9037 45.0268 10.5052C43.9169 5.55116 38.391 1.74228 36.506 0.570189L36.3442 0.731987Z" fill="#438BE3"/>
<path d="M31.7948 3.14467C31.6098 3.32963 31.5062 3.58078 31.5067 3.84285C31.5072 4.10492 31.6118 4.35646 31.7974 4.54212L40.8636 13.6083C40.9183 13.4487 40.9626 13.2857 40.9964 13.1204C41.0716 12.7441 41.1295 11.9529 40.7612 10.7163L33.1922 3.14731C33.0066 2.96165 32.755 2.85706 32.493 2.85657C32.2309 2.85607 31.9797 2.95971 31.7948 3.14467Z" fill="#438BE3"/>
<path d="M29.0084 7.33119L38.739 17.0618C39.1634 16.5493 39.559 16.0136 39.9238 15.457L30.4032 5.93638C30.2175 5.75071 29.966 5.64613 29.7039 5.64563C29.4418 5.64514 29.1907 5.74877 29.0057 5.93373C28.8208 6.1187 28.7171 6.36984 28.7176 6.63191C28.7181 6.89399 28.8227 7.14552 29.0084 7.33119Z" fill="#438BE3"/>
<path d="M26.2193 10.1222L36.0188 19.9217C36.5088 19.4702 36.9813 19.0082 37.4276 18.5409L27.6141 8.72739C27.4284 8.54173 27.1769 8.43714 26.9148 8.43665C26.6528 8.43615 26.4016 8.53979 26.2167 8.72475C26.0317 8.90971 25.9281 9.16086 25.9286 9.42293C25.9291 9.685 26.0336 9.93654 26.2193 10.1222Z" fill="#438BE3"/>
<path d="M23.4302 12.9113L32.9349 22.4159C33.4687 22.0431 34.0007 21.6406 34.5239 21.2153L24.825 11.5165C24.6394 11.3308 24.3878 11.2262 24.1258 11.2257C23.8637 11.2252 23.6126 11.3288 23.4276 11.5138C23.2426 11.6988 23.139 11.9499 23.1395 12.212C23.14 12.4741 23.2446 12.7256 23.4302 12.9113Z" fill="#438BE3"/>
<path d="M20.6412 15.7003L29.3329 24.392C29.4657 24.3597 29.5957 24.3164 29.7213 24.2626C30.2394 24.0385 30.7441 23.7847 31.2329 23.5024L22.036 14.3055C21.8503 14.1199 21.5988 14.0153 21.3367 14.0148C21.0746 14.0143 20.8235 14.1179 20.6385 14.3029C20.4536 14.4878 20.3499 14.739 20.3504 15.0011C20.3509 15.2631 20.4555 15.5147 20.6412 15.7003Z" fill="#438BE3"/>
</g>
<defs>
<clipPath id="clip0_3032_1678">
<rect width="50" height="50" fill="white"/>
</clipPath>
</defs>
</svg>
