<svg width="50" height="50" viewBox="0 0 50 50" fill="none" xmlns="http://www.w3.org/2000/svg">
<path d="M26.8409 0.871622C26.9798 0.592999 27.1002 0.29876 27.2021 0C26.2914 0.179995 25.382 0.274103 24.4783 0.274103C23.5853 0.274103 22.6985 0.182872 21.8203 0.00739712C21.93 0.325882 22.0484 0.617245 22.175 0.880252C23.6955 1.16093 25.2624 1.15805 26.8409 0.871622Z" fill="#438BE3"/>
<path d="M19.4693 23.6992H17.6838C15.5407 25.7067 10.9109 39.4932 9 45.2231C9.4393 45.3652 10.2702 45.6106 11.4731 45.8765C12.3464 43.2156 13.151 40.6619 13.8734 38.3672C16.1028 31.2886 17.7861 25.9479 19.4693 23.6992Z" fill="#438BE3"/>
<path d="M24.5108 4.38495C26.2183 4.38495 27.2498 3.60744 27.8732 2.60924C27.8806 2.59363 27.8901 2.58048 27.8991 2.56568C28.2332 2.01665 28.4485 1.40557 28.5825 0.81915L27.9965 0.233138C27.5691 1.49393 26.5557 3.56305 24.5108 3.56305C22.9525 3.56305 21.7838 2.44157 21.0309 0.226562L20.4453 0.812575C21.0679 3.18334 22.4347 4.38495 24.5108 4.38495Z" fill="#438BE3"/>
<path d="M22.75 1.79872C23.2481 2.42172 23.8365 2.73856 24.5138 2.73856C25.212 2.73856 25.7943 2.35967 26.2603 1.79297C25.6616 1.87023 25.0649 1.91255 24.4719 1.91255C23.8941 1.91255 23.3196 1.87187 22.75 1.79872Z" fill="#438BE3"/>
<path d="M17.8124 22.8758H22.8544H26.1419H31.1839L33.9693 14.1213C34.5795 12.3128 34.483 11.1876 33.615 9.96336L28.2608 3.46339C27.5141 4.43405 26.3441 5.20499 24.4981 5.20499C22.9078 5.20499 21.6458 4.60172 20.7569 3.4375L15.3632 9.98679C14.5109 11.2089 14.4135 12.3341 15.0241 14.1127L17.8124 22.8758ZM27.3892 19.8911L29.8549 10.8502C29.9149 10.6307 30.1425 10.5029 30.3595 10.5617C30.5785 10.6217 30.708 10.8473 30.648 11.0663L28.1823 20.1072C28.1326 20.2901 27.9665 20.4101 27.7861 20.4101C27.75 20.4101 27.7138 20.4052 27.6777 20.3953C27.4586 20.3357 27.3296 20.1101 27.3892 19.8911ZM18.6368 10.5617C18.8534 10.5029 19.0814 10.6307 19.1414 10.8502L21.6071 19.8911C21.6671 20.1101 21.5377 20.3361 21.3186 20.3957C21.2825 20.4056 21.2463 20.4101 21.2101 20.4101C21.0297 20.4101 20.8637 20.2901 20.814 20.1072L18.3483 11.0663C18.2887 10.8473 18.4177 10.6217 18.6368 10.5617Z" fill="#438BE3"/>
<path d="M28.4601 23.6992H26.9219C28.2805 26.2294 30.1149 33.7765 32.2034 42.3719C32.6542 44.2277 33.1112 46.1086 33.5698 47.9637C35.2436 47.6801 36.5109 47.3933 37.1298 47.2437C36.1123 44.1776 35.184 41.229 34.36 38.6146C32.0201 31.1859 30.1618 25.29 28.4601 23.6992Z" fill="#438BE3"/>
<path d="M32.8583 48.4983C32.8587 48.4979 32.8583 48.4979 32.8583 48.4983C32.3709 46.5319 31.8852 44.5364 31.4064 42.5659C29.3443 34.0781 27.2139 25.3089 25.9692 23.6992H23.0531C21.8083 25.3089 19.678 34.0781 17.6158 42.5659C17.1371 44.5364 16.6509 46.5319 16.164 48.4979C16.164 48.4983 16.1635 48.4991 16.1635 48.4995C16.1011 48.7515 16.039 49.0075 15.9766 49.2582C17.209 49.4579 20.8816 49.9999 24.5111 49.9999C28.1427 49.9999 31.8137 49.4583 33.0461 49.2577C32.9837 49.0071 32.9216 48.751 32.8592 48.4991C32.8587 48.4987 32.8587 48.4987 32.8583 48.4983Z" fill="#438BE3"/>
<path d="M31.3324 23.6992H29.5469C31.2301 25.9479 32.913 31.2886 35.1428 38.3672C35.8652 40.6619 36.6703 43.2156 37.5431 45.8765C38.746 45.6106 39.5769 45.3652 40.0162 45.2231C38.1053 39.4932 33.4755 25.7067 31.3324 23.6992Z" fill="#438BE3"/>
<path d="M22.0908 23.6992H20.5526C18.8504 25.29 16.9925 31.1859 14.6526 38.6146C13.8287 41.229 12.8999 44.1776 11.8828 47.2437C12.5021 47.3937 13.7707 47.6805 15.4429 47.9637C15.9015 46.1086 16.3589 44.2277 16.8093 42.3719C18.8977 33.7765 20.7322 26.2294 22.0908 23.6992Z" fill="#438BE3"/>
</svg>
