<svg width="50" height="50" viewBox="0 0 50 50" fill="none" xmlns="http://www.w3.org/2000/svg">
<path d="M15.6666 39.4766L11.8125 49.9973H36.3956L32.5415 39.4766H15.6666ZM23.9999 47.4973C22.4374 47.4973 21.2916 46.2473 21.2916 44.789C21.2916 43.3307 22.5416 42.0807 23.9999 42.0807C25.4582 42.0807 26.7082 43.3307 26.7082 44.789C26.7082 46.2473 25.5624 47.4973 23.9999 47.4973Z" fill="#438BE3"/>
<path d="M37.6456 12.8138H36.3956L36.9164 9.16797H9L12.125 15.4179L15.6666 37.3969H32.4373L36.0831 14.8971H37.6456C38.8956 14.8971 39.8331 15.8346 39.8331 17.0846V29.3761C39.8331 30.0011 40.2497 30.4178 40.8747 30.4178C41.4997 30.4178 41.9164 30.0011 41.9164 29.3761V17.1887C41.9164 14.7929 39.9372 12.8138 37.6456 12.8138ZM28.5832 32.0845C28.5832 32.7094 28.1665 33.1261 27.5415 33.1261C26.9165 33.1261 26.4999 32.7094 26.4999 32.0845V13.8554C26.4999 13.2304 26.9165 12.8138 27.5415 12.8138C28.1665 12.8138 28.5832 13.2304 28.5832 13.8554V32.0845Z" fill="#438BE3"/>
<path d="M28.2733 1.66665C27.8566 1.56249 27.5441 1.24999 27.5441 0.833326C27.5441 0.416663 27.1275 0 26.7108 0H20.6692C20.2525 0 19.8359 0.416663 19.8359 0.833326C19.8359 1.24999 19.5234 1.56249 19.1067 1.66665C14.2109 2.49998 10.7734 4.5833 10.7734 6.97911H36.6066C36.5024 4.5833 33.0649 2.49998 28.2733 1.66665Z" fill="#438BE3"/>
</svg>
