<svg width="50" height="50" viewBox="0 0 50 50" fill="none" xmlns="http://www.w3.org/2000/svg">
<g clip-path="url(#clip0_3032_1747)">
<path d="M26.3813 30.5381C26.3813 29.728 25.7312 29.0779 24.9212 29.0779H24.4911V19.2872C24.4911 18.7872 24.0811 18.3772 23.5811 18.3772H22.521V5.99628C22.521 4.38616 22.361 1.70596 21.5309 0.315863C21.3109 -0.0441631 20.8709 -0.104167 20.5808 0.175853C19.3808 1.31594 16.1505 4.21615 14.2404 5.95627C13.3703 6.74633 12.8603 7.95642 12.8603 9.23651V18.3672H11.8002C11.3002 18.3672 10.8901 18.7772 10.8901 19.2772V29.0679H10.4601C9.65005 29.0679 9 29.718 9 30.5281V44.3391C9 47.4593 11.5302 49.9995 14.6504 49.9995H20.7209C23.8411 49.9995 26.3713 47.4693 26.3713 44.3391V30.5381H26.3813ZM17.7006 32.9082C16.8206 32.9082 15.8405 31.2681 15.8405 29.0779C15.8405 26.8878 16.8206 25.2477 17.7006 25.2477C18.5807 25.2477 19.5608 26.8878 19.5608 29.0779C19.5608 31.2681 18.5807 32.9082 17.7006 32.9082ZM22.681 29.0779H21.3809C21.3809 25.9077 19.7608 23.4175 17.7006 23.4175C15.6405 23.4175 14.0204 25.8977 14.0204 29.0779H12.7203V20.1973H22.681V29.0779Z" fill="#438BE3"/>
<path d="M33.4077 19.0391C33.3877 21.2192 32.3777 22.8393 31.4676 22.8393C30.5575 22.8393 29.5475 21.2192 29.5275 19.0391H25.8872V27.5997C27.0373 28.0297 27.8473 29.1198 27.8473 30.3799V44.3009C27.8473 46.181 27.0973 47.9012 25.8672 49.1913C26.6072 49.7113 27.4373 50.0013 28.2974 50.0013H34.6178C37.8681 50.0013 40.4982 45.931 40.4982 40.9207V19.0391H33.4077Z" fill="#438BE3"/>
</g>
<defs>
<clipPath id="clip0_3032_1747">
<rect width="50" height="50" fill="white"/>
</clipPath>
</defs>
</svg>
