<svg width="50" height="50" viewBox="0 0 50 50" fill="none" xmlns="http://www.w3.org/2000/svg">
<path d="M49.0741 34.37H46.2963V28.8145H33.3333V34.37H31.4815V28.8145H18.5185V34.37H16.6667V28.8145H3.7037V34.37H0.925926C0.414815 34.37 0 34.7839 0 35.2959C0 35.808 0.414815 36.2219 0.925926 36.2219H49.0741C49.5861 36.2219 50 35.808 50 35.2959C50 34.7839 49.5861 34.37 49.0741 34.37Z" fill="#438BE3"/>
<path d="M31.4864 14H18.5234V19.5556H31.4864V14Z" fill="#438BE3"/>
<path d="M24.0723 21.4082H11.1094V26.9638H24.0723V21.4082Z" fill="#438BE3"/>
<path d="M38.8848 21.4082H25.9219V26.9638H38.8848V21.4082Z" fill="#438BE3"/>
</svg>
