<svg width="50" height="50" viewBox="0 0 50 50" fill="none" xmlns="http://www.w3.org/2000/svg">
<path d="M48.3315 22.3298C45.3662 20.9252 41.5426 22.2518 40.3721 25.9194L39.0455 30.3673C38.7334 31.3037 37.719 31.8499 36.7826 31.5378C29.8376 29.1968 20.9418 29.1187 13.2946 31.6158C12.3582 31.9279 11.3437 31.3817 11.0316 30.4453L9.627 26.0754C8.4565 22.2518 4.39877 20.9252 1.35548 22.642C-0.127156 23.4223 -0.517322 25.4512 0.809243 26.7777C1.58958 27.6361 2.83811 27.5581 3.93057 27.1679C4.08664 27.0899 4.24271 27.1679 4.32074 27.1679C4.39877 27.2459 4.55484 27.324 4.63287 27.48L7.20797 35.6735C7.5201 36.6099 8.30043 37.3122 9.23683 37.4683V39.4191H11.6559L12.5142 37.5463H37.5629L38.4213 39.4191H40.8403V37.4683C41.7767 37.3122 42.557 36.6099 42.8692 35.6735L45.4443 27.48C45.5223 27.324 45.6003 27.1679 45.7564 27.1679C45.8344 27.0899 45.9905 27.0899 46.2246 27.2459C47.6292 28.0263 49.2679 27.402 49.8922 25.8413C50.2823 24.3587 49.58 22.9541 48.3315 22.3298Z" fill="#438BE3"/>
<path d="M11.2641 25.4506L12.6687 29.8204C16.6484 28.5719 21.0182 27.9476 25.3101 27.9476C29.6019 27.9476 33.7377 28.5719 37.3272 29.8204L38.7318 25.3725C39.7462 22.2512 42.3213 20.2224 45.2866 19.9883C45.0525 18.4276 42.7895 18.0374 41.1508 17.9594C40.3705 17.8814 39.8242 17.1791 39.9803 16.3987L40.6046 13.5115C40.7606 12.7312 40.1364 11.9508 39.356 11.9508H36.7809C35.8445 11.2485 34.596 10.8584 33.3475 10.8584C32.099 10.8584 30.8504 11.2485 29.914 11.9508H29.6019C28.1973 10.7023 26.3245 10 24.2956 10C22.2668 10 20.394 10.7023 18.9894 11.9508H18.6772C17.7408 11.2485 16.4923 10.8584 15.2438 10.8584C13.9952 10.8584 12.7467 11.2485 11.8103 11.9508H9.23521C8.45488 11.9508 7.83062 12.7312 7.98668 13.5115L8.61095 16.3987C8.76701 17.1791 8.22078 17.8814 7.44045 17.9594C5.87978 18.0374 3.53879 18.4276 3.30469 19.9883V20.0663C3.61682 20.0663 3.85092 19.9883 4.16305 19.9883C7.28438 20.0663 10.1716 22.0171 11.2641 25.4506ZM33.5036 15.9305C33.7377 15.5404 34.2059 15.3843 34.6741 15.6184C35.0642 15.8525 35.2203 16.3207 34.9862 16.7889C34.7521 17.1791 34.2839 17.3351 33.8157 17.101C33.4255 16.8669 33.2695 16.3207 33.5036 15.9305ZM31.9429 18.7397C32.177 18.3496 32.6452 18.1935 33.1134 18.4276C33.5036 18.6617 33.6596 19.1299 33.4255 19.5981C33.1914 19.9883 32.7232 20.1443 32.255 19.9102C31.8649 19.6761 31.7088 19.2079 31.9429 18.7397ZM30.3822 21.627C30.6163 21.2368 31.0845 21.0807 31.5527 21.3148C31.9429 21.5489 32.099 22.0171 31.8649 22.4853C31.6308 22.8755 31.1626 23.0316 30.6944 22.7975C30.3042 22.5634 30.1481 22.0171 30.3822 21.627ZM28.8216 24.4362C29.0557 24.046 29.5239 23.8899 29.9921 24.124C30.3822 24.3581 30.5383 24.8263 30.3042 25.2945C30.0701 25.7627 29.6019 25.8407 29.1337 25.6066C28.7435 25.3725 28.5875 24.8263 28.8216 24.4362ZM24.2956 14.2918C24.7638 14.2918 25.154 14.682 25.154 15.1502C25.154 15.6184 24.7638 16.0086 24.2956 16.0086C23.8274 16.0086 23.4373 15.6184 23.4373 15.1502C23.4373 14.682 23.8274 14.2918 24.2956 14.2918ZM24.2956 17.4912C24.7638 17.4912 25.154 17.8814 25.154 18.3496C25.154 18.8178 24.7638 19.2079 24.2956 19.2079C23.8274 19.2079 23.4373 18.8178 23.4373 18.3496C23.4373 17.8814 23.8274 17.4912 24.2956 17.4912ZM24.2956 20.7686C24.7638 20.7686 25.154 21.1588 25.154 21.627C25.154 22.0952 24.7638 22.4853 24.2956 22.4853C23.8274 22.4853 23.4373 22.0952 23.4373 21.627C23.4373 21.1588 23.8274 20.7686 24.2956 20.7686ZM24.2956 24.046C24.7638 24.046 25.154 24.4361 25.154 24.9043C25.154 25.3725 24.7638 25.7627 24.2956 25.7627C23.8274 25.7627 23.4373 25.2945 23.4373 24.8263C23.4373 24.3581 23.8274 24.046 24.2956 24.046ZM18.5992 24.124C18.9894 23.8899 19.5356 24.046 19.7697 24.4362C20.0038 24.8263 19.8477 25.3725 19.4576 25.6066C19.0674 25.8407 18.5212 25.6847 18.2871 25.2945C18.053 24.8263 18.209 24.3581 18.5992 24.124ZM17.0385 21.3148C17.4287 21.0807 17.9749 21.2368 18.209 21.627C18.4431 22.0171 18.2871 22.5634 17.8969 22.7975C17.5067 23.0316 16.9605 22.8755 16.7264 22.4853C16.4923 22.0171 16.6484 21.4709 17.0385 21.3148ZM15.4779 18.4276C15.868 18.1935 16.4143 18.3496 16.6484 18.7397C16.8825 19.1299 16.7264 19.6761 16.3362 19.9102C15.9461 20.1443 15.3998 19.9883 15.1657 19.5981C14.9316 19.1299 15.0877 18.6617 15.4779 18.4276ZM13.9172 15.6184C14.3074 15.3843 14.8536 15.5404 15.0877 15.9305C15.3218 16.3207 15.1657 16.8669 14.7756 17.101C14.3854 17.3351 13.8392 17.1791 13.6051 16.7889C13.371 16.3207 13.527 15.7745 13.9172 15.6184Z" fill="#438BE3"/>
</svg>
