<svg width="50" height="50" viewBox="0 0 50 50" fill="none" xmlns="http://www.w3.org/2000/svg">
<path d="M13.9996 29.6899L15.7755 27.4743C16.2375 28.157 16.5976 28.9034 16.8445 29.6899H13.9996ZM8.62026 37.4486C7.24844 37.4486 5.9328 36.9036 4.96277 35.9336C3.99275 34.9636 3.44779 33.6479 3.44779 32.2761C3.44779 30.9043 3.99275 29.5886 4.96277 28.6186C5.9328 27.6486 7.24844 27.1036 8.62026 27.1036C8.88013 27.1016 9.1397 27.1218 9.39613 27.164L11.741 24.2415C10.7467 23.8521 9.68806 23.6532 8.62026 23.6553C7.02695 23.6554 5.46484 24.0971 4.10735 24.9313C2.74987 25.7654 1.65011 26.9595 0.930194 28.3809C0.210274 29.8023 -0.101647 31.3954 0.0290608 32.9833C0.159769 34.5713 0.727991 36.0919 1.67064 37.3764C2.6133 38.661 3.8935 39.6591 5.36912 40.2601C6.84474 40.8611 8.45804 41.0414 10.0299 40.7809C11.6018 40.5205 13.0707 39.8295 14.2737 38.7848C15.4766 37.74 16.3665 36.3823 16.8445 34.8623H13.0944C12.6419 35.6488 11.99 36.302 11.2045 36.756C10.419 37.2101 9.52759 37.449 8.62026 37.4486ZM10.4134 31.414L18.7698 20.9686L22.0601 28.0261C22.5338 27.6878 23.0656 27.4395 23.629 27.2933L20.3187 20.207H33.5516L27.517 27.7502C28.0189 28.0366 28.4703 28.4036 28.8532 28.8364L35.1492 20.9645L40.598 32.6407C40.6459 32.7433 40.7135 32.8354 40.797 32.9119C40.8805 32.9883 40.9782 33.0476 41.0846 33.0863C41.191 33.125 41.304 33.1423 41.4171 33.1374C41.5302 33.1324 41.6412 33.1052 41.7438 33.0573C41.8464 33.0094 41.9385 32.9418 42.015 32.8583C42.0915 32.7748 42.1507 32.6771 42.1894 32.5707C42.2281 32.4643 42.2455 32.3513 42.2405 32.2382C42.2355 32.1251 42.2083 32.0141 42.1604 31.9115L34.2848 15.0345H39.224C40.0243 15.0345 40.7917 14.7167 41.3576 14.1508C41.9234 13.585 42.2413 12.8175 42.2413 12.0173C42.2413 11.217 41.9234 10.4496 41.3576 9.88374C40.7917 9.31789 40.0243 9 39.224 9H38.793C38.5644 9 38.3451 9.09083 38.1834 9.2525C38.0217 9.41417 37.9309 9.63344 37.9309 9.86208C37.9309 10.0907 38.0217 10.31 38.1834 10.4717C38.3451 10.6333 38.5644 10.7242 38.793 10.7242H39.224C39.567 10.7242 39.8959 10.8604 40.1384 11.1029C40.3809 11.3454 40.5171 11.6743 40.5171 12.0173C40.5171 12.3602 40.3809 12.6891 40.1384 12.9316C39.8959 13.1742 39.567 13.3104 39.224 13.3104H32.9309C32.7859 13.3104 32.6432 13.3469 32.5161 13.4167C32.389 13.4864 32.2815 13.5871 32.2036 13.7093C32.1258 13.8316 32.08 13.9716 32.0705 14.1163C32.0611 14.2609 32.0882 14.4057 32.1496 14.537L33.9912 18.4829H19.5127L18.3044 15.8966H20.6894C20.918 15.8966 21.1373 15.8058 21.2989 15.6441C21.4606 15.4825 21.5514 15.2632 21.5514 15.0345C21.5514 14.8059 21.4606 14.5866 21.2989 14.425C21.1373 14.2633 20.918 14.1725 20.6894 14.1725H13.7927C13.5641 14.1725 13.3448 14.2633 13.1831 14.425C13.0215 14.5866 12.9306 14.8059 12.9306 15.0345C12.9306 15.2632 13.0215 15.4825 13.1831 15.6441C13.3448 15.8058 13.5641 15.8966 13.7927 15.8966H16.4048L17.9581 19.2283L7.94784 31.7416C7.846 31.8669 7.78215 32.0187 7.76382 32.1791C7.74549 32.3395 7.77345 32.5018 7.84439 32.6468C7.91456 32.7933 8.02454 32.917 8.16174 33.0039C8.29895 33.0908 8.45785 33.1374 8.62026 33.1382H19.9049C19.8014 32.5681 19.8014 31.9841 19.9049 31.414H10.4134ZM41.3792 23.6553C41.0011 23.6581 40.6235 23.6856 40.249 23.7378L41.8303 27.1264C42.9654 27.2251 44.0362 27.6956 44.8766 28.4649C45.717 29.2343 46.28 30.2595 46.4784 31.3814C46.6767 32.5034 46.4992 33.6595 45.9735 34.6703C45.4477 35.6812 44.6031 36.4902 43.5706 36.9721C42.5381 37.4539 41.3755 37.5815 40.263 37.3352C39.1506 37.0888 38.1506 36.4822 37.4181 35.6095C36.6855 34.7368 36.2615 33.6468 36.2117 32.5085C36.1619 31.3702 36.4891 30.2473 37.1426 29.3139L35.5622 25.927C34.0839 27.286 33.1272 29.119 32.8574 31.1088C32.5876 33.0986 33.0217 35.1201 34.0847 36.8237C35.1477 38.5273 36.7726 39.8058 38.6785 40.4381C40.5844 41.0703 42.6513 41.0166 44.5218 40.2861C46.3922 39.5557 47.9486 38.1945 48.9216 36.4379C49.8946 34.6814 50.2231 32.6401 49.8503 30.667C49.4774 28.6938 48.4267 26.9131 46.8798 25.6327C45.333 24.3524 43.3872 23.6529 41.3792 23.6553ZM30.1722 38.3107H28.584L27.1291 34.983L25.7929 31.9313C25.7456 31.8279 25.7195 31.7161 25.7161 31.6025C25.7127 31.4889 25.7321 31.3757 25.773 31.2697C25.814 31.1637 25.8757 31.0669 25.9546 30.9851C26.0336 30.9033 26.128 30.8381 26.2325 30.7933C26.3366 30.7478 26.4487 30.7233 26.5623 30.7213C26.6759 30.7192 26.7888 30.7396 26.8946 30.7812C27.0003 30.8228 27.0967 30.885 27.1784 30.964C27.2601 31.043 27.3253 31.1373 27.3705 31.2416L28.2843 33.3278C28.391 32.9874 28.4462 32.6329 28.4481 32.2761C28.4481 31.5941 28.2458 30.9274 27.8669 30.3603C27.488 29.7933 26.9495 29.3513 26.3194 29.0903C25.6893 28.8293 24.9959 28.761 24.327 28.8941C23.6581 29.0271 23.0437 29.3555 22.5614 29.8378C22.0792 30.32 21.7507 30.9345 21.6177 31.6034C21.4846 32.2723 21.5529 32.9656 21.8139 33.5957C22.0749 34.2258 22.5169 34.7644 23.084 35.1433C23.651 35.5222 24.3177 35.7244 24.9997 35.7244C25.1816 35.7233 25.3631 35.7089 25.5429 35.6813L26.695 38.3107H25.2467C25.0181 38.3107 24.7988 38.4015 24.6371 38.5631C24.4755 38.7248 24.3846 38.9441 24.3846 39.1727C24.3846 39.4014 24.4755 39.6206 24.6371 39.7823C24.7988 39.944 25.0181 40.0348 25.2467 40.0348H30.1722C30.4008 40.0348 30.6201 39.944 30.7818 39.7823C30.9435 39.6206 31.0343 39.4014 31.0343 39.1727C31.0343 38.9441 30.9435 38.7248 30.7818 38.5631C30.6201 38.4015 30.4008 38.3107 30.1722 38.3107Z" fill="#438BE3"/>
</svg>
