<svg width="50" height="50" viewBox="0 0 50 50" fill="none" xmlns="http://www.w3.org/2000/svg">
<path fill-rule="evenodd" clip-rule="evenodd" d="M11.5 30.75H39.5V46.5C39.5 47.466 38.716 48.25 37.75 48.25H13.25C12.284 48.25 11.5 47.466 11.5 46.5V30.75ZM44.75 11.5H6.25C3.35025 11.5 1 13.8502 1 16.75V30.75C1 33.6497 3.35025 36 6.25 36H8V30.75C8 29.8225 8.36925 28.9317 9.0255 28.2755C9.68175 27.6192 10.5725 27.25 11.5 27.25C17.0143 27.25 33.9857 27.25 39.5 27.25C40.4275 27.25 41.3183 27.6192 41.9745 28.2755C42.6308 28.9317 43 29.8225 43 30.75V44.75V36H44.75C47.6497 36 50 33.6497 50 30.75V16.75C50 13.8502 47.6497 11.5 44.75 11.5ZM16.75 43H34.25C35.216 43 36 42.216 36 41.25C36 40.284 35.216 39.5 34.25 39.5H16.75C15.784 39.5 15 40.284 15 41.25C15 42.216 15.784 43 16.75 43ZM16.75 36H30.75C31.716 36 32.5 35.216 32.5 34.25C32.5 33.284 31.716 32.5 30.75 32.5H16.75C15.784 32.5 15 33.284 15 34.25C15 35.216 15.784 36 16.75 36ZM41.25 18.5C42.216 18.5 43 19.284 43 20.25C43 21.216 42.216 22 41.25 22C40.284 22 39.5 21.216 39.5 20.25C39.5 19.284 40.284 18.5 41.25 18.5ZM8 8H43V6.25C43 3.35025 40.6497 1 37.75 1C31.6897 1 19.3103 1 13.25 1C10.3503 1 8 3.35025 8 6.25V8Z" fill="#438BE3"/>
</svg>
