<svg width="50" height="50" viewBox="0 0 50 50" fill="none" xmlns="http://www.w3.org/2000/svg">
<path d="M18.2422 8.38672V38.5345H49.0053V8.38672H18.2422ZM31.1627 32.6895H24.3948V25.9217H28.0864V28.998H31.1627V32.6895ZM31.1627 17.9233H28.0864V20.9996H24.3948V14.2317H31.1627V17.9233ZM42.8526 32.6895H36.0848V28.998H39.1611V25.9217H42.8526V32.6895ZM42.8526 20.9996H39.1611V17.9233H36.0848V14.2317H42.8526V20.9996Z" fill="#438BE3"/>
<path d="M14.5358 34.2979V7.76788C14.5358 4.02704 11.5087 1 7.76788 1C4.02704 1 1 4.02704 1 7.76788V34.2979C2.82115 32.7229 5.1838 31.7631 7.76788 31.7631C10.3028 31.7631 12.69 32.6983 14.5358 34.2979Z" fill="#438BE3"/>
<path d="M7.76788 35.457C4.02704 35.457 1 38.4841 1 42.2249C1 45.9656 4.02704 48.9928 7.76788 48.9928H44.0683V42.2249H14.5358C14.5358 38.4841 11.5087 35.457 7.76788 35.457Z" fill="#438BE3"/>
</svg>
