<svg width="50" height="50" viewBox="0 0 50 50" fill="none" xmlns="http://www.w3.org/2000/svg">
<path d="M49.5965 21.6776C49.4547 21.4957 49.2795 21.4112 49.0464 21.4112L48.6023 21.4118C46.7027 21.4155 46.3438 21.4198 43.1428 20.1253C39.8778 18.8042 30.8597 17.2099 27.0815 17.5195C23.4069 17.826 19.5448 20.2406 19.1168 20.515C18.7849 20.7414 17.158 20.8413 16.2193 20.8808C16.1366 20.8752 16.0503 20.853 15.9874 20.7932C15.9245 20.7334 15.8899 20.6507 15.8899 20.565V19.8619C9.15503 20.4799 2.82718 22.1784 0.392253 22.8889C0.162822 22.9598 0 23.1788 0 23.4193V25.8191C0 26.0621 0.154187 26.2816 0.374984 26.352L5.7111 28.135C5.70986 28.0912 5.70986 28.0474 5.70986 28.0042C5.70986 25.4274 7.81175 23.3311 10.3959 23.3311C12.9727 23.3311 15.0697 25.4274 15.0697 28.0042C15.0697 28.0875 15.0672 28.1726 15.0623 28.2571H35.3237C35.3188 28.1726 35.3163 28.0875 35.3163 28.0042C35.3163 25.4274 37.4182 23.3311 40.0024 23.3311C42.5791 23.3311 44.6761 25.4274 44.6761 28.0042C44.6761 28.0634 44.6749 28.1233 44.6724 28.1837L49.5311 27.2407C49.8481 25.8579 50.3711 22.6663 49.5965 21.6776ZM40.8991 22.0119H21.474C21.3297 22.0119 21.2026 21.9138 21.1681 21.7732C21.1323 21.6332 21.1964 21.4864 21.3247 21.418C22.5743 20.7451 25.0055 19.5881 27.2369 19.4024C27.5132 19.379 27.824 19.3691 28.162 19.3691C31.7169 19.3691 37.6649 20.4157 40.9879 21.3933C41.1384 21.4377 41.2346 21.5857 41.2112 21.7411C41.189 21.8966 41.0558 22.0119 40.8991 22.0119Z" fill="#438BE3"/>
<path d="M10.3983 23.9629C8.16316 23.9629 6.34375 25.7761 6.34375 28.0044C6.34375 28.179 6.35485 28.3646 6.37828 28.5275C6.63979 30.543 8.36669 32.059 10.3983 32.059C12.4224 32.059 14.1444 30.543 14.4047 28.5324L14.4048 28.5298C14.4282 28.3638 14.4404 28.1788 14.4404 28.0044C14.4404 25.7761 12.6272 23.9629 10.3983 23.9629ZM10.394 29.5676C9.53404 29.5676 8.83688 28.8704 8.83688 28.0105C8.83688 27.1505 9.53404 26.4534 10.394 26.4534C11.254 26.4534 11.9512 27.1505 11.9512 28.0105C11.9512 28.8704 11.254 29.5676 10.394 29.5676Z" fill="#438BE3"/>
<path d="M39.9998 23.9629C37.7647 23.9629 35.9453 25.7761 35.9453 28.0044C35.9453 28.1796 35.9576 28.3659 35.9811 28.5293C36.2414 30.543 37.9683 32.059 39.9998 32.059C42.024 32.059 43.7472 30.543 44.0075 28.5324L44.0076 28.5305C44.031 28.3645 44.042 28.179 44.042 28.0044C44.042 25.7761 42.2288 23.9629 39.9998 23.9629ZM39.9957 29.5676C39.1357 29.5676 38.4385 28.8704 38.4385 28.0105C38.4385 27.1505 39.1357 26.4534 39.9957 26.4534C40.8556 26.4534 41.5527 27.1505 41.5527 28.0105C41.5527 28.8704 40.8556 29.5676 39.9957 29.5676Z" fill="#438BE3"/>
</svg>
