<svg width="50" height="50" viewBox="0 0 50 50" fill="none" xmlns="http://www.w3.org/2000/svg">
<path d="M47.0417 21H25.9583C25.4312 21 25 21.45 25 22V48C25 48.55 25.4312 49 25.9583 49H47.0417C47.5687 49 48 48.55 48 48V22C48 21.45 47.5687 21 47.0417 21ZM31.7083 43H29.7917C29.2646 43 28.8333 42.55 28.8333 42C28.8333 41.45 29.2646 41 29.7917 41H31.7083C32.2354 41 32.6667 41.45 32.6667 42C32.6667 42.55 32.2354 43 31.7083 43ZM31.7083 39H29.7917C29.2646 39 28.8333 38.55 28.8333 38C28.8333 37.45 29.2646 37 29.7917 37H31.7083C32.2354 37 32.6667 37.45 32.6667 38C32.6667 38.55 32.2354 39 31.7083 39ZM31.7083 35H29.7917C29.2646 35 28.8333 34.55 28.8333 34C28.8333 33.45 29.2646 33 29.7917 33H31.7083C32.2354 33 32.6667 33.45 32.6667 34C32.6667 34.55 32.2354 35 31.7083 35ZM37.4583 43H35.5417C35.0146 43 34.5833 42.55 34.5833 42C34.5833 41.45 35.0146 41 35.5417 41H37.4583C37.9854 41 38.4167 41.45 38.4167 42C38.4167 42.55 37.9854 43 37.4583 43ZM37.4583 39H35.5417C35.0146 39 34.5833 38.55 34.5833 38C34.5833 37.45 35.0146 37 35.5417 37H37.4583C37.9854 37 38.4167 37.45 38.4167 38C38.4167 38.55 37.9854 39 37.4583 39ZM37.4583 35H35.5417C35.0146 35 34.5833 34.55 34.5833 34C34.5833 33.45 35.0146 33 35.5417 33H37.4583C37.9854 33 38.4167 33.45 38.4167 34C38.4167 34.55 37.9854 35 37.4583 35ZM43.2083 43H41.2917C40.7646 43 40.3333 42.55 40.3333 42C40.3333 41.45 40.7646 41 41.2917 41H43.2083C43.7354 41 44.1667 41.45 44.1667 42C44.1667 42.55 43.7354 43 43.2083 43ZM43.2083 39H41.2917C40.7646 39 40.3333 38.55 40.3333 38C40.3333 37.45 40.7646 37 41.2917 37H43.2083C43.7354 37 44.1667 37.45 44.1667 38C44.1667 38.55 43.7354 39 43.2083 39ZM43.2083 35H41.2917C40.7646 35 40.3333 34.55 40.3333 34C40.3333 33.45 40.7646 33 41.2917 33H43.2083C43.7354 33 44.1667 33.45 44.1667 34C44.1667 34.55 43.7354 35 43.2083 35ZM44.1667 30C44.1667 30.55 43.7354 31 43.2083 31H29.7917C29.2646 31 28.8333 30.55 28.8333 30V26C28.8333 25.45 29.2646 25 29.7917 25H43.2083C43.7354 25 44.1667 25.45 44.1667 26V30Z" fill="#438BE3"/>
<path d="M39.375 6H30.75V9C30.75 10.65 29.4562 12 27.875 12H14.4583C12.8771 12 11.5833 10.65 11.5833 9V6H2.95833C2.43125 6 2 6.45 2 7V48C2 48.55 2.43125 49 2.95833 49H23.0833V22C23.0833 20.35 24.3771 19 25.9583 19H40.3333V7C40.3333 6.45 39.9021 6 39.375 6ZM21.1667 41H7.75C7.22292 41 6.79167 40.55 6.79167 40C6.79167 39.45 7.22292 39 7.75 39H21.1667C21.6937 39 22.125 39.45 22.125 40C22.125 40.55 21.6937 41 21.1667 41ZM21.1667 36H7.75C7.22292 36 6.79167 35.55 6.79167 35C6.79167 34.45 7.22292 34 7.75 34H21.1667C21.6937 34 22.125 34.45 22.125 35C22.125 35.55 21.6937 36 21.1667 36ZM21.1667 31H7.75C7.22292 31 6.79167 30.55 6.79167 30C6.79167 29.45 7.22292 29 7.75 29H21.1667C21.6937 29 22.125 29.45 22.125 30C22.125 30.55 21.6937 31 21.1667 31ZM21.1667 26H7.75C7.22292 26 6.79167 25.55 6.79167 25C6.79167 24.45 7.22292 24 7.75 24H21.1667C21.6937 24 22.125 24.45 22.125 25C22.125 25.55 21.6937 26 21.1667 26ZM21.1667 21H7.75C7.22292 21 6.79167 20.55 6.79167 20C6.79167 19.45 7.22292 19 7.75 19H21.1667C21.6937 19 22.125 19.45 22.125 20C22.125 20.55 21.6937 21 21.1667 21ZM26.9167 16H7.75C7.22292 16 6.79167 15.55 6.79167 15C6.79167 14.45 7.22292 14 7.75 14H26.9167C27.4437 14 27.875 14.45 27.875 15C27.875 15.55 27.4437 16 26.9167 16Z" fill="#438BE3"/>
<path d="M14.4583 10H27.875C28.4021 10 28.8333 9.55 28.8333 9V5C28.8333 4.45 28.4021 4 27.875 4H24.0417C24.0417 2.35 22.7479 1 21.1667 1C19.5758 1 18.2917 2.35 18.2917 4H14.4583C13.9217 4 13.5 4.45 13.5 5V9C13.5 9.55 13.9217 10 14.4583 10Z" fill="#438BE3"/>
</svg>
