<svg width="50" height="50" viewBox="0 0 50 50" fill="none" xmlns="http://www.w3.org/2000/svg">
<g clip-path="url(#clip0_3032_1706)">
<path d="M42.9029 33.404H26.221V20.4902H29.7929V18.0566H4.67188V45.4542H45.3758V18.0566H39.3703V20.4902H42.9422V33.404H42.9029ZM23.7874 43.0206H7.10547V30.1069H23.7874V43.0206ZM23.7874 27.634H7.10547V20.4902H23.7874V27.634ZM42.9029 43.0206H26.221V35.8376H42.9029V43.0206Z" fill="#438BE3"/>
<path d="M48.5136 13.6582H39.368V16.0918H47.2968V47.3753H2.70704V16.0918H29.7906V13.6582H1.49024C0.82296 13.6582 0.273438 14.2077 0.273438 14.875V48.5921C0.273438 49.2594 0.82296 49.8089 1.49024 49.8089H48.5136C49.1809 49.8089 49.7304 49.2594 49.7304 48.5921V14.875C49.7304 14.2077 49.1809 13.6582 48.5136 13.6582Z" fill="#438BE3"/>
<path d="M31.7188 23.4332V23.4724C31.7188 23.4724 31.7188 23.4724 31.7188 23.5117V23.551L33.4851 30.5377C33.6028 31.0088 34.0346 31.362 34.5056 31.362C35.0159 31.362 35.4084 31.048 35.5262 30.5377L37.2925 23.551V23.5117C37.2925 23.5117 37.2925 23.5117 37.2925 23.4724V23.4332V23.3939V0.74578C37.2925 0.353264 36.9785 0 36.5467 0H32.4645C32.072 0 31.7188 0.314013 31.7188 0.74578V23.4332C31.7188 23.3939 31.7188 23.3939 31.7188 23.4332ZM34.5841 28.7322L33.4066 24.1397H35.7224L34.5841 28.7322ZM33.2103 1.49156H35.9579V3.37564H33.2103V1.49156Z" fill="#438BE3"/>
</g>
<defs>
<clipPath id="clip0_3032_1706">
<rect width="50" height="50" fill="white"/>
</clipPath>
</defs>
</svg>
