<svg width="50" height="50" viewBox="0 0 50 50" fill="none" xmlns="http://www.w3.org/2000/svg">
<g clip-path="url(#clip0_3032_1711)">
<path d="M31.6303 4.63197C32.1887 4.63177 32.7346 4.79718 33.1989 5.10727C33.6632 5.41735 34.0252 5.85819 34.2389 6.374C34.4527 6.88982 34.5087 7.45745 34.3998 8.00509C34.2909 8.55272 34.0221 9.05577 33.6272 9.45058C33.2324 9.8454 32.7294 10.1143 32.1817 10.2231C31.6341 10.332 31.0665 10.276 30.5507 10.0623C30.0348 9.84851 29.594 9.48657 29.2839 9.02224C28.9738 8.5579 28.8084 8.01203 28.8086 7.45367C28.8104 6.70586 29.1083 5.9892 29.6371 5.46042C30.1659 4.93163 30.8825 4.63377 31.6303 4.63197ZM20.3718 4.63197C21.029 4.63164 21.6656 4.86102 22.1715 5.28044C22.6775 5.69986 23.0209 6.28292 23.1424 6.92877C23.2639 7.57463 23.1559 8.24264 22.837 8.81724C22.518 9.39185 22.0083 9.83691 21.3959 10.0754L17.5735 7.8682C17.5531 7.73325 17.5427 7.59698 17.5423 7.4605C17.5419 7.08872 17.6148 6.72052 17.7568 6.37694C17.8989 6.03337 18.1073 5.72116 18.3701 5.45819C18.6328 5.19521 18.9449 4.98662 19.2884 4.84435C19.6319 4.70208 20 4.62891 20.3718 4.62904V4.63197ZM7.35079 36.611C7.22062 36.6115 7.09173 36.5852 6.97211 36.5339C6.85248 36.4826 6.74468 36.4072 6.65536 36.3125C6.56565 36.2243 6.49463 36.1188 6.44654 36.0025C6.39844 35.8862 6.37426 35.7615 6.37543 35.6356C6.37543 35.3769 6.47819 35.1288 6.66111 34.9459C6.84402 34.763 7.09211 34.6603 7.35079 34.6603H10.3305L10.9157 36.611H7.35079ZM19.1789 49.3618C19.1598 49.6104 19.0456 49.8421 18.86 50.0086C18.6744 50.1751 18.4317 50.2636 18.1825 50.2557C17.9333 50.2478 17.6967 50.144 17.522 49.9661C17.3474 49.7881 17.2481 49.5497 17.2448 49.3004V49.2292L17.9997 37.9267L19.9612 37.7082L19.1789 49.3618ZM20.7775 20.2455C20.7912 20.2143 20.801 20.1811 20.8146 20.1479L22.1001 17.2345L24.045 18.3582L20.7775 20.2455ZM22.1343 15.0039C22.0157 14.9354 21.884 14.8926 21.7478 14.8784C21.6115 14.8642 21.4739 14.8788 21.3437 14.9213C21.2135 14.9638 21.0937 15.0332 20.9921 15.1251C20.8905 15.217 20.8095 15.3292 20.7541 15.4545L19.0297 19.3618C17.7541 22.2669 17.4463 25.5051 18.1519 28.5984L19.81 35.7624L12.9288 36.5271L10.8728 29.6733C10.5235 28.5016 10.5656 27.2481 10.9928 26.1025L12.5924 21.8392C12.9892 20.7803 13.2352 19.6709 13.3229 18.5435L13.9169 10.8986C13.931 10.7148 13.8926 10.5307 13.8063 10.3677C13.72 10.2047 13.5892 10.0696 13.4292 9.97789L1.46256 3.06847C0.93867 2.76587 0.521456 2.30832 0.268356 1.7588C0.0152561 1.20928 -0.0612847 0.594817 0.0492707 0L35.3006 20.3537C34.8401 20.7461 34.2695 20.9864 33.667 21.0416C33.0645 21.0968 32.4597 20.9641 31.9356 20.6619L22.1343 15.0039ZM37.2201 22.956V28.535C37.2205 29.1443 37.0279 29.7381 36.67 30.2312L33.3743 34.8553C33.2134 35.1023 32.9653 35.2795 32.6794 35.3516C32.3936 35.4236 32.0911 35.3851 31.8325 35.2438C31.5738 35.1025 31.3779 34.8688 31.284 34.5894C31.1901 34.31 31.2051 34.0054 31.326 33.7366V33.722L34.2004 27.2563L32.4184 26.4643L29.5216 32.9797L28.518 35.2416C28.4367 35.4254 28.4143 35.6297 28.4536 35.8268L30.9895 48.5357C31.0419 48.8125 30.9845 49.0988 30.8295 49.334C30.6745 49.5693 30.434 49.7349 30.159 49.796C29.884 49.8571 29.596 49.8088 29.356 49.6613C29.116 49.5138 28.9428 49.2787 28.873 49.0058L25.8982 37.0733C25.6845 36.2077 25.769 35.2953 26.1381 34.4837L31.2782 23.3647C31.3467 23.2175 31.3769 23.0555 31.366 22.8936L31.3426 22.5259C32.3893 23.0309 33.584 23.1379 34.7038 22.8271C35.8236 22.5163 36.7922 21.8088 37.4288 20.8365L37.2201 22.956ZM50.5337 3.07237L38.927 9.77307C38.7919 9.85002 38.6771 9.95815 38.5923 10.0885C38.5074 10.2188 38.455 10.3675 38.4393 10.5221L37.5615 19.5013C37.4833 19.3931 37.3837 19.3021 37.2689 19.234L27.9552 13.8569L30.9047 12.1529C31.9802 12.3495 33.0905 12.1573 34.0375 11.6108C34.9844 11.0642 35.7062 10.1989 36.0741 9.16932L51.9529 0.000975286C52.0608 0.596719 51.9824 1.21124 51.7285 1.76085C51.4745 2.31045 51.0573 2.76842 50.5337 3.07237Z" fill="#438BE3"/>
</g>
<defs>
<clipPath id="clip0_3032_1711">
<rect width="50" height="50" fill="white"/>
</clipPath>
</defs>
</svg>
