<svg width="50" height="50" viewBox="0 0 50 50" fill="none" xmlns="http://www.w3.org/2000/svg">
<g clip-path="url(#clip0_3032_1714)">
<path d="M43.8889 0H6.11111C2.72222 0 0 2.55556 0 5.72222V34.4444C0 37.6111 2.72222 40.1667 6.11111 40.1667H10.1111V48.6667C10.1111 49.1667 10.4444 49.6667 10.9444 49.8889C11.1667 50 11.3333 50 11.5556 50C11.8889 50 12.2222 49.8889 12.5 49.7222L25.1111 40.1667H43.8889C47.2778 40.1667 50 37.6111 50 34.4444V5.72222C50 2.55556 47.2778 0 43.8889 0ZM18 25H9.66667V14.0556H17.7222V16H11.9444V18.3333H17.2222V20.2222H11.8889V23.0556H17.9444V25H18ZM28.6111 25H26.3333L21.8889 17.2222V25H19.7778V14.0556H22.1667L26.5 21.6667V14.0556H28.6111V25ZM40.4444 25H38.8889L38.6667 23.6111C38.2222 24.1111 37.8333 24.5 37.5 24.7222C36.8889 25.1111 36.1667 25.2778 35.2778 25.2778C33.8333 25.2778 32.6111 24.7778 31.7222 23.7778C30.7778 22.7778 30.2778 21.3889 30.2778 19.6111C30.2778 17.8333 30.7778 16.3889 31.7222 15.3333C32.6667 14.2778 34 13.7222 35.6111 13.7222C37 13.7222 38.1111 14.0556 38.9444 14.7778C39.7778 15.5 40.2778 16.3889 40.3889 17.4444H38.1111C37.9444 16.7222 37.5 16.1667 36.8333 15.8889C36.4444 15.7222 36.0556 15.6667 35.5556 15.6667C34.6667 15.6667 33.9444 16 33.3889 16.6667C32.8333 17.3333 32.5556 18.3333 32.5556 19.6667C32.5556 21 32.8889 21.9444 33.5 22.5C34.1111 23.0556 34.8333 23.3333 35.6111 23.3333C36.3889 23.3333 37 23.1111 37.5 22.6667C38 22.2222 38.2778 21.6667 38.3889 20.9444H35.8333V19.1111H40.3889V25H40.4444Z" fill="#438BE3"/>
</g>
<defs>
<clipPath id="clip0_3032_1714">
<rect width="50" height="50" fill="white"/>
</clipPath>
</defs>
</svg>
