<svg width="50" height="50" viewBox="0 0 50 50" fill="none" xmlns="http://www.w3.org/2000/svg">
<path fill-rule="evenodd" clip-rule="evenodd" d="M18.0227 30.9663H32.0498C32.2464 30.6322 32.5086 30.4318 32.7052 30.0977H17.3672C17.6294 30.4318 17.7605 30.6322 18.0227 30.9663Z" fill="#438BE3"/>
<path fill-rule="evenodd" clip-rule="evenodd" d="M48.7642 26.354C48.6986 25.9531 48.7642 25.4853 48.5676 25.1512C47.8465 23.9485 44.4381 20.8079 43.7171 20.0728L43.9793 19.8056C44.307 19.9392 47.1255 19.8056 47.7154 19.8056C48.1743 19.8056 48.502 19.4715 48.502 19.0705V17.6005C48.502 17.1995 48.1743 16.8654 47.7154 16.8654H44.1759C43.7826 16.8654 43.4549 17.1995 43.4549 17.6005C43.4549 18.0014 43.3893 18.8701 43.4549 19.2042L43.3238 19.4046C42.2095 15.7963 40.9641 12.0543 38.2111 9.18103C31.4597 7.77779 18.4158 7.44369 11.7956 9.18103C9.56698 12.1212 7.79721 15.6627 6.814 19.5383L6.61736 19.271C6.6829 18.9369 6.61736 18.0014 6.61736 17.6005C6.61736 17.1995 6.28962 16.8654 5.83079 16.8654H2.29124C1.89796 16.8654 1.57022 17.1995 1.57022 17.6005V19.0705C1.57022 19.5383 1.89796 19.8724 2.29124 19.8724C2.88117 19.8724 5.76524 19.9392 6.09298 19.8056L6.42072 20.1397C5.43751 21.142 1.96351 24.2157 1.37358 25.1512C1.17694 25.4853 1.24249 25.9531 1.24249 26.354C-1.18276 27.4231 0.587016 35.7089 1.17694 37.2458C1.17694 37.9808 1.43913 38.6491 1.89796 39.05C2.35679 39.5177 3.01226 39.8518 3.73328 39.8518H46.3389C47.06 39.8518 47.6499 39.5177 48.1087 39.05C48.5676 38.5822 48.8953 37.9808 48.8953 37.2458V37.179C49.4852 35.308 51.1239 27.4231 48.7642 26.354ZM38.8666 35.8426H45.1591V38.1145H38.8666V35.8426ZM4.91313 35.8426H11.1401V38.1145H4.91313V35.8426ZM14.0897 35.3748H35.9825C36.9002 35.3748 37.6212 36.1099 37.6212 37.0453C37.6212 37.9808 36.9002 38.7159 35.9825 38.7159H14.0897C13.1721 38.7159 12.4511 37.9808 12.4511 37.0453C12.4511 36.1099 13.1721 35.3748 14.0897 35.3748ZM18.5469 34.4393C18.4158 32.702 18.0881 31.9001 16.9738 30.5637C15.8595 29.4278 15.4662 28.0913 15.2696 26.4876C21.7588 26.6213 28.2479 26.6213 34.7371 26.4876C34.5405 28.3586 34.2127 29.1605 33.0329 30.5637C31.9186 31.9001 31.6564 32.702 31.4597 34.4393C27.1992 34.4393 22.8731 34.4393 18.5469 34.4393ZM36.9657 30.2964C36.5724 29.0937 37.4901 27.2227 38.8666 26.5545C40.4397 26.2872 46.2079 26.0199 46.8633 26.0867C46.9944 26.8218 46.9289 29.5614 44.7658 30.096C43.4549 30.5637 39.4565 30.6305 36.9657 30.2964ZM13.1065 30.2964C13.4343 29.0268 12.5822 27.2227 11.1401 26.5545C9.63253 26.2204 3.86438 26.0199 3.2089 26.0199C3.07781 26.8218 3.14336 29.5614 5.30641 30.096C6.61736 30.5637 10.6157 30.6305 13.1065 30.2964ZM7.86275 19.6719C8.84596 16.1972 10.4846 12.7894 11.8611 11.1857C20.7755 11.1857 29.69 11.1857 38.6044 11.1857C40.112 13.1903 41.4885 16.7986 42.2095 19.8056C30.7387 19.7387 19.3335 19.7387 7.86275 19.6719Z" fill="#438BE3"/>
<path fill-rule="evenodd" clip-rule="evenodd" d="M31.1371 33.0352H18.9453C19.0109 33.3024 19.0764 33.5697 19.0764 33.9038C23.0748 33.9038 27.0076 33.9038 30.9404 33.9038C31.006 33.5697 31.0715 33.3024 31.1371 33.0352Z" fill="#438BE3"/>
<path fill-rule="evenodd" clip-rule="evenodd" d="M18.4141 31.5664C18.5452 31.8337 18.6763 32.101 18.7418 32.4351H31.2613C31.3924 32.101 31.5235 31.8337 31.6546 31.5664H18.4141Z" fill="#438BE3"/>
<path fill-rule="evenodd" clip-rule="evenodd" d="M33.6873 28.625H16.3828C16.5139 28.9591 16.7105 29.2264 16.9072 29.4937H33.1629C33.3595 29.2932 33.4906 28.9591 33.6873 28.625Z" fill="#438BE3"/>
<path fill-rule="evenodd" clip-rule="evenodd" d="M16.1263 28.0902H33.8896C33.9552 27.7561 34.0863 27.4888 34.0863 27.0879C27.9248 27.1547 22.1567 27.1547 15.9297 27.0879C15.9952 27.422 16.0608 27.7561 16.1263 28.0902Z" fill="#438BE3"/>
<path d="M7.07923 26.5547C7.53806 26.5547 7.93134 26.7552 8.25908 27.0893C8.58681 27.3565 8.71791 27.8243 8.71791 28.292C8.71791 28.7598 8.58681 29.2275 8.25908 29.4948C7.93134 29.8289 7.53806 30.0294 7.07923 30.0294C6.55485 30.0294 6.16157 29.8289 5.83383 29.4948C5.57164 29.2275 5.375 28.7598 5.375 28.292C5.375 27.8243 5.57164 27.3565 5.83383 27.0893C6.16157 26.7552 6.55485 26.5547 7.07923 26.5547ZM7.86579 27.4902C7.66915 27.2897 7.34142 27.1561 7.07923 27.1561C6.75149 27.1561 6.4893 27.2897 6.22711 27.4902C6.03047 27.6906 5.89938 27.9579 5.89938 28.292C5.89938 28.6261 6.03047 28.8934 6.22711 29.0939C6.4893 29.2943 6.75149 29.428 7.07923 29.428C7.34142 29.428 7.66915 29.2943 7.86579 29.0939C8.06243 28.8934 8.19353 28.6261 8.19353 28.292C8.19353 27.9579 8.06243 27.6906 7.86579 27.4902Z" fill="#438BE3"/>
<path d="M10.6217 27.0879C11.015 27.0879 11.4083 27.2884 11.6705 27.5556C11.9327 27.8229 12.0638 28.157 12.0638 28.558C12.0638 28.9589 11.9327 29.3598 11.6705 29.6271C11.4083 29.8944 11.015 30.028 10.6217 30.028C10.2284 30.028 9.90071 29.8944 9.63852 29.6271C9.37633 29.3598 9.17969 28.9589 9.17969 28.558C9.17969 28.157 9.37633 27.8229 9.63852 27.5556C9.90071 27.2884 10.2284 27.0879 10.6217 27.0879ZM11.2116 27.9566C11.0806 27.8229 10.8839 27.6893 10.6217 27.6893C10.4251 27.6893 10.1629 27.8229 10.0318 27.9566C9.90071 28.0902 9.76961 28.2907 9.76961 28.558C9.76961 28.8252 9.90071 29.0257 10.0318 29.1593C10.1629 29.3598 10.4251 29.4266 10.6217 29.4266C10.8839 29.4266 11.0806 29.3598 11.2116 29.1593C11.4083 29.0257 11.4738 28.8252 11.4738 28.558C11.4738 28.3575 11.4083 28.0902 11.2116 27.9566Z" fill="#438BE3"/>
<path d="M43.0011 27.1561C42.6734 27.1561 42.4112 27.2897 42.2145 27.4902C42.0179 27.6906 41.8868 27.9579 41.8868 28.292C41.8868 28.6261 42.0179 28.8934 42.2145 29.0939C42.4112 29.2943 42.6734 29.428 43.0011 29.428C43.3288 29.428 43.591 29.2943 43.7877 29.0939C43.9843 28.8934 44.1154 28.6261 44.1154 28.292C44.1154 27.9579 43.9843 27.6906 43.7877 27.4902C43.591 27.2897 43.3288 27.1561 43.0011 27.1561ZM41.8213 27.0893C42.0834 26.7552 42.5423 26.5547 43.0011 26.5547C43.4599 26.5547 43.9188 26.7552 44.181 27.0893C44.5087 27.4234 44.7053 27.8243 44.7053 28.292C44.7053 28.7598 44.5087 29.2275 44.181 29.4948C43.9188 29.8289 43.4599 30.0294 43.0011 30.0294C42.5423 30.0294 42.0834 29.8289 41.8213 29.4948C41.4935 29.2275 41.2969 28.7598 41.2969 28.292C41.2969 27.8243 41.4935 27.4234 41.8213 27.0893Z" fill="#438BE3"/>
<path d="M39.3952 27.6893C39.1985 27.6893 38.9363 27.8229 38.8052 27.9566C38.6741 28.0902 38.543 28.3575 38.543 28.558C38.543 28.8252 38.6741 29.0257 38.8052 29.1593C38.9363 29.3598 39.1985 29.4266 39.3952 29.4266C39.6574 29.4266 39.854 29.3598 40.0506 29.1593C40.1817 29.0257 40.2473 28.8252 40.2473 28.558C40.2473 28.3575 40.1817 28.0902 40.0506 27.9566C39.854 27.8229 39.6574 27.6893 39.3952 27.6893ZM38.412 27.5556C38.6741 27.2884 39.0019 27.0879 39.3952 27.0879C39.7884 27.0879 40.1817 27.2884 40.4439 27.5556C40.7061 27.8229 40.8372 28.157 40.8372 28.558C40.8372 28.9589 40.7061 29.3598 40.4439 29.6271C40.1817 29.8944 39.7884 30.028 39.3952 30.028C39.0019 30.028 38.6741 29.8944 38.412 29.6271C38.1498 29.3598 37.9531 28.9589 37.9531 28.558C37.9531 28.157 38.1498 27.8229 38.412 27.5556Z" fill="#438BE3"/>
<path fill-rule="evenodd" clip-rule="evenodd" d="M8.19246 40.3863V41.2549C8.19246 42.1236 7.47144 42.8586 6.61933 42.8586H2.03102C1.17891 42.8586 0.523438 42.1236 0.523438 41.2549V37.3125H0.588985C0.588985 37.7802 0.654532 38.1812 0.785626 38.5821C1.11336 39.3171 1.63774 39.8517 2.35876 40.1858C3.34197 40.5867 6.88151 40.3863 8.19246 40.3863Z" fill="#438BE3"/>
<path fill-rule="evenodd" clip-rule="evenodd" d="M41.875 40.3863V41.2549C41.875 42.1236 42.596 42.8586 43.3826 42.8586H48.0364C48.8885 42.8586 49.544 42.1236 49.544 41.2549V37.3125H49.4785C49.4785 37.7802 49.4129 38.1812 49.2163 38.5821C48.9541 39.3171 48.3642 39.8517 47.7087 40.1858C46.6599 40.5867 43.1204 40.3863 41.875 40.3863Z" fill="#438BE3"/>
</svg>
