<svg width="5" height="8" viewBox="0 0 5 8" fill="none" xmlns="http://www.w3.org/2000/svg">
<path d="M4.91433 3.81559L0.910664 0.0802145C0.853369 0.026813 0.787439 0 0.713022 0C0.638575 0 0.572674 0.026813 0.51541 0.0802145L0.0859117 0.481034C0.028557 0.534464 -1.83665e-09 0.595839 -1.83665e-09 0.665413C-1.83665e-09 0.734986 0.028557 0.796361 0.0859117 0.849791L3.46232 4.00008L0.0859117 7.15043C0.028557 7.20386 -1.83665e-09 7.26535 -1.83665e-09 7.33473C-1.83665e-09 7.40427 0.028557 7.46576 0.0859117 7.51919L0.51544 7.91987C0.572704 7.97336 0.638605 8 0.713052 8C0.787469 8 0.853369 7.9733 0.910664 7.91987L4.91412 4.18446C4.97135 4.13106 5 4.06955 5 4.00008C5 3.93062 4.97156 3.86914 4.91433 3.81559Z" fill="#666666"/>
</svg>
