<svg width="8" height="6" viewBox="0 0 8 6" fill="none" xmlns="http://www.w3.org/2000/svg">
<path d="M4.18441 5.28933L7.91979 1.28566C7.97319 1.22837 8 1.16244 8 1.08802C8 1.01358 7.97319 0.947674 7.91979 0.89041L7.51897 0.460912C7.46554 0.403557 7.40416 0.375 7.33459 0.375C7.26501 0.375 7.20364 0.403557 7.15021 0.460912L3.99992 3.83732L0.849566 0.460911C0.796137 0.403557 0.73465 0.375 0.665273 0.375C0.595727 0.375 0.534239 0.403557 0.48081 0.460911L0.0801306 0.89044C0.0266447 0.947704 -2.79143e-08 1.0136 -3.11685e-08 1.08805C-3.44213e-08 1.16247 0.0267009 1.22837 0.0801305 1.28566L3.81554 5.28912C3.86894 5.34635 3.93045 5.375 3.99992 5.375C4.06938 5.375 4.13086 5.34656 4.18441 5.28933Z" fill="#666666"/>
</svg>
