<svg width="18" height="20" viewBox="0 0 18 20" fill="none" xmlns="http://www.w3.org/2000/svg">
<path d="M9 0.515625C8.83615 0.522031 8.64164 0.580721 8.51194 0.681066L0.306055 7.03401C0.115679 7.18234 -0.000658956 7.42134 2.80824e-06 7.66268V18.2509C5.57494e-05 18.6667 0.37832 19.045 0.79412 19.045H6.35294C6.76874 19.045 7.14701 18.6667 7.14706 18.2509V14.0156C7.14706 12.9754 7.95973 12.1627 9 12.1627C10.0403 12.1627 10.8529 12.9754 10.8529 14.0156V18.2509C10.853 18.6667 11.2313 19.045 11.6471 19.045H17.2059C17.6217 19.045 17.9999 18.6667 18 18.2509V7.66268C18 7.42134 17.8843 7.18234 17.6939 7.03401L9.48806 0.681066C9.34094 0.567161 9.26471 0.530102 9 0.515625ZM9 2.31066L16.4118 8.0432V17.4568H12.4412V14.0156C12.4412 12.123 10.8927 10.5745 9 10.5745C7.10733 10.5745 5.55883 12.123 5.55883 14.0156V17.4568H1.58824V8.0432L9 2.31066Z" fill="#333333"/>
</svg>
