<svg width="18" height="20" viewBox="0 0 18 20" fill="none" xmlns="http://www.w3.org/2000/svg">
<path fill-rule="evenodd" clip-rule="evenodd" d="M0 1.81818C0 1.3663 0.372018 1 0.830954 1H1.77999C2.60022 1 3.29781 1.58925 3.42253 2.38755L3.58927 3.45455H15.5066C17.0377 3.45455 18.2069 4.80086 17.9692 6.29012L17.1858 11.1992C16.9952 12.3931 15.9505 13.2727 14.7231 13.2727H4.86765C4.04741 13.2727 3.34983 12.6835 3.2251 11.8852L1.77999 2.63636H0.830954C0.372018 2.63636 0 2.27006 0 1.81818ZM3.84495 5.09091L4.86765 11.6364H14.7231C15.1322 11.6364 15.4805 11.3431 15.544 10.9452L16.3275 6.03611C16.4067 5.53968 16.0169 5.09091 15.5066 5.09091H3.84495ZM5.81668 15.7273C5.35774 15.7273 4.98573 16.0936 4.98573 16.5455C4.98573 16.9973 5.35774 17.3636 5.81668 17.3636C6.27562 17.3636 6.64763 16.9973 6.64763 16.5455C6.64763 16.0936 6.27562 15.7273 5.81668 15.7273ZM3.32382 16.5455C3.32382 15.1898 4.43991 14.0909 5.81668 14.0909C7.19345 14.0909 8.30954 15.1898 8.30954 16.5455C8.30954 17.9011 7.19345 19 5.81668 19C4.43991 19 3.32382 17.9011 3.32382 16.5455ZM13.2953 16.5455C13.2953 16.0936 13.6673 15.7273 14.1262 15.7273C14.5852 15.7273 14.9572 16.0936 14.9572 16.5455C14.9572 16.9973 14.5852 17.3636 14.1262 17.3636C13.6673 17.3636 13.2953 16.9973 13.2953 16.5455ZM14.1262 14.0909C12.7495 14.0909 11.6334 15.1898 11.6334 16.5455C11.6334 17.9011 12.7495 19 14.1262 19C15.503 19 16.6191 17.9011 16.6191 16.5455C16.6191 15.1898 15.503 14.0909 14.1262 14.0909Z" fill="#333333"/>
</svg>
