<svg width="18" height="20" viewBox="0 0 18 20" fill="none" xmlns="http://www.w3.org/2000/svg">
<path d="M15.3752 17.6892V18.9998H18V17.6892L18.0002 17.6874L18 17.6856V16.375H15.3752V17.6856L15.375 17.6874L15.3752 17.6892Z" fill="#333333"/>
<path d="M8.99599 18.9998C9.72081 18.9998 10.3084 18.4122 10.3084 17.6874C10.3084 16.9626 9.72081 16.375 8.99599 16.375C8.27117 16.375 7.68359 16.9626 7.68359 17.6874C7.68359 18.4122 8.27117 18.9998 8.99599 18.9998Z" fill="#333333"/>
<path d="M1.3124 18.9998C2.03721 18.9998 2.6248 18.4122 2.6248 17.6874C2.6248 16.9626 2.03721 16.375 1.3124 16.375C0.58758 16.375 0 16.9626 0 17.6874C0 18.4122 0.58758 18.9998 1.3124 18.9998Z" fill="#333333"/>
<path d="M16.6874 11.3084C17.4122 11.3084 17.9998 10.7208 17.9998 9.99599C17.9998 9.27117 17.4122 8.68359 16.6874 8.68359C15.9626 8.68359 15.375 9.27117 15.375 9.99599C15.375 10.7208 15.9626 11.3084 16.6874 11.3084Z" fill="#333333"/>
<path d="M7.68378 9.99783V11.3084H10.3086V9.99783L10.3088 9.99599L10.3086 9.99415V8.68359H7.68378V9.99415L7.68359 9.99599L7.68378 9.99783Z" fill="#333333"/>
<path d="M1.3124 11.3084C2.03721 11.3084 2.6248 10.7208 2.6248 9.99599C2.6248 9.27117 2.03721 8.68359 1.3124 8.68359C0.58758 8.68359 0 9.27117 0 9.99599C0 10.7208 0.58758 11.3084 1.3124 11.3084Z" fill="#333333"/>
<path d="M16.6874 3.6248C17.4122 3.6248 17.9998 3.03721 17.9998 2.3124C17.9998 1.58758 17.4122 1 16.6874 1C15.9626 1 15.375 1.58758 15.375 2.3124C15.375 3.03721 15.9626 3.6248 16.6874 3.6248Z" fill="#333333"/>
<path d="M8.99599 3.6248C9.72081 3.6248 10.3084 3.03721 10.3084 2.3124C10.3084 1.58758 9.72081 1 8.99599 1C8.27117 1 7.68359 1.58758 7.68359 2.3124C7.68359 3.03721 8.27117 3.6248 8.99599 3.6248Z" fill="#333333"/>
<path d="M0.000187485 1V2.31056L0 2.3124L0.000187485 2.31424V3.6248H2.62498V2.31424L2.62517 2.3124L2.62498 2.31056V1H0.000187485Z" fill="#333333"/>
</svg>
