<svg width="18" height="20" viewBox="0 0 18 20" fill="none" xmlns="http://www.w3.org/2000/svg">
<path d="M2.99629 1C1.34666 1 0 2.3522 0 4.00183V6.25597C0 7.90559 1.34666 9.25779 2.99629 9.25779H5.25043C6.90008 9.25779 8.25225 7.90559 8.25225 6.25597V4.00183C8.25225 2.3522 6.90005 1 5.25043 1H2.99629ZM2.99629 2.50091H5.25043C6.09472 2.50091 6.75134 3.15756 6.75134 4.00183V6.25597C6.75134 7.10023 6.09472 7.75688 5.25043 7.75688H2.99629C2.15202 7.75688 1.4954 7.10023 1.4954 6.25597V4.00183C1.4954 3.15753 2.15199 2.50091 2.99629 2.50091Z" fill="#333333"/>
<path d="M12.7424 10.7461C11.0928 10.7461 9.74609 12.0983 9.74609 13.7479V16.0021C9.74609 17.6517 11.0928 19.0039 12.7424 19.0039H14.9965C16.6462 19.0039 17.9984 17.6517 17.9984 16.0021V13.7479C17.9984 12.0983 16.6462 10.7461 14.9965 10.7461H12.7424ZM12.7424 12.247H14.9965C15.8408 12.247 16.4975 12.9036 16.4975 13.7479V16.0021C16.4975 16.8464 15.8408 17.503 14.9965 17.503H12.7424C11.8982 17.503 11.247 16.8463 11.247 16.0021V13.7479C11.247 12.9036 11.8982 12.247 12.7424 12.247Z" fill="#333333"/>
<path d="M12.7424 1C11.0928 1 9.74609 2.3522 9.74609 4.00183V6.25597C9.74609 7.90559 11.0928 9.25779 12.7424 9.25779H14.9965C16.6462 9.25779 17.9984 7.90559 17.9984 6.25597V4.00183C17.9984 2.3522 16.6462 1 14.9965 1H12.7424ZM12.7424 2.50091H14.9965C15.8408 2.50091 16.4975 3.15753 16.4975 4.00183V6.25597C16.4975 7.10023 15.8408 7.75688 14.9965 7.75688H12.7424C11.8982 7.75688 11.247 7.10023 11.247 6.25597V4.00183C11.247 3.15756 11.8982 2.50091 12.7424 2.50091Z" fill="#333333"/>
<path d="M2.99629 10.7461C1.34666 10.7461 0 12.0983 0 13.7479V16.0021C0 17.6517 1.34666 19.0039 2.99629 19.0039H5.25043C6.90005 19.0039 8.25225 17.6517 8.25225 16.0021V13.7479C8.25225 12.0983 6.90008 10.7461 5.25043 10.7461H2.99629ZM2.99629 12.247H5.25043C6.09472 12.247 6.75134 12.9036 6.75134 13.7479V16.0021C6.75134 16.8463 6.09472 17.503 5.25043 17.503H2.99629C2.15199 17.503 1.4954 16.8464 1.4954 16.0021V13.7479C1.4954 12.9036 2.15202 12.247 2.99629 12.247Z" fill="#333333"/>
</svg>
