<svg width="18" height="20" viewBox="0 0 18 20" fill="none" xmlns="http://www.w3.org/2000/svg">
<path d="M1.61916 7.52336C1.16956 7.58899 0.758584 7.81418 0.461303 8.15779C0.164022 8.5014 0.000283545 8.9405 0 9.39486V9.60514C0.000283545 10.0595 0.164022 10.4986 0.461303 10.8422C0.758584 11.1858 1.16956 11.411 1.61916 11.4766L2.96495 11.6659C3.03505 11.8621 3.11215 12.0514 3.19626 12.2336L2.37617 13.3271C2.09978 13.6913 1.96456 14.1432 1.99548 14.5993C2.0264 15.0554 2.22139 15.4849 2.54439 15.8084L2.69159 15.9556C3.01511 16.2786 3.44461 16.4736 3.90073 16.5045C4.35685 16.5354 4.80874 16.4002 5.1729 16.1238L6.26635 15.3037L6.83411 15.535L7.02336 16.8808C7.08899 17.3304 7.31418 17.7414 7.65779 18.0387C8.0014 18.336 8.4405 18.4997 8.89486 18.5H9.10514C9.5595 18.4997 9.99859 18.336 10.3422 18.0387C10.6858 17.7414 10.911 17.3304 10.9766 16.8808L11.1659 15.535L11.7336 15.3037L12.8271 16.1238C13.1913 16.4002 13.6432 16.5354 14.0993 16.5045C14.5554 16.4736 14.9849 16.2786 15.3084 15.9556L15.4556 15.8084C15.7786 15.4849 15.9736 15.0554 16.0045 14.5993C16.0354 14.1432 15.9002 13.6913 15.6238 13.3271L14.8037 12.2336C14.8878 12.0514 14.965 11.8621 15.035 11.6659L16.3808 11.4766C16.8304 11.411 17.2414 11.1858 17.5387 10.8422C17.836 10.4986 17.9997 10.0595 18 9.60514V9.39486C17.9997 8.9405 17.836 8.5014 17.5387 8.15779C17.2414 7.81418 16.8304 7.58899 16.3808 7.52336L15.035 7.33411C14.965 7.13785 14.8878 6.9486 14.8037 6.76635L15.6238 5.6729C15.9002 5.30874 16.0354 4.85685 16.0045 4.40073C15.9736 3.94461 15.7786 3.51511 15.4556 3.19159L15.3084 3.04439C14.9849 2.72139 14.5554 2.5264 14.0993 2.49548C13.6432 2.46456 13.1913 2.59978 12.8271 2.87617L11.7336 3.69626L11.1659 3.46495L10.9766 2.11916C10.911 1.66956 10.6858 1.25858 10.3422 0.961303C9.99859 0.664022 9.5595 0.500284 9.10514 0.5H8.89486C8.4405 0.500284 8.0014 0.664022 7.65779 0.961303C7.31418 1.25858 7.08899 1.66956 7.02336 2.11916L6.83411 3.46495L6.26635 3.69626L5.1729 2.87617C4.80874 2.59978 4.35685 2.46456 3.90073 2.49548C3.44461 2.5264 3.01511 2.72139 2.69159 3.04439L2.54439 3.19159C2.22139 3.51511 2.0264 3.94461 1.99548 4.40073C1.96456 4.85685 2.09978 5.30874 2.37617 5.6729L3.19626 6.76635C3.11215 6.9486 3.03505 7.13785 2.96495 7.33411L1.61916 7.52336ZM4.43692 6.32477L3.38551 4.91589C3.2962 4.79424 3.25345 4.64461 3.26502 4.49415C3.2766 4.34368 3.34173 4.20235 3.4486 4.09579L3.59579 3.9486C3.70235 3.84173 3.84368 3.7766 3.99415 3.76502C4.14461 3.75345 4.29424 3.7962 4.41589 3.88551L5.82477 4.93692C5.92359 5.01113 6.04205 5.05468 6.16541 5.06216C6.28878 5.06963 6.41162 5.04071 6.51869 4.97897C6.85841 4.79188 7.21816 4.64374 7.59112 4.53738C7.70081 4.50001 7.79809 4.43314 7.87228 4.34411C7.94647 4.25508 7.9947 4.14734 8.01168 4.03271L8.26402 2.30841C8.28451 2.15607 8.35991 2.01645 8.47607 1.91578C8.59223 1.81511 8.74115 1.76031 8.89486 1.76168H9.10514C9.25885 1.76031 9.40777 1.81511 9.52393 1.91578C9.64009 2.01645 9.71549 2.15607 9.73598 2.30841L9.98832 4.03271C10.0033 4.15362 10.053 4.26761 10.1313 4.36089C10.2097 4.45418 10.3134 4.52278 10.4299 4.55841C10.8029 4.66477 11.1626 4.81291 11.5023 5C11.6094 5.06174 11.7322 5.09066 11.8556 5.08319C11.979 5.07571 12.0974 5.03216 12.1963 4.95794L13.6051 3.90654C13.7268 3.81723 13.8764 3.77448 14.0269 3.78605C14.1773 3.79763 14.3187 3.86276 14.4252 3.96963L14.5724 4.11682C14.6793 4.22337 14.7444 4.36471 14.756 4.51517C14.7676 4.66564 14.7248 4.81527 14.6355 4.93692L13.5841 6.34579C13.5099 6.44462 13.4663 6.56307 13.4589 6.68644C13.4514 6.80981 13.4803 6.93265 13.5421 7.03972C13.7293 7.37936 13.8775 7.73913 13.9836 8.11215C14.0224 8.21514 14.0874 8.30621 14.1723 8.3763C14.2571 8.44638 14.3588 8.49306 14.4673 8.51168L16.1916 8.76402C16.3439 8.78451 16.4835 8.85991 16.5842 8.97607C16.6849 9.09223 16.7397 9.24115 16.7383 9.39486V9.60514C16.7397 9.75885 16.6849 9.90777 16.5842 10.0239C16.4835 10.1401 16.3439 10.2155 16.1916 10.236L14.4673 10.4883C14.3464 10.5033 14.2324 10.553 14.1391 10.6313C14.0458 10.7097 13.9772 10.8134 13.9416 10.9299C13.8354 11.3029 13.6873 11.6627 13.5 12.0023C13.4383 12.1094 13.4093 12.2322 13.4168 12.3556C13.4243 12.479 13.4678 12.5974 13.5421 12.6963L14.5935 14.1051C14.6828 14.2268 14.7255 14.3764 14.7139 14.5269C14.7024 14.6773 14.6372 14.8187 14.5304 14.9252L14.3832 15.0724C14.2766 15.1793 14.1353 15.2444 13.9848 15.256C13.8344 15.2676 13.6847 15.2248 13.5631 15.1355L12.1542 14.0841C12.0554 14.0099 11.9369 13.9663 11.8136 13.9589C11.6902 13.9514 11.5673 13.9803 11.4603 14.0421C11.1206 14.2291 10.7608 14.3773 10.3878 14.4836C10.2849 14.5224 10.1938 14.5874 10.1237 14.6723C10.0536 14.7571 10.0069 14.8588 9.98832 14.9673L9.73598 16.6916C9.71549 16.8439 9.64009 16.9835 9.52393 17.0842C9.40777 17.1849 9.25885 17.2397 9.10514 17.2383H8.89486C8.74115 17.2397 8.59223 17.1849 8.47607 17.0842C8.35991 16.9835 8.28451 16.8439 8.26402 16.6916L8.01168 14.9673C7.9967 14.8464 7.94703 14.7324 7.86867 14.6391C7.7903 14.5458 7.6866 14.4772 7.57009 14.4416C7.19713 14.3352 6.83738 14.1871 6.49766 14C6.39059 13.9383 6.26775 13.9093 6.14438 13.9168C6.02102 13.9243 5.90257 13.9678 5.80374 14.0421L4.39486 15.0935C4.27322 15.1828 4.12359 15.2255 3.97312 15.2139C3.82265 15.2024 3.68132 15.1372 3.57477 15.0304L3.42757 14.8832C3.3207 14.7766 3.25557 14.6353 3.24399 14.4848C3.23242 14.3344 3.27517 14.1847 3.36449 14.0631L4.41589 12.6542C4.4901 12.5554 4.53365 12.4369 4.54113 12.3136C4.54861 12.1902 4.51968 12.0673 4.45794 11.9603C4.27069 11.6206 4.12255 11.2609 4.01635 10.8878C3.97759 10.7849 3.91256 10.6938 3.82772 10.6237C3.74287 10.5536 3.64117 10.5069 3.53271 10.4883L1.80841 10.236C1.65607 10.2155 1.51645 10.1401 1.41578 10.0239C1.31511 9.90777 1.26031 9.75885 1.26168 9.60514V9.39486C1.26031 9.24115 1.31511 9.09223 1.41578 8.97607C1.51645 8.85991 1.65607 8.78451 1.80841 8.76402L3.53271 8.51168C3.65362 8.4967 3.76761 8.44703 3.86089 8.36867C3.95418 8.2903 4.02278 8.1866 4.05841 8.07009C4.1646 7.69708 4.31274 7.3373 4.5 6.99766C4.55439 6.89107 4.57734 6.7712 4.56617 6.65205C4.555 6.53291 4.51017 6.41939 4.43692 6.32477Z" fill="#333333"/>
<path d="M8.99755 13.0303C9.69626 13.0303 10.3793 12.8231 10.9602 12.4349C11.5412 12.0467 11.994 11.495 12.2614 10.8495C12.5287 10.2039 12.5987 9.49364 12.4624 8.80836C12.3261 8.12308 11.9896 7.49361 11.4956 6.99955C11.0015 6.50549 10.372 6.16904 9.68675 6.03273C9.00147 5.89641 8.29116 5.96637 7.64564 6.23376C7.00013 6.50114 6.44839 6.95394 6.06021 7.53489C5.67203 8.11584 5.46484 8.79885 5.46484 9.49756C5.46484 10.4345 5.83704 11.333 6.49955 11.9956C7.16206 12.6581 8.06062 13.0303 8.99755 13.0303ZM8.99755 7.22653C9.44672 7.22653 9.8858 7.35972 10.2593 7.60926C10.6327 7.85881 10.9238 8.21349 11.0957 8.62847C11.2676 9.04345 11.3126 9.50007 11.2249 9.94061C11.1373 10.3811 10.921 10.7858 10.6034 11.1034C10.2858 11.421 9.88115 11.6373 9.44061 11.7249C9.00007 11.8126 8.54345 11.7676 8.12847 11.5957C7.71349 11.4238 7.35881 11.1327 7.10926 10.7593C6.85972 10.3858 6.72653 9.94672 6.72653 9.49756C6.72653 8.89524 6.96579 8.3176 7.39169 7.8917C7.81759 7.4658 8.39524 7.22653 8.99755 7.22653Z" fill="#333333"/>
</svg>
