<svg width="18" height="20" viewBox="0 0 18 20" fill="none" xmlns="http://www.w3.org/2000/svg">
<path d="M7.39092 18.7197L7.39082 18.7197C5.24193 18.3245 3.31437 17.1505 1.97734 15.4224C0.640315 13.6943 -0.0121826 11.5337 0.144831 9.35445C0.301845 7.17518 1.25733 5.13044 2.82827 3.61188C4.39921 2.09333 6.47515 1.20772 8.65848 1.12467C8.65849 1.12467 8.65851 1.12467 8.65852 1.12467L8.66042 1.17463L7.39092 18.7197ZM7.39092 18.7197C7.50406 18.7403 7.61881 18.7507 7.7338 18.7508M7.39092 18.7197L7.7338 18.7508M8.92407 18.3211L8.9231 18.322L8.92309 18.322C8.58921 18.5999 8.16825 18.7517 7.7338 18.7508M8.92407 18.3211L7.7338 18.7508M8.92407 18.3211C9.17374 18.1021 9.37145 17.8302 9.50282 17.5252C9.63407 17.2205 9.69582 16.8904 9.68357 16.5588L9.68357 14.9141L9.68357 14.9135M8.92407 18.3211L9.68357 14.9135M9.68357 14.9135C9.6826 14.8269 9.70191 14.7413 9.73996 14.6635C9.77802 14.5857 9.83375 14.5178 9.9027 14.4654C9.97881 14.4078 10.0672 14.3684 10.1609 14.3504C10.2547 14.3324 10.3514 14.3362 10.4434 14.3616L10.4439 14.3617M9.68357 14.9135L10.4439 14.3617M10.4439 14.3617C12.7678 14.9786 14.8196 14.7364 16.212 13.6661L16.2127 13.6655M10.4439 14.3617L16.2127 13.6655M16.2127 13.6655C16.761 13.2279 17.1978 12.6666 17.4871 12.0276M16.2127 13.6655L17.4871 12.0276M8.32288 16.5597H8.32301L8.32302 14.9143L8.32301 14.9141M8.32288 16.5597L8.37301 14.9141H8.32301M8.32288 16.5597L8.32315 16.5635C8.33303 16.6955 8.31381 16.8282 8.26686 16.952C8.22011 17.0753 8.14702 17.1869 8.05269 17.2789C7.99627 17.326 7.92999 17.3599 7.85875 17.3779C7.78692 17.3962 7.71191 17.3979 7.63931 17.383L7.63858 17.3829C5.86536 17.0473 4.27093 16.0879 3.14406 14.6782C2.01729 13.2687 1.4325 11.5023 1.49558 9.69883C1.59594 7.81788 2.3883 6.04047 3.72023 4.70854C5.05227 3.3765 6.82986 2.58412 8.71098 2.48386L8.71118 2.48385C8.80847 2.47827 8.90726 2.47826 9.00329 2.47826C10.996 2.47826 12.907 3.26984 14.316 4.67886C15.7251 6.08789 16.5166 7.99893 16.5166 9.9916H16.5165L16.5167 9.99482C16.5485 10.4864 16.4619 10.9785 16.2644 11.4298C16.0669 11.8809 15.7642 12.2781 15.3816 12.5882C14.3572 13.3755 12.6887 13.549 10.7917 13.0468C10.4984 12.9673 10.1907 12.9566 9.89262 13.0156C9.59447 13.0746 9.31398 13.2017 9.07303 13.387C8.83878 13.5665 8.6492 13.7978 8.5191 14.0627C8.38901 14.3276 8.3219 14.619 8.32301 14.9141M8.32288 16.5597L8.32301 14.9141M17.4871 12.0276C17.7762 11.3889 17.9099 10.6907 17.8772 9.99043L17.4871 12.0276ZM9.00458 5.62906C9.55433 5.62906 9.99999 5.18339 9.99999 4.63364C9.99999 4.08388 9.55433 3.63822 9.00458 3.63822C8.45482 3.63822 8.00916 4.08388 8.00916 4.63364C8.00916 5.18339 8.45482 5.62906 9.00458 5.62906ZM3.64214 10.9869C4.1919 10.9869 4.63756 10.5412 4.63756 9.99147C4.63756 9.44172 4.1919 8.99605 3.64214 8.99605C3.09239 8.99605 2.64673 9.44172 2.64673 9.99147C2.64673 10.5412 3.09239 10.9869 3.64214 10.9869ZM12.7942 7.20191C13.3439 7.20191 13.7896 6.75625 13.7896 6.2065C13.7896 5.65674 13.3439 5.21108 12.7942 5.21108C12.2444 5.21108 11.7987 5.65674 11.7987 6.2065C11.7987 6.75625 12.2444 7.20191 12.7942 7.20191ZM5.215 7.20191C5.76475 7.20191 6.21042 6.75625 6.21042 6.2065C6.21042 5.65674 5.76475 5.21108 5.215 5.21108C4.66525 5.21108 4.21958 5.65674 4.21958 6.2065C4.21958 6.75625 4.66525 7.20191 5.215 7.20191Z" fill="#333333" stroke="#333333" stroke-width="0.1"/>
</svg>
